%TF.GenerationSoftware,KiCad,Pcbnew,8.0.5*%
%TF.CreationDate,2025-04-03T18:32:10+07:00*%
%TF.ProjectId,ZenFly F71,5a656e46-6c79-4204-9637-312e6b696361,rev?*%
%TF.SameCoordinates,Original*%
%TF.FileFunction,Copper,L2,Inr*%
%TF.FilePolarity,Positive*%
%FSLAX46Y46*%
G04 Gerber Fmt 4.6, Leading zero omitted, Abs format (unit mm)*
G04 Created by KiCad (PCBNEW 8.0.5) date 2025-04-03 18:32:10*
%MOMM*%
%LPD*%
G01*
G04 APERTURE LIST*
%TA.AperFunction,ViaPad*%
%ADD10C,0.420000*%
%TD*%
%TA.AperFunction,ViaPad*%
%ADD11C,0.500000*%
%TD*%
%TA.AperFunction,ViaPad*%
%ADD12C,0.600000*%
%TD*%
%TA.AperFunction,ViaPad*%
%ADD13C,0.700000*%
%TD*%
%TA.AperFunction,ViaPad*%
%ADD14C,0.800000*%
%TD*%
%TA.AperFunction,Conductor*%
%ADD15C,0.200000*%
%TD*%
%TA.AperFunction,Conductor*%
%ADD16C,0.300000*%
%TD*%
%TA.AperFunction,Conductor*%
%ADD17C,0.400000*%
%TD*%
%TA.AperFunction,Conductor*%
%ADD18C,0.600000*%
%TD*%
%TA.AperFunction,Conductor*%
%ADD19C,0.700000*%
%TD*%
%TA.AperFunction,Conductor*%
%ADD20C,1.200000*%
%TD*%
%TA.AperFunction,Conductor*%
%ADD21C,0.900000*%
%TD*%
%TA.AperFunction,Conductor*%
%ADD22C,0.500000*%
%TD*%
%TA.AperFunction,Conductor*%
%ADD23C,1.000000*%
%TD*%
%TA.AperFunction,Conductor*%
%ADD24C,1.600000*%
%TD*%
%TA.AperFunction,Conductor*%
%ADD25C,1.300000*%
%TD*%
%TA.AperFunction,Conductor*%
%ADD26C,0.150000*%
%TD*%
%TA.AperFunction,Conductor*%
%ADD27C,0.250000*%
%TD*%
G04 APERTURE END LIST*
D10*
%TO.N,GND*%
X116682649Y-49928000D03*
X109487649Y-59223000D03*
X103363750Y-72090000D03*
X95462649Y-70298000D03*
X109162649Y-81023000D03*
X113062649Y-60988000D03*
X93432649Y-53753000D03*
X94712649Y-80419250D03*
X116307649Y-77455500D03*
X105712649Y-73423000D03*
X94207649Y-66253000D03*
X118487649Y-64048000D03*
X105244316Y-88153000D03*
X128762649Y-74802151D03*
X105487649Y-70098000D03*
X131700000Y-64475000D03*
X98965149Y-73603000D03*
X110137649Y-68998000D03*
X125862649Y-62523000D03*
X109047649Y-88153000D03*
X104462649Y-85723000D03*
X112847649Y-88153000D03*
X123282649Y-53378000D03*
X97978899Y-77583000D03*
X99757649Y-69099250D03*
X113237649Y-79753000D03*
X110307649Y-65173000D03*
X94725000Y-77694250D03*
X96913899Y-62968000D03*
X111132649Y-59473000D03*
X109162649Y-79673000D03*
X115696399Y-80548000D03*
X124362649Y-56697999D03*
X118237649Y-65928000D03*
X130007649Y-70428000D03*
X124282649Y-49928000D03*
X96763899Y-67245500D03*
X102487649Y-62408000D03*
X105212649Y-65318000D03*
%TO.N,+3.3V*%
X103344316Y-88153000D03*
X110807649Y-73473000D03*
X106425647Y-63148000D03*
X102420149Y-84753000D03*
X113775000Y-57950000D03*
X111262649Y-62098000D03*
X107887649Y-65248000D03*
X112062649Y-79753000D03*
X114768899Y-79838000D03*
X109807649Y-64498000D03*
X106387649Y-71948000D03*
X109057649Y-77253000D03*
X119227649Y-64798000D03*
X96482649Y-70458000D03*
D11*
X132832649Y-77088000D03*
D12*
X105612649Y-74823000D03*
D10*
X119462649Y-81523000D03*
X103707649Y-59768000D03*
%TO.N,+3.3Vrx*%
X99037649Y-63298000D03*
X101312649Y-75898000D03*
X101837649Y-57473000D03*
X96482649Y-69458000D03*
X99757649Y-70026750D03*
X97837649Y-68198000D03*
X101987649Y-71148000D03*
X99462649Y-76048000D03*
%TO.N,Net-(U9-XTAL_OUT)*%
X97978899Y-78683000D03*
X97028899Y-77078899D03*
%TO.N,+5V*%
X94662801Y-50783152D03*
X117582649Y-53378000D03*
D11*
X117282649Y-57773000D03*
D10*
X131102497Y-87222848D03*
X94662801Y-87222848D03*
X107147649Y-88153000D03*
X131102497Y-50783152D03*
X110947649Y-87953000D03*
X114782649Y-49928000D03*
D13*
X121727649Y-64993000D03*
D10*
%TO.N,/V_DCC*%
X96763899Y-66318000D03*
X102948899Y-63259250D03*
D14*
%TO.N,+BATT*%
X124257649Y-60703000D03*
D10*
X103080149Y-69903000D03*
X123100140Y-59876000D03*
D14*
X113637649Y-56098000D03*
D10*
%TO.N,ADC_VBAT*%
X109097649Y-69928000D03*
X104007649Y-69631001D03*
%TO.N,+9V*%
X115382649Y-82098000D03*
X122487649Y-55348000D03*
X109192232Y-84803000D03*
%TO.N,+5VBAT*%
X129633899Y-58718000D03*
X123802649Y-64043000D03*
%TO.N,FRONTEND_IN*%
X102617649Y-59431650D03*
%TO.N,RADIO_OUT*%
X107550000Y-64383000D03*
X101137649Y-68498000D03*
%TO.N,DJI_UART2_RX*%
X112382649Y-82098000D03*
%TO.N,DJI_SBUS_RX*%
X110387649Y-82098000D03*
X119432649Y-82503000D03*
%TO.N,DJI_UART2_TX*%
X113382649Y-82098000D03*
%TO.N,MOTOR_4*%
X113000000Y-66329351D03*
X106025649Y-53378000D03*
X111720329Y-57140320D03*
%TO.N,ADC_CURR*%
X111924649Y-66080500D03*
D12*
X104125649Y-53378000D03*
D10*
X113030019Y-62123000D03*
%TO.N,MOTOR_3*%
X107925649Y-53378000D03*
X117150000Y-61625000D03*
X112124798Y-57544789D03*
%TO.N,ESC_UART8_RX*%
X102225649Y-53378000D03*
%TO.N,MOTOR_2*%
X110687256Y-54987744D03*
X117728821Y-61625000D03*
%TO.N,MOTOR_1*%
X118307649Y-61625000D03*
X111725649Y-55000000D03*
%TO.N,RST*%
X98190149Y-65898000D03*
X98215149Y-69518000D03*
%TO.N,CS*%
X100505969Y-68976320D03*
%TO.N,PWR_TXEN*%
X102537649Y-61721000D03*
X93075000Y-67450000D03*
%TO.N,SWCLK*%
X117307649Y-62325000D03*
X119482649Y-53378000D03*
%TO.N,SPI2_MISO_FLASH*%
X116862649Y-70848000D03*
%TO.N,SPI2_MOSI_FLASH*%
X116862649Y-70325997D03*
%TO.N,GPS_UART1_RX*%
X115507649Y-62287820D03*
X109175000Y-72428000D03*
%TO.N,SWDIO*%
X121382649Y-53378000D03*
X120825000Y-66425000D03*
%TO.N,CS_FLASH*%
X116616799Y-72470160D03*
%TO.N,LED_STRIP*%
X128132649Y-88453000D03*
X128132649Y-49553000D03*
X97632649Y-49553000D03*
%TO.N,IMU_SP1_SCK*%
X112517649Y-77723000D03*
X111807649Y-75933000D03*
%TO.N,RADIO_UART5_RX*%
X123750000Y-85800000D03*
X97055820Y-78919180D03*
%TO.N,RADIO_UART5_TX*%
X123060085Y-85828000D03*
X96400000Y-78750000D03*
%TO.N,GPS_UART1_TX*%
X109612649Y-71928000D03*
X116207649Y-62247996D03*
%TO.N,SPI2_SCK_FLASH*%
X116600000Y-71940000D03*
%TO.N,IMU_CS*%
X111307649Y-76475000D03*
X113420149Y-77723000D03*
%TO.N,BUSY*%
X99037649Y-62458000D03*
X95697649Y-74228000D03*
%TO.N,SCK*%
X101097649Y-69625000D03*
%TO.N,MISO*%
X100597649Y-70048000D03*
%TO.N,DIO*%
X96387649Y-71228000D03*
%TO.N,MOSI*%
X101975345Y-69108345D03*
%TO.N,ANT_TRACE*%
X102200000Y-80925000D03*
X102200000Y-74850000D03*
%TO.N,Net-(J21-CLK)*%
X115782649Y-67100000D03*
X132812000Y-75673426D03*
%TO.N,SPI3_SCK_SD*%
X114300000Y-67100000D03*
%TO.N,SPI3_MOSI_SD*%
X113382649Y-65818000D03*
X132837000Y-62803000D03*
%TO.N,SPI3_MISO_SD*%
X132837000Y-63425000D03*
X114240649Y-69328000D03*
%TO.N,SD_CS*%
X131857649Y-79078000D03*
X116525000Y-65200000D03*
%TO.N,STATE_LED3*%
X94387649Y-72673000D03*
X95670936Y-76804064D03*
%TD*%
D15*
%TO.N,GND*%
X113237649Y-78973000D02*
X114755149Y-77455500D01*
X94712649Y-80419250D02*
X94712649Y-77694250D01*
X114944399Y-81300000D02*
X109439649Y-81300000D01*
X95462649Y-68937351D02*
X96763899Y-67636101D01*
D16*
X118237649Y-64298000D02*
X118237649Y-65928000D01*
X109487649Y-59223000D02*
X110882649Y-59223000D01*
D17*
X96913899Y-57234250D02*
X96913899Y-62968000D01*
D16*
X112647649Y-60988000D02*
X111132649Y-59473000D01*
D17*
X93432649Y-53753000D02*
X96913899Y-57234250D01*
D16*
X113062649Y-60988000D02*
X112647649Y-60988000D01*
X130007649Y-73557151D02*
X128762649Y-74802151D01*
D15*
X95168399Y-78150000D02*
X97411899Y-78150000D01*
D16*
X110882649Y-59223000D02*
X111132649Y-59473000D01*
D15*
X109162649Y-79673000D02*
X109162649Y-81023000D01*
X96763899Y-67636101D02*
X96763899Y-67245500D01*
X114755149Y-77455500D02*
X116307649Y-77455500D01*
D16*
X123282649Y-53378000D02*
X123282649Y-55617999D01*
X104462649Y-85723000D02*
X105244316Y-86504667D01*
D15*
X115696399Y-80548000D02*
X114944399Y-81300000D01*
X109439649Y-81300000D02*
X109162649Y-81023000D01*
D16*
X130007649Y-70428000D02*
X130007649Y-73557151D01*
D15*
X113237649Y-79753000D02*
X113237649Y-78973000D01*
X95462649Y-70298000D02*
X95462649Y-68937351D01*
D16*
X118487649Y-64048000D02*
X118237649Y-64298000D01*
X123282649Y-55617999D02*
X124362649Y-56697999D01*
X105244316Y-86504667D02*
X105244316Y-88153000D01*
D15*
X97411899Y-78150000D02*
X97978899Y-77583000D01*
X94712649Y-77694250D02*
X95168399Y-78150000D01*
D18*
%TO.N,+3.3V*%
X111262649Y-63043000D02*
X111262649Y-62098000D01*
D19*
X106387649Y-71423000D02*
X106987649Y-70823000D01*
X106987649Y-70823000D02*
X109512649Y-70823000D01*
X110532649Y-73198000D02*
X107637649Y-73198000D01*
X100389649Y-73050000D02*
X97797649Y-70458000D01*
X117777649Y-79838000D02*
X114768899Y-79838000D01*
X107237649Y-73198000D02*
X107637649Y-73198000D01*
D18*
X117062649Y-58848000D02*
X119227649Y-61013000D01*
D19*
X111262649Y-69073000D02*
X111262649Y-62098000D01*
X109057649Y-77253000D02*
X109057649Y-76353000D01*
D18*
X114673000Y-58848000D02*
X117062649Y-58848000D01*
D16*
X112032649Y-79753000D02*
X111362649Y-80423000D01*
D19*
X109057649Y-77253000D02*
X109057649Y-78268000D01*
X106387649Y-71948000D02*
X106387649Y-71423000D01*
X103775000Y-76660649D02*
X103775000Y-83398149D01*
X114033899Y-80573000D02*
X114768899Y-79838000D01*
D18*
X107887649Y-65248000D02*
X109057649Y-65248000D01*
X106425647Y-64710998D02*
X106962649Y-65248000D01*
D19*
X119462649Y-81523000D02*
X117777649Y-79838000D01*
X109057649Y-78268000D02*
X111362649Y-80573000D01*
X102420149Y-85880500D02*
X103344316Y-86804667D01*
X103775000Y-83398149D02*
X102420149Y-84753000D01*
D16*
X111362649Y-80423000D02*
X111362649Y-80573000D01*
D19*
X109057649Y-76353000D02*
X110807649Y-74603000D01*
X102420149Y-84753000D02*
X102420149Y-85880500D01*
X105612649Y-74823000D02*
X107237649Y-73198000D01*
X111362649Y-80573000D02*
X114033899Y-80573000D01*
X107637649Y-73198000D02*
X106387649Y-71948000D01*
X103044824Y-73050000D02*
X100389649Y-73050000D01*
D18*
X119227649Y-61013000D02*
X119227649Y-64798000D01*
X113775000Y-57950000D02*
X114673000Y-58848000D01*
D19*
X109512649Y-70823000D02*
X111262649Y-69073000D01*
X105612649Y-74823000D02*
X103775000Y-76660649D01*
X104817824Y-74823000D02*
X103044824Y-73050000D01*
D18*
X109807649Y-64498000D02*
X111262649Y-63043000D01*
D19*
X97797649Y-70458000D02*
X96482649Y-70458000D01*
X105612649Y-74823000D02*
X104817824Y-74823000D01*
D18*
X109057649Y-65248000D02*
X109807649Y-64498000D01*
D19*
X110807649Y-73473000D02*
X110532649Y-73198000D01*
D18*
X106425647Y-63148000D02*
X106425647Y-64710998D01*
X106962649Y-65248000D02*
X107887649Y-65248000D01*
D16*
X112062649Y-79753000D02*
X112032649Y-79753000D01*
D19*
X103344316Y-86804667D02*
X103344316Y-88153000D01*
X110807649Y-74603000D02*
X110807649Y-73473000D01*
D18*
%TO.N,+3.3Vrx*%
X101987649Y-71148000D02*
X100337649Y-71148000D01*
X100337649Y-71148000D02*
X99757649Y-70568000D01*
D19*
X101162649Y-76048000D02*
X101312649Y-75898000D01*
D18*
X99757649Y-70568000D02*
X99757649Y-70026750D01*
D19*
X99462649Y-76048000D02*
X101162649Y-76048000D01*
D20*
%TO.N,+5V*%
X124373000Y-83823000D02*
X127325000Y-86775000D01*
D21*
X117582649Y-53378000D02*
X117922000Y-53378000D01*
X130660649Y-51225000D02*
X131102497Y-50783152D01*
D20*
X122432649Y-65698000D02*
X129837649Y-65698000D01*
X130945649Y-87066000D02*
X131102497Y-87222848D01*
X121727649Y-60613000D02*
X118897649Y-57783000D01*
X132212649Y-68073000D02*
X132212649Y-74248000D01*
D21*
X95152649Y-51273000D02*
X114087649Y-51273000D01*
D20*
X111147649Y-87953000D02*
X115277649Y-83823000D01*
D21*
X114782649Y-50578000D02*
X114782649Y-49928000D01*
D20*
X121727649Y-64993000D02*
X122432649Y-65698000D01*
D21*
X117582649Y-53378000D02*
X114782649Y-50578000D01*
D20*
X129660649Y-86775000D02*
X130887649Y-85548000D01*
X127325000Y-86775000D02*
X129660649Y-86775000D01*
X110947649Y-87953000D02*
X111147649Y-87953000D01*
D21*
X94662801Y-50783152D02*
X95152649Y-51273000D01*
D20*
X129837649Y-65698000D02*
X132212649Y-68073000D01*
D21*
X117922000Y-53378000D02*
X120075000Y-51225000D01*
D20*
X115277649Y-83823000D02*
X124373000Y-83823000D01*
X121727649Y-64993000D02*
X121727649Y-60613000D01*
D21*
X120075000Y-51225000D02*
X130660649Y-51225000D01*
X114087649Y-51273000D02*
X114782649Y-50578000D01*
D20*
X132212649Y-74248000D02*
X130945649Y-75515000D01*
X130945649Y-75515000D02*
X130945649Y-87066000D01*
X118897649Y-57783000D02*
X117292649Y-57783000D01*
D22*
X117282649Y-57773000D02*
X117292649Y-57783000D01*
D23*
%TO.N,+BATT*%
X103080149Y-69903000D02*
X103080149Y-68355500D01*
X113637649Y-54923000D02*
X113637649Y-56098000D01*
D24*
X119652649Y-56098000D02*
X124257649Y-60703000D01*
D23*
X106312649Y-59973000D02*
X106312649Y-57923000D01*
D24*
X113637649Y-56098000D02*
X119652649Y-56098000D01*
D23*
X110087649Y-54148000D02*
X112862649Y-54148000D01*
X104137649Y-62148000D02*
X106312649Y-59973000D01*
X112862649Y-54148000D02*
X113637649Y-54923000D01*
X104137649Y-67298000D02*
X104137649Y-62148000D01*
X106312649Y-57923000D02*
X110087649Y-54148000D01*
X103080149Y-68355500D02*
X104137649Y-67298000D01*
D17*
%TO.N,ADC_VBAT*%
X104007649Y-68953000D02*
X104387649Y-68573000D01*
X104007649Y-69631001D02*
X104007649Y-68953000D01*
X104387649Y-68573000D02*
X107742649Y-68573000D01*
X107742649Y-68573000D02*
X109097649Y-69928000D01*
D23*
%TO.N,+9V*%
X114937649Y-82098000D02*
X112232649Y-84803000D01*
X115382649Y-82098000D02*
X114937649Y-82098000D01*
X112232649Y-84803000D02*
X109192232Y-84803000D01*
D25*
%TO.N,+5VBAT*%
X123802649Y-64043000D02*
X127367649Y-64043000D01*
X129633899Y-61776750D02*
X129633899Y-58718000D01*
X127367649Y-64043000D02*
X129633899Y-61776750D01*
D16*
%TO.N,MOTOR_4*%
X113875000Y-60536188D02*
X111637649Y-58298837D01*
X112970649Y-66300000D02*
X112875000Y-66204351D01*
X112875000Y-66204351D02*
X112875000Y-65375000D01*
D15*
X113000000Y-66329351D02*
X112970649Y-66300000D01*
X111637649Y-57223000D02*
X111720329Y-57140320D01*
D16*
X113875000Y-64375000D02*
X113875000Y-60536188D01*
X112875000Y-65375000D02*
X113875000Y-64375000D01*
X111637649Y-58298837D02*
X111637649Y-57223000D01*
%TO.N,ADC_CURR*%
X111924649Y-65021000D02*
X111924649Y-66080500D01*
X113030019Y-62123000D02*
X113030019Y-63915630D01*
X113030019Y-63915630D02*
X111924649Y-65021000D01*
%TO.N,MOTOR_3*%
X112124798Y-58217472D02*
X114136326Y-60229000D01*
X116525975Y-60229000D02*
X117150000Y-60853025D01*
X117150000Y-60853025D02*
X117150000Y-61625000D01*
X112124798Y-57544789D02*
X112124798Y-58217472D01*
X114136326Y-60229000D02*
X116525975Y-60229000D01*
D26*
X112124798Y-57544789D02*
X112137649Y-57557640D01*
D16*
%TO.N,MOTOR_2*%
X116692489Y-59827000D02*
X117728821Y-60863332D01*
X112798000Y-58322160D02*
X114302840Y-59827000D01*
X117728821Y-60863332D02*
X117728821Y-61625000D01*
X114302840Y-59827000D02*
X116692489Y-59827000D01*
X112798000Y-57341514D02*
X112798000Y-58322160D01*
X110687256Y-55230770D02*
X112798000Y-57341514D01*
X110687256Y-54987744D02*
X110687256Y-55230770D01*
%TO.N,MOTOR_1*%
X111725649Y-55000000D02*
X111725649Y-55700649D01*
X111725649Y-55700649D02*
X113200000Y-57175000D01*
X113200000Y-57175000D02*
X113200000Y-58155646D01*
X113200000Y-58155646D02*
X114469354Y-59425000D01*
X114469354Y-59425000D02*
X116859003Y-59425000D01*
X116859003Y-59425000D02*
X118307649Y-60873646D01*
X118307649Y-60873646D02*
X118307649Y-61573820D01*
%TO.N,PWR_TXEN*%
X98025000Y-63600000D02*
X98025000Y-62525000D01*
D15*
X102537649Y-61721000D02*
X102514649Y-61698000D01*
D16*
X98025000Y-62525000D02*
X98852000Y-61698000D01*
X94675000Y-66950000D02*
X98025000Y-63600000D01*
X93575000Y-66950000D02*
X94675000Y-66950000D01*
X98852000Y-61698000D02*
X102514649Y-61698000D01*
X93075000Y-67450000D02*
X93575000Y-66950000D01*
%TO.N,GPS_UART1_RX*%
X109175000Y-72428000D02*
X112247000Y-72428000D01*
X112247000Y-72428000D02*
X115000000Y-69675000D01*
X115000000Y-66450000D02*
X115507649Y-65942351D01*
X115507649Y-65942351D02*
X115507649Y-62287820D01*
X115000000Y-69675000D02*
X115000000Y-66450000D01*
%TO.N,LED_STRIP*%
X127482650Y-48903001D02*
X98282648Y-48903001D01*
X128132649Y-49553000D02*
X127482650Y-48903001D01*
X98282648Y-48903001D02*
X97632649Y-49553000D01*
%TO.N,IMU_SP1_SCK*%
X111807649Y-75933000D02*
X111807649Y-77013000D01*
X111807649Y-77013000D02*
X112517649Y-77723000D01*
%TO.N,RADIO_UART5_RX*%
X122860649Y-88850000D02*
X123750000Y-87960649D01*
X100789649Y-88850000D02*
X122860649Y-88850000D01*
X97055820Y-78930820D02*
X97055820Y-79187306D01*
X100312649Y-82444135D02*
X100312649Y-88373000D01*
X123750000Y-87960649D02*
X123750000Y-85800000D01*
X100312649Y-88373000D02*
X100789649Y-88850000D01*
D15*
X97055820Y-78919180D02*
X97055820Y-78930820D01*
D16*
X97055820Y-79187306D02*
X100312649Y-82444135D01*
%TO.N,RADIO_UART5_TX*%
X124212000Y-88142000D02*
X124212000Y-85608633D01*
X100402000Y-89252000D02*
X123102000Y-89252000D01*
X123941367Y-85338000D02*
X123362000Y-85338000D01*
X99750000Y-88600000D02*
X100402000Y-89252000D01*
X123060085Y-85639915D02*
X123060085Y-85828000D01*
X96400000Y-78750000D02*
X96400000Y-79100000D01*
X123102000Y-89252000D02*
X124212000Y-88142000D01*
X96400000Y-79100000D02*
X99750000Y-82450000D01*
X124212000Y-85608633D02*
X123941367Y-85338000D01*
X123362000Y-85338000D02*
X123060085Y-85639915D01*
X99750000Y-82450000D02*
X99750000Y-88600000D01*
%TO.N,GPS_UART1_TX*%
X115775000Y-61750000D02*
X116207649Y-62182649D01*
X116207649Y-62182649D02*
X116207649Y-62247996D01*
X112525000Y-70575000D02*
X112525000Y-67850000D01*
X114925000Y-62100000D02*
X115275000Y-61750000D01*
X115275000Y-61750000D02*
X115775000Y-61750000D01*
X109612649Y-71928000D02*
X111172000Y-71928000D01*
X114925000Y-65450000D02*
X114925000Y-62100000D01*
X112525000Y-67850000D02*
X114925000Y-65450000D01*
X111172000Y-71928000D02*
X112525000Y-70575000D01*
%TO.N,IMU_CS*%
X111307649Y-76475000D02*
X111307649Y-77532649D01*
D15*
X113420149Y-77804851D02*
X113420149Y-77723000D01*
D16*
X111975000Y-78200000D02*
X113025000Y-78200000D01*
X113025000Y-78200000D02*
X113420149Y-77804851D01*
X111307649Y-77532649D02*
X111975000Y-78200000D01*
%TO.N,BUSY*%
X95342478Y-68201668D02*
X93662649Y-69881497D01*
X99037649Y-62458000D02*
X98427000Y-63068649D01*
X95342478Y-66851036D02*
X95342478Y-68201668D01*
X98427000Y-63068649D02*
X98427000Y-63766514D01*
X95697649Y-73297649D02*
X95697649Y-74228000D01*
X93662649Y-71262649D02*
X95697649Y-73297649D01*
X93662649Y-69881497D02*
X93662649Y-71262649D01*
X98427000Y-63766514D02*
X95342478Y-66851036D01*
D27*
%TO.N,ANT_TRACE*%
X102200000Y-74850000D02*
X102200000Y-80925000D01*
D16*
%TO.N,STATE_LED3*%
X94387649Y-75520777D02*
X94387649Y-72673000D01*
X95670936Y-76804064D02*
X94387649Y-75520777D01*
%TD*%
%TA.AperFunction,Conductor*%
%TO.N,GND*%
G36*
X97890012Y-48375185D02*
G01*
X97935767Y-48427989D01*
X97945711Y-48497147D01*
X97916686Y-48560703D01*
X97910654Y-48567181D01*
X97477445Y-49000388D01*
X97437219Y-49027267D01*
X97349983Y-49063403D01*
X97349975Y-49063407D01*
X97232895Y-49153246D01*
X97143052Y-49270332D01*
X97086575Y-49406679D01*
X97086574Y-49406681D01*
X97067312Y-49552998D01*
X97067312Y-49553001D01*
X97086574Y-49699318D01*
X97086575Y-49699320D01*
X97143052Y-49835668D01*
X97153401Y-49849155D01*
X97232895Y-49952754D01*
X97349980Y-50042596D01*
X97486329Y-50099074D01*
X97559489Y-50108705D01*
X97632648Y-50118337D01*
X97632649Y-50118337D01*
X97632650Y-50118337D01*
X97681422Y-50111916D01*
X97778969Y-50099074D01*
X97915318Y-50042596D01*
X98032403Y-49952754D01*
X98122245Y-49835669D01*
X98158380Y-49748428D01*
X98185255Y-49708206D01*
X98453644Y-49439817D01*
X98514966Y-49406335D01*
X98541324Y-49403501D01*
X113947869Y-49403501D01*
X114014908Y-49423186D01*
X114060663Y-49475990D01*
X114070607Y-49545148D01*
X114062430Y-49574953D01*
X114012913Y-49694498D01*
X114012910Y-49694510D01*
X113982149Y-49849153D01*
X113982149Y-50195060D01*
X113962464Y-50262099D01*
X113945830Y-50282741D01*
X113792390Y-50436181D01*
X113731067Y-50469666D01*
X113704709Y-50472500D01*
X95535589Y-50472500D01*
X95468550Y-50452815D01*
X95447908Y-50436181D01*
X95173093Y-50161365D01*
X95173089Y-50161362D01*
X95041986Y-50073761D01*
X95041973Y-50073754D01*
X94896302Y-50013416D01*
X94896290Y-50013413D01*
X94741646Y-49982652D01*
X94741643Y-49982652D01*
X94583959Y-49982652D01*
X94583956Y-49982652D01*
X94429311Y-50013413D01*
X94429299Y-50013416D01*
X94283628Y-50073754D01*
X94283615Y-50073761D01*
X94152512Y-50161362D01*
X94152508Y-50161365D01*
X94041014Y-50272859D01*
X94041011Y-50272863D01*
X93953410Y-50403966D01*
X93953403Y-50403979D01*
X93893065Y-50549650D01*
X93893062Y-50549662D01*
X93862301Y-50704305D01*
X93862301Y-50861998D01*
X93893062Y-51016641D01*
X93893065Y-51016653D01*
X93953403Y-51162324D01*
X93953410Y-51162337D01*
X94041011Y-51293440D01*
X94041014Y-51293444D01*
X94642356Y-51894786D01*
X94642360Y-51894789D01*
X94773463Y-51982390D01*
X94773467Y-51982392D01*
X94773470Y-51982394D01*
X94919152Y-52042738D01*
X95070529Y-52072848D01*
X95073802Y-52073499D01*
X95073806Y-52073500D01*
X95073807Y-52073500D01*
X95231492Y-52073500D01*
X96770086Y-52073500D01*
X96837125Y-52093185D01*
X96882880Y-52145989D01*
X96892824Y-52215147D01*
X96863799Y-52278703D01*
X96832086Y-52304887D01*
X96768155Y-52341797D01*
X96768138Y-52341808D01*
X96592391Y-52476665D01*
X96435742Y-52633314D01*
X96300885Y-52809061D01*
X96300874Y-52809078D01*
X96190111Y-53000925D01*
X96190104Y-53000939D01*
X96105333Y-53205596D01*
X96047994Y-53419591D01*
X96019077Y-53639224D01*
X96019077Y-53860775D01*
X96037379Y-53999786D01*
X96047994Y-54080410D01*
X96066035Y-54147738D01*
X96105333Y-54294403D01*
X96190104Y-54499060D01*
X96190111Y-54499074D01*
X96277468Y-54650381D01*
X96300878Y-54690928D01*
X96300881Y-54690932D01*
X96300885Y-54690938D01*
X96435742Y-54866685D01*
X96435750Y-54866694D01*
X96592383Y-55023327D01*
X96592391Y-55023334D01*
X96592392Y-55023335D01*
X96607358Y-55034819D01*
X96768138Y-55158191D01*
X96768141Y-55158193D01*
X96768149Y-55158199D01*
X96960005Y-55268967D01*
X96960010Y-55268969D01*
X96960016Y-55268972D01*
X97164674Y-55353743D01*
X97164672Y-55353743D01*
X97164678Y-55353744D01*
X97164679Y-55353745D01*
X97378667Y-55411083D01*
X97598309Y-55440000D01*
X97598316Y-55440000D01*
X97819838Y-55440000D01*
X97819845Y-55440000D01*
X98039487Y-55411083D01*
X98253475Y-55353745D01*
X98267343Y-55348001D01*
X98458137Y-55268972D01*
X98458137Y-55268971D01*
X98458149Y-55268967D01*
X98650005Y-55158199D01*
X98825762Y-55023335D01*
X98825766Y-55023330D01*
X98825771Y-55023327D01*
X98982404Y-54866694D01*
X98982407Y-54866689D01*
X98982412Y-54866685D01*
X99117276Y-54690928D01*
X99228044Y-54499072D01*
X99312822Y-54294398D01*
X99370160Y-54080410D01*
X99399077Y-53860768D01*
X99399077Y-53639232D01*
X99398443Y-53634420D01*
X99385092Y-53533009D01*
X99370160Y-53419590D01*
X99359015Y-53377998D01*
X101660312Y-53377998D01*
X101660312Y-53378001D01*
X101679574Y-53524318D01*
X101679575Y-53524320D01*
X101736052Y-53660668D01*
X101736053Y-53660669D01*
X101825895Y-53777754D01*
X101942980Y-53867596D01*
X102079329Y-53924074D01*
X102152489Y-53933705D01*
X102225648Y-53943337D01*
X102225649Y-53943337D01*
X102225650Y-53943337D01*
X102274422Y-53936916D01*
X102371969Y-53924074D01*
X102508318Y-53867596D01*
X102625403Y-53777754D01*
X102715245Y-53660669D01*
X102771723Y-53524320D01*
X102790986Y-53378000D01*
X102790986Y-53377999D01*
X103470371Y-53377999D01*
X103470371Y-53378000D01*
X103489411Y-53534818D01*
X103537141Y-53660669D01*
X103545429Y-53682523D01*
X103635166Y-53812530D01*
X103753409Y-53917283D01*
X103753411Y-53917284D01*
X103893283Y-53990696D01*
X104046663Y-54028500D01*
X104046664Y-54028500D01*
X104204634Y-54028500D01*
X104358014Y-53990696D01*
X104497889Y-53917283D01*
X104616132Y-53812530D01*
X104705869Y-53682523D01*
X104761886Y-53534818D01*
X104780927Y-53378000D01*
X104780927Y-53377998D01*
X105460312Y-53377998D01*
X105460312Y-53378001D01*
X105479574Y-53524318D01*
X105479575Y-53524320D01*
X105536052Y-53660668D01*
X105536053Y-53660669D01*
X105625895Y-53777754D01*
X105742980Y-53867596D01*
X105879329Y-53924074D01*
X105952489Y-53933705D01*
X106025648Y-53943337D01*
X106025649Y-53943337D01*
X106025650Y-53943337D01*
X106074422Y-53936916D01*
X106171969Y-53924074D01*
X106308318Y-53867596D01*
X106425403Y-53777754D01*
X106515245Y-53660669D01*
X106571723Y-53524320D01*
X106590986Y-53378000D01*
X106590986Y-53377998D01*
X107360312Y-53377998D01*
X107360312Y-53378001D01*
X107379574Y-53524318D01*
X107379575Y-53524320D01*
X107436052Y-53660668D01*
X107436053Y-53660669D01*
X107525895Y-53777754D01*
X107642980Y-53867596D01*
X107779329Y-53924074D01*
X107852489Y-53933705D01*
X107925648Y-53943337D01*
X107925649Y-53943337D01*
X107925650Y-53943337D01*
X107974422Y-53936916D01*
X108071969Y-53924074D01*
X108208318Y-53867596D01*
X108325403Y-53777754D01*
X108415245Y-53660669D01*
X108471723Y-53524320D01*
X108490986Y-53378000D01*
X108471723Y-53231680D01*
X108415245Y-53095332D01*
X108415245Y-53095331D01*
X108325405Y-52978247D01*
X108208317Y-52888403D01*
X108071969Y-52831926D01*
X108071967Y-52831925D01*
X107925650Y-52812663D01*
X107925648Y-52812663D01*
X107779330Y-52831925D01*
X107779328Y-52831926D01*
X107642981Y-52888403D01*
X107525895Y-52978246D01*
X107436052Y-53095332D01*
X107379575Y-53231679D01*
X107379574Y-53231681D01*
X107360312Y-53377998D01*
X106590986Y-53377998D01*
X106571723Y-53231680D01*
X106515245Y-53095332D01*
X106515245Y-53095331D01*
X106425405Y-52978247D01*
X106308317Y-52888403D01*
X106171969Y-52831926D01*
X106171967Y-52831925D01*
X106025650Y-52812663D01*
X106025648Y-52812663D01*
X105879330Y-52831925D01*
X105879328Y-52831926D01*
X105742981Y-52888403D01*
X105625895Y-52978246D01*
X105536052Y-53095332D01*
X105479575Y-53231679D01*
X105479574Y-53231681D01*
X105460312Y-53377998D01*
X104780927Y-53377998D01*
X104761886Y-53221182D01*
X104755977Y-53205602D01*
X104714157Y-53095331D01*
X104705869Y-53073477D01*
X104616132Y-52943470D01*
X104497889Y-52838717D01*
X104497887Y-52838716D01*
X104497886Y-52838715D01*
X104358014Y-52765303D01*
X104204635Y-52727500D01*
X104204634Y-52727500D01*
X104046664Y-52727500D01*
X104046663Y-52727500D01*
X103893283Y-52765303D01*
X103753411Y-52838715D01*
X103635165Y-52943471D01*
X103545430Y-53073475D01*
X103545429Y-53073476D01*
X103489411Y-53221181D01*
X103470371Y-53377999D01*
X102790986Y-53377999D01*
X102771723Y-53231680D01*
X102715245Y-53095332D01*
X102715245Y-53095331D01*
X102625405Y-52978247D01*
X102508317Y-52888403D01*
X102371969Y-52831926D01*
X102371967Y-52831925D01*
X102225650Y-52812663D01*
X102225648Y-52812663D01*
X102079330Y-52831925D01*
X102079328Y-52831926D01*
X101942981Y-52888403D01*
X101825895Y-52978246D01*
X101736052Y-53095332D01*
X101679575Y-53231679D01*
X101679574Y-53231681D01*
X101660312Y-53377998D01*
X99359015Y-53377998D01*
X99312822Y-53205602D01*
X99267147Y-53095332D01*
X99228049Y-53000939D01*
X99228046Y-53000933D01*
X99228044Y-53000928D01*
X99117276Y-52809072D01*
X99086445Y-52768893D01*
X98982411Y-52633314D01*
X98982404Y-52633306D01*
X98825771Y-52476673D01*
X98825762Y-52476665D01*
X98650015Y-52341808D01*
X98650009Y-52341804D01*
X98650005Y-52341801D01*
X98586067Y-52304886D01*
X98537852Y-52254320D01*
X98524629Y-52185713D01*
X98550597Y-52120848D01*
X98607512Y-52080320D01*
X98648068Y-52073500D01*
X114166493Y-52073500D01*
X114166494Y-52073499D01*
X114321146Y-52042737D01*
X114466828Y-51982394D01*
X114597938Y-51894789D01*
X114694969Y-51797757D01*
X114756290Y-51764274D01*
X114825982Y-51769258D01*
X114870330Y-51797759D01*
X117072356Y-53999786D01*
X117072360Y-53999789D01*
X117203463Y-54087390D01*
X117203476Y-54087397D01*
X117349147Y-54147735D01*
X117349152Y-54147737D01*
X117503802Y-54178499D01*
X117503805Y-54178500D01*
X117503807Y-54178500D01*
X118000844Y-54178500D01*
X118000845Y-54178499D01*
X118155497Y-54147737D01*
X118301179Y-54087394D01*
X118432289Y-53999789D01*
X118797660Y-53634417D01*
X118858978Y-53600935D01*
X118928670Y-53605919D01*
X118984604Y-53647790D01*
X118992720Y-53660094D01*
X118993049Y-53660665D01*
X119042294Y-53724842D01*
X119082895Y-53777754D01*
X119199980Y-53867596D01*
X119336329Y-53924074D01*
X119409489Y-53933705D01*
X119482648Y-53943337D01*
X119482649Y-53943337D01*
X119482650Y-53943337D01*
X119531422Y-53936916D01*
X119628969Y-53924074D01*
X119765318Y-53867596D01*
X119882403Y-53777754D01*
X119972245Y-53660669D01*
X120028723Y-53524320D01*
X120047986Y-53378000D01*
X120047986Y-53377998D01*
X120817312Y-53377998D01*
X120817312Y-53378001D01*
X120836574Y-53524318D01*
X120836575Y-53524320D01*
X120893052Y-53660668D01*
X120893053Y-53660669D01*
X120982895Y-53777754D01*
X121099980Y-53867596D01*
X121236329Y-53924074D01*
X121309489Y-53933705D01*
X121382648Y-53943337D01*
X121382649Y-53943337D01*
X121382650Y-53943337D01*
X121431422Y-53936916D01*
X121528969Y-53924074D01*
X121665318Y-53867596D01*
X121782403Y-53777754D01*
X121872245Y-53660669D01*
X121928723Y-53524320D01*
X121947986Y-53378000D01*
X121928723Y-53231680D01*
X121872245Y-53095332D01*
X121872245Y-53095331D01*
X121782405Y-52978247D01*
X121665317Y-52888403D01*
X121528969Y-52831926D01*
X121528967Y-52831925D01*
X121382650Y-52812663D01*
X121382648Y-52812663D01*
X121236330Y-52831925D01*
X121236328Y-52831926D01*
X121099981Y-52888403D01*
X120982895Y-52978246D01*
X120893052Y-53095332D01*
X120836575Y-53231679D01*
X120836574Y-53231681D01*
X120817312Y-53377998D01*
X120047986Y-53377998D01*
X120028723Y-53231680D01*
X119972245Y-53095332D01*
X119972245Y-53095331D01*
X119882405Y-52978247D01*
X119765314Y-52888400D01*
X119764743Y-52888071D01*
X119764357Y-52887666D01*
X119758870Y-52883456D01*
X119759526Y-52882599D01*
X119716531Y-52837501D01*
X119703312Y-52768893D01*
X119729285Y-52704030D01*
X119739059Y-52693017D01*
X120370259Y-52061819D01*
X120431582Y-52028334D01*
X120457940Y-52025500D01*
X127353224Y-52025500D01*
X127420263Y-52045185D01*
X127466018Y-52097989D01*
X127475962Y-52167147D01*
X127446937Y-52230703D01*
X127415224Y-52256887D01*
X127268155Y-52341797D01*
X127268138Y-52341808D01*
X127092391Y-52476665D01*
X126935742Y-52633314D01*
X126800885Y-52809061D01*
X126800874Y-52809078D01*
X126690111Y-53000925D01*
X126690104Y-53000939D01*
X126605333Y-53205596D01*
X126547994Y-53419591D01*
X126519077Y-53639224D01*
X126519077Y-53860775D01*
X126537379Y-53999786D01*
X126547994Y-54080410D01*
X126566035Y-54147738D01*
X126605333Y-54294403D01*
X126690104Y-54499060D01*
X126690111Y-54499074D01*
X126777468Y-54650381D01*
X126800878Y-54690928D01*
X126800881Y-54690932D01*
X126800885Y-54690938D01*
X126935742Y-54866685D01*
X126935750Y-54866694D01*
X127092383Y-55023327D01*
X127092391Y-55023334D01*
X127092392Y-55023335D01*
X127107358Y-55034819D01*
X127268138Y-55158191D01*
X127268141Y-55158193D01*
X127268149Y-55158199D01*
X127460005Y-55268967D01*
X127460010Y-55268969D01*
X127460016Y-55268972D01*
X127664674Y-55353743D01*
X127664672Y-55353743D01*
X127664678Y-55353744D01*
X127664679Y-55353745D01*
X127878667Y-55411083D01*
X128098309Y-55440000D01*
X128098316Y-55440000D01*
X128319838Y-55440000D01*
X128319845Y-55440000D01*
X128539487Y-55411083D01*
X128753475Y-55353745D01*
X128767343Y-55348001D01*
X128958137Y-55268972D01*
X128958137Y-55268971D01*
X128958149Y-55268967D01*
X129150005Y-55158199D01*
X129325762Y-55023335D01*
X129325766Y-55023330D01*
X129325771Y-55023327D01*
X129482404Y-54866694D01*
X129482407Y-54866689D01*
X129482412Y-54866685D01*
X129617276Y-54690928D01*
X129728044Y-54499072D01*
X129812822Y-54294398D01*
X129870160Y-54080410D01*
X129899077Y-53860768D01*
X129899077Y-53639232D01*
X129898443Y-53634420D01*
X129885092Y-53533009D01*
X129870160Y-53419590D01*
X129812822Y-53205602D01*
X129767147Y-53095332D01*
X129728049Y-53000939D01*
X129728046Y-53000933D01*
X129728044Y-53000928D01*
X129617276Y-52809072D01*
X129586445Y-52768893D01*
X129482411Y-52633314D01*
X129482404Y-52633306D01*
X129325771Y-52476673D01*
X129325762Y-52476665D01*
X129150015Y-52341808D01*
X129150009Y-52341804D01*
X129150005Y-52341801D01*
X129040716Y-52278703D01*
X129002930Y-52256887D01*
X128954714Y-52206320D01*
X128941491Y-52137713D01*
X128967460Y-52072848D01*
X129024374Y-52032320D01*
X129064930Y-52025500D01*
X130739493Y-52025500D01*
X130739494Y-52025499D01*
X130894146Y-51994737D01*
X131039828Y-51934394D01*
X131170938Y-51846789D01*
X131724285Y-51293442D01*
X131811890Y-51162331D01*
X131872234Y-51016650D01*
X131902997Y-50861995D01*
X131902997Y-50704310D01*
X131902997Y-50704307D01*
X131902996Y-50704305D01*
X131872234Y-50549655D01*
X131811890Y-50403973D01*
X131811888Y-50403970D01*
X131811886Y-50403966D01*
X131724285Y-50272863D01*
X131724282Y-50272859D01*
X131612789Y-50161366D01*
X131612785Y-50161363D01*
X131481682Y-50073762D01*
X131481672Y-50073757D01*
X131335994Y-50013415D01*
X131335986Y-50013413D01*
X131181342Y-49982652D01*
X131181339Y-49982652D01*
X131023654Y-49982652D01*
X131023651Y-49982652D01*
X130869006Y-50013413D01*
X130868998Y-50013415D01*
X130723321Y-50073757D01*
X130723311Y-50073762D01*
X130592206Y-50161363D01*
X130592203Y-50161366D01*
X130365390Y-50388181D01*
X130304067Y-50421666D01*
X130277709Y-50424500D01*
X119996155Y-50424500D01*
X119841510Y-50455261D01*
X119841498Y-50455264D01*
X119695827Y-50515602D01*
X119695814Y-50515609D01*
X119564711Y-50603210D01*
X119564707Y-50603213D01*
X117840005Y-52327916D01*
X117778682Y-52361401D01*
X117708990Y-52356417D01*
X117664643Y-52327916D01*
X115619468Y-50282741D01*
X115585983Y-50221418D01*
X115583149Y-50195060D01*
X115583149Y-49849155D01*
X115583148Y-49849153D01*
X115563113Y-49748430D01*
X115552386Y-49694503D01*
X115527101Y-49633458D01*
X115502868Y-49574953D01*
X115495399Y-49505484D01*
X115526675Y-49443005D01*
X115586764Y-49407353D01*
X115617429Y-49403501D01*
X127223974Y-49403501D01*
X127291013Y-49423186D01*
X127311655Y-49439820D01*
X127580036Y-49708201D01*
X127606916Y-49748429D01*
X127643051Y-49835665D01*
X127643053Y-49835669D01*
X127732895Y-49952754D01*
X127849980Y-50042596D01*
X127986329Y-50099074D01*
X128059489Y-50108705D01*
X128132648Y-50118337D01*
X128132649Y-50118337D01*
X128132650Y-50118337D01*
X128181422Y-50111916D01*
X128278969Y-50099074D01*
X128415318Y-50042596D01*
X128532403Y-49952754D01*
X128622245Y-49835669D01*
X128678723Y-49699320D01*
X128697986Y-49553000D01*
X128696952Y-49545148D01*
X128680175Y-49417711D01*
X128678723Y-49406680D01*
X128622245Y-49270332D01*
X128622245Y-49270331D01*
X128532405Y-49153247D01*
X128493374Y-49123298D01*
X128415318Y-49063404D01*
X128415314Y-49063402D01*
X128415315Y-49063402D01*
X128328078Y-49027267D01*
X128287850Y-49000387D01*
X127854644Y-48567181D01*
X127821159Y-48505858D01*
X127826143Y-48436166D01*
X127868015Y-48380233D01*
X127933479Y-48355816D01*
X127942325Y-48355500D01*
X128162315Y-48355500D01*
X128162497Y-48355523D01*
X128178667Y-48355514D01*
X128178669Y-48355515D01*
X128203570Y-48355501D01*
X128208632Y-48355603D01*
X128646580Y-48373486D01*
X128656768Y-48374324D01*
X129089151Y-48427997D01*
X129099238Y-48429675D01*
X129525719Y-48518878D01*
X129535616Y-48521380D01*
X129953263Y-48645500D01*
X129962951Y-48648821D01*
X130368896Y-48807003D01*
X130378277Y-48811112D01*
X130574029Y-48906700D01*
X130769778Y-49002286D01*
X130778780Y-49007152D01*
X131153168Y-49230017D01*
X131161727Y-49235603D01*
X131452472Y-49443005D01*
X131516426Y-49488626D01*
X131524516Y-49494918D01*
X131776547Y-49708201D01*
X131857079Y-49776351D01*
X131864609Y-49783276D01*
X132172822Y-50091245D01*
X132179757Y-50098773D01*
X132461457Y-50431120D01*
X132467756Y-50439206D01*
X132721055Y-50793697D01*
X132726664Y-50802277D01*
X132949803Y-51176452D01*
X132954685Y-51185465D01*
X133146165Y-51576807D01*
X133150286Y-51586193D01*
X133219840Y-51764274D01*
X133305030Y-51982390D01*
X133308789Y-51992013D01*
X133312120Y-52001707D01*
X133436563Y-52419234D01*
X133439082Y-52429169D01*
X133510421Y-52768893D01*
X133525083Y-52838717D01*
X133528616Y-52855539D01*
X133530306Y-52865650D01*
X133584316Y-53297953D01*
X133585166Y-53308168D01*
X133600749Y-53682523D01*
X133603470Y-53747870D01*
X133603577Y-53753027D01*
X133603577Y-62565632D01*
X133583892Y-62632671D01*
X133531088Y-62678426D01*
X133461930Y-62688370D01*
X133398374Y-62659345D01*
X133365016Y-62613085D01*
X133326596Y-62520331D01*
X133236756Y-62403247D01*
X133119668Y-62313403D01*
X132983320Y-62256926D01*
X132983318Y-62256925D01*
X132837001Y-62237663D01*
X132836999Y-62237663D01*
X132690681Y-62256925D01*
X132690679Y-62256926D01*
X132554332Y-62313403D01*
X132437246Y-62403246D01*
X132347403Y-62520332D01*
X132290926Y-62656679D01*
X132290925Y-62656681D01*
X132271663Y-62802998D01*
X132271663Y-62803001D01*
X132290925Y-62949318D01*
X132290927Y-62949323D01*
X132339483Y-63066548D01*
X132346952Y-63136017D01*
X132339483Y-63161452D01*
X132290927Y-63278676D01*
X132290925Y-63278681D01*
X132271663Y-63424998D01*
X132271663Y-63425001D01*
X132290925Y-63571318D01*
X132290926Y-63571320D01*
X132347403Y-63707668D01*
X132347404Y-63707669D01*
X132437246Y-63824754D01*
X132554331Y-63914596D01*
X132690680Y-63971074D01*
X132722963Y-63975324D01*
X132836999Y-63990337D01*
X132837000Y-63990337D01*
X132837001Y-63990337D01*
X132890855Y-63983247D01*
X132983320Y-63971074D01*
X133119669Y-63914596D01*
X133236754Y-63824754D01*
X133326596Y-63707669D01*
X133330703Y-63697754D01*
X133365016Y-63614916D01*
X133408857Y-63560512D01*
X133475151Y-63538447D01*
X133542850Y-63555726D01*
X133590461Y-63606863D01*
X133603577Y-63662368D01*
X133603577Y-75501463D01*
X133583892Y-75568502D01*
X133531088Y-75614257D01*
X133461930Y-75624201D01*
X133398374Y-75595176D01*
X133360600Y-75536398D01*
X133359802Y-75533557D01*
X133358073Y-75527104D01*
X133301596Y-75390757D01*
X133211756Y-75273673D01*
X133094668Y-75183829D01*
X132958320Y-75127352D01*
X132950470Y-75125249D01*
X132950883Y-75123707D01*
X132895565Y-75099229D01*
X132857100Y-75040901D01*
X132856275Y-74971036D01*
X132887973Y-74916885D01*
X132950951Y-74853908D01*
X133054972Y-74698230D01*
X133096943Y-74596901D01*
X133126622Y-74525251D01*
X133163149Y-74341616D01*
X133163149Y-67979384D01*
X133157689Y-67951937D01*
X133138215Y-67854033D01*
X133138215Y-67854030D01*
X133131221Y-67818872D01*
X133126622Y-67795749D01*
X133054971Y-67622769D01*
X133054970Y-67622768D01*
X133054967Y-67622762D01*
X132950952Y-67467093D01*
X132888534Y-67404675D01*
X132818557Y-67334698D01*
X131641297Y-66157438D01*
X130443560Y-64959700D01*
X130443556Y-64959697D01*
X130287885Y-64855680D01*
X130287872Y-64855673D01*
X130168255Y-64806127D01*
X130168254Y-64806127D01*
X130114900Y-64784027D01*
X130114892Y-64784025D01*
X129986084Y-64758404D01*
X129934695Y-64748182D01*
X129931267Y-64747500D01*
X129931266Y-64747500D01*
X129931265Y-64747500D01*
X128377430Y-64747500D01*
X128310391Y-64727815D01*
X128264636Y-64675011D01*
X128254692Y-64605853D01*
X128283717Y-64542297D01*
X128289749Y-64535819D01*
X128684027Y-64141541D01*
X130411038Y-62414532D01*
X130428101Y-62388996D01*
X130520531Y-62250664D01*
X130572375Y-62125500D01*
X130595950Y-62068586D01*
X130634399Y-61875291D01*
X130634399Y-61678210D01*
X130634399Y-58619459D01*
X130634399Y-58619456D01*
X130595951Y-58426170D01*
X130595950Y-58426169D01*
X130595950Y-58426165D01*
X130578271Y-58383483D01*
X130520534Y-58244092D01*
X130520527Y-58244079D01*
X130411038Y-58080218D01*
X130411035Y-58080214D01*
X130271684Y-57940863D01*
X130271680Y-57940860D01*
X130107819Y-57831371D01*
X130107806Y-57831364D01*
X129925738Y-57755950D01*
X129925728Y-57755947D01*
X129732442Y-57717500D01*
X129732440Y-57717500D01*
X129535358Y-57717500D01*
X129535356Y-57717500D01*
X129342069Y-57755947D01*
X129342059Y-57755950D01*
X129159991Y-57831364D01*
X129159978Y-57831371D01*
X128996117Y-57940860D01*
X128996113Y-57940863D01*
X128856762Y-58080214D01*
X128856759Y-58080218D01*
X128747270Y-58244079D01*
X128747263Y-58244092D01*
X128671849Y-58426160D01*
X128671846Y-58426170D01*
X128633399Y-58619456D01*
X128633399Y-61310967D01*
X128613714Y-61378006D01*
X128597080Y-61398648D01*
X126989548Y-63006181D01*
X126928225Y-63039666D01*
X126901867Y-63042500D01*
X123704106Y-63042500D01*
X123510819Y-63080947D01*
X123510809Y-63080950D01*
X123328741Y-63156364D01*
X123328728Y-63156371D01*
X123164867Y-63265860D01*
X123164863Y-63265863D01*
X123025512Y-63405214D01*
X123025509Y-63405218D01*
X122916020Y-63569079D01*
X122913147Y-63574456D01*
X122911670Y-63573667D01*
X122872865Y-63621818D01*
X122806570Y-63643880D01*
X122738871Y-63626598D01*
X122691263Y-63575459D01*
X122678149Y-63519959D01*
X122678149Y-61049915D01*
X122697834Y-60982876D01*
X122750638Y-60937121D01*
X122819796Y-60927177D01*
X122883352Y-60956202D01*
X122889830Y-60962234D01*
X123508149Y-61580553D01*
X123508154Y-61580557D01*
X123593170Y-61642324D01*
X123654655Y-61686995D01*
X123816010Y-61769211D01*
X123988240Y-61825171D01*
X124167102Y-61853501D01*
X124167103Y-61853501D01*
X124348194Y-61853501D01*
X124348195Y-61853501D01*
X124527058Y-61825171D01*
X124699282Y-61769213D01*
X124699284Y-61769213D01*
X124746537Y-61745136D01*
X124860642Y-61686995D01*
X124869124Y-61680833D01*
X125007142Y-61580557D01*
X125007140Y-61580557D01*
X125007149Y-61580552D01*
X125135201Y-61452500D01*
X125210033Y-61349502D01*
X125241642Y-61305996D01*
X125241647Y-61305987D01*
X125245972Y-61297500D01*
X125323860Y-61144639D01*
X125323860Y-61144638D01*
X125323862Y-61144635D01*
X125323862Y-61144633D01*
X125379819Y-60972412D01*
X125379818Y-60972412D01*
X125379820Y-60972409D01*
X125408150Y-60793546D01*
X125408150Y-60612453D01*
X125379820Y-60433591D01*
X125323860Y-60261361D01*
X125241644Y-60100006D01*
X125166797Y-59996987D01*
X125135206Y-59953505D01*
X125135202Y-59953500D01*
X120534542Y-55352840D01*
X120534533Y-55352830D01*
X120529701Y-55347998D01*
X121922312Y-55347998D01*
X121922312Y-55348001D01*
X121941574Y-55494318D01*
X121941575Y-55494320D01*
X121998052Y-55630668D01*
X121998053Y-55630669D01*
X122087895Y-55747754D01*
X122204980Y-55837596D01*
X122341329Y-55894074D01*
X122414489Y-55903705D01*
X122487648Y-55913337D01*
X122487649Y-55913337D01*
X122487650Y-55913337D01*
X122536422Y-55906916D01*
X122633969Y-55894074D01*
X122770318Y-55837596D01*
X122887403Y-55747754D01*
X122977245Y-55630669D01*
X123033723Y-55494320D01*
X123052986Y-55348000D01*
X123033723Y-55201680D01*
X122977245Y-55065332D01*
X122977245Y-55065331D01*
X122887405Y-54948247D01*
X122770317Y-54858403D01*
X122633969Y-54801926D01*
X122633967Y-54801925D01*
X122487650Y-54782663D01*
X122487648Y-54782663D01*
X122341330Y-54801925D01*
X122341328Y-54801926D01*
X122204981Y-54858403D01*
X122087895Y-54948246D01*
X121998052Y-55065332D01*
X121941575Y-55201679D01*
X121941574Y-55201681D01*
X121922312Y-55347998D01*
X120529701Y-55347998D01*
X120478365Y-55296662D01*
X120402150Y-55220447D01*
X120402146Y-55220444D01*
X120402142Y-55220440D01*
X120255646Y-55114006D01*
X120255645Y-55114005D01*
X120255643Y-55114004D01*
X120203949Y-55087664D01*
X120094288Y-55031788D01*
X120094285Y-55031787D01*
X119922059Y-54975829D01*
X119832626Y-54961664D01*
X119743195Y-54947499D01*
X119562103Y-54947499D01*
X119556992Y-54947499D01*
X119556968Y-54947500D01*
X114611200Y-54947500D01*
X114544161Y-54927815D01*
X114498406Y-54875011D01*
X114490316Y-54845013D01*
X114489338Y-54845208D01*
X114470210Y-54749051D01*
X114455465Y-54674918D01*
X114418632Y-54585996D01*
X114391353Y-54520138D01*
X114377277Y-54499072D01*
X114298279Y-54380842D01*
X114298273Y-54380834D01*
X113404814Y-53487375D01*
X113404810Y-53487372D01*
X113265515Y-53394297D01*
X113265512Y-53394296D01*
X113156065Y-53348962D01*
X113156063Y-53348961D01*
X113110735Y-53330185D01*
X113110723Y-53330182D01*
X112946420Y-53297500D01*
X112946416Y-53297500D01*
X110003882Y-53297500D01*
X110003877Y-53297500D01*
X109839574Y-53330182D01*
X109839562Y-53330185D01*
X109794232Y-53348962D01*
X109684792Y-53394292D01*
X109684786Y-53394295D01*
X109684786Y-53394296D01*
X109545489Y-53487373D01*
X109545480Y-53487379D01*
X109545479Y-53487380D01*
X105652024Y-57380834D01*
X105652021Y-57380838D01*
X105558948Y-57520130D01*
X105558941Y-57520143D01*
X105523366Y-57606032D01*
X105494834Y-57674913D01*
X105494831Y-57674925D01*
X105462149Y-57839228D01*
X105462149Y-58264179D01*
X105442464Y-58331218D01*
X105389660Y-58376973D01*
X105320502Y-58386917D01*
X105290696Y-58378740D01*
X105282875Y-58375500D01*
X105282874Y-58375500D01*
X105182424Y-58375500D01*
X105182422Y-58375500D01*
X105089618Y-58413941D01*
X105018590Y-58484969D01*
X104980149Y-58577773D01*
X104980149Y-58678226D01*
X105003149Y-58733752D01*
X105018590Y-58771030D01*
X105089619Y-58842059D01*
X105182424Y-58880500D01*
X105182426Y-58880500D01*
X105282872Y-58880500D01*
X105282874Y-58880500D01*
X105290694Y-58877260D01*
X105360160Y-58869789D01*
X105422641Y-58901061D01*
X105458296Y-58961148D01*
X105462149Y-58991820D01*
X105462149Y-59569348D01*
X105442464Y-59636387D01*
X105425830Y-59657029D01*
X103477024Y-61605834D01*
X103477021Y-61605838D01*
X103383946Y-61745133D01*
X103383945Y-61745136D01*
X103339708Y-61851935D01*
X103339706Y-61851941D01*
X103327858Y-61880541D01*
X103298041Y-61917536D01*
X103306500Y-61964417D01*
X103304828Y-61975353D01*
X103287149Y-62064234D01*
X103287149Y-62607097D01*
X103267464Y-62674136D01*
X103214660Y-62719891D01*
X103145502Y-62729835D01*
X103115697Y-62721658D01*
X103095222Y-62713177D01*
X103095217Y-62713175D01*
X102948900Y-62693913D01*
X102948898Y-62693913D01*
X102802580Y-62713175D01*
X102802578Y-62713176D01*
X102666231Y-62769653D01*
X102549145Y-62859496D01*
X102459302Y-62976582D01*
X102402825Y-63112929D01*
X102402824Y-63112931D01*
X102383562Y-63259248D01*
X102383562Y-63259251D01*
X102402824Y-63405568D01*
X102402825Y-63405570D01*
X102459302Y-63541918D01*
X102459303Y-63541919D01*
X102549145Y-63659004D01*
X102666230Y-63748846D01*
X102802579Y-63805324D01*
X102875739Y-63814955D01*
X102948898Y-63824587D01*
X102948899Y-63824587D01*
X102948900Y-63824587D01*
X103001493Y-63817663D01*
X103095219Y-63805324D01*
X103115697Y-63796841D01*
X103185163Y-63789372D01*
X103247643Y-63820645D01*
X103283296Y-63880733D01*
X103287149Y-63911402D01*
X103287149Y-66894348D01*
X103267464Y-66961387D01*
X103250830Y-66982029D01*
X102419524Y-67813334D01*
X102419521Y-67813338D01*
X102326446Y-67952633D01*
X102326445Y-67952636D01*
X102297507Y-68022500D01*
X102297507Y-68022501D01*
X102262333Y-68107417D01*
X102262331Y-68107425D01*
X102229649Y-68271728D01*
X102229649Y-68435092D01*
X102209964Y-68502131D01*
X102157160Y-68547886D01*
X102089465Y-68558031D01*
X101975348Y-68543008D01*
X101975344Y-68543008D01*
X101836389Y-68561301D01*
X101767353Y-68550535D01*
X101715098Y-68504155D01*
X101697265Y-68454547D01*
X101683723Y-68351680D01*
X101627245Y-68215332D01*
X101627245Y-68215331D01*
X101537405Y-68098247D01*
X101420317Y-68008403D01*
X101283969Y-67951926D01*
X101283967Y-67951925D01*
X101137650Y-67932663D01*
X101137648Y-67932663D01*
X100991330Y-67951925D01*
X100991328Y-67951926D01*
X100854981Y-68008403D01*
X100737895Y-68098246D01*
X100648053Y-68215331D01*
X100597928Y-68336342D01*
X100554086Y-68390745D01*
X100499553Y-68411827D01*
X100359649Y-68430246D01*
X100359648Y-68430246D01*
X100223301Y-68486723D01*
X100106215Y-68576566D01*
X100016372Y-68693652D01*
X99959895Y-68829999D01*
X99959894Y-68830001D01*
X99940632Y-68976318D01*
X99940632Y-68976321D01*
X99959894Y-69122638D01*
X99959895Y-69122640D01*
X99998005Y-69214645D01*
X100005474Y-69284115D01*
X99974199Y-69346594D01*
X99914110Y-69382246D01*
X99859254Y-69383716D01*
X99821718Y-69376250D01*
X99693580Y-69376250D01*
X99693578Y-69376250D01*
X99567910Y-69401247D01*
X99567904Y-69401249D01*
X99449524Y-69450283D01*
X99449515Y-69450288D01*
X99342980Y-69521473D01*
X99342976Y-69521476D01*
X99252375Y-69612077D01*
X99252372Y-69612081D01*
X99181187Y-69718616D01*
X99181182Y-69718625D01*
X99132148Y-69837005D01*
X99132146Y-69837011D01*
X99107149Y-69962678D01*
X99107149Y-70477481D01*
X99087464Y-70544520D01*
X99034660Y-70590275D01*
X98965502Y-70600219D01*
X98901946Y-70571194D01*
X98895468Y-70565162D01*
X98507314Y-70177008D01*
X98473829Y-70115685D01*
X98478813Y-70045993D01*
X98519507Y-69990953D01*
X98614903Y-69917754D01*
X98704745Y-69800669D01*
X98761223Y-69664320D01*
X98779908Y-69522394D01*
X98780486Y-69518001D01*
X98780486Y-69517998D01*
X98765115Y-69401247D01*
X98761223Y-69371680D01*
X98714544Y-69258989D01*
X98704745Y-69235331D01*
X98614905Y-69118247D01*
X98497817Y-69028403D01*
X98361469Y-68971926D01*
X98361467Y-68971925D01*
X98215150Y-68952663D01*
X98215147Y-68952663D01*
X98071861Y-68971526D01*
X98060379Y-68969735D01*
X98047286Y-68980811D01*
X98044573Y-68981973D01*
X97932481Y-69028403D01*
X97815395Y-69118246D01*
X97725552Y-69235332D01*
X97669075Y-69371679D01*
X97669074Y-69371681D01*
X97649812Y-69517998D01*
X97649812Y-69518001D01*
X97650390Y-69522394D01*
X97662694Y-69615853D01*
X97662887Y-69617315D01*
X97652121Y-69686350D01*
X97605741Y-69738606D01*
X97539948Y-69757500D01*
X97149278Y-69757500D01*
X97082239Y-69737815D01*
X97036484Y-69685011D01*
X97026540Y-69615853D01*
X97028395Y-69606808D01*
X97029563Y-69597941D01*
X97044969Y-69480917D01*
X97047986Y-69458001D01*
X97047986Y-69457998D01*
X97030872Y-69328001D01*
X97028723Y-69311680D01*
X96974875Y-69181681D01*
X96972245Y-69175331D01*
X96882405Y-69058247D01*
X96765317Y-68968403D01*
X96628969Y-68911926D01*
X96628967Y-68911925D01*
X96482650Y-68892663D01*
X96482648Y-68892663D01*
X96336330Y-68911925D01*
X96336328Y-68911926D01*
X96199981Y-68968403D01*
X96082895Y-69058246D01*
X95993052Y-69175332D01*
X95936575Y-69311679D01*
X95936574Y-69311681D01*
X95917312Y-69457998D01*
X95917312Y-69458001D01*
X95936574Y-69604318D01*
X95936575Y-69604320D01*
X95993052Y-69740669D01*
X96020751Y-69776766D01*
X96045946Y-69841935D01*
X96031908Y-69910380D01*
X96010058Y-69939934D01*
X95938534Y-70011458D01*
X95861877Y-70126182D01*
X95861870Y-70126195D01*
X95809070Y-70253667D01*
X95809067Y-70253677D01*
X95782149Y-70389004D01*
X95782149Y-70389007D01*
X95782149Y-70526993D01*
X95782149Y-70526995D01*
X95782148Y-70526995D01*
X95809067Y-70662322D01*
X95809070Y-70662332D01*
X95861870Y-70789804D01*
X95861880Y-70789822D01*
X95887151Y-70827643D01*
X95908029Y-70894320D01*
X95898610Y-70943986D01*
X95841575Y-71081679D01*
X95841574Y-71081681D01*
X95822312Y-71227998D01*
X95822312Y-71228001D01*
X95841574Y-71374318D01*
X95841575Y-71374320D01*
X95898052Y-71510668D01*
X95910073Y-71526334D01*
X95987895Y-71627754D01*
X96104980Y-71717596D01*
X96241329Y-71774074D01*
X96314489Y-71783705D01*
X96387648Y-71793337D01*
X96387649Y-71793337D01*
X96387650Y-71793337D01*
X96436422Y-71786916D01*
X96533969Y-71774074D01*
X96670318Y-71717596D01*
X96787403Y-71627754D01*
X96877245Y-71510669D01*
X96933723Y-71374320D01*
X96947942Y-71266315D01*
X96976208Y-71202418D01*
X97034533Y-71163947D01*
X97070881Y-71158500D01*
X97456130Y-71158500D01*
X97523169Y-71178185D01*
X97543811Y-71194819D01*
X99943102Y-73594111D01*
X99943103Y-73594112D01*
X100057841Y-73670777D01*
X100185316Y-73723578D01*
X100185321Y-73723580D01*
X100185325Y-73723580D01*
X100185326Y-73723581D01*
X100320652Y-73750500D01*
X100320655Y-73750500D01*
X100320656Y-73750500D01*
X102703305Y-73750500D01*
X102770344Y-73770185D01*
X102790986Y-73786819D01*
X104136898Y-75132731D01*
X104170383Y-75194054D01*
X104165399Y-75263746D01*
X104136898Y-75308093D01*
X103230890Y-76214100D01*
X103230884Y-76214107D01*
X103184181Y-76284005D01*
X103184181Y-76284006D01*
X103154223Y-76328840D01*
X103154222Y-76328842D01*
X103101421Y-76456316D01*
X103101418Y-76456326D01*
X103074500Y-76591653D01*
X103074500Y-83056629D01*
X103054815Y-83123668D01*
X103038181Y-83144310D01*
X101876037Y-84306453D01*
X101876036Y-84306454D01*
X101799371Y-84421192D01*
X101746570Y-84548667D01*
X101746567Y-84548679D01*
X101721487Y-84674768D01*
X101721486Y-84674774D01*
X101719649Y-84684007D01*
X101719649Y-85811506D01*
X101719649Y-85949494D01*
X101719649Y-85949496D01*
X101719648Y-85949496D01*
X101746567Y-86084822D01*
X101746570Y-86084832D01*
X101799371Y-86212307D01*
X101876036Y-86327045D01*
X101876037Y-86327046D01*
X102607497Y-87058505D01*
X102640982Y-87119828D01*
X102643816Y-87146186D01*
X102643816Y-88225500D01*
X102624131Y-88292539D01*
X102571327Y-88338294D01*
X102519816Y-88349500D01*
X101048325Y-88349500D01*
X100981286Y-88329815D01*
X100960644Y-88313181D01*
X100849468Y-88202005D01*
X100815983Y-88140682D01*
X100813149Y-88114324D01*
X100813149Y-82378245D01*
X100813149Y-82378243D01*
X100779041Y-82250949D01*
X100713149Y-82136821D01*
X100619963Y-82043635D01*
X98020407Y-79444079D01*
X97986922Y-79382756D01*
X97991906Y-79313064D01*
X98033778Y-79257131D01*
X98091900Y-79233460D01*
X98125219Y-79229074D01*
X98261568Y-79172596D01*
X98378653Y-79082754D01*
X98468495Y-78965669D01*
X98524973Y-78829320D01*
X98544236Y-78683000D01*
X98543610Y-78678247D01*
X98524973Y-78536681D01*
X98524973Y-78536680D01*
X98487133Y-78445327D01*
X98468495Y-78400331D01*
X98378655Y-78283247D01*
X98261567Y-78193403D01*
X98125219Y-78136926D01*
X98125217Y-78136925D01*
X97978900Y-78117663D01*
X97978898Y-78117663D01*
X97832580Y-78136925D01*
X97832578Y-78136926D01*
X97696231Y-78193403D01*
X97579146Y-78283244D01*
X97493647Y-78394670D01*
X97437219Y-78435872D01*
X97367473Y-78440027D01*
X97346394Y-78431737D01*
X97345998Y-78432694D01*
X97202140Y-78373106D01*
X97202138Y-78373105D01*
X97055821Y-78353843D01*
X97055819Y-78353843D01*
X96909493Y-78373106D01*
X96909292Y-78373161D01*
X96909115Y-78373156D01*
X96901442Y-78374167D01*
X96901284Y-78372969D01*
X96839442Y-78371491D01*
X96801724Y-78351759D01*
X96799756Y-78350249D01*
X96799754Y-78350246D01*
X96682669Y-78260404D01*
X96682668Y-78260403D01*
X96682666Y-78260402D01*
X96546320Y-78203926D01*
X96546318Y-78203925D01*
X96400001Y-78184663D01*
X96399999Y-78184663D01*
X96253681Y-78203925D01*
X96253679Y-78203926D01*
X96117332Y-78260403D01*
X96000246Y-78350246D01*
X95910403Y-78467332D01*
X95853926Y-78603679D01*
X95853925Y-78603681D01*
X95834663Y-78749998D01*
X95834663Y-78750001D01*
X95853925Y-78896318D01*
X95853926Y-78896320D01*
X95890061Y-78983556D01*
X95899500Y-79031009D01*
X95899500Y-79034108D01*
X95899500Y-79165892D01*
X95910495Y-79206925D01*
X95933608Y-79293187D01*
X95966554Y-79350250D01*
X95999500Y-79407314D01*
X95999502Y-79407316D01*
X99213181Y-82620995D01*
X99246666Y-82682318D01*
X99249500Y-82708676D01*
X99249500Y-83116098D01*
X99229815Y-83183137D01*
X99177011Y-83228892D01*
X99107853Y-83238836D01*
X99044297Y-83209811D01*
X99027125Y-83191585D01*
X98982411Y-83133314D01*
X98982404Y-83133306D01*
X98825771Y-82976673D01*
X98825762Y-82976665D01*
X98650015Y-82841808D01*
X98650009Y-82841804D01*
X98650005Y-82841801D01*
X98577623Y-82800011D01*
X98458151Y-82731034D01*
X98458137Y-82731027D01*
X98253479Y-82646256D01*
X98253481Y-82646256D01*
X98139765Y-82615786D01*
X98039487Y-82588917D01*
X97990677Y-82582491D01*
X97819852Y-82560000D01*
X97819845Y-82560000D01*
X97598309Y-82560000D01*
X97598301Y-82560000D01*
X97403071Y-82585704D01*
X97378667Y-82588917D01*
X97313185Y-82606462D01*
X97164673Y-82646256D01*
X96960016Y-82731027D01*
X96960002Y-82731034D01*
X96768155Y-82841797D01*
X96768138Y-82841808D01*
X96592391Y-82976665D01*
X96435742Y-83133314D01*
X96300885Y-83309061D01*
X96300874Y-83309078D01*
X96190111Y-83500925D01*
X96190104Y-83500939D01*
X96105333Y-83705596D01*
X96098806Y-83729956D01*
X96048908Y-83916181D01*
X96047994Y-83919591D01*
X96019077Y-84139224D01*
X96019077Y-84360775D01*
X96033656Y-84471503D01*
X96047994Y-84580410D01*
X96073277Y-84674768D01*
X96105333Y-84794403D01*
X96190104Y-84999060D01*
X96190110Y-84999072D01*
X96300878Y-85190928D01*
X96300881Y-85190932D01*
X96300885Y-85190938D01*
X96435742Y-85366685D01*
X96435750Y-85366694D01*
X96592383Y-85523327D01*
X96592391Y-85523334D01*
X96592392Y-85523335D01*
X96649714Y-85567320D01*
X96768138Y-85658191D01*
X96768141Y-85658193D01*
X96768149Y-85658199D01*
X96960005Y-85768967D01*
X96960010Y-85768969D01*
X96960016Y-85768972D01*
X97164674Y-85853743D01*
X97164672Y-85853743D01*
X97164678Y-85853744D01*
X97164679Y-85853745D01*
X97378667Y-85911083D01*
X97598309Y-85940000D01*
X97598316Y-85940000D01*
X97819838Y-85940000D01*
X97819845Y-85940000D01*
X98039487Y-85911083D01*
X98253475Y-85853745D01*
X98315630Y-85828000D01*
X98458137Y-85768972D01*
X98458137Y-85768971D01*
X98458149Y-85768967D01*
X98650005Y-85658199D01*
X98825762Y-85523335D01*
X98825766Y-85523330D01*
X98825771Y-85523327D01*
X98982403Y-85366694D01*
X98982412Y-85366685D01*
X99027126Y-85308411D01*
X99083552Y-85267212D01*
X99153298Y-85263057D01*
X99214219Y-85297270D01*
X99246971Y-85358987D01*
X99249500Y-85383901D01*
X99249500Y-88665891D01*
X99283608Y-88793187D01*
X99316554Y-88850250D01*
X99349500Y-88907314D01*
X99635228Y-89193042D01*
X99875006Y-89432819D01*
X99908491Y-89494142D01*
X99903507Y-89563833D01*
X99861636Y-89619767D01*
X99796171Y-89644184D01*
X99787325Y-89644500D01*
X97755707Y-89644500D01*
X97755516Y-89644475D01*
X97739482Y-89644484D01*
X97738726Y-89644484D01*
X97714610Y-89644498D01*
X97709485Y-89644395D01*
X97271572Y-89626525D01*
X97261356Y-89625684D01*
X96828992Y-89572025D01*
X96818880Y-89570343D01*
X96392430Y-89481157D01*
X96382492Y-89478646D01*
X95964853Y-89354539D01*
X95955156Y-89351215D01*
X95549208Y-89193042D01*
X95539819Y-89188929D01*
X95148319Y-88997766D01*
X95139302Y-88992892D01*
X94997110Y-88908252D01*
X94803806Y-88793187D01*
X94764922Y-88770041D01*
X94756338Y-88764438D01*
X94401647Y-88511430D01*
X94393555Y-88505138D01*
X94060963Y-88223689D01*
X94053433Y-88216762D01*
X93745236Y-87908817D01*
X93738290Y-87901278D01*
X93726749Y-87887663D01*
X93643674Y-87789654D01*
X93456580Y-87568929D01*
X93450281Y-87560843D01*
X93208762Y-87222846D01*
X94097464Y-87222846D01*
X94097464Y-87222849D01*
X94116726Y-87369166D01*
X94116727Y-87369168D01*
X94173204Y-87505516D01*
X94179179Y-87513303D01*
X94263047Y-87622602D01*
X94380132Y-87712444D01*
X94516481Y-87768922D01*
X94589641Y-87778553D01*
X94662800Y-87788185D01*
X94662801Y-87788185D01*
X94662802Y-87788185D01*
X94711574Y-87781764D01*
X94809121Y-87768922D01*
X94945470Y-87712444D01*
X95062555Y-87622602D01*
X95152397Y-87505517D01*
X95208875Y-87369168D01*
X95228138Y-87222848D01*
X95227065Y-87214700D01*
X95208875Y-87076529D01*
X95208875Y-87076528D01*
X95171347Y-86985928D01*
X95152397Y-86940179D01*
X95062557Y-86823095D01*
X94945469Y-86733251D01*
X94809121Y-86676774D01*
X94809119Y-86676773D01*
X94662802Y-86657511D01*
X94662800Y-86657511D01*
X94516482Y-86676773D01*
X94516480Y-86676774D01*
X94380133Y-86733251D01*
X94263047Y-86823094D01*
X94173204Y-86940180D01*
X94116727Y-87076527D01*
X94116726Y-87076529D01*
X94097464Y-87222846D01*
X93208762Y-87222846D01*
X93196979Y-87206356D01*
X93191369Y-87197776D01*
X92968209Y-86823574D01*
X92963343Y-86814589D01*
X92796133Y-86472855D01*
X92771845Y-86423217D01*
X92767725Y-86413831D01*
X92609223Y-86008022D01*
X92605891Y-85998328D01*
X92481435Y-85580771D01*
X92478925Y-85570871D01*
X92389382Y-85144453D01*
X92387699Y-85134387D01*
X92335831Y-84719233D01*
X92333685Y-84702055D01*
X92332835Y-84691840D01*
X92314684Y-84255821D01*
X92314577Y-84250663D01*
X92314577Y-67702225D01*
X92334262Y-67635186D01*
X92387066Y-67589431D01*
X92456224Y-67579487D01*
X92519780Y-67608512D01*
X92553138Y-67654773D01*
X92585402Y-67732667D01*
X92613731Y-67769586D01*
X92675246Y-67849754D01*
X92792331Y-67939596D01*
X92928680Y-67996074D01*
X92979884Y-68002815D01*
X93074999Y-68015337D01*
X93075000Y-68015337D01*
X93075001Y-68015337D01*
X93127670Y-68008403D01*
X93221320Y-67996074D01*
X93357669Y-67939596D01*
X93474754Y-67849754D01*
X93564596Y-67732669D01*
X93600731Y-67645428D01*
X93627606Y-67605206D01*
X93745996Y-67486817D01*
X93807319Y-67453334D01*
X93833676Y-67450500D01*
X93872908Y-67450500D01*
X93939947Y-67470185D01*
X93985702Y-67522989D01*
X93995646Y-67592147D01*
X93980295Y-67636500D01*
X93917802Y-67744740D01*
X93917802Y-67744741D01*
X93917801Y-67744743D01*
X93880149Y-67885262D01*
X93880149Y-68030738D01*
X93917801Y-68171257D01*
X93990539Y-68297243D01*
X94093406Y-68400110D01*
X94145603Y-68430246D01*
X94170792Y-68444789D01*
X94219008Y-68495356D01*
X94232230Y-68563963D01*
X94206262Y-68628828D01*
X94196473Y-68639857D01*
X93355335Y-69480997D01*
X93262151Y-69574180D01*
X93262149Y-69574183D01*
X93196257Y-69688309D01*
X93172407Y-69777321D01*
X93162149Y-69815605D01*
X93162149Y-71196757D01*
X93162149Y-71328541D01*
X93181325Y-71400107D01*
X93196257Y-71455836D01*
X93229203Y-71512899D01*
X93262149Y-71569963D01*
X93262151Y-71569965D01*
X93901248Y-72209062D01*
X93934733Y-72270385D01*
X93929749Y-72340077D01*
X93911944Y-72372228D01*
X93898052Y-72390332D01*
X93841575Y-72526679D01*
X93841574Y-72526681D01*
X93822312Y-72672998D01*
X93822312Y-72673001D01*
X93841574Y-72819318D01*
X93841575Y-72819320D01*
X93877710Y-72906556D01*
X93887149Y-72954009D01*
X93887149Y-75454885D01*
X93887149Y-75586669D01*
X93891111Y-75601454D01*
X93921257Y-75713964D01*
X93944162Y-75753635D01*
X93987149Y-75828091D01*
X93987151Y-75828093D01*
X95118323Y-76959265D01*
X95145203Y-76999493D01*
X95181340Y-77086733D01*
X95271182Y-77203818D01*
X95388267Y-77293660D01*
X95524616Y-77350138D01*
X95597776Y-77359769D01*
X95670935Y-77369401D01*
X95670936Y-77369401D01*
X95670937Y-77369401D01*
X95730442Y-77361567D01*
X95817256Y-77350138D01*
X95953605Y-77293660D01*
X96070690Y-77203818D01*
X96160532Y-77086733D01*
X96163778Y-77078897D01*
X96463562Y-77078897D01*
X96463562Y-77078900D01*
X96482824Y-77225217D01*
X96482825Y-77225219D01*
X96539302Y-77361567D01*
X96539303Y-77361568D01*
X96629145Y-77478653D01*
X96746230Y-77568495D01*
X96882579Y-77624973D01*
X96955739Y-77634604D01*
X97028898Y-77644236D01*
X97028899Y-77644236D01*
X97028900Y-77644236D01*
X97077672Y-77637815D01*
X97175219Y-77624973D01*
X97311568Y-77568495D01*
X97428653Y-77478653D01*
X97518495Y-77361568D01*
X97574973Y-77225219D01*
X97594236Y-77078899D01*
X97574973Y-76932579D01*
X97540901Y-76850324D01*
X97518495Y-76796230D01*
X97428655Y-76679146D01*
X97311567Y-76589302D01*
X97175219Y-76532825D01*
X97175217Y-76532824D01*
X97028900Y-76513562D01*
X97028898Y-76513562D01*
X96882580Y-76532824D01*
X96882578Y-76532825D01*
X96746231Y-76589302D01*
X96629145Y-76679145D01*
X96539302Y-76796231D01*
X96482825Y-76932578D01*
X96482824Y-76932580D01*
X96463562Y-77078897D01*
X96163778Y-77078897D01*
X96217010Y-76950384D01*
X96233695Y-76823650D01*
X96236273Y-76804065D01*
X96236273Y-76804062D01*
X96221722Y-76693539D01*
X96217010Y-76657744D01*
X96160532Y-76521396D01*
X96160532Y-76521395D01*
X96070692Y-76404311D01*
X96031661Y-76374362D01*
X95953605Y-76314468D01*
X95953601Y-76314466D01*
X95953602Y-76314466D01*
X95866365Y-76278331D01*
X95826137Y-76251451D01*
X95691681Y-76116995D01*
X98762148Y-76116995D01*
X98789067Y-76252322D01*
X98789070Y-76252332D01*
X98841870Y-76379804D01*
X98841877Y-76379817D01*
X98918534Y-76494541D01*
X98918537Y-76494545D01*
X99016103Y-76592111D01*
X99016107Y-76592114D01*
X99130831Y-76668771D01*
X99130844Y-76668778D01*
X99226878Y-76708556D01*
X99258321Y-76721580D01*
X99258325Y-76721580D01*
X99258326Y-76721581D01*
X99393653Y-76748500D01*
X99393656Y-76748500D01*
X101231645Y-76748500D01*
X101322689Y-76730389D01*
X101366977Y-76721580D01*
X101494460Y-76668775D01*
X101510971Y-76657743D01*
X101531610Y-76643953D01*
X101598287Y-76623075D01*
X101665667Y-76641560D01*
X101712357Y-76693539D01*
X101724500Y-76747055D01*
X101724500Y-80584691D01*
X101711313Y-80633912D01*
X101713514Y-80634824D01*
X101653926Y-80778679D01*
X101653925Y-80778681D01*
X101634663Y-80924998D01*
X101634663Y-80925001D01*
X101653925Y-81071318D01*
X101653926Y-81071320D01*
X101710403Y-81207668D01*
X101710404Y-81207669D01*
X101800246Y-81324754D01*
X101917331Y-81414596D01*
X102053680Y-81471074D01*
X102126840Y-81480705D01*
X102199999Y-81490337D01*
X102200000Y-81490337D01*
X102200001Y-81490337D01*
X102248773Y-81483916D01*
X102346320Y-81471074D01*
X102482669Y-81414596D01*
X102599754Y-81324754D01*
X102689596Y-81207669D01*
X102746074Y-81071320D01*
X102765337Y-80925000D01*
X102746074Y-80778680D01*
X102689596Y-80642332D01*
X102689595Y-80642331D01*
X102686486Y-80634824D01*
X102688686Y-80633912D01*
X102675500Y-80584691D01*
X102675500Y-75190310D01*
X102688690Y-75141091D01*
X102686486Y-75140178D01*
X102717721Y-75064770D01*
X102746074Y-74996320D01*
X102765337Y-74850000D01*
X102759718Y-74807322D01*
X102746074Y-74703681D01*
X102746074Y-74703680D01*
X102689596Y-74567332D01*
X102689596Y-74567331D01*
X102599756Y-74450247D01*
X102482668Y-74360403D01*
X102346320Y-74303926D01*
X102346318Y-74303925D01*
X102200001Y-74284663D01*
X102199999Y-74284663D01*
X102053681Y-74303925D01*
X102053679Y-74303926D01*
X101917332Y-74360403D01*
X101800246Y-74450246D01*
X101710403Y-74567332D01*
X101653926Y-74703679D01*
X101653925Y-74703681D01*
X101634663Y-74849998D01*
X101634663Y-74850001D01*
X101653925Y-74996318D01*
X101653926Y-74996320D01*
X101681778Y-75063560D01*
X101689247Y-75133030D01*
X101657972Y-75195509D01*
X101597883Y-75231161D01*
X101528058Y-75228667D01*
X101519771Y-75225577D01*
X101516980Y-75224421D01*
X101516971Y-75224418D01*
X101381645Y-75197500D01*
X101381643Y-75197500D01*
X101243655Y-75197500D01*
X101243653Y-75197500D01*
X101108326Y-75224418D01*
X101108316Y-75224421D01*
X100980841Y-75277223D01*
X100980838Y-75277224D01*
X100980838Y-75277225D01*
X100926604Y-75313463D01*
X100906938Y-75326603D01*
X100840260Y-75347480D01*
X100838048Y-75347500D01*
X99393654Y-75347500D01*
X99258326Y-75374418D01*
X99258316Y-75374421D01*
X99130844Y-75427221D01*
X99130831Y-75427228D01*
X99016107Y-75503885D01*
X99016103Y-75503888D01*
X98918537Y-75601454D01*
X98918534Y-75601458D01*
X98841877Y-75716182D01*
X98841870Y-75716195D01*
X98789070Y-75843667D01*
X98789067Y-75843677D01*
X98762149Y-75979004D01*
X98762149Y-75979007D01*
X98762149Y-76116993D01*
X98762149Y-76116995D01*
X98762148Y-76116995D01*
X95691681Y-76116995D01*
X94924468Y-75349782D01*
X94890983Y-75288459D01*
X94888149Y-75262101D01*
X94888149Y-74265272D01*
X94898746Y-74229182D01*
X94889630Y-74209833D01*
X94888149Y-74190727D01*
X94888149Y-73495325D01*
X94907834Y-73428286D01*
X94960638Y-73382531D01*
X95029796Y-73372587D01*
X95093352Y-73401612D01*
X95099830Y-73407644D01*
X95160830Y-73468644D01*
X95194315Y-73529967D01*
X95197149Y-73556325D01*
X95197149Y-73946990D01*
X95187710Y-73994443D01*
X95151575Y-74081679D01*
X95151574Y-74081681D01*
X95135088Y-74206912D01*
X95127335Y-74224438D01*
X95131126Y-74230337D01*
X95135088Y-74249087D01*
X95151574Y-74374318D01*
X95151575Y-74374320D01*
X95208052Y-74510668D01*
X95208053Y-74510669D01*
X95297895Y-74627754D01*
X95414980Y-74717596D01*
X95551329Y-74774074D01*
X95624489Y-74783705D01*
X95697648Y-74793337D01*
X95697649Y-74793337D01*
X95697650Y-74793337D01*
X95746422Y-74786916D01*
X95843969Y-74774074D01*
X95980318Y-74717596D01*
X96097403Y-74627754D01*
X96187245Y-74510669D01*
X96243723Y-74374320D01*
X96262678Y-74230337D01*
X96262986Y-74228001D01*
X96262986Y-74227998D01*
X96246505Y-74102815D01*
X96243723Y-74081680D01*
X96207588Y-73994443D01*
X96198149Y-73946990D01*
X96198149Y-73231759D01*
X96198149Y-73231757D01*
X96164041Y-73104463D01*
X96098149Y-72990335D01*
X96004963Y-72897149D01*
X94718811Y-71610997D01*
X94685326Y-71549674D01*
X94690310Y-71479982D01*
X94732182Y-71424049D01*
X94744483Y-71415934D01*
X94771892Y-71400110D01*
X94874759Y-71297243D01*
X94947497Y-71171257D01*
X94985149Y-71030738D01*
X94985149Y-70885262D01*
X94947497Y-70744743D01*
X94874759Y-70618757D01*
X94771892Y-70515890D01*
X94649393Y-70445165D01*
X94645908Y-70443153D01*
X94645907Y-70443152D01*
X94645906Y-70443152D01*
X94505387Y-70405500D01*
X94359911Y-70405500D01*
X94359909Y-70405500D01*
X94319241Y-70416397D01*
X94249391Y-70414734D01*
X94191529Y-70375570D01*
X94164026Y-70311342D01*
X94163149Y-70296622D01*
X94163149Y-70140173D01*
X94182834Y-70073134D01*
X94199468Y-70052492D01*
X94967845Y-69284115D01*
X95742978Y-68508982D01*
X95808870Y-68394854D01*
X95842978Y-68267560D01*
X95842978Y-68197998D01*
X97272312Y-68197998D01*
X97272312Y-68198001D01*
X97291574Y-68344318D01*
X97291575Y-68344320D01*
X97348052Y-68480668D01*
X97348053Y-68480669D01*
X97437895Y-68597754D01*
X97554980Y-68687596D01*
X97691329Y-68744074D01*
X97764489Y-68753705D01*
X97837648Y-68763337D01*
X97837649Y-68763337D01*
X97837650Y-68763337D01*
X97871505Y-68758879D01*
X97980936Y-68744473D01*
X97992417Y-68746263D01*
X98005512Y-68735187D01*
X98008169Y-68734049D01*
X98120318Y-68687596D01*
X98237403Y-68597754D01*
X98327245Y-68480669D01*
X98383723Y-68344320D01*
X98402986Y-68198000D01*
X98399465Y-68171258D01*
X98389853Y-68098246D01*
X98383723Y-68051680D01*
X98350638Y-67971809D01*
X98327245Y-67915331D01*
X98237405Y-67798247D01*
X98120317Y-67708403D01*
X97983969Y-67651926D01*
X97983967Y-67651925D01*
X97837650Y-67632663D01*
X97837648Y-67632663D01*
X97691330Y-67651925D01*
X97691328Y-67651926D01*
X97554981Y-67708403D01*
X97437895Y-67798246D01*
X97348052Y-67915332D01*
X97291575Y-68051679D01*
X97291574Y-68051681D01*
X97272312Y-68197998D01*
X95842978Y-68197998D01*
X95842978Y-68135776D01*
X95842978Y-67109711D01*
X95862663Y-67042672D01*
X95879293Y-67022034D01*
X96186179Y-66715147D01*
X96247500Y-66681664D01*
X96317191Y-66686648D01*
X96361534Y-66715144D01*
X96364140Y-66717750D01*
X96364144Y-66717753D01*
X96364145Y-66717754D01*
X96481230Y-66807596D01*
X96617579Y-66864074D01*
X96690739Y-66873705D01*
X96763898Y-66883337D01*
X96763899Y-66883337D01*
X96763900Y-66883337D01*
X96812672Y-66876916D01*
X96910219Y-66864074D01*
X97046568Y-66807596D01*
X97163653Y-66717754D01*
X97253495Y-66600669D01*
X97309973Y-66464320D01*
X97329236Y-66318000D01*
X97326570Y-66297753D01*
X97309973Y-66171681D01*
X97309973Y-66171680D01*
X97253495Y-66035332D01*
X97163653Y-65918246D01*
X97163651Y-65918245D01*
X97163651Y-65918244D01*
X97161048Y-65915641D01*
X97159553Y-65912903D01*
X97158705Y-65911798D01*
X97158877Y-65911665D01*
X97151414Y-65897998D01*
X97624812Y-65897998D01*
X97624812Y-65898001D01*
X97644074Y-66044318D01*
X97644075Y-66044320D01*
X97700552Y-66180668D01*
X97700553Y-66180669D01*
X97790395Y-66297754D01*
X97907480Y-66387596D01*
X98043829Y-66444074D01*
X98116989Y-66453705D01*
X98190148Y-66463337D01*
X98190149Y-66463337D01*
X98190150Y-66463337D01*
X98238922Y-66456916D01*
X98336469Y-66444074D01*
X98472818Y-66387596D01*
X98589903Y-66297754D01*
X98679745Y-66180669D01*
X98736223Y-66044320D01*
X98753524Y-65912903D01*
X98755486Y-65898001D01*
X98755486Y-65897998D01*
X98736433Y-65753273D01*
X98736223Y-65751680D01*
X98689388Y-65638611D01*
X98679745Y-65615331D01*
X98589905Y-65498247D01*
X98472817Y-65408403D01*
X98336469Y-65351926D01*
X98336467Y-65351925D01*
X98190150Y-65332663D01*
X98190148Y-65332663D01*
X98043830Y-65351925D01*
X98043828Y-65351926D01*
X97907481Y-65408403D01*
X97790395Y-65498246D01*
X97700552Y-65615332D01*
X97644075Y-65751679D01*
X97644074Y-65751681D01*
X97624812Y-65897998D01*
X97151414Y-65897998D01*
X97127563Y-65854318D01*
X97132547Y-65784626D01*
X97161048Y-65740279D01*
X97941630Y-64959697D01*
X98827500Y-64073828D01*
X98893392Y-63959700D01*
X98895101Y-63953321D01*
X98931461Y-63893660D01*
X98994306Y-63863127D01*
X99031062Y-63862470D01*
X99037648Y-63863337D01*
X99037649Y-63863337D01*
X99037650Y-63863337D01*
X99086422Y-63856916D01*
X99183969Y-63844074D01*
X99320318Y-63787596D01*
X99437403Y-63697754D01*
X99527245Y-63580669D01*
X99583723Y-63444320D01*
X99602986Y-63298000D01*
X99583723Y-63151680D01*
X99527245Y-63015332D01*
X99479787Y-62953483D01*
X99454595Y-62888317D01*
X99468633Y-62819873D01*
X99479786Y-62802518D01*
X99527245Y-62740669D01*
X99583723Y-62604320D01*
X99599483Y-62484611D01*
X99602986Y-62458001D01*
X99602986Y-62457998D01*
X99593902Y-62388996D01*
X99587278Y-62338684D01*
X99598044Y-62269650D01*
X99644424Y-62217394D01*
X99710217Y-62198500D01*
X102201112Y-62198500D01*
X102248565Y-62207939D01*
X102284709Y-62222910D01*
X102391329Y-62267074D01*
X102445564Y-62274214D01*
X102537648Y-62286337D01*
X102537649Y-62286337D01*
X102537650Y-62286337D01*
X102586422Y-62279916D01*
X102683969Y-62267074D01*
X102820318Y-62210596D01*
X102937403Y-62120754D01*
X103027245Y-62003669D01*
X103068649Y-61903710D01*
X103098467Y-61866707D01*
X103090010Y-61819823D01*
X103090348Y-61816994D01*
X103102986Y-61721000D01*
X103083723Y-61574680D01*
X103043958Y-61478679D01*
X103027245Y-61438331D01*
X102937405Y-61321247D01*
X102820317Y-61231403D01*
X102683969Y-61174926D01*
X102683967Y-61174925D01*
X102537650Y-61155663D01*
X102537648Y-61155663D01*
X102391330Y-61174925D01*
X102391328Y-61174926D01*
X102359619Y-61188061D01*
X102312166Y-61197500D01*
X98786108Y-61197500D01*
X98658812Y-61231608D01*
X98544686Y-61297500D01*
X98544683Y-61297502D01*
X97624502Y-62217683D01*
X97624500Y-62217686D01*
X97558608Y-62331812D01*
X97524500Y-62459108D01*
X97524500Y-63341324D01*
X97504815Y-63408363D01*
X97488181Y-63429005D01*
X94504005Y-66413181D01*
X94442682Y-66446666D01*
X94416324Y-66449500D01*
X93509108Y-66449500D01*
X93381812Y-66483608D01*
X93267686Y-66549500D01*
X93267683Y-66549502D01*
X92919796Y-66897388D01*
X92879570Y-66924267D01*
X92792334Y-66960403D01*
X92792326Y-66960407D01*
X92675246Y-67050246D01*
X92585403Y-67167332D01*
X92553138Y-67245228D01*
X92509297Y-67299631D01*
X92443003Y-67321696D01*
X92375303Y-67304417D01*
X92327693Y-67253279D01*
X92314577Y-67197775D01*
X92314577Y-64328000D01*
X93157649Y-64328000D01*
X95247649Y-64328000D01*
X95247649Y-62428000D01*
X93157649Y-62428000D01*
X93157649Y-64328000D01*
X92314577Y-64328000D01*
X92314577Y-59603000D01*
X93157649Y-59603000D01*
X95247649Y-59603000D01*
X95247649Y-59431648D01*
X102052312Y-59431648D01*
X102052312Y-59431651D01*
X102071574Y-59577968D01*
X102071575Y-59577970D01*
X102128052Y-59714318D01*
X102128053Y-59714319D01*
X102217895Y-59831404D01*
X102334980Y-59921246D01*
X102471329Y-59977724D01*
X102544489Y-59987355D01*
X102617648Y-59996987D01*
X102617649Y-59996987D01*
X102617650Y-59996987D01*
X102666422Y-59990566D01*
X102763969Y-59977724D01*
X102900318Y-59921246D01*
X102972538Y-59865829D01*
X103037704Y-59840637D01*
X103106149Y-59854675D01*
X103156139Y-59903489D01*
X103162583Y-59916754D01*
X103218052Y-60050668D01*
X103218053Y-60050669D01*
X103307895Y-60167754D01*
X103424980Y-60257596D01*
X103561329Y-60314074D01*
X103634489Y-60323705D01*
X103707648Y-60333337D01*
X103707649Y-60333337D01*
X103707650Y-60333337D01*
X103756422Y-60326916D01*
X103853969Y-60314074D01*
X103990318Y-60257596D01*
X104107403Y-60167754D01*
X104197245Y-60050669D01*
X104253723Y-59914320D01*
X104272986Y-59768000D01*
X104253723Y-59621680D01*
X104197245Y-59485332D01*
X104197245Y-59485331D01*
X104107405Y-59368247D01*
X103990317Y-59278403D01*
X103853969Y-59221926D01*
X103853967Y-59221925D01*
X103707650Y-59202663D01*
X103707648Y-59202663D01*
X103561330Y-59221925D01*
X103561328Y-59221926D01*
X103424980Y-59278403D01*
X103352761Y-59333819D01*
X103287591Y-59359013D01*
X103219146Y-59344974D01*
X103169157Y-59296160D01*
X103162719Y-59282907D01*
X103107245Y-59148982D01*
X103107245Y-59148981D01*
X103017405Y-59031897D01*
X102900317Y-58942053D01*
X102763969Y-58885576D01*
X102763967Y-58885575D01*
X102617650Y-58866313D01*
X102617648Y-58866313D01*
X102471330Y-58885575D01*
X102471328Y-58885576D01*
X102334981Y-58942053D01*
X102217895Y-59031896D01*
X102128052Y-59148982D01*
X102071575Y-59285329D01*
X102071574Y-59285331D01*
X102052312Y-59431648D01*
X95247649Y-59431648D01*
X95247649Y-57703000D01*
X93157649Y-57703000D01*
X93157649Y-59603000D01*
X92314577Y-59603000D01*
X92314577Y-57472998D01*
X101272312Y-57472998D01*
X101272312Y-57473001D01*
X101291574Y-57619318D01*
X101291575Y-57619320D01*
X101348052Y-57755668D01*
X101368956Y-57782911D01*
X101437895Y-57872754D01*
X101554980Y-57962596D01*
X101691329Y-58019074D01*
X101764489Y-58028705D01*
X101837648Y-58038337D01*
X101837649Y-58038337D01*
X101837650Y-58038337D01*
X101886422Y-58031916D01*
X101983969Y-58019074D01*
X102120318Y-57962596D01*
X102237403Y-57872754D01*
X102327245Y-57755669D01*
X102383723Y-57619320D01*
X102402986Y-57473000D01*
X102401298Y-57460181D01*
X102383723Y-57326681D01*
X102383723Y-57326680D01*
X102327245Y-57190332D01*
X102327245Y-57190331D01*
X102237405Y-57073247D01*
X102120317Y-56983403D01*
X101983969Y-56926926D01*
X101983967Y-56926925D01*
X101837650Y-56907663D01*
X101837648Y-56907663D01*
X101691330Y-56926925D01*
X101691328Y-56926926D01*
X101554981Y-56983403D01*
X101437895Y-57073246D01*
X101348052Y-57190332D01*
X101291575Y-57326679D01*
X101291574Y-57326681D01*
X101272312Y-57472998D01*
X92314577Y-57472998D01*
X92314577Y-53797655D01*
X92314601Y-53797476D01*
X92314592Y-53780408D01*
X92314593Y-53780407D01*
X92314579Y-53755507D01*
X92314681Y-53750434D01*
X92332558Y-53312485D01*
X92333396Y-53302304D01*
X92387064Y-52869911D01*
X92388742Y-52859824D01*
X92477940Y-52433343D01*
X92480445Y-52423431D01*
X92604556Y-52005797D01*
X92607876Y-51996110D01*
X92608412Y-51994735D01*
X92766061Y-51590144D01*
X92770170Y-51580766D01*
X92857361Y-51402204D01*
X92961348Y-51189243D01*
X92966199Y-51180270D01*
X93189064Y-50805872D01*
X93194649Y-50797314D01*
X93447692Y-50442580D01*
X93453953Y-50434530D01*
X93735397Y-50101946D01*
X93742336Y-50094402D01*
X94050302Y-49786186D01*
X94057818Y-49779262D01*
X94390192Y-49497533D01*
X94398248Y-49491259D01*
X94752755Y-49237944D01*
X94761298Y-49232358D01*
X95135533Y-49009180D01*
X95144497Y-49004325D01*
X95535881Y-48812820D01*
X95545256Y-48808705D01*
X95951087Y-48650195D01*
X95960743Y-48646876D01*
X96378321Y-48522415D01*
X96388211Y-48519907D01*
X96814632Y-48430362D01*
X96824698Y-48428679D01*
X97257051Y-48374660D01*
X97267216Y-48373815D01*
X97704578Y-48355607D01*
X97709736Y-48355500D01*
X97822973Y-48355500D01*
X97890012Y-48375185D01*
G37*
%TD.AperFunction*%
%TA.AperFunction,Conductor*%
G36*
X110050188Y-73918185D02*
G01*
X110095943Y-73970989D01*
X110107149Y-74022500D01*
X110107149Y-74261480D01*
X110087464Y-74328519D01*
X110070830Y-74349161D01*
X108513537Y-75906453D01*
X108513536Y-75906454D01*
X108436871Y-76021192D01*
X108384070Y-76148667D01*
X108384067Y-76148679D01*
X108363257Y-76253300D01*
X108363257Y-76253303D01*
X108360156Y-76268893D01*
X108357149Y-76284007D01*
X108357149Y-77184007D01*
X108357149Y-78199006D01*
X108357149Y-78336994D01*
X108357149Y-78336996D01*
X108357148Y-78336996D01*
X108384067Y-78472322D01*
X108384070Y-78472332D01*
X108436871Y-78599807D01*
X108513536Y-78714545D01*
X110916103Y-81117112D01*
X111030839Y-81193776D01*
X111096335Y-81220905D01*
X111158320Y-81246580D01*
X111158321Y-81246580D01*
X111158326Y-81246582D01*
X111185194Y-81251925D01*
X111185200Y-81251926D01*
X111185240Y-81251934D01*
X111275586Y-81269905D01*
X111293655Y-81273500D01*
X111293656Y-81273500D01*
X114102895Y-81273500D01*
X114211356Y-81251925D01*
X114238227Y-81246580D01*
X114256453Y-81239030D01*
X114325918Y-81231561D01*
X114388398Y-81262834D01*
X114424052Y-81322922D01*
X114421560Y-81392747D01*
X114391586Y-81441272D01*
X114035304Y-81797554D01*
X113973981Y-81831039D01*
X113904289Y-81826055D01*
X113849247Y-81785359D01*
X113782405Y-81698247D01*
X113665317Y-81608403D01*
X113528969Y-81551926D01*
X113528967Y-81551925D01*
X113382650Y-81532663D01*
X113382648Y-81532663D01*
X113236330Y-81551925D01*
X113236328Y-81551926D01*
X113099981Y-81608403D01*
X112982893Y-81698247D01*
X112981019Y-81700690D01*
X112978914Y-81702226D01*
X112977148Y-81703993D01*
X112976872Y-81703717D01*
X112924588Y-81741888D01*
X112854842Y-81746038D01*
X112793924Y-81711821D01*
X112784274Y-81700683D01*
X112782405Y-81698248D01*
X112782406Y-81698248D01*
X112665317Y-81608403D01*
X112528969Y-81551926D01*
X112528967Y-81551925D01*
X112382650Y-81532663D01*
X112382648Y-81532663D01*
X112236330Y-81551925D01*
X112236328Y-81551926D01*
X112099981Y-81608403D01*
X111982895Y-81698246D01*
X111893052Y-81815332D01*
X111836575Y-81951679D01*
X111836574Y-81951681D01*
X111817312Y-82097998D01*
X111817312Y-82098001D01*
X111836574Y-82244318D01*
X111836575Y-82244320D01*
X111893052Y-82380668D01*
X111893053Y-82380669D01*
X111982895Y-82497754D01*
X112099980Y-82587596D01*
X112236329Y-82644074D01*
X112276200Y-82649323D01*
X112382648Y-82663337D01*
X112382649Y-82663337D01*
X112382650Y-82663337D01*
X112431422Y-82656916D01*
X112528969Y-82644074D01*
X112665318Y-82587596D01*
X112782403Y-82497754D01*
X112784271Y-82495318D01*
X112786372Y-82493784D01*
X112788150Y-82492007D01*
X112788427Y-82492284D01*
X112840697Y-82454114D01*
X112910443Y-82449957D01*
X112971365Y-82484167D01*
X112981023Y-82495314D01*
X112982895Y-82497754D01*
X113055397Y-82553387D01*
X113070008Y-82564598D01*
X113111211Y-82621026D01*
X113115366Y-82690772D01*
X113082203Y-82750655D01*
X111916679Y-83916181D01*
X111855356Y-83949666D01*
X111828998Y-83952500D01*
X109108460Y-83952500D01*
X108944157Y-83985182D01*
X108944149Y-83985184D01*
X108789371Y-84049295D01*
X108650069Y-84142373D01*
X108531605Y-84260837D01*
X108438527Y-84400139D01*
X108374416Y-84554917D01*
X108374414Y-84554925D01*
X108341732Y-84719228D01*
X108341732Y-84886771D01*
X108374414Y-85051074D01*
X108374416Y-85051082D01*
X108438527Y-85205860D01*
X108531605Y-85345162D01*
X108650069Y-85463626D01*
X108739418Y-85523327D01*
X108789369Y-85556703D01*
X108789370Y-85556703D01*
X108789371Y-85556704D01*
X108813356Y-85566639D01*
X108944150Y-85620816D01*
X109108460Y-85653499D01*
X109108464Y-85653500D01*
X109108465Y-85653500D01*
X111803577Y-85653500D01*
X111870616Y-85673185D01*
X111916371Y-85725989D01*
X111926315Y-85795147D01*
X111897290Y-85858703D01*
X111891258Y-85865181D01*
X110755682Y-87000755D01*
X110694359Y-87034240D01*
X110692193Y-87034691D01*
X110670403Y-87039025D01*
X110670399Y-87039026D01*
X110497420Y-87110676D01*
X110497411Y-87110681D01*
X110341741Y-87214697D01*
X110341737Y-87214700D01*
X110209349Y-87347088D01*
X110209346Y-87347092D01*
X110105330Y-87502762D01*
X110105325Y-87502771D01*
X110033676Y-87675748D01*
X110033674Y-87675756D01*
X109997149Y-87859379D01*
X109997149Y-88046619D01*
X110027919Y-88201309D01*
X110021692Y-88270900D01*
X109978829Y-88326078D01*
X109912939Y-88349322D01*
X109906302Y-88349500D01*
X107828511Y-88349500D01*
X107761472Y-88329815D01*
X107715717Y-88277011D01*
X107705572Y-88209315D01*
X107705760Y-88207891D01*
X107712986Y-88153000D01*
X107711364Y-88140682D01*
X107693723Y-88006681D01*
X107693723Y-88006680D01*
X107650346Y-87901959D01*
X107637245Y-87870331D01*
X107547405Y-87753247D01*
X107430317Y-87663403D01*
X107293969Y-87606926D01*
X107293967Y-87606925D01*
X107147650Y-87587663D01*
X107147648Y-87587663D01*
X107001330Y-87606925D01*
X107001328Y-87606926D01*
X106864981Y-87663403D01*
X106747895Y-87753246D01*
X106658052Y-87870332D01*
X106601575Y-88006679D01*
X106601574Y-88006681D01*
X106582312Y-88152998D01*
X106582312Y-88153000D01*
X106589538Y-88207891D01*
X106589726Y-88209315D01*
X106578961Y-88278350D01*
X106532581Y-88330606D01*
X106466787Y-88349500D01*
X104168816Y-88349500D01*
X104101777Y-88329815D01*
X104056022Y-88277011D01*
X104044816Y-88225500D01*
X104044816Y-86735671D01*
X104017897Y-86600344D01*
X104017896Y-86600343D01*
X104017896Y-86600339D01*
X104015152Y-86593714D01*
X103965094Y-86472862D01*
X103965090Y-86472855D01*
X103931923Y-86423217D01*
X103928851Y-86418619D01*
X103888430Y-86358124D01*
X103888428Y-86358121D01*
X103156968Y-85626661D01*
X103123483Y-85565338D01*
X103120649Y-85538980D01*
X103120649Y-85094519D01*
X103140334Y-85027480D01*
X103156968Y-85006838D01*
X104319112Y-83844694D01*
X104319114Y-83844692D01*
X104395775Y-83729960D01*
X104405865Y-83705602D01*
X104435034Y-83635180D01*
X104448580Y-83602477D01*
X104464511Y-83522386D01*
X104475500Y-83467145D01*
X104475500Y-82097998D01*
X109822312Y-82097998D01*
X109822312Y-82098001D01*
X109841574Y-82244318D01*
X109841575Y-82244320D01*
X109898052Y-82380668D01*
X109898053Y-82380669D01*
X109987895Y-82497754D01*
X110104980Y-82587596D01*
X110241329Y-82644074D01*
X110281200Y-82649323D01*
X110387648Y-82663337D01*
X110387649Y-82663337D01*
X110387650Y-82663337D01*
X110436422Y-82656916D01*
X110533969Y-82644074D01*
X110670318Y-82587596D01*
X110787403Y-82497754D01*
X110877245Y-82380669D01*
X110933723Y-82244320D01*
X110952986Y-82098000D01*
X110951923Y-82089928D01*
X110936075Y-81969543D01*
X110933723Y-81951680D01*
X110877245Y-81815332D01*
X110877245Y-81815331D01*
X110787405Y-81698247D01*
X110670317Y-81608403D01*
X110533969Y-81551926D01*
X110533967Y-81551925D01*
X110387650Y-81532663D01*
X110387648Y-81532663D01*
X110241330Y-81551925D01*
X110241328Y-81551926D01*
X110104981Y-81608403D01*
X109987895Y-81698246D01*
X109898052Y-81815332D01*
X109841575Y-81951679D01*
X109841574Y-81951681D01*
X109822312Y-82097998D01*
X104475500Y-82097998D01*
X104475500Y-77002168D01*
X104495185Y-76935129D01*
X104511819Y-76914487D01*
X107491487Y-73934819D01*
X107552810Y-73901334D01*
X107579168Y-73898500D01*
X109983149Y-73898500D01*
X110050188Y-73918185D01*
G37*
%TD.AperFunction*%
%TA.AperFunction,Conductor*%
G36*
X122986363Y-84793185D02*
G01*
X123032118Y-84845989D01*
X123042062Y-84915147D01*
X123013037Y-84978703D01*
X123007004Y-84985182D01*
X122968568Y-85023617D01*
X122735329Y-85256855D01*
X122735330Y-85256856D01*
X122659585Y-85332601D01*
X122593692Y-85446729D01*
X122593691Y-85446732D01*
X122563481Y-85559475D01*
X122558268Y-85574832D01*
X122514012Y-85681676D01*
X122514010Y-85681681D01*
X122494748Y-85827998D01*
X122494748Y-85828001D01*
X122514010Y-85974318D01*
X122514011Y-85974320D01*
X122570488Y-86110668D01*
X122570489Y-86110669D01*
X122660331Y-86227754D01*
X122777416Y-86317596D01*
X122913765Y-86374074D01*
X123060085Y-86393337D01*
X123109316Y-86386855D01*
X123178348Y-86397620D01*
X123230605Y-86443999D01*
X123249500Y-86509794D01*
X123249500Y-87701973D01*
X123229815Y-87769012D01*
X123213181Y-87789654D01*
X122689654Y-88313181D01*
X122628331Y-88346666D01*
X122601973Y-88349500D01*
X112394721Y-88349500D01*
X112327682Y-88329815D01*
X112281927Y-88277011D01*
X112271983Y-88207853D01*
X112301008Y-88144297D01*
X112307040Y-88137819D01*
X115635039Y-84809819D01*
X115696362Y-84776334D01*
X115722720Y-84773500D01*
X122919324Y-84773500D01*
X122986363Y-84793185D01*
G37*
%TD.AperFunction*%
%TA.AperFunction,Conductor*%
G36*
X118519616Y-58753185D02*
G01*
X118540258Y-58769819D01*
X120740830Y-60970391D01*
X120774315Y-61031714D01*
X120777149Y-61058072D01*
X120777149Y-65086620D01*
X120813673Y-65270243D01*
X120813675Y-65270247D01*
X120813676Y-65270251D01*
X120814697Y-65272715D01*
X120829771Y-65309108D01*
X120885324Y-65443227D01*
X120885329Y-65443236D01*
X120989346Y-65598907D01*
X120989349Y-65598911D01*
X121056251Y-65665813D01*
X121089736Y-65727136D01*
X121084752Y-65796828D01*
X121042880Y-65852761D01*
X120977416Y-65877178D01*
X120952385Y-65876433D01*
X120825001Y-65859663D01*
X120824999Y-65859663D01*
X120678681Y-65878925D01*
X120678679Y-65878926D01*
X120542332Y-65935403D01*
X120425246Y-66025246D01*
X120335403Y-66142332D01*
X120278926Y-66278679D01*
X120278925Y-66278681D01*
X120259663Y-66424998D01*
X120259663Y-66425001D01*
X120278925Y-66571318D01*
X120278926Y-66571320D01*
X120335403Y-66707668D01*
X120343139Y-66717750D01*
X120425246Y-66824754D01*
X120542331Y-66914596D01*
X120678680Y-66971074D01*
X120714305Y-66975764D01*
X120824999Y-66990337D01*
X120825000Y-66990337D01*
X120825001Y-66990337D01*
X120888107Y-66982029D01*
X120971320Y-66971074D01*
X121107669Y-66914596D01*
X121224754Y-66824754D01*
X121314596Y-66707669D01*
X121371074Y-66571320D01*
X121388849Y-66436302D01*
X121390337Y-66425001D01*
X121390337Y-66425000D01*
X121388781Y-66413181D01*
X121373566Y-66297612D01*
X121384331Y-66228579D01*
X121430711Y-66176323D01*
X121497980Y-66157438D01*
X121564781Y-66177918D01*
X121584186Y-66193748D01*
X121826737Y-66436299D01*
X121826741Y-66436302D01*
X121982412Y-66540319D01*
X121982419Y-66540323D01*
X122054298Y-66570096D01*
X122155398Y-66611973D01*
X122339028Y-66648499D01*
X122339032Y-66648500D01*
X122339033Y-66648500D01*
X122526266Y-66648500D01*
X126450949Y-66648500D01*
X126517988Y-66668185D01*
X126563743Y-66720989D01*
X126574949Y-66772500D01*
X126574949Y-66809966D01*
X126598374Y-66897388D01*
X126604438Y-66920019D01*
X126661400Y-67018680D01*
X126661402Y-67018682D01*
X126661403Y-67018684D01*
X126741965Y-67099246D01*
X126741966Y-67099247D01*
X126741968Y-67099248D01*
X126840629Y-67156210D01*
X126840630Y-67156210D01*
X126840633Y-67156212D01*
X126950683Y-67185700D01*
X126950686Y-67185700D01*
X127064612Y-67185700D01*
X127064615Y-67185700D01*
X127174665Y-67156212D01*
X127273333Y-67099246D01*
X127353895Y-67018684D01*
X127410861Y-66920016D01*
X127440349Y-66809966D01*
X127440349Y-66772500D01*
X127460034Y-66705461D01*
X127512838Y-66659706D01*
X127564349Y-66648500D01*
X129392577Y-66648500D01*
X129459616Y-66668185D01*
X129480258Y-66684819D01*
X131225830Y-68430391D01*
X131259315Y-68491714D01*
X131262149Y-68518072D01*
X131262149Y-73802927D01*
X131242464Y-73869966D01*
X131225830Y-73890608D01*
X130207349Y-74909088D01*
X130207346Y-74909092D01*
X130103327Y-75064766D01*
X130077404Y-75127352D01*
X130031676Y-75237748D01*
X130031674Y-75237756D01*
X129995149Y-75421379D01*
X129995149Y-83522386D01*
X129975464Y-83589425D01*
X129922660Y-83635180D01*
X129853502Y-83645124D01*
X129789946Y-83616099D01*
X129756588Y-83569839D01*
X129736932Y-83522386D01*
X129728044Y-83500928D01*
X129617276Y-83309072D01*
X129482412Y-83133315D01*
X129482411Y-83133314D01*
X129482404Y-83133306D01*
X129325771Y-82976673D01*
X129325762Y-82976665D01*
X129150015Y-82841808D01*
X129150009Y-82841804D01*
X129150005Y-82841801D01*
X129077623Y-82800011D01*
X128958151Y-82731034D01*
X128958137Y-82731027D01*
X128753479Y-82646256D01*
X128753481Y-82646256D01*
X128639765Y-82615786D01*
X128539487Y-82588917D01*
X128490677Y-82582491D01*
X128319852Y-82560000D01*
X128319845Y-82560000D01*
X128098309Y-82560000D01*
X128098301Y-82560000D01*
X127903071Y-82585704D01*
X127878667Y-82588917D01*
X127813185Y-82606462D01*
X127664673Y-82646256D01*
X127460016Y-82731027D01*
X127460002Y-82731034D01*
X127268155Y-82841797D01*
X127268138Y-82841808D01*
X127092391Y-82976665D01*
X126935742Y-83133314D01*
X126800885Y-83309061D01*
X126800874Y-83309078D01*
X126690111Y-83500925D01*
X126690104Y-83500939D01*
X126605333Y-83705596D01*
X126598806Y-83729956D01*
X126548908Y-83916181D01*
X126547994Y-83919591D01*
X126519077Y-84139224D01*
X126519077Y-84325504D01*
X126499392Y-84392543D01*
X126446588Y-84438298D01*
X126377430Y-84448242D01*
X126313874Y-84419217D01*
X126307396Y-84413185D01*
X124978911Y-83084700D01*
X124978907Y-83084697D01*
X124823236Y-82980680D01*
X124823227Y-82980675D01*
X124721903Y-82938706D01*
X124721901Y-82938705D01*
X124650251Y-82909027D01*
X124650247Y-82909026D01*
X124650243Y-82909024D01*
X124558433Y-82890763D01*
X124466620Y-82872500D01*
X124466617Y-82872500D01*
X124466616Y-82872500D01*
X120071858Y-82872500D01*
X120004819Y-82852815D01*
X119959064Y-82800011D01*
X119949120Y-82730853D01*
X119957297Y-82701048D01*
X119966669Y-82678419D01*
X119978723Y-82649320D01*
X119997986Y-82503000D01*
X119997704Y-82500860D01*
X119978723Y-82356681D01*
X119978723Y-82356680D01*
X119922245Y-82220332D01*
X119916254Y-82212524D01*
X119891060Y-82147355D01*
X119905098Y-82078910D01*
X119926946Y-82049359D01*
X120006763Y-81969543D01*
X120083424Y-81854811D01*
X120136229Y-81727329D01*
X120163149Y-81591994D01*
X120163149Y-81454006D01*
X120163149Y-81454003D01*
X120136230Y-81318677D01*
X120136229Y-81318676D01*
X120136229Y-81318672D01*
X120120286Y-81280182D01*
X120083426Y-81191192D01*
X120006761Y-81076454D01*
X118224194Y-79293887D01*
X118109456Y-79217222D01*
X117981981Y-79164421D01*
X117981971Y-79164418D01*
X117846645Y-79137500D01*
X117846643Y-79137500D01*
X117846642Y-79137500D01*
X114837893Y-79137500D01*
X114699905Y-79137500D01*
X114699903Y-79137500D01*
X114564576Y-79164418D01*
X114564566Y-79164421D01*
X114437091Y-79217222D01*
X114322353Y-79293887D01*
X114322352Y-79293888D01*
X113780061Y-79836181D01*
X113718738Y-79869666D01*
X113692380Y-79872500D01*
X112751986Y-79872500D01*
X112684947Y-79852815D01*
X112639192Y-79800011D01*
X112630671Y-79760844D01*
X112629047Y-79761058D01*
X112614263Y-79648764D01*
X112608723Y-79606680D01*
X112567167Y-79506357D01*
X112552245Y-79470331D01*
X112462405Y-79353247D01*
X112345317Y-79263403D01*
X112208969Y-79206926D01*
X112208967Y-79206925D01*
X112062650Y-79187663D01*
X112062648Y-79187663D01*
X111916330Y-79206925D01*
X111916328Y-79206926D01*
X111779981Y-79263403D01*
X111662895Y-79353246D01*
X111573055Y-79470329D01*
X111573051Y-79470337D01*
X111558130Y-79506357D01*
X111531254Y-79546579D01*
X111516754Y-79561080D01*
X111455432Y-79594567D01*
X111385740Y-79589585D01*
X111341389Y-79561083D01*
X109794468Y-78014162D01*
X109760983Y-77952839D01*
X109758149Y-77926481D01*
X109758149Y-76694519D01*
X109777834Y-76627480D01*
X109794468Y-76606838D01*
X109926308Y-76474998D01*
X110742312Y-76474998D01*
X110742312Y-76475001D01*
X110761574Y-76621318D01*
X110761575Y-76621320D01*
X110791895Y-76694519D01*
X110797710Y-76708556D01*
X110807149Y-76756009D01*
X110807149Y-77466757D01*
X110807149Y-77598541D01*
X110819393Y-77644236D01*
X110841257Y-77725836D01*
X110874203Y-77782899D01*
X110907149Y-77839963D01*
X111667686Y-78600500D01*
X111781814Y-78666392D01*
X111909108Y-78700500D01*
X111909110Y-78700500D01*
X113090890Y-78700500D01*
X113090892Y-78700500D01*
X113218186Y-78666392D01*
X113332314Y-78600500D01*
X113771857Y-78160955D01*
X113784035Y-78150275D01*
X113819903Y-78122754D01*
X113909745Y-78005669D01*
X113966223Y-77869320D01*
X113985486Y-77723000D01*
X113966223Y-77576680D01*
X113909745Y-77440332D01*
X113909745Y-77440331D01*
X113819905Y-77323247D01*
X113702817Y-77233403D01*
X113566469Y-77176926D01*
X113566467Y-77176925D01*
X113420150Y-77157663D01*
X113420148Y-77157663D01*
X113273830Y-77176925D01*
X113273828Y-77176926D01*
X113137481Y-77233403D01*
X113044383Y-77304838D01*
X112979213Y-77330031D01*
X112910769Y-77315992D01*
X112893412Y-77304837D01*
X112878846Y-77293660D01*
X112800318Y-77233404D01*
X112800314Y-77233402D01*
X112800315Y-77233402D01*
X112713078Y-77197267D01*
X112672850Y-77170387D01*
X112344468Y-76842005D01*
X112310983Y-76780682D01*
X112308149Y-76754324D01*
X112308149Y-76214009D01*
X112317588Y-76166556D01*
X112338117Y-76116995D01*
X112353723Y-76079320D01*
X112372986Y-75933000D01*
X112367066Y-75888036D01*
X112353723Y-75786681D01*
X112353723Y-75786680D01*
X112297245Y-75650332D01*
X112297245Y-75650331D01*
X112207405Y-75533247D01*
X112090317Y-75443403D01*
X111953969Y-75386926D01*
X111953967Y-75386925D01*
X111807650Y-75367663D01*
X111807648Y-75367663D01*
X111661330Y-75386925D01*
X111661328Y-75386926D01*
X111524981Y-75443403D01*
X111407895Y-75533246D01*
X111318052Y-75650332D01*
X111261575Y-75786679D01*
X111261575Y-75786680D01*
X111256643Y-75824140D01*
X111228375Y-75888036D01*
X111170050Y-75926507D01*
X111165805Y-75927726D01*
X111161330Y-75928925D01*
X111024981Y-75985403D01*
X110907895Y-76075246D01*
X110818052Y-76192332D01*
X110761575Y-76328679D01*
X110761574Y-76328681D01*
X110742312Y-76474998D01*
X109926308Y-76474998D01*
X111351761Y-75049545D01*
X111351763Y-75049543D01*
X111428424Y-74934811D01*
X111481229Y-74807328D01*
X111501846Y-74703680D01*
X111508149Y-74671996D01*
X111508149Y-73404004D01*
X111481230Y-73268677D01*
X111481229Y-73268676D01*
X111481229Y-73268672D01*
X111465939Y-73231759D01*
X111428426Y-73141193D01*
X111428425Y-73141191D01*
X111415195Y-73121391D01*
X111394317Y-73054714D01*
X111412801Y-72987333D01*
X111464780Y-72940643D01*
X111518297Y-72928500D01*
X112312890Y-72928500D01*
X112312892Y-72928500D01*
X112440186Y-72894392D01*
X112554314Y-72828500D01*
X113442816Y-71939998D01*
X116034663Y-71939998D01*
X116034663Y-71940001D01*
X116053925Y-72086318D01*
X116053926Y-72086320D01*
X116085599Y-72162786D01*
X116091862Y-72177904D01*
X116099331Y-72247373D01*
X116091863Y-72272806D01*
X116088188Y-72281680D01*
X116070724Y-72323842D01*
X116051462Y-72470158D01*
X116051462Y-72470161D01*
X116070724Y-72616478D01*
X116070725Y-72616480D01*
X116127202Y-72752828D01*
X116127203Y-72752829D01*
X116217045Y-72869914D01*
X116334130Y-72959756D01*
X116470479Y-73016234D01*
X116543639Y-73025865D01*
X116616798Y-73035497D01*
X116616799Y-73035497D01*
X116616800Y-73035497D01*
X116685466Y-73026457D01*
X116763119Y-73016234D01*
X116899468Y-72959756D01*
X117016553Y-72869914D01*
X117106395Y-72752829D01*
X117162873Y-72616480D01*
X117181362Y-72476038D01*
X117181362Y-72476036D01*
X126574949Y-72476036D01*
X126574949Y-72589968D01*
X126597197Y-72672998D01*
X126604438Y-72700021D01*
X126661400Y-72798682D01*
X126661402Y-72798684D01*
X126661403Y-72798686D01*
X126741965Y-72879248D01*
X126741966Y-72879249D01*
X126741968Y-72879250D01*
X126840629Y-72936212D01*
X126840630Y-72936212D01*
X126840633Y-72936214D01*
X126950683Y-72965702D01*
X126950686Y-72965702D01*
X127064612Y-72965702D01*
X127064615Y-72965702D01*
X127174665Y-72936214D01*
X127273333Y-72879248D01*
X127353895Y-72798686D01*
X127410861Y-72700018D01*
X127440349Y-72589968D01*
X127440349Y-72476036D01*
X127410861Y-72365986D01*
X127395902Y-72340077D01*
X127353897Y-72267321D01*
X127353892Y-72267315D01*
X127273335Y-72186758D01*
X127273329Y-72186753D01*
X127174668Y-72129791D01*
X127174669Y-72129791D01*
X127165644Y-72127372D01*
X127064615Y-72100302D01*
X126950683Y-72100302D01*
X126849653Y-72127372D01*
X126840629Y-72129791D01*
X126741968Y-72186753D01*
X126741962Y-72186758D01*
X126661405Y-72267315D01*
X126661400Y-72267321D01*
X126604438Y-72365982D01*
X126604437Y-72365986D01*
X126574949Y-72476036D01*
X117181362Y-72476036D01*
X117182136Y-72470161D01*
X117182136Y-72470158D01*
X117169243Y-72372228D01*
X117162873Y-72323840D01*
X117124935Y-72232252D01*
X117117467Y-72162786D01*
X117124932Y-72137358D01*
X117146074Y-72086320D01*
X117165337Y-71940000D01*
X117163691Y-71927500D01*
X117146750Y-71798816D01*
X117146074Y-71793680D01*
X117089596Y-71657332D01*
X117089596Y-71657331D01*
X117015241Y-71560429D01*
X116990047Y-71495259D01*
X117004086Y-71426815D01*
X117052900Y-71376825D01*
X117066144Y-71370391D01*
X117145318Y-71337596D01*
X117262403Y-71247754D01*
X117352245Y-71130669D01*
X117408723Y-70994320D01*
X117427986Y-70848000D01*
X117426014Y-70833024D01*
X117420325Y-70789811D01*
X117408723Y-70701680D01*
X117380874Y-70634450D01*
X117373406Y-70564983D01*
X117380876Y-70539544D01*
X117403492Y-70484945D01*
X117408723Y-70472317D01*
X117427986Y-70325997D01*
X117425335Y-70305863D01*
X117410651Y-70194320D01*
X117408723Y-70179677D01*
X117356845Y-70054434D01*
X117352245Y-70043328D01*
X117262405Y-69926244D01*
X117145317Y-69836400D01*
X117008969Y-69779923D01*
X117008967Y-69779922D01*
X116862650Y-69760660D01*
X116862648Y-69760660D01*
X116716330Y-69779922D01*
X116716328Y-69779923D01*
X116579981Y-69836400D01*
X116462895Y-69926243D01*
X116373052Y-70043329D01*
X116316575Y-70179676D01*
X116316574Y-70179678D01*
X116297312Y-70325995D01*
X116297312Y-70325998D01*
X116316574Y-70472315D01*
X116316575Y-70472317D01*
X116344422Y-70539545D01*
X116351891Y-70609015D01*
X116344422Y-70634450D01*
X116316576Y-70701676D01*
X116316574Y-70701681D01*
X116297312Y-70847998D01*
X116297312Y-70848001D01*
X116316574Y-70994318D01*
X116316575Y-70994320D01*
X116373052Y-71130668D01*
X116447407Y-71227570D01*
X116472601Y-71292739D01*
X116458562Y-71361184D01*
X116409748Y-71411174D01*
X116396485Y-71417617D01*
X116317331Y-71450404D01*
X116200246Y-71540246D01*
X116110403Y-71657332D01*
X116053926Y-71793679D01*
X116053925Y-71793681D01*
X116034663Y-71939998D01*
X113442816Y-71939998D01*
X115400500Y-69982314D01*
X115466392Y-69868186D01*
X115500500Y-69740892D01*
X115500500Y-69609108D01*
X115500500Y-67769586D01*
X115520185Y-67702547D01*
X115572989Y-67656792D01*
X115640683Y-67646647D01*
X115723333Y-67657528D01*
X115782648Y-67665337D01*
X115782649Y-67665337D01*
X115782650Y-67665337D01*
X115862892Y-67654773D01*
X115928969Y-67646074D01*
X116065318Y-67589596D01*
X116182403Y-67499754D01*
X116272245Y-67382669D01*
X116328723Y-67246320D01*
X116347986Y-67100000D01*
X116347886Y-67099243D01*
X116329738Y-66961387D01*
X116328723Y-66953680D01*
X116295638Y-66873809D01*
X116272245Y-66817331D01*
X116182405Y-66700247D01*
X116065317Y-66610403D01*
X115984348Y-66576865D01*
X115928969Y-66553926D01*
X115916098Y-66552231D01*
X115890999Y-66548927D01*
X115827103Y-66520660D01*
X115788633Y-66462335D01*
X115787802Y-66392470D01*
X115819503Y-66338310D01*
X115908149Y-66249665D01*
X115974041Y-66135537D01*
X116008149Y-66008244D01*
X116008149Y-65876459D01*
X116008149Y-65761349D01*
X116027834Y-65694310D01*
X116080638Y-65648555D01*
X116149796Y-65638611D01*
X116207633Y-65662972D01*
X116242331Y-65689596D01*
X116242332Y-65689596D01*
X116242333Y-65689597D01*
X116273220Y-65702390D01*
X116378680Y-65746074D01*
X116433401Y-65753278D01*
X116524999Y-65765337D01*
X116525000Y-65765337D01*
X116525001Y-65765337D01*
X116573773Y-65758916D01*
X116671320Y-65746074D01*
X116807669Y-65689596D01*
X116924754Y-65599754D01*
X117014596Y-65482669D01*
X117071074Y-65346320D01*
X117090337Y-65200000D01*
X117071074Y-65053680D01*
X117032145Y-64959698D01*
X117014596Y-64917331D01*
X116924756Y-64800247D01*
X116807668Y-64710403D01*
X116671320Y-64653926D01*
X116671318Y-64653925D01*
X116525001Y-64634663D01*
X116524999Y-64634663D01*
X116378681Y-64653925D01*
X116378679Y-64653926D01*
X116242332Y-64710403D01*
X116207634Y-64737028D01*
X116142465Y-64762221D01*
X116074020Y-64748182D01*
X116024031Y-64699368D01*
X116008149Y-64638651D01*
X116008149Y-62928463D01*
X116027834Y-62861424D01*
X116080638Y-62815669D01*
X116148333Y-62805524D01*
X116207649Y-62813333D01*
X116207650Y-62813333D01*
X116266965Y-62805524D01*
X116353969Y-62794070D01*
X116490318Y-62737592D01*
X116607403Y-62647750D01*
X116629730Y-62618652D01*
X116686156Y-62577450D01*
X116755902Y-62573295D01*
X116816822Y-62607506D01*
X116826481Y-62618653D01*
X116844953Y-62642726D01*
X116907895Y-62724754D01*
X117024980Y-62814596D01*
X117161329Y-62871074D01*
X117234489Y-62880705D01*
X117307648Y-62890337D01*
X117307649Y-62890337D01*
X117307650Y-62890337D01*
X117356422Y-62883916D01*
X117453969Y-62871074D01*
X117590318Y-62814596D01*
X117707403Y-62724754D01*
X117797245Y-62607669D01*
X117853723Y-62471320D01*
X117872986Y-62325000D01*
X117871459Y-62313404D01*
X117866300Y-62274214D01*
X117877066Y-62205179D01*
X117923446Y-62152923D01*
X117941785Y-62143469D01*
X117944971Y-62142149D01*
X117970782Y-62131457D01*
X118040250Y-62123988D01*
X118065677Y-62131453D01*
X118161329Y-62171074D01*
X118234489Y-62180705D01*
X118307648Y-62190337D01*
X118307649Y-62190337D01*
X118436965Y-62173312D01*
X118505999Y-62184077D01*
X118558255Y-62230457D01*
X118577149Y-62296251D01*
X118577149Y-64862069D01*
X118577149Y-64862071D01*
X118577148Y-64862071D01*
X118602146Y-64987738D01*
X118602148Y-64987744D01*
X118651182Y-65106124D01*
X118651187Y-65106133D01*
X118722372Y-65212668D01*
X118722375Y-65212672D01*
X118812976Y-65303273D01*
X118812980Y-65303276D01*
X118919515Y-65374461D01*
X118919521Y-65374464D01*
X118919522Y-65374465D01*
X119037905Y-65423501D01*
X119037909Y-65423501D01*
X119037910Y-65423502D01*
X119163577Y-65448500D01*
X119163580Y-65448500D01*
X119291720Y-65448500D01*
X119376264Y-65431682D01*
X119417393Y-65423501D01*
X119535776Y-65374465D01*
X119642318Y-65303276D01*
X119732925Y-65212669D01*
X119804114Y-65106127D01*
X119853150Y-64987744D01*
X119867156Y-64917332D01*
X119878149Y-64862071D01*
X119878149Y-60948928D01*
X119853151Y-60823261D01*
X119853150Y-60823260D01*
X119853150Y-60823256D01*
X119804114Y-60704873D01*
X119804112Y-60704870D01*
X119780910Y-60670145D01*
X119780909Y-60670145D01*
X119732925Y-60598330D01*
X119732923Y-60598328D01*
X119732921Y-60598325D01*
X119732920Y-60598324D01*
X118079776Y-58945181D01*
X118046291Y-58883858D01*
X118051275Y-58814166D01*
X118093147Y-58758233D01*
X118158611Y-58733816D01*
X118167457Y-58733500D01*
X118452577Y-58733500D01*
X118519616Y-58753185D01*
G37*
%TD.AperFunction*%
%TA.AperFunction,Conductor*%
G36*
X117503169Y-80558185D02*
G01*
X117523811Y-80574819D01*
X118964398Y-82015407D01*
X118997883Y-82076730D01*
X118992899Y-82146422D01*
X118975095Y-82178572D01*
X118943052Y-82220332D01*
X118886575Y-82356679D01*
X118886574Y-82356681D01*
X118867312Y-82502998D01*
X118867312Y-82503001D01*
X118886574Y-82649318D01*
X118886576Y-82649323D01*
X118908001Y-82701048D01*
X118915470Y-82770517D01*
X118884194Y-82832996D01*
X118824105Y-82868648D01*
X118793440Y-82872500D01*
X116110300Y-82872500D01*
X116043261Y-82852815D01*
X115997506Y-82800011D01*
X115987562Y-82730853D01*
X116016587Y-82667297D01*
X116022619Y-82660819D01*
X116043272Y-82640165D01*
X116043275Y-82640162D01*
X116077516Y-82588917D01*
X116136352Y-82500863D01*
X116200465Y-82346082D01*
X116233149Y-82181767D01*
X116233149Y-82014233D01*
X116200465Y-81849918D01*
X116150876Y-81730201D01*
X116136353Y-81695139D01*
X116043275Y-81555837D01*
X115924811Y-81437373D01*
X115785509Y-81344295D01*
X115630731Y-81280184D01*
X115630723Y-81280182D01*
X115466420Y-81247500D01*
X115466416Y-81247500D01*
X114853882Y-81247500D01*
X114853877Y-81247500D01*
X114689574Y-81280182D01*
X114689562Y-81280185D01*
X114644232Y-81298962D01*
X114644229Y-81298963D01*
X114630124Y-81304805D01*
X114560655Y-81312272D01*
X114498177Y-81280995D01*
X114462526Y-81220905D01*
X114465022Y-81151080D01*
X114494994Y-81102562D01*
X115022737Y-80574819D01*
X115084060Y-80541334D01*
X115110418Y-80538500D01*
X117436130Y-80538500D01*
X117503169Y-80558185D01*
G37*
%TD.AperFunction*%
%TA.AperFunction,Conductor*%
G36*
X107530301Y-69143185D02*
G01*
X107550943Y-69159819D01*
X108301943Y-69910819D01*
X108335428Y-69972142D01*
X108330444Y-70041834D01*
X108288572Y-70097767D01*
X108223108Y-70122184D01*
X108214262Y-70122500D01*
X106918654Y-70122500D01*
X106846648Y-70136823D01*
X106810644Y-70143985D01*
X106783320Y-70149420D01*
X106783319Y-70149420D01*
X106655839Y-70202224D01*
X106541103Y-70278887D01*
X105843536Y-70976454D01*
X105766871Y-71091192D01*
X105714070Y-71218667D01*
X105714067Y-71218679D01*
X105708284Y-71247754D01*
X105692215Y-71328541D01*
X105687149Y-71354007D01*
X105687149Y-71879006D01*
X105687149Y-72016994D01*
X105687149Y-72016996D01*
X105687148Y-72016996D01*
X105714067Y-72152322D01*
X105714070Y-72152332D01*
X105766871Y-72279807D01*
X105843536Y-72394545D01*
X106359310Y-72910319D01*
X106392795Y-72971642D01*
X106387811Y-73041334D01*
X106359310Y-73085681D01*
X105358811Y-74086181D01*
X105297488Y-74119666D01*
X105271130Y-74122500D01*
X105159343Y-74122500D01*
X105092304Y-74102815D01*
X105071662Y-74086181D01*
X103491370Y-72505888D01*
X103491369Y-72505887D01*
X103376631Y-72429222D01*
X103249156Y-72376421D01*
X103249146Y-72376418D01*
X103113820Y-72349500D01*
X103113818Y-72349500D01*
X103113817Y-72349500D01*
X100731168Y-72349500D01*
X100664129Y-72329815D01*
X100643487Y-72313181D01*
X100340487Y-72010181D01*
X100307002Y-71948858D01*
X100311986Y-71879166D01*
X100353858Y-71823233D01*
X100419322Y-71798816D01*
X100428168Y-71798500D01*
X102051720Y-71798500D01*
X102174517Y-71774073D01*
X102177393Y-71773501D01*
X102295776Y-71724465D01*
X102402318Y-71653276D01*
X102492925Y-71562669D01*
X102564114Y-71456127D01*
X102613150Y-71337744D01*
X102634980Y-71228000D01*
X102638149Y-71212071D01*
X102638149Y-71083928D01*
X102613151Y-70958261D01*
X102613150Y-70958260D01*
X102613150Y-70958256D01*
X102564114Y-70839873D01*
X102564113Y-70839871D01*
X102563651Y-70838756D01*
X102556182Y-70769287D01*
X102587457Y-70706807D01*
X102647546Y-70671155D01*
X102717371Y-70673649D01*
X102725654Y-70676738D01*
X102832067Y-70720816D01*
X102996377Y-70753499D01*
X102996381Y-70753500D01*
X102996382Y-70753500D01*
X103163917Y-70753500D01*
X103163918Y-70753499D01*
X103328231Y-70720816D01*
X103483012Y-70656703D01*
X103622311Y-70563626D01*
X103740775Y-70445162D01*
X103833852Y-70305863D01*
X103849448Y-70268208D01*
X103893287Y-70213807D01*
X103959581Y-70191741D01*
X103980187Y-70192722D01*
X104007649Y-70196338D01*
X104153969Y-70177075D01*
X104290318Y-70120597D01*
X104407403Y-70030755D01*
X104497245Y-69913670D01*
X104553723Y-69777321D01*
X104572986Y-69631001D01*
X104570309Y-69610669D01*
X104559210Y-69526359D01*
X104558149Y-69510174D01*
X104558149Y-69247500D01*
X104577834Y-69180461D01*
X104630638Y-69134706D01*
X104682149Y-69123500D01*
X107463262Y-69123500D01*
X107530301Y-69143185D01*
G37*
%TD.AperFunction*%
%TA.AperFunction,Conductor*%
G36*
X110162068Y-55378882D02*
G01*
X110218001Y-55420754D01*
X110226120Y-55433063D01*
X110281889Y-55529654D01*
X110286756Y-55538084D01*
X110286758Y-55538086D01*
X111317225Y-56568553D01*
X111350710Y-56629876D01*
X111345726Y-56699568D01*
X111324182Y-56733089D01*
X111325522Y-56734118D01*
X111230732Y-56857651D01*
X111174255Y-56993999D01*
X111168941Y-57034357D01*
X111165777Y-57050259D01*
X111137149Y-57157104D01*
X111137149Y-57157108D01*
X111137149Y-58232945D01*
X111137149Y-58364729D01*
X111153609Y-58426160D01*
X111171257Y-58492024D01*
X111188707Y-58522247D01*
X111237149Y-58606151D01*
X111237151Y-58606153D01*
X113338181Y-60707183D01*
X113371666Y-60768506D01*
X113374500Y-60794864D01*
X113374500Y-61473428D01*
X113354815Y-61540467D01*
X113302011Y-61586222D01*
X113232853Y-61596166D01*
X113203048Y-61587989D01*
X113176342Y-61576927D01*
X113176337Y-61576925D01*
X113030020Y-61557663D01*
X113030018Y-61557663D01*
X112883700Y-61576925D01*
X112883698Y-61576926D01*
X112747351Y-61633403D01*
X112630265Y-61723246D01*
X112540422Y-61840332D01*
X112483945Y-61976679D01*
X112483944Y-61976681D01*
X112464682Y-62122998D01*
X112464682Y-62123001D01*
X112483944Y-62269318D01*
X112483945Y-62269320D01*
X112509830Y-62331812D01*
X112520080Y-62356556D01*
X112529519Y-62404009D01*
X112529519Y-63656954D01*
X112509834Y-63723993D01*
X112493200Y-63744635D01*
X112174830Y-64063005D01*
X112113507Y-64096490D01*
X112043815Y-64091506D01*
X111987882Y-64049634D01*
X111963465Y-63984170D01*
X111963149Y-63975324D01*
X111963149Y-62029004D01*
X111936230Y-61893677D01*
X111936229Y-61893676D01*
X111936229Y-61893672D01*
X111928616Y-61875293D01*
X111883427Y-61766195D01*
X111883420Y-61766182D01*
X111806763Y-61651458D01*
X111806760Y-61651454D01*
X111709194Y-61553888D01*
X111709190Y-61553885D01*
X111594466Y-61477228D01*
X111594453Y-61477221D01*
X111466981Y-61424421D01*
X111466971Y-61424418D01*
X111331644Y-61397500D01*
X111331642Y-61397500D01*
X111193656Y-61397500D01*
X111193654Y-61397500D01*
X111058326Y-61424418D01*
X111058316Y-61424421D01*
X110930844Y-61477221D01*
X110930831Y-61477228D01*
X110816107Y-61553885D01*
X110816103Y-61553888D01*
X110718537Y-61651454D01*
X110718534Y-61651458D01*
X110641877Y-61766182D01*
X110641870Y-61766195D01*
X110589070Y-61893667D01*
X110589067Y-61893677D01*
X110562149Y-62029004D01*
X110562149Y-62772192D01*
X110542464Y-62839231D01*
X110525830Y-62859873D01*
X108824522Y-64561181D01*
X108763199Y-64594666D01*
X108736841Y-64597500D01*
X108228492Y-64597500D01*
X108161453Y-64577815D01*
X108115698Y-64525011D01*
X108105553Y-64457316D01*
X108115337Y-64383000D01*
X108096074Y-64236680D01*
X108039596Y-64100332D01*
X108039596Y-64100331D01*
X107949756Y-63983247D01*
X107832668Y-63893403D01*
X107696320Y-63836926D01*
X107696318Y-63836925D01*
X107550001Y-63817663D01*
X107549999Y-63817663D01*
X107403681Y-63836925D01*
X107403679Y-63836926D01*
X107267330Y-63893404D01*
X107262147Y-63896397D01*
X107194247Y-63912870D01*
X107128220Y-63890018D01*
X107085030Y-63835096D01*
X107076147Y-63789010D01*
X107076147Y-63083928D01*
X107051149Y-62958261D01*
X107051148Y-62958260D01*
X107051148Y-62958256D01*
X107002112Y-62839873D01*
X107002111Y-62839872D01*
X107002108Y-62839866D01*
X106930923Y-62733331D01*
X106930920Y-62733327D01*
X106840319Y-62642726D01*
X106840315Y-62642723D01*
X106733780Y-62571538D01*
X106733771Y-62571533D01*
X106615391Y-62522499D01*
X106615385Y-62522497D01*
X106489718Y-62497500D01*
X106489716Y-62497500D01*
X106361578Y-62497500D01*
X106361576Y-62497500D01*
X106235908Y-62522497D01*
X106235902Y-62522499D01*
X106117522Y-62571533D01*
X106117513Y-62571538D01*
X106010978Y-62642723D01*
X106010974Y-62642726D01*
X105920373Y-62733327D01*
X105920370Y-62733331D01*
X105849185Y-62839866D01*
X105849180Y-62839875D01*
X105800146Y-62958255D01*
X105800144Y-62958261D01*
X105775147Y-63083928D01*
X105775147Y-63083931D01*
X105775147Y-64775067D01*
X105775147Y-64775069D01*
X105775146Y-64775069D01*
X105794547Y-64872596D01*
X105794547Y-64872597D01*
X105800143Y-64900735D01*
X105800145Y-64900740D01*
X105842618Y-65003277D01*
X105849182Y-65019125D01*
X105894280Y-65086620D01*
X105920373Y-65125671D01*
X106547974Y-65753272D01*
X106547981Y-65753278D01*
X106654512Y-65824459D01*
X106654514Y-65824460D01*
X106654523Y-65824466D01*
X106691435Y-65839755D01*
X106772905Y-65873501D01*
X106772909Y-65873501D01*
X106772910Y-65873502D01*
X106898577Y-65898500D01*
X106898580Y-65898500D01*
X109121720Y-65898500D01*
X109220125Y-65878925D01*
X109247393Y-65873501D01*
X109365776Y-65824465D01*
X109382430Y-65813337D01*
X109472318Y-65753277D01*
X110212108Y-65013484D01*
X110212113Y-65013481D01*
X110222316Y-65003277D01*
X110222318Y-65003277D01*
X110350468Y-64875127D01*
X110411791Y-64841642D01*
X110481483Y-64846626D01*
X110537416Y-64888498D01*
X110561833Y-64953962D01*
X110562149Y-64962808D01*
X110562149Y-68731480D01*
X110542464Y-68798519D01*
X110525830Y-68819161D01*
X109736034Y-69608957D01*
X109674711Y-69642442D01*
X109605019Y-69637458D01*
X109549977Y-69596762D01*
X109497406Y-69528249D01*
X109497404Y-69528247D01*
X109497403Y-69528246D01*
X109413661Y-69463989D01*
X109401473Y-69453299D01*
X108080665Y-68132491D01*
X108080664Y-68132490D01*
X107955134Y-68060016D01*
X107892324Y-68043186D01*
X107892323Y-68043185D01*
X107835809Y-68028042D01*
X107815124Y-68022500D01*
X107815123Y-68022500D01*
X104908430Y-68022500D01*
X104841391Y-68002815D01*
X104795636Y-67950011D01*
X104785692Y-67880853D01*
X104805328Y-67829609D01*
X104891351Y-67700866D01*
X104891351Y-67700865D01*
X104891353Y-67700863D01*
X104955465Y-67546081D01*
X104956141Y-67542686D01*
X104988149Y-67381767D01*
X104988149Y-62551650D01*
X105007834Y-62484611D01*
X105024468Y-62463969D01*
X106973275Y-60515162D01*
X107027779Y-60433591D01*
X107066352Y-60375863D01*
X107076019Y-60352525D01*
X107130465Y-60221082D01*
X107163149Y-60056767D01*
X107163149Y-59004500D01*
X107182834Y-58937461D01*
X107235638Y-58891706D01*
X107271116Y-58883987D01*
X107270897Y-58882882D01*
X107282870Y-58880500D01*
X107282874Y-58880500D01*
X107375679Y-58842059D01*
X107446708Y-58771030D01*
X107485149Y-58678225D01*
X107485149Y-58577775D01*
X107446708Y-58484970D01*
X107375679Y-58413941D01*
X107302147Y-58383483D01*
X107298806Y-58382099D01*
X107244403Y-58338257D01*
X107222339Y-58271963D01*
X107239619Y-58204263D01*
X107258575Y-58179861D01*
X110031055Y-55407381D01*
X110092376Y-55373898D01*
X110162068Y-55378882D01*
G37*
%TD.AperFunction*%
%TD*%
M02*
