M48
; DRILL file {KiCad 8.0.5} date 2025-04-03T18:32:18+0700
; FORMAT={-:-/ absolute / metric / decimal}
; #@! TF.CreationDate,2025-04-03T18:32:18+07:00
; #@! TF.GenerationSoftware,Kicad,Pcbnew,8.0.5
; #@! TF.FileFunction,Plated,1,4,PTH
FMAT,2
METRIC
; #@! TA.AperFunction,Plated,PTH,ViaDrill
T1C0.200
; #@! TA.AperFunction,Plated,PTH,ViaDrill
T2C0.250
; #@! TA.AperFunction,Plated,PTH,ViaDrill
T3C0.300
; #@! TA.AperFunction,Plated,PTH,ViaDrill
T4C0.350
; #@! TA.AperFunction,Plated,PTH,ViaDrill
T5C0.400
%
G90
G05
T1
X93.075Y-67.45
X93.433Y-53.753
X94.208Y-66.253
X94.388Y-72.673
X94.663Y-50.783
X94.663Y-87.223
X94.713Y-80.419
X94.725Y-77.694
X95.463Y-70.298
X95.671Y-76.804
X95.698Y-74.228
X96.388Y-71.228
X96.4Y-78.75
X96.483Y-69.458
X96.483Y-70.458
X96.764Y-66.318
X96.764Y-67.245
X96.914Y-62.968
X97.029Y-77.079
X97.056Y-78.919
X97.633Y-49.553
X97.838Y-68.198
X97.979Y-77.583
X97.979Y-78.683
X98.19Y-65.898
X98.215Y-69.518
X98.965Y-73.603
X99.038Y-62.458
X99.038Y-63.298
X99.463Y-76.048
X99.758Y-69.099
X99.758Y-70.027
X100.506Y-68.976
X100.598Y-70.048
X101.098Y-69.625
X101.138Y-68.498
X101.313Y-75.898
X101.838Y-57.473
X101.975Y-69.108
X101.988Y-71.148
X102.2Y-74.85
X102.2Y-80.925
X102.226Y-53.378
X102.42Y-84.753
X102.488Y-62.408
X102.538Y-61.721
X102.618Y-59.432
X102.949Y-63.259
X103.08Y-69.903
X103.344Y-88.153
X103.364Y-72.09
X103.708Y-59.768
X104.008Y-69.631
X104.463Y-85.723
X105.213Y-65.318
X105.244Y-88.153
X105.488Y-70.098
X105.713Y-73.423
X106.026Y-53.378
X106.388Y-71.948
X106.426Y-63.148
X107.148Y-88.153
X107.55Y-64.383
X107.888Y-65.248
X107.926Y-53.378
X109.048Y-88.153
X109.058Y-77.253
X109.098Y-69.928
X109.163Y-79.673
X109.163Y-81.023
X109.175Y-72.428
X109.192Y-84.803
X109.488Y-59.223
X109.613Y-71.928
X109.808Y-64.498
X110.138Y-68.998
X110.308Y-65.173
X110.388Y-82.098
X110.687Y-54.988
X110.808Y-73.473
X110.948Y-87.953
X111.133Y-59.473
X111.263Y-62.098
X111.308Y-76.475
X111.72Y-57.14
X111.726Y-55.0
X111.808Y-75.933
X111.925Y-66.081
X112.063Y-79.753
X112.125Y-57.545
X112.383Y-82.098
X112.518Y-77.723
X112.848Y-88.153
X113.0Y-66.329
X113.03Y-62.123
X113.063Y-60.988
X113.238Y-79.753
X113.383Y-65.818
X113.383Y-82.098
X113.42Y-77.723
X113.775Y-57.95
X114.241Y-69.328
X114.3Y-67.1
X114.769Y-79.838
X114.783Y-49.928
X115.383Y-82.098
X115.508Y-62.288
X115.696Y-80.548
X115.783Y-67.1
X116.208Y-62.248
X116.308Y-77.456
X116.525Y-65.2
X116.6Y-71.94
X116.617Y-72.47
X116.683Y-49.928
X116.863Y-70.326
X116.863Y-70.848
X117.15Y-61.625
X117.308Y-62.325
X117.583Y-53.378
X117.729Y-61.625
X118.238Y-65.928
X118.308Y-61.625
X118.488Y-64.048
X119.228Y-64.798
X119.433Y-82.503
X119.463Y-81.523
X119.483Y-53.378
X120.825Y-66.425
X121.383Y-53.378
X122.488Y-55.348
X123.06Y-85.828
X123.1Y-59.876
X123.283Y-53.378
X123.75Y-85.8
X123.803Y-64.043
X124.283Y-49.928
X124.363Y-56.698
X125.863Y-62.523
X128.133Y-49.553
X128.133Y-88.453
X128.763Y-74.802
X129.634Y-58.718
X130.008Y-70.428
X131.102Y-50.783
X131.102Y-87.223
X131.7Y-64.475
X131.858Y-79.078
X132.812Y-75.673
X132.837Y-62.803
X132.837Y-63.425
T2
X104.126Y-53.378
X117.283Y-57.773
X132.833Y-77.088
T3
X105.613Y-74.823
T4
X121.728Y-64.993
T5
X113.638Y-56.098
X124.258Y-60.703
M30
