%TF.GenerationSoftware,KiCad,Pcbnew,8.0.5*%
%TF.CreationDate,2025-04-03T18:32:10+07:00*%
%TF.ProjectId,ZenFly F71,5a656e46-6c79-4204-9637-312e6b696361,rev?*%
%TF.SameCoordinates,Original*%
%TF.FileFunction,Soldermask,Top*%
%TF.FilePolarity,Negative*%
%FSLAX46Y46*%
G04 Gerber Fmt 4.6, Leading zero omitted, Abs format (unit mm)*
G04 Created by KiCad (PCBNEW 8.0.5) date 2025-04-03 18:32:10*
%MOMM*%
%LPD*%
G01*
G04 APERTURE LIST*
G04 Aperture macros list*
%AMRoundRect*
0 Rectangle with rounded corners*
0 $1 Rounding radius*
0 $2 $3 $4 $5 $6 $7 $8 $9 X,Y pos of 4 corners*
0 Add a 4 corners polygon primitive as box body*
4,1,4,$2,$3,$4,$5,$6,$7,$8,$9,$2,$3,0*
0 Add four circle primitives for the rounded corners*
1,1,$1+$1,$2,$3*
1,1,$1+$1,$4,$5*
1,1,$1+$1,$6,$7*
1,1,$1+$1,$8,$9*
0 Add four rect primitives between the rounded corners*
20,1,$1+$1,$2,$3,$4,$5,0*
20,1,$1+$1,$4,$5,$6,$7,0*
20,1,$1+$1,$6,$7,$8,$9,0*
20,1,$1+$1,$8,$9,$2,$3,0*%
G04 Aperture macros list end*
%ADD10RoundRect,0.260000X0.390000X0.740000X-0.390000X0.740000X-0.390000X-0.740000X0.390000X-0.740000X0*%
%ADD11RoundRect,0.260000X0.799031X0.247487X0.247487X0.799031X-0.799031X-0.247487X-0.247487X-0.799031X0*%
%ADD12RoundRect,0.260000X0.740000X-0.390000X0.740000X0.390000X-0.740000X0.390000X-0.740000X-0.390000X0*%
%ADD13R,0.310000X0.400000*%
%ADD14RoundRect,0.270000X0.405000X-0.730000X0.405000X0.730000X-0.405000X0.730000X-0.405000X-0.730000X0*%
%ADD15R,0.487500X0.600000*%
%ADD16R,0.400000X0.310000*%
%ADD17R,0.775000X0.800000*%
%ADD18C,0.300000*%
%ADD19R,0.800000X1.700000*%
%ADD20C,0.660400*%
%ADD21R,1.453600X1.981700*%
%ADD22R,1.447800X1.981700*%
%ADD23R,1.748600X2.000000*%
%ADD24R,1.748600X1.981700*%
%ADD25R,1.447800X0.609600*%
%ADD26R,1.447800X0.304800*%
%ADD27RoundRect,0.250000X0.275000X0.250000X-0.275000X0.250000X-0.275000X-0.250000X0.275000X-0.250000X0*%
%ADD28RoundRect,0.250000X0.850000X0.275000X-0.850000X0.275000X-0.850000X-0.275000X0.850000X-0.275000X0*%
%ADD29R,0.600000X0.487500*%
%ADD30C,3.150000*%
%ADD31R,1.100000X0.725000*%
%ADD32R,0.800000X0.775000*%
%ADD33RoundRect,0.033750X0.371250X0.101250X-0.371250X0.101250X-0.371250X-0.101250X0.371250X-0.101250X0*%
%ADD34RoundRect,0.033750X0.101250X0.371250X-0.101250X0.371250X-0.101250X-0.371250X0.101250X-0.371250X0*%
%ADD35R,3.100000X3.100000*%
%ADD36R,1.000000X0.750000*%
%ADD37RoundRect,0.225000X0.225000X0.375000X-0.225000X0.375000X-0.225000X-0.375000X0.225000X-0.375000X0*%
%ADD38RoundRect,0.035000X-0.700000X-0.105000X0.700000X-0.105000X0.700000X0.105000X-0.700000X0.105000X0*%
%ADD39RoundRect,0.035000X0.105000X-0.700000X0.105000X0.700000X-0.105000X0.700000X-0.105000X-0.700000X0*%
%ADD40RoundRect,0.260000X0.247487X-0.799031X0.799031X-0.247487X-0.247487X0.799031X-0.799031X0.247487X0*%
%ADD41RoundRect,0.260000X-0.390000X-0.740000X0.390000X-0.740000X0.390000X0.740000X-0.390000X0.740000X0*%
%ADD42R,0.900000X0.800000*%
%ADD43R,1.300000X0.875000*%
%ADD44R,1.050000X0.350000*%
%ADD45R,4.700000X1.600000*%
%ADD46R,0.350000X0.650000*%
%ADD47R,0.725000X1.100000*%
%ADD48R,0.657200X0.204000*%
%ADD49R,0.204000X0.657200*%
%ADD50R,1.651000X2.641600*%
%ADD51RoundRect,0.014000X0.361000X0.161000X-0.361000X0.161000X-0.361000X-0.161000X0.361000X-0.161000X0*%
%ADD52R,1.220000X0.650000*%
%ADD53RoundRect,0.260000X-0.740000X0.390000X-0.740000X-0.390000X0.740000X-0.390000X0.740000X0.390000X0*%
%ADD54RoundRect,0.260000X-0.247487X0.799031X-0.799031X0.247487X0.247487X-0.799031X0.799031X-0.247487X0*%
%ADD55R,0.356000X0.508000*%
%ADD56R,1.400000X1.200000*%
%ADD57R,1.700000X0.800000*%
%ADD58RoundRect,0.260000X-0.799031X-0.247487X-0.247487X-0.799031X0.799031X0.247487X0.247487X0.799031X0*%
%ADD59C,0.900000*%
G04 APERTURE END LIST*
%TO.C,J14*%
G36*
X95247649Y-64318000D02*
G01*
X93157649Y-64318000D01*
X93157649Y-62438000D01*
X95247649Y-62438000D01*
X95247649Y-64318000D01*
G37*
%TO.C,J17*%
G36*
X95247649Y-59593000D02*
G01*
X93157649Y-59593000D01*
X93157649Y-57713000D01*
X95247649Y-57713000D01*
X95247649Y-59593000D01*
G37*
%TD*%
D10*
%TO.C,J3*%
X93432649Y-53753000D03*
D11*
X94662801Y-50783152D03*
D12*
X97632649Y-49553000D03*
%TD*%
D13*
%TO.C,R26*%
X103587649Y-61398000D03*
X103097649Y-61398000D03*
%TD*%
D14*
%TO.C,J13*%
X110947649Y-88153000D03*
X112847649Y-88153000D03*
%TD*%
D15*
%TO.C,C12*%
X115696399Y-79838000D03*
X114768899Y-79838000D03*
%TD*%
D13*
%TO.C,R11*%
X103445000Y-71300000D03*
X102955000Y-71300000D03*
%TD*%
D16*
%TO.C,C6*%
X120632649Y-65918000D03*
X120632649Y-65428000D03*
%TD*%
%TO.C,R16*%
X104847649Y-81998000D03*
X104847649Y-81508000D03*
%TD*%
D14*
%TO.C,J25*%
X122347649Y-88153000D03*
X124247649Y-88153000D03*
%TD*%
D13*
%TO.C,FB1*%
X104998899Y-71153000D03*
X105488899Y-71153000D03*
%TD*%
D17*
%TO.C,LED4*%
X107605149Y-81753000D03*
X106130149Y-81753000D03*
%TD*%
D18*
%TO.C,BZ1*%
X107232649Y-58628000D03*
X105232649Y-58628000D03*
D19*
X107907649Y-58628000D03*
X104557649Y-58603000D03*
%TD*%
D20*
%TO.C,J2*%
X127007649Y-72533002D03*
X127007649Y-66753000D03*
D21*
X126480549Y-74802151D03*
D22*
X126477649Y-64483851D03*
D23*
X130558049Y-74793001D03*
D24*
X130558049Y-64483851D03*
D25*
X125562650Y-72868001D03*
X125562650Y-72093001D03*
D26*
X125562650Y-70893001D03*
X125562650Y-69893001D03*
X125562650Y-69393001D03*
X125562650Y-68393001D03*
D25*
X125562650Y-66418001D03*
X125562650Y-67193001D03*
D26*
X125562650Y-67893002D03*
X125562650Y-68893000D03*
X125562650Y-70393002D03*
X125562650Y-71393000D03*
%TD*%
D13*
%TO.C,C2*%
X110297649Y-62028000D03*
X109807649Y-62028000D03*
%TD*%
D14*
%TO.C,J6*%
X109192232Y-84803000D03*
X111092232Y-84803000D03*
%TD*%
D16*
%TO.C,C22*%
X99626299Y-63476750D03*
X99626299Y-62986750D03*
%TD*%
D27*
%TO.C,J14*%
X95782649Y-63378000D03*
D28*
X94257649Y-64853000D03*
X94257649Y-61903000D03*
%TD*%
D13*
%TO.C,R31*%
X106952649Y-79098000D03*
X106462649Y-79098000D03*
%TD*%
%TO.C,C34*%
X105767649Y-65478000D03*
X106257649Y-65478000D03*
%TD*%
D29*
%TO.C,C8*%
X116307649Y-77455500D03*
X116307649Y-76528000D03*
%TD*%
D30*
%TO.C,H1*%
X128209077Y-84250000D03*
%TD*%
D15*
%TO.C,R6*%
X123940149Y-67803001D03*
X123012649Y-67803001D03*
%TD*%
D14*
%TO.C,J5*%
X118582649Y-49928000D03*
X120482649Y-49928000D03*
X122382649Y-49928000D03*
X124282649Y-49928000D03*
%TD*%
D31*
%TO.C,C10*%
X103075000Y-74413000D03*
X103075000Y-73033000D03*
%TD*%
D32*
%TO.C,LED6*%
X103332649Y-78240500D03*
X103332649Y-76765500D03*
%TD*%
D29*
%TO.C,C35_BEC2*%
X124182649Y-57789250D03*
X124182649Y-58716750D03*
%TD*%
D13*
%TO.C,C16*%
X110205149Y-57533000D03*
X109715149Y-57533000D03*
%TD*%
D33*
%TO.C,U9*%
X101410149Y-75353000D03*
X101410149Y-74853000D03*
X101410149Y-74353000D03*
X101410149Y-73853000D03*
X101410149Y-73353000D03*
X101410149Y-72853000D03*
X101410149Y-72353000D03*
X101410149Y-71853000D03*
D34*
X100715149Y-71158000D03*
X100215149Y-71158000D03*
X99715149Y-71158000D03*
X99215149Y-71158000D03*
X98715149Y-71158000D03*
X98215149Y-71158000D03*
X97715149Y-71158000D03*
X97215149Y-71158000D03*
D33*
X96520149Y-71853000D03*
X96520149Y-72353000D03*
X96520149Y-72853000D03*
X96520149Y-73353000D03*
X96520149Y-73853000D03*
X96520149Y-74353000D03*
X96520149Y-74853000D03*
X96520149Y-75353000D03*
D34*
X97215149Y-76048000D03*
X97715149Y-76048000D03*
X98215149Y-76048000D03*
X98715149Y-76048000D03*
X99215149Y-76048000D03*
X99715149Y-76048000D03*
X100215149Y-76048000D03*
X100715149Y-76048000D03*
D35*
X98965149Y-73603000D03*
%TD*%
D36*
%TO.C,D1*%
X123802649Y-64043000D03*
X123802649Y-65943000D03*
X121727649Y-64993000D03*
%TD*%
D15*
%TO.C,R14*%
X103080149Y-69665000D03*
X104007649Y-69665000D03*
%TD*%
D29*
%TO.C,R12*%
X101028899Y-78321750D03*
X101028899Y-77394250D03*
%TD*%
D15*
%TO.C,L4*%
X98135149Y-58081750D03*
X97207649Y-58081750D03*
%TD*%
D14*
%TO.C,J1*%
X103382649Y-49928000D03*
X105282649Y-49928000D03*
%TD*%
D16*
%TO.C,C21*%
X100426399Y-62986750D03*
X100426399Y-63476750D03*
%TD*%
D15*
%TO.C,R30_BEC2*%
X120675149Y-57068000D03*
X119747649Y-57068000D03*
%TD*%
D13*
%TO.C,C28*%
X105767649Y-70098000D03*
X106257649Y-70098000D03*
%TD*%
D14*
%TO.C,J27*%
X107147649Y-88153000D03*
X109047649Y-88153000D03*
%TD*%
D13*
%TO.C,R22*%
X107187649Y-56253000D03*
X107677649Y-56253000D03*
%TD*%
%TO.C,C1*%
X110212649Y-76353000D03*
X110702649Y-76353000D03*
%TD*%
D37*
%TO.C,D3*%
X107877649Y-61755500D03*
X104617649Y-61755500D03*
%TD*%
D32*
%TO.C,LED9*%
X93277649Y-73203000D03*
X93277649Y-71728000D03*
%TD*%
D16*
%TO.C,C44*%
X95457649Y-71023000D03*
X95457649Y-71513000D03*
%TD*%
%TO.C,R30*%
X130907649Y-77373000D03*
X130907649Y-76883000D03*
%TD*%
D32*
%TO.C,LED7*%
X93277649Y-78678000D03*
X93277649Y-77203000D03*
%TD*%
D16*
%TO.C,R17*%
X104847649Y-84508000D03*
X104847649Y-84998000D03*
%TD*%
D38*
%TO.C,U1*%
X107887649Y-65428000D03*
X107887649Y-65928000D03*
X107887649Y-66428000D03*
X107887649Y-66928000D03*
X107887649Y-67428000D03*
X107887649Y-67928000D03*
X107887649Y-68428000D03*
X107887649Y-68928000D03*
X107887649Y-69428000D03*
X107887649Y-69928000D03*
X107887649Y-70428000D03*
X107887649Y-70928000D03*
X107887649Y-71428000D03*
X107887649Y-71928000D03*
X107887649Y-72428000D03*
X107887649Y-72928000D03*
D39*
X109807649Y-74848000D03*
X110307649Y-74848000D03*
X110807649Y-74848000D03*
X111307649Y-74848000D03*
X111807649Y-74848000D03*
X112307649Y-74848000D03*
X112807649Y-74848000D03*
X113307649Y-74848000D03*
X113807649Y-74848000D03*
X114307649Y-74848000D03*
X114807649Y-74848000D03*
X115307649Y-74848000D03*
X115807649Y-74848000D03*
X116307649Y-74848000D03*
X116807649Y-74848000D03*
X117307649Y-74848000D03*
D38*
X119227649Y-72928000D03*
X119227649Y-72428000D03*
X119227649Y-71928000D03*
X119227649Y-71428000D03*
X119227649Y-70928000D03*
X119227649Y-70428000D03*
X119227649Y-69928000D03*
X119227649Y-69428000D03*
X119227649Y-68928000D03*
X119227649Y-68428000D03*
X119227649Y-67928000D03*
X119227649Y-67428000D03*
X119227649Y-66928000D03*
X119227649Y-66428000D03*
X119227649Y-65928000D03*
X119227649Y-65428000D03*
D39*
X117307649Y-63508000D03*
X116807649Y-63508000D03*
X116307649Y-63508000D03*
X115807649Y-63508000D03*
X115307649Y-63508000D03*
X114807649Y-63508000D03*
X114307649Y-63508000D03*
X113807649Y-63508000D03*
X113307649Y-63508000D03*
X112807649Y-63508000D03*
X112307649Y-63508000D03*
X111807649Y-63508000D03*
X111307649Y-63508000D03*
X110807649Y-63508000D03*
X110307649Y-63508000D03*
X109807649Y-63508000D03*
%TD*%
D12*
%TO.C,J18*%
X128132649Y-49553000D03*
D40*
X131102497Y-50783152D03*
D41*
X132332649Y-53753000D03*
%TD*%
D42*
%TO.C,Y1*%
X97978899Y-78683000D03*
X99378899Y-78683000D03*
X99378899Y-77583000D03*
X97978899Y-77583000D03*
%TD*%
D13*
%TO.C,R1*%
X106257649Y-69328000D03*
X105767649Y-69328000D03*
%TD*%
D17*
%TO.C,LED1*%
X103895149Y-81753000D03*
X102420149Y-81753000D03*
%TD*%
D14*
%TO.C,J26*%
X118692232Y-84803000D03*
%TD*%
D15*
%TO.C,L5*%
X97335149Y-60256750D03*
X96407649Y-60256750D03*
%TD*%
D32*
%TO.C,LED3*%
X93277649Y-75953000D03*
X93277649Y-74478000D03*
%TD*%
D13*
%TO.C,C11*%
X113592649Y-79753000D03*
X114082649Y-79753000D03*
%TD*%
D16*
%TO.C,R10*%
X98190149Y-69243000D03*
X98190149Y-68753000D03*
%TD*%
D13*
%TO.C,C33*%
X104687649Y-69328000D03*
X105177649Y-69328000D03*
%TD*%
%TO.C,C13*%
X112907649Y-79753000D03*
X112417649Y-79753000D03*
%TD*%
D16*
%TO.C,C9*%
X102803899Y-75353000D03*
X102803899Y-75843000D03*
%TD*%
D15*
%TO.C,R7*%
X123941399Y-71483001D03*
X123013899Y-71483001D03*
%TD*%
D43*
%TO.C,C29_BEC2*%
X125892649Y-62378000D03*
X125892649Y-60728000D03*
%TD*%
D13*
%TO.C,C3*%
X117087649Y-76478000D03*
X117577649Y-76478000D03*
%TD*%
D29*
%TO.C,R28_BEC2*%
X119827649Y-62516750D03*
X119827649Y-63444250D03*
%TD*%
D14*
%TO.C,J11*%
X107182649Y-49928000D03*
X109082649Y-49928000D03*
X110982649Y-49928000D03*
X112882649Y-49928000D03*
X114782649Y-49928000D03*
X116682649Y-49928000D03*
%TD*%
D13*
%TO.C,R27*%
X103587649Y-60673000D03*
X103097649Y-60673000D03*
%TD*%
D14*
%TO.C,J22*%
X112992232Y-84803000D03*
X114892232Y-84803000D03*
%TD*%
%TO.C,J9*%
X114747649Y-88153000D03*
X116647649Y-88153000D03*
%TD*%
D44*
%TO.C,U7*%
X120032649Y-59227999D03*
X120032649Y-59882998D03*
X120032649Y-60533000D03*
X120032649Y-61182998D03*
X122332649Y-61182998D03*
X122332649Y-60533000D03*
X122332649Y-59882998D03*
X122332649Y-59233000D03*
%TD*%
D13*
%TO.C,R15*%
X104687649Y-70098000D03*
X105177649Y-70098000D03*
%TD*%
D17*
%TO.C,LED2*%
X103895149Y-84753000D03*
X102420149Y-84753000D03*
%TD*%
D31*
%TO.C,C26*%
X113062649Y-60988000D03*
X113062649Y-59608000D03*
%TD*%
D14*
%TO.C,J23*%
X118547649Y-88153000D03*
X120447649Y-88153000D03*
%TD*%
D16*
%TO.C,R20*%
X95302649Y-80419250D03*
X95302649Y-80909250D03*
%TD*%
%TO.C,R19*%
X108557649Y-81998000D03*
X108557649Y-81508000D03*
%TD*%
%TO.C,C35*%
X97207649Y-59248000D03*
X97207649Y-58758000D03*
%TD*%
D15*
%TO.C,C41*%
X105455149Y-71928000D03*
X106382649Y-71928000D03*
%TD*%
D31*
%TO.C,C43*%
X132832649Y-78468000D03*
X132832649Y-77088000D03*
%TD*%
D45*
%TO.C,L2*%
X129717649Y-61543000D03*
X129717649Y-58443000D03*
%TD*%
D46*
%TO.C,U4*%
X109182649Y-58383000D03*
X109832649Y-58383000D03*
X110482649Y-58383000D03*
X111132649Y-58383000D03*
X111132649Y-59983000D03*
X110482649Y-59983000D03*
X109832649Y-59983000D03*
X109182649Y-59983000D03*
%TD*%
D30*
%TO.C,H2*%
X97709077Y-53750000D03*
%TD*%
D16*
%TO.C,R18*%
X95302649Y-74969250D03*
X95302649Y-75459250D03*
%TD*%
%TO.C,C37*%
X97335149Y-61426750D03*
X97335149Y-60936750D03*
%TD*%
D13*
%TO.C,R28*%
X103582649Y-62122450D03*
X103092649Y-62122450D03*
%TD*%
D14*
%TO.C,J12*%
X107293899Y-84803000D03*
%TD*%
D29*
%TO.C,C17*%
X99757649Y-70026750D03*
X99757649Y-69099250D03*
%TD*%
D13*
%TO.C,C33_BEC2*%
X121027649Y-62463000D03*
X120537649Y-62463000D03*
%TD*%
D30*
%TO.C,H3*%
X128209077Y-53750000D03*
%TD*%
D13*
%TO.C,R8*%
X121902649Y-71128000D03*
X121412649Y-71128000D03*
%TD*%
%TO.C,C27*%
X106468899Y-71153000D03*
X105978899Y-71153000D03*
%TD*%
D47*
%TO.C,C5*%
X104672649Y-63828000D03*
X106052649Y-63828000D03*
%TD*%
D13*
%TO.C,R9*%
X121902649Y-67903000D03*
X121412649Y-67903000D03*
%TD*%
D48*
%TO.C,U10*%
X101821799Y-61431900D03*
X101821799Y-61031850D03*
X101821799Y-60631800D03*
X101821799Y-60231750D03*
X101821799Y-59831700D03*
X101821799Y-59431650D03*
X101821799Y-59031600D03*
D49*
X101226499Y-58341050D03*
X100826449Y-58341050D03*
X100426399Y-58341050D03*
X100026349Y-58341050D03*
X99626299Y-58341050D03*
D48*
X99030999Y-59031600D03*
X99030999Y-59431650D03*
X99030999Y-59831700D03*
X99030999Y-60231750D03*
X99030999Y-60631800D03*
X99030999Y-61031850D03*
X99030999Y-61431900D03*
D49*
X99626299Y-62122450D03*
X100026349Y-62122450D03*
X100426399Y-62122450D03*
X100826449Y-62122450D03*
X101226499Y-62122450D03*
D50*
X100426399Y-60231750D03*
%TD*%
D29*
%TO.C,C34_BEC2*%
X125017649Y-57789250D03*
X125017649Y-58716750D03*
%TD*%
D16*
%TO.C,R33*%
X95302649Y-73693000D03*
X95302649Y-73203000D03*
%TD*%
%TO.C,C19*%
X100278899Y-77308000D03*
X100278899Y-77798000D03*
%TD*%
D47*
%TO.C,C25*%
X115902649Y-57078000D03*
X117282649Y-57078000D03*
%TD*%
D13*
%TO.C,R13*%
X108252649Y-79098000D03*
X107762649Y-79098000D03*
%TD*%
D15*
%TO.C,R27_BEC2*%
X122615149Y-58063000D03*
X121687649Y-58063000D03*
%TD*%
D19*
%TO.C,SW1*%
X109057649Y-77253000D03*
X105657649Y-77253000D03*
%TD*%
D15*
%TO.C,C18*%
X102436250Y-72090000D03*
X103363750Y-72090000D03*
%TD*%
D13*
%TO.C,C15*%
X109752649Y-60828000D03*
X109262649Y-60828000D03*
%TD*%
D51*
%TO.C,U5*%
X123297649Y-70143001D03*
X123297649Y-69643001D03*
X123297649Y-69143001D03*
X121917649Y-69143001D03*
X121917649Y-69643001D03*
X121917649Y-70143001D03*
%TD*%
D15*
%TO.C,C42*%
X105455149Y-72778000D03*
X106382649Y-72778000D03*
%TD*%
D14*
%TO.C,J7*%
X117582649Y-53378000D03*
X119482649Y-53378000D03*
X121382649Y-53378000D03*
X123282649Y-53378000D03*
%TD*%
D13*
%TO.C,C4*%
X105767649Y-64828000D03*
X106257649Y-64828000D03*
%TD*%
D15*
%TO.C,R31_BEC2*%
X121687649Y-57068000D03*
X122615149Y-57068000D03*
%TD*%
D14*
%TO.C,J15*%
X101444316Y-88153000D03*
%TD*%
D29*
%TO.C,C32_BEC2*%
X118897649Y-57134250D03*
X118897649Y-58061750D03*
%TD*%
D16*
%TO.C,R21*%
X103557649Y-75848000D03*
X103557649Y-75358000D03*
%TD*%
D52*
%TO.C,U6*%
X117182649Y-60518000D03*
X117182649Y-59578000D03*
X117182649Y-58638000D03*
X114692649Y-58638000D03*
X114692649Y-60518000D03*
%TD*%
D15*
%TO.C,R26_BEC2*%
X122612649Y-62563000D03*
X121685149Y-62563000D03*
%TD*%
D14*
%TO.C,J24*%
X101482649Y-49928000D03*
%TD*%
D16*
%TO.C,C38*%
X96407649Y-61426750D03*
X96407649Y-60936750D03*
%TD*%
D27*
%TO.C,J17*%
X95782649Y-58653000D03*
D28*
X94257649Y-60128000D03*
X94257649Y-57178000D03*
%TD*%
D32*
%TO.C,LED5*%
X93277649Y-81403000D03*
X93277649Y-79928000D03*
%TD*%
D15*
%TO.C,C31_BEC2*%
X124851399Y-59663000D03*
X123923899Y-59663000D03*
%TD*%
D14*
%TO.C,J16*%
X102225649Y-53378000D03*
X104125649Y-53378000D03*
X106025649Y-53378000D03*
X107925649Y-53378000D03*
X109825649Y-53378000D03*
X111725649Y-53378000D03*
X113625649Y-53378000D03*
X115525649Y-53378000D03*
%TD*%
D53*
%TO.C,J19*%
X97632649Y-88453000D03*
D54*
X94662801Y-87222848D03*
D10*
X93432649Y-84253000D03*
%TD*%
D55*
%TO.C,Q2*%
X103532649Y-56830500D03*
X102532649Y-56830500D03*
X103032649Y-58118000D03*
%TD*%
D16*
%TO.C,C7*%
X131732649Y-77373000D03*
X131732649Y-76883000D03*
%TD*%
%TO.C,R5*%
X111357649Y-61428000D03*
X111357649Y-60938000D03*
%TD*%
%TO.C,C20*%
X97028899Y-77308000D03*
X97028899Y-77798000D03*
%TD*%
%TO.C,R29*%
X95302649Y-77694250D03*
X95302649Y-78184250D03*
%TD*%
D30*
%TO.C,H4*%
X97709077Y-84250000D03*
%TD*%
D16*
%TO.C,C23*%
X98201399Y-61431900D03*
X98201399Y-60941900D03*
%TD*%
D14*
%TO.C,J10*%
X103344316Y-88153000D03*
X105244316Y-88153000D03*
%TD*%
D16*
%TO.C,R4*%
X110582649Y-61428000D03*
X110582649Y-60938000D03*
%TD*%
D14*
%TO.C,J28*%
X116792232Y-84803000D03*
%TD*%
D16*
%TO.C,R24*%
X98895149Y-69243000D03*
X98895149Y-68753000D03*
%TD*%
D15*
%TO.C,R29_BEC2*%
X119747649Y-58063000D03*
X120675149Y-58063000D03*
%TD*%
D56*
%TO.C,Y3*%
X105682649Y-66478000D03*
X103482649Y-66478000D03*
X103482649Y-68178000D03*
X105682649Y-68178000D03*
%TD*%
D57*
%TO.C,SW3*%
X94207649Y-69653000D03*
X94207649Y-66253000D03*
%TD*%
D16*
%TO.C,C36*%
X98135149Y-59248000D03*
X98135149Y-58758000D03*
%TD*%
%TO.C,R23*%
X103707649Y-59423000D03*
X103707649Y-58933000D03*
%TD*%
%TO.C,R25*%
X97470149Y-68753000D03*
X97470149Y-69243000D03*
%TD*%
D43*
%TO.C,C30_BEC2*%
X124287649Y-62378000D03*
X124287649Y-60728000D03*
%TD*%
D41*
%TO.C,J20*%
X132332649Y-84253000D03*
D58*
X131102497Y-87222848D03*
D53*
X128132649Y-88453000D03*
%TD*%
D59*
%TO.C,SW2*%
X94432649Y-70958000D03*
X94432649Y-67958000D03*
%TD*%
M02*
