%TF.GenerationSoftware,KiCad,Pcbnew,8.0.5*%
%TF.CreationDate,2025-04-03T18:32:19+07:00*%
%TF.ProjectId,ZenFly F71,5a656e46-6c79-4204-9637-312e6b696361,rev?*%
%TF.SameCoordinates,Original*%
%TF.FileFunction,Drillmap*%
%TF.FilePolarity,Positive*%
%FSLAX45Y45*%
G04 Gerber Fmt 4.5, Leading zero omitted, Abs format (unit mm)*
G04 Created by KiCad (PCBNEW 8.0.5) date 2025-04-03 18:32:19*
%MOMM*%
%LPD*%
G01*
G04 APERTURE LIST*
%ADD10C,0.050000*%
%ADD11C,0.200000*%
%ADD12C,0.100000*%
%ADD13C,0.317500*%
G04 APERTURE END LIST*
D10*
X9221208Y-5375300D02*
G75*
G02*
X9770765Y-4825298I549702J300D01*
G01*
X9221208Y-5375300D02*
X9221208Y-8425143D01*
X13370608Y-8424700D02*
X13370608Y-5374857D01*
X9771208Y-8974700D02*
X12821051Y-8974700D01*
X9771208Y-8974700D02*
G75*
G02*
X9221200Y-8425143I-308J549700D01*
G01*
X9770765Y-4825300D02*
X12820608Y-4825300D01*
X12820608Y-4825300D02*
G75*
G02*
X13370600Y-5374857I292J-549700D01*
G01*
X13370608Y-8424700D02*
G75*
G02*
X12821051Y-8974698I-549698J-300D01*
G01*
D11*
D12*
X10508265Y-5847800D02*
X10538265Y-5877800D01*
X10538265Y-5847800D02*
X10508265Y-5877800D01*
X10708265Y-5847800D02*
X10738265Y-5877800D01*
X10738265Y-5847800D02*
X10708265Y-5877800D01*
X12733785Y-6675300D02*
G75*
G02*
X12667745Y-6675300I-33020J0D01*
G01*
X12667745Y-6675300D02*
G75*
G02*
X12733785Y-6675300I33020J0D01*
G01*
X12733785Y-7253300D02*
G75*
G02*
X12667745Y-7253300I-33020J0D01*
G01*
X12667745Y-7253300D02*
G75*
G02*
X12733785Y-7253300I33020J0D01*
G01*
X9443265Y-6750800D02*
X9443265Y-6840800D01*
X9398265Y-6795800D02*
X9488265Y-6795800D01*
X9443265Y-7050800D02*
X9443265Y-7140800D01*
X9398265Y-7095800D02*
X9488265Y-7095800D01*
D13*
X9883162Y-5487254D02*
X9883162Y-5262746D01*
X9658653Y-5262746D01*
X9658653Y-5487254D01*
X9883162Y-5487254D01*
X9883162Y-8537254D02*
X9883162Y-8312746D01*
X9658653Y-8312746D01*
X9658653Y-8537254D01*
X9883162Y-8537254D01*
X12933162Y-5487254D02*
X12933162Y-5262746D01*
X12708653Y-5262746D01*
X12708653Y-5487254D01*
X12933162Y-5487254D01*
X12933162Y-8537254D02*
X12933162Y-8312746D01*
X12708653Y-8312746D01*
X12708653Y-8537254D01*
X12933162Y-8537254D01*
D11*
X9479485Y-9288684D02*
X9479485Y-9088684D01*
X9479485Y-9088684D02*
X9527104Y-9088684D01*
X9527104Y-9088684D02*
X9555675Y-9098208D01*
X9555675Y-9098208D02*
X9574723Y-9117255D01*
X9574723Y-9117255D02*
X9584246Y-9136303D01*
X9584246Y-9136303D02*
X9593770Y-9174398D01*
X9593770Y-9174398D02*
X9593770Y-9202970D01*
X9593770Y-9202970D02*
X9584246Y-9241065D01*
X9584246Y-9241065D02*
X9574723Y-9260112D01*
X9574723Y-9260112D02*
X9555675Y-9279160D01*
X9555675Y-9279160D02*
X9527104Y-9288684D01*
X9527104Y-9288684D02*
X9479485Y-9288684D01*
X9679485Y-9288684D02*
X9679485Y-9155351D01*
X9679485Y-9193446D02*
X9689008Y-9174398D01*
X9689008Y-9174398D02*
X9698532Y-9164874D01*
X9698532Y-9164874D02*
X9717580Y-9155351D01*
X9717580Y-9155351D02*
X9736627Y-9155351D01*
X9803294Y-9288684D02*
X9803294Y-9155351D01*
X9803294Y-9088684D02*
X9793770Y-9098208D01*
X9793770Y-9098208D02*
X9803294Y-9107732D01*
X9803294Y-9107732D02*
X9812818Y-9098208D01*
X9812818Y-9098208D02*
X9803294Y-9088684D01*
X9803294Y-9088684D02*
X9803294Y-9107732D01*
X9927104Y-9288684D02*
X9908056Y-9279160D01*
X9908056Y-9279160D02*
X9898532Y-9260112D01*
X9898532Y-9260112D02*
X9898532Y-9088684D01*
X10031865Y-9288684D02*
X10012818Y-9279160D01*
X10012818Y-9279160D02*
X10003294Y-9260112D01*
X10003294Y-9260112D02*
X10003294Y-9088684D01*
X10260437Y-9288684D02*
X10260437Y-9088684D01*
X10260437Y-9088684D02*
X10327104Y-9231541D01*
X10327104Y-9231541D02*
X10393770Y-9088684D01*
X10393770Y-9088684D02*
X10393770Y-9288684D01*
X10574723Y-9288684D02*
X10574723Y-9183922D01*
X10574723Y-9183922D02*
X10565199Y-9164874D01*
X10565199Y-9164874D02*
X10546151Y-9155351D01*
X10546151Y-9155351D02*
X10508056Y-9155351D01*
X10508056Y-9155351D02*
X10489008Y-9164874D01*
X10574723Y-9279160D02*
X10555675Y-9288684D01*
X10555675Y-9288684D02*
X10508056Y-9288684D01*
X10508056Y-9288684D02*
X10489008Y-9279160D01*
X10489008Y-9279160D02*
X10479485Y-9260112D01*
X10479485Y-9260112D02*
X10479485Y-9241065D01*
X10479485Y-9241065D02*
X10489008Y-9222017D01*
X10489008Y-9222017D02*
X10508056Y-9212493D01*
X10508056Y-9212493D02*
X10555675Y-9212493D01*
X10555675Y-9212493D02*
X10574723Y-9202970D01*
X10669961Y-9155351D02*
X10669961Y-9355351D01*
X10669961Y-9164874D02*
X10689008Y-9155351D01*
X10689008Y-9155351D02*
X10727104Y-9155351D01*
X10727104Y-9155351D02*
X10746151Y-9164874D01*
X10746151Y-9164874D02*
X10755675Y-9174398D01*
X10755675Y-9174398D02*
X10765199Y-9193446D01*
X10765199Y-9193446D02*
X10765199Y-9250589D01*
X10765199Y-9250589D02*
X10755675Y-9269636D01*
X10755675Y-9269636D02*
X10746151Y-9279160D01*
X10746151Y-9279160D02*
X10727104Y-9288684D01*
X10727104Y-9288684D02*
X10689008Y-9288684D01*
X10689008Y-9288684D02*
X10669961Y-9279160D01*
X10850913Y-9269636D02*
X10860437Y-9279160D01*
X10860437Y-9279160D02*
X10850913Y-9288684D01*
X10850913Y-9288684D02*
X10841389Y-9279160D01*
X10841389Y-9279160D02*
X10850913Y-9269636D01*
X10850913Y-9269636D02*
X10850913Y-9288684D01*
X10850913Y-9164874D02*
X10860437Y-9174398D01*
X10860437Y-9174398D02*
X10850913Y-9183922D01*
X10850913Y-9183922D02*
X10841389Y-9174398D01*
X10841389Y-9174398D02*
X10850913Y-9164874D01*
X10850913Y-9164874D02*
X10850913Y-9183922D01*
D12*
X9188708Y-9602200D02*
X9218708Y-9632200D01*
X9218708Y-9602200D02*
X9188708Y-9632200D01*
D11*
X9517580Y-9508684D02*
X9536627Y-9508684D01*
X9536627Y-9508684D02*
X9555675Y-9518208D01*
X9555675Y-9518208D02*
X9565199Y-9527732D01*
X9565199Y-9527732D02*
X9574723Y-9546779D01*
X9574723Y-9546779D02*
X9584246Y-9584874D01*
X9584246Y-9584874D02*
X9584246Y-9632493D01*
X9584246Y-9632493D02*
X9574723Y-9670589D01*
X9574723Y-9670589D02*
X9565199Y-9689636D01*
X9565199Y-9689636D02*
X9555675Y-9699160D01*
X9555675Y-9699160D02*
X9536627Y-9708684D01*
X9536627Y-9708684D02*
X9517580Y-9708684D01*
X9517580Y-9708684D02*
X9498532Y-9699160D01*
X9498532Y-9699160D02*
X9489008Y-9689636D01*
X9489008Y-9689636D02*
X9479485Y-9670589D01*
X9479485Y-9670589D02*
X9469961Y-9632493D01*
X9469961Y-9632493D02*
X9469961Y-9584874D01*
X9469961Y-9584874D02*
X9479485Y-9546779D01*
X9479485Y-9546779D02*
X9489008Y-9527732D01*
X9489008Y-9527732D02*
X9498532Y-9518208D01*
X9498532Y-9518208D02*
X9517580Y-9508684D01*
X9669961Y-9689636D02*
X9679485Y-9699160D01*
X9679485Y-9699160D02*
X9669961Y-9708684D01*
X9669961Y-9708684D02*
X9660437Y-9699160D01*
X9660437Y-9699160D02*
X9669961Y-9689636D01*
X9669961Y-9689636D02*
X9669961Y-9708684D01*
X9746151Y-9508684D02*
X9869961Y-9508684D01*
X9869961Y-9508684D02*
X9803294Y-9584874D01*
X9803294Y-9584874D02*
X9831866Y-9584874D01*
X9831866Y-9584874D02*
X9850913Y-9594398D01*
X9850913Y-9594398D02*
X9860437Y-9603922D01*
X9860437Y-9603922D02*
X9869961Y-9622970D01*
X9869961Y-9622970D02*
X9869961Y-9670589D01*
X9869961Y-9670589D02*
X9860437Y-9689636D01*
X9860437Y-9689636D02*
X9850913Y-9699160D01*
X9850913Y-9699160D02*
X9831866Y-9708684D01*
X9831866Y-9708684D02*
X9774723Y-9708684D01*
X9774723Y-9708684D02*
X9755675Y-9699160D01*
X9755675Y-9699160D02*
X9746151Y-9689636D01*
X9993770Y-9508684D02*
X10012818Y-9508684D01*
X10012818Y-9508684D02*
X10031866Y-9518208D01*
X10031866Y-9518208D02*
X10041389Y-9527732D01*
X10041389Y-9527732D02*
X10050913Y-9546779D01*
X10050913Y-9546779D02*
X10060437Y-9584874D01*
X10060437Y-9584874D02*
X10060437Y-9632493D01*
X10060437Y-9632493D02*
X10050913Y-9670589D01*
X10050913Y-9670589D02*
X10041389Y-9689636D01*
X10041389Y-9689636D02*
X10031866Y-9699160D01*
X10031866Y-9699160D02*
X10012818Y-9708684D01*
X10012818Y-9708684D02*
X9993770Y-9708684D01*
X9993770Y-9708684D02*
X9974723Y-9699160D01*
X9974723Y-9699160D02*
X9965199Y-9689636D01*
X9965199Y-9689636D02*
X9955675Y-9670589D01*
X9955675Y-9670589D02*
X9946151Y-9632493D01*
X9946151Y-9632493D02*
X9946151Y-9584874D01*
X9946151Y-9584874D02*
X9955675Y-9546779D01*
X9955675Y-9546779D02*
X9965199Y-9527732D01*
X9965199Y-9527732D02*
X9974723Y-9518208D01*
X9974723Y-9518208D02*
X9993770Y-9508684D01*
X10184246Y-9508684D02*
X10203294Y-9508684D01*
X10203294Y-9508684D02*
X10222342Y-9518208D01*
X10222342Y-9518208D02*
X10231866Y-9527732D01*
X10231866Y-9527732D02*
X10241389Y-9546779D01*
X10241389Y-9546779D02*
X10250913Y-9584874D01*
X10250913Y-9584874D02*
X10250913Y-9632493D01*
X10250913Y-9632493D02*
X10241389Y-9670589D01*
X10241389Y-9670589D02*
X10231866Y-9689636D01*
X10231866Y-9689636D02*
X10222342Y-9699160D01*
X10222342Y-9699160D02*
X10203294Y-9708684D01*
X10203294Y-9708684D02*
X10184246Y-9708684D01*
X10184246Y-9708684D02*
X10165199Y-9699160D01*
X10165199Y-9699160D02*
X10155675Y-9689636D01*
X10155675Y-9689636D02*
X10146151Y-9670589D01*
X10146151Y-9670589D02*
X10136627Y-9632493D01*
X10136627Y-9632493D02*
X10136627Y-9584874D01*
X10136627Y-9584874D02*
X10146151Y-9546779D01*
X10146151Y-9546779D02*
X10155675Y-9527732D01*
X10155675Y-9527732D02*
X10165199Y-9518208D01*
X10165199Y-9518208D02*
X10184246Y-9508684D01*
X10336627Y-9708684D02*
X10336627Y-9575351D01*
X10336627Y-9594398D02*
X10346151Y-9584874D01*
X10346151Y-9584874D02*
X10365199Y-9575351D01*
X10365199Y-9575351D02*
X10393770Y-9575351D01*
X10393770Y-9575351D02*
X10412818Y-9584874D01*
X10412818Y-9584874D02*
X10422342Y-9603922D01*
X10422342Y-9603922D02*
X10422342Y-9708684D01*
X10422342Y-9603922D02*
X10431866Y-9584874D01*
X10431866Y-9584874D02*
X10450913Y-9575351D01*
X10450913Y-9575351D02*
X10479485Y-9575351D01*
X10479485Y-9575351D02*
X10498532Y-9584874D01*
X10498532Y-9584874D02*
X10508056Y-9603922D01*
X10508056Y-9603922D02*
X10508056Y-9708684D01*
X10603294Y-9708684D02*
X10603294Y-9575351D01*
X10603294Y-9594398D02*
X10612818Y-9584874D01*
X10612818Y-9584874D02*
X10631866Y-9575351D01*
X10631866Y-9575351D02*
X10660437Y-9575351D01*
X10660437Y-9575351D02*
X10679485Y-9584874D01*
X10679485Y-9584874D02*
X10689008Y-9603922D01*
X10689008Y-9603922D02*
X10689008Y-9708684D01*
X10689008Y-9603922D02*
X10698532Y-9584874D01*
X10698532Y-9584874D02*
X10717580Y-9575351D01*
X10717580Y-9575351D02*
X10746151Y-9575351D01*
X10746151Y-9575351D02*
X10765199Y-9584874D01*
X10765199Y-9584874D02*
X10774723Y-9603922D01*
X10774723Y-9603922D02*
X10774723Y-9708684D01*
X11165199Y-9499160D02*
X10993770Y-9756303D01*
X11422342Y-9508684D02*
X11441389Y-9508684D01*
X11441389Y-9508684D02*
X11460437Y-9518208D01*
X11460437Y-9518208D02*
X11469961Y-9527732D01*
X11469961Y-9527732D02*
X11479485Y-9546779D01*
X11479485Y-9546779D02*
X11489008Y-9584874D01*
X11489008Y-9584874D02*
X11489008Y-9632493D01*
X11489008Y-9632493D02*
X11479485Y-9670589D01*
X11479485Y-9670589D02*
X11469961Y-9689636D01*
X11469961Y-9689636D02*
X11460437Y-9699160D01*
X11460437Y-9699160D02*
X11441389Y-9708684D01*
X11441389Y-9708684D02*
X11422342Y-9708684D01*
X11422342Y-9708684D02*
X11403294Y-9699160D01*
X11403294Y-9699160D02*
X11393770Y-9689636D01*
X11393770Y-9689636D02*
X11384247Y-9670589D01*
X11384247Y-9670589D02*
X11374723Y-9632493D01*
X11374723Y-9632493D02*
X11374723Y-9584874D01*
X11374723Y-9584874D02*
X11384247Y-9546779D01*
X11384247Y-9546779D02*
X11393770Y-9527732D01*
X11393770Y-9527732D02*
X11403294Y-9518208D01*
X11403294Y-9518208D02*
X11422342Y-9508684D01*
X11574723Y-9689636D02*
X11584247Y-9699160D01*
X11584247Y-9699160D02*
X11574723Y-9708684D01*
X11574723Y-9708684D02*
X11565199Y-9699160D01*
X11565199Y-9699160D02*
X11574723Y-9689636D01*
X11574723Y-9689636D02*
X11574723Y-9708684D01*
X11708056Y-9508684D02*
X11727104Y-9508684D01*
X11727104Y-9508684D02*
X11746151Y-9518208D01*
X11746151Y-9518208D02*
X11755675Y-9527732D01*
X11755675Y-9527732D02*
X11765199Y-9546779D01*
X11765199Y-9546779D02*
X11774723Y-9584874D01*
X11774723Y-9584874D02*
X11774723Y-9632493D01*
X11774723Y-9632493D02*
X11765199Y-9670589D01*
X11765199Y-9670589D02*
X11755675Y-9689636D01*
X11755675Y-9689636D02*
X11746151Y-9699160D01*
X11746151Y-9699160D02*
X11727104Y-9708684D01*
X11727104Y-9708684D02*
X11708056Y-9708684D01*
X11708056Y-9708684D02*
X11689008Y-9699160D01*
X11689008Y-9699160D02*
X11679485Y-9689636D01*
X11679485Y-9689636D02*
X11669961Y-9670589D01*
X11669961Y-9670589D02*
X11660437Y-9632493D01*
X11660437Y-9632493D02*
X11660437Y-9584874D01*
X11660437Y-9584874D02*
X11669961Y-9546779D01*
X11669961Y-9546779D02*
X11679485Y-9527732D01*
X11679485Y-9527732D02*
X11689008Y-9518208D01*
X11689008Y-9518208D02*
X11708056Y-9508684D01*
X11965199Y-9708684D02*
X11850913Y-9708684D01*
X11908056Y-9708684D02*
X11908056Y-9508684D01*
X11908056Y-9508684D02*
X11889008Y-9537255D01*
X11889008Y-9537255D02*
X11869961Y-9556303D01*
X11869961Y-9556303D02*
X11850913Y-9565827D01*
X12155675Y-9708684D02*
X12041389Y-9708684D01*
X12098532Y-9708684D02*
X12098532Y-9508684D01*
X12098532Y-9508684D02*
X12079485Y-9537255D01*
X12079485Y-9537255D02*
X12060437Y-9556303D01*
X12060437Y-9556303D02*
X12041389Y-9565827D01*
X12269961Y-9594398D02*
X12250913Y-9584874D01*
X12250913Y-9584874D02*
X12241389Y-9575351D01*
X12241389Y-9575351D02*
X12231866Y-9556303D01*
X12231866Y-9556303D02*
X12231866Y-9546779D01*
X12231866Y-9546779D02*
X12241389Y-9527732D01*
X12241389Y-9527732D02*
X12250913Y-9518208D01*
X12250913Y-9518208D02*
X12269961Y-9508684D01*
X12269961Y-9508684D02*
X12308056Y-9508684D01*
X12308056Y-9508684D02*
X12327104Y-9518208D01*
X12327104Y-9518208D02*
X12336628Y-9527732D01*
X12336628Y-9527732D02*
X12346151Y-9546779D01*
X12346151Y-9546779D02*
X12346151Y-9556303D01*
X12346151Y-9556303D02*
X12336628Y-9575351D01*
X12336628Y-9575351D02*
X12327104Y-9584874D01*
X12327104Y-9584874D02*
X12308056Y-9594398D01*
X12308056Y-9594398D02*
X12269961Y-9594398D01*
X12269961Y-9594398D02*
X12250913Y-9603922D01*
X12250913Y-9603922D02*
X12241389Y-9613446D01*
X12241389Y-9613446D02*
X12231866Y-9632493D01*
X12231866Y-9632493D02*
X12231866Y-9670589D01*
X12231866Y-9670589D02*
X12241389Y-9689636D01*
X12241389Y-9689636D02*
X12250913Y-9699160D01*
X12250913Y-9699160D02*
X12269961Y-9708684D01*
X12269961Y-9708684D02*
X12308056Y-9708684D01*
X12308056Y-9708684D02*
X12327104Y-9699160D01*
X12327104Y-9699160D02*
X12336628Y-9689636D01*
X12336628Y-9689636D02*
X12346151Y-9670589D01*
X12346151Y-9670589D02*
X12346151Y-9632493D01*
X12346151Y-9632493D02*
X12336628Y-9613446D01*
X12336628Y-9613446D02*
X12327104Y-9603922D01*
X12327104Y-9603922D02*
X12308056Y-9594398D01*
X12422342Y-9508684D02*
X12422342Y-9546779D01*
X12498532Y-9508684D02*
X12498532Y-9546779D01*
X12793771Y-9784874D02*
X12784247Y-9775351D01*
X12784247Y-9775351D02*
X12765199Y-9746779D01*
X12765199Y-9746779D02*
X12755675Y-9727732D01*
X12755675Y-9727732D02*
X12746151Y-9699160D01*
X12746151Y-9699160D02*
X12736628Y-9651541D01*
X12736628Y-9651541D02*
X12736628Y-9613446D01*
X12736628Y-9613446D02*
X12746151Y-9565827D01*
X12746151Y-9565827D02*
X12755675Y-9537255D01*
X12755675Y-9537255D02*
X12765199Y-9518208D01*
X12765199Y-9518208D02*
X12784247Y-9489636D01*
X12784247Y-9489636D02*
X12793771Y-9480112D01*
X12860437Y-9527732D02*
X12869961Y-9518208D01*
X12869961Y-9518208D02*
X12889009Y-9508684D01*
X12889009Y-9508684D02*
X12936628Y-9508684D01*
X12936628Y-9508684D02*
X12955675Y-9518208D01*
X12955675Y-9518208D02*
X12965199Y-9527732D01*
X12965199Y-9527732D02*
X12974723Y-9546779D01*
X12974723Y-9546779D02*
X12974723Y-9565827D01*
X12974723Y-9565827D02*
X12965199Y-9594398D01*
X12965199Y-9594398D02*
X12850913Y-9708684D01*
X12850913Y-9708684D02*
X12974723Y-9708684D01*
X13212818Y-9708684D02*
X13212818Y-9508684D01*
X13298532Y-9708684D02*
X13298532Y-9603922D01*
X13298532Y-9603922D02*
X13289009Y-9584874D01*
X13289009Y-9584874D02*
X13269961Y-9575351D01*
X13269961Y-9575351D02*
X13241390Y-9575351D01*
X13241390Y-9575351D02*
X13222342Y-9584874D01*
X13222342Y-9584874D02*
X13212818Y-9594398D01*
X13422342Y-9708684D02*
X13403294Y-9699160D01*
X13403294Y-9699160D02*
X13393771Y-9689636D01*
X13393771Y-9689636D02*
X13384247Y-9670589D01*
X13384247Y-9670589D02*
X13384247Y-9613446D01*
X13384247Y-9613446D02*
X13393771Y-9594398D01*
X13393771Y-9594398D02*
X13403294Y-9584874D01*
X13403294Y-9584874D02*
X13422342Y-9575351D01*
X13422342Y-9575351D02*
X13450913Y-9575351D01*
X13450913Y-9575351D02*
X13469961Y-9584874D01*
X13469961Y-9584874D02*
X13479485Y-9594398D01*
X13479485Y-9594398D02*
X13489009Y-9613446D01*
X13489009Y-9613446D02*
X13489009Y-9670589D01*
X13489009Y-9670589D02*
X13479485Y-9689636D01*
X13479485Y-9689636D02*
X13469961Y-9699160D01*
X13469961Y-9699160D02*
X13450913Y-9708684D01*
X13450913Y-9708684D02*
X13422342Y-9708684D01*
X13603294Y-9708684D02*
X13584247Y-9699160D01*
X13584247Y-9699160D02*
X13574723Y-9680112D01*
X13574723Y-9680112D02*
X13574723Y-9508684D01*
X13755675Y-9699160D02*
X13736628Y-9708684D01*
X13736628Y-9708684D02*
X13698532Y-9708684D01*
X13698532Y-9708684D02*
X13679485Y-9699160D01*
X13679485Y-9699160D02*
X13669961Y-9680112D01*
X13669961Y-9680112D02*
X13669961Y-9603922D01*
X13669961Y-9603922D02*
X13679485Y-9584874D01*
X13679485Y-9584874D02*
X13698532Y-9575351D01*
X13698532Y-9575351D02*
X13736628Y-9575351D01*
X13736628Y-9575351D02*
X13755675Y-9584874D01*
X13755675Y-9584874D02*
X13765199Y-9603922D01*
X13765199Y-9603922D02*
X13765199Y-9622970D01*
X13765199Y-9622970D02*
X13669961Y-9642017D01*
X13841390Y-9699160D02*
X13860437Y-9708684D01*
X13860437Y-9708684D02*
X13898532Y-9708684D01*
X13898532Y-9708684D02*
X13917580Y-9699160D01*
X13917580Y-9699160D02*
X13927104Y-9680112D01*
X13927104Y-9680112D02*
X13927104Y-9670589D01*
X13927104Y-9670589D02*
X13917580Y-9651541D01*
X13917580Y-9651541D02*
X13898532Y-9642017D01*
X13898532Y-9642017D02*
X13869961Y-9642017D01*
X13869961Y-9642017D02*
X13850913Y-9632493D01*
X13850913Y-9632493D02*
X13841390Y-9613446D01*
X13841390Y-9613446D02*
X13841390Y-9603922D01*
X13841390Y-9603922D02*
X13850913Y-9584874D01*
X13850913Y-9584874D02*
X13869961Y-9575351D01*
X13869961Y-9575351D02*
X13898532Y-9575351D01*
X13898532Y-9575351D02*
X13917580Y-9584874D01*
X13993771Y-9784874D02*
X14003294Y-9775351D01*
X14003294Y-9775351D02*
X14022342Y-9746779D01*
X14022342Y-9746779D02*
X14031866Y-9727732D01*
X14031866Y-9727732D02*
X14041390Y-9699160D01*
X14041390Y-9699160D02*
X14050913Y-9651541D01*
X14050913Y-9651541D02*
X14050913Y-9613446D01*
X14050913Y-9613446D02*
X14041390Y-9565827D01*
X14041390Y-9565827D02*
X14031866Y-9537255D01*
X14031866Y-9537255D02*
X14022342Y-9518208D01*
X14022342Y-9518208D02*
X14003294Y-9489636D01*
X14003294Y-9489636D02*
X13993771Y-9480112D01*
X14355675Y-9784874D02*
X14346152Y-9775351D01*
X14346152Y-9775351D02*
X14327104Y-9746779D01*
X14327104Y-9746779D02*
X14317580Y-9727732D01*
X14317580Y-9727732D02*
X14308056Y-9699160D01*
X14308056Y-9699160D02*
X14298533Y-9651541D01*
X14298533Y-9651541D02*
X14298533Y-9613446D01*
X14298533Y-9613446D02*
X14308056Y-9565827D01*
X14308056Y-9565827D02*
X14317580Y-9537255D01*
X14317580Y-9537255D02*
X14327104Y-9518208D01*
X14327104Y-9518208D02*
X14346152Y-9489636D01*
X14346152Y-9489636D02*
X14355675Y-9480112D01*
X14431866Y-9575351D02*
X14431866Y-9708684D01*
X14431866Y-9594398D02*
X14441390Y-9584874D01*
X14441390Y-9584874D02*
X14460437Y-9575351D01*
X14460437Y-9575351D02*
X14489009Y-9575351D01*
X14489009Y-9575351D02*
X14508056Y-9584874D01*
X14508056Y-9584874D02*
X14517580Y-9603922D01*
X14517580Y-9603922D02*
X14517580Y-9708684D01*
X14641390Y-9708684D02*
X14622342Y-9699160D01*
X14622342Y-9699160D02*
X14612818Y-9689636D01*
X14612818Y-9689636D02*
X14603294Y-9670589D01*
X14603294Y-9670589D02*
X14603294Y-9613446D01*
X14603294Y-9613446D02*
X14612818Y-9594398D01*
X14612818Y-9594398D02*
X14622342Y-9584874D01*
X14622342Y-9584874D02*
X14641390Y-9575351D01*
X14641390Y-9575351D02*
X14669961Y-9575351D01*
X14669961Y-9575351D02*
X14689009Y-9584874D01*
X14689009Y-9584874D02*
X14698533Y-9594398D01*
X14698533Y-9594398D02*
X14708056Y-9613446D01*
X14708056Y-9613446D02*
X14708056Y-9670589D01*
X14708056Y-9670589D02*
X14698533Y-9689636D01*
X14698533Y-9689636D02*
X14689009Y-9699160D01*
X14689009Y-9699160D02*
X14669961Y-9708684D01*
X14669961Y-9708684D02*
X14641390Y-9708684D01*
X14765199Y-9575351D02*
X14841390Y-9575351D01*
X14793771Y-9508684D02*
X14793771Y-9680112D01*
X14793771Y-9680112D02*
X14803294Y-9699160D01*
X14803294Y-9699160D02*
X14822342Y-9708684D01*
X14822342Y-9708684D02*
X14841390Y-9708684D01*
X15060437Y-9575351D02*
X15060437Y-9775351D01*
X15060437Y-9584874D02*
X15079485Y-9575351D01*
X15079485Y-9575351D02*
X15117580Y-9575351D01*
X15117580Y-9575351D02*
X15136628Y-9584874D01*
X15136628Y-9584874D02*
X15146152Y-9594398D01*
X15146152Y-9594398D02*
X15155675Y-9613446D01*
X15155675Y-9613446D02*
X15155675Y-9670589D01*
X15155675Y-9670589D02*
X15146152Y-9689636D01*
X15146152Y-9689636D02*
X15136628Y-9699160D01*
X15136628Y-9699160D02*
X15117580Y-9708684D01*
X15117580Y-9708684D02*
X15079485Y-9708684D01*
X15079485Y-9708684D02*
X15060437Y-9699160D01*
X15269961Y-9708684D02*
X15250914Y-9699160D01*
X15250914Y-9699160D02*
X15241390Y-9680112D01*
X15241390Y-9680112D02*
X15241390Y-9508684D01*
X15431866Y-9708684D02*
X15431866Y-9603922D01*
X15431866Y-9603922D02*
X15422342Y-9584874D01*
X15422342Y-9584874D02*
X15403295Y-9575351D01*
X15403295Y-9575351D02*
X15365199Y-9575351D01*
X15365199Y-9575351D02*
X15346152Y-9584874D01*
X15431866Y-9699160D02*
X15412818Y-9708684D01*
X15412818Y-9708684D02*
X15365199Y-9708684D01*
X15365199Y-9708684D02*
X15346152Y-9699160D01*
X15346152Y-9699160D02*
X15336628Y-9680112D01*
X15336628Y-9680112D02*
X15336628Y-9661065D01*
X15336628Y-9661065D02*
X15346152Y-9642017D01*
X15346152Y-9642017D02*
X15365199Y-9632493D01*
X15365199Y-9632493D02*
X15412818Y-9632493D01*
X15412818Y-9632493D02*
X15431866Y-9622970D01*
X15498533Y-9575351D02*
X15574723Y-9575351D01*
X15527104Y-9508684D02*
X15527104Y-9680112D01*
X15527104Y-9680112D02*
X15536628Y-9699160D01*
X15536628Y-9699160D02*
X15555675Y-9708684D01*
X15555675Y-9708684D02*
X15574723Y-9708684D01*
X15717580Y-9699160D02*
X15698533Y-9708684D01*
X15698533Y-9708684D02*
X15660437Y-9708684D01*
X15660437Y-9708684D02*
X15641390Y-9699160D01*
X15641390Y-9699160D02*
X15631866Y-9680112D01*
X15631866Y-9680112D02*
X15631866Y-9603922D01*
X15631866Y-9603922D02*
X15641390Y-9584874D01*
X15641390Y-9584874D02*
X15660437Y-9575351D01*
X15660437Y-9575351D02*
X15698533Y-9575351D01*
X15698533Y-9575351D02*
X15717580Y-9584874D01*
X15717580Y-9584874D02*
X15727104Y-9603922D01*
X15727104Y-9603922D02*
X15727104Y-9622970D01*
X15727104Y-9622970D02*
X15631866Y-9642017D01*
X15898533Y-9708684D02*
X15898533Y-9508684D01*
X15898533Y-9699160D02*
X15879485Y-9708684D01*
X15879485Y-9708684D02*
X15841390Y-9708684D01*
X15841390Y-9708684D02*
X15822342Y-9699160D01*
X15822342Y-9699160D02*
X15812818Y-9689636D01*
X15812818Y-9689636D02*
X15803295Y-9670589D01*
X15803295Y-9670589D02*
X15803295Y-9613446D01*
X15803295Y-9613446D02*
X15812818Y-9594398D01*
X15812818Y-9594398D02*
X15822342Y-9584874D01*
X15822342Y-9584874D02*
X15841390Y-9575351D01*
X15841390Y-9575351D02*
X15879485Y-9575351D01*
X15879485Y-9575351D02*
X15898533Y-9584874D01*
X15974723Y-9784874D02*
X15984247Y-9775351D01*
X15984247Y-9775351D02*
X16003295Y-9746779D01*
X16003295Y-9746779D02*
X16012818Y-9727732D01*
X16012818Y-9727732D02*
X16022342Y-9699160D01*
X16022342Y-9699160D02*
X16031866Y-9651541D01*
X16031866Y-9651541D02*
X16031866Y-9613446D01*
X16031866Y-9613446D02*
X16022342Y-9565827D01*
X16022342Y-9565827D02*
X16012818Y-9537255D01*
X16012818Y-9537255D02*
X16003295Y-9518208D01*
X16003295Y-9518208D02*
X15984247Y-9489636D01*
X15984247Y-9489636D02*
X15974723Y-9480112D01*
D12*
X9218708Y-9881200D02*
G75*
G02*
X9152668Y-9881200I-33020J0D01*
G01*
X9152668Y-9881200D02*
G75*
G02*
X9218708Y-9881200I33020J0D01*
G01*
D11*
X9517580Y-9772684D02*
X9536627Y-9772684D01*
X9536627Y-9772684D02*
X9555675Y-9782208D01*
X9555675Y-9782208D02*
X9565199Y-9791732D01*
X9565199Y-9791732D02*
X9574723Y-9810779D01*
X9574723Y-9810779D02*
X9584246Y-9848874D01*
X9584246Y-9848874D02*
X9584246Y-9896493D01*
X9584246Y-9896493D02*
X9574723Y-9934589D01*
X9574723Y-9934589D02*
X9565199Y-9953636D01*
X9565199Y-9953636D02*
X9555675Y-9963160D01*
X9555675Y-9963160D02*
X9536627Y-9972684D01*
X9536627Y-9972684D02*
X9517580Y-9972684D01*
X9517580Y-9972684D02*
X9498532Y-9963160D01*
X9498532Y-9963160D02*
X9489008Y-9953636D01*
X9489008Y-9953636D02*
X9479485Y-9934589D01*
X9479485Y-9934589D02*
X9469961Y-9896493D01*
X9469961Y-9896493D02*
X9469961Y-9848874D01*
X9469961Y-9848874D02*
X9479485Y-9810779D01*
X9479485Y-9810779D02*
X9489008Y-9791732D01*
X9489008Y-9791732D02*
X9498532Y-9782208D01*
X9498532Y-9782208D02*
X9517580Y-9772684D01*
X9669961Y-9953636D02*
X9679485Y-9963160D01*
X9679485Y-9963160D02*
X9669961Y-9972684D01*
X9669961Y-9972684D02*
X9660437Y-9963160D01*
X9660437Y-9963160D02*
X9669961Y-9953636D01*
X9669961Y-9953636D02*
X9669961Y-9972684D01*
X9850913Y-9772684D02*
X9812818Y-9772684D01*
X9812818Y-9772684D02*
X9793770Y-9782208D01*
X9793770Y-9782208D02*
X9784246Y-9791732D01*
X9784246Y-9791732D02*
X9765199Y-9820303D01*
X9765199Y-9820303D02*
X9755675Y-9858398D01*
X9755675Y-9858398D02*
X9755675Y-9934589D01*
X9755675Y-9934589D02*
X9765199Y-9953636D01*
X9765199Y-9953636D02*
X9774723Y-9963160D01*
X9774723Y-9963160D02*
X9793770Y-9972684D01*
X9793770Y-9972684D02*
X9831866Y-9972684D01*
X9831866Y-9972684D02*
X9850913Y-9963160D01*
X9850913Y-9963160D02*
X9860437Y-9953636D01*
X9860437Y-9953636D02*
X9869961Y-9934589D01*
X9869961Y-9934589D02*
X9869961Y-9886970D01*
X9869961Y-9886970D02*
X9860437Y-9867922D01*
X9860437Y-9867922D02*
X9850913Y-9858398D01*
X9850913Y-9858398D02*
X9831866Y-9848874D01*
X9831866Y-9848874D02*
X9793770Y-9848874D01*
X9793770Y-9848874D02*
X9774723Y-9858398D01*
X9774723Y-9858398D02*
X9765199Y-9867922D01*
X9765199Y-9867922D02*
X9755675Y-9886970D01*
X10041389Y-9772684D02*
X10003294Y-9772684D01*
X10003294Y-9772684D02*
X9984246Y-9782208D01*
X9984246Y-9782208D02*
X9974723Y-9791732D01*
X9974723Y-9791732D02*
X9955675Y-9820303D01*
X9955675Y-9820303D02*
X9946151Y-9858398D01*
X9946151Y-9858398D02*
X9946151Y-9934589D01*
X9946151Y-9934589D02*
X9955675Y-9953636D01*
X9955675Y-9953636D02*
X9965199Y-9963160D01*
X9965199Y-9963160D02*
X9984246Y-9972684D01*
X9984246Y-9972684D02*
X10022342Y-9972684D01*
X10022342Y-9972684D02*
X10041389Y-9963160D01*
X10041389Y-9963160D02*
X10050913Y-9953636D01*
X10050913Y-9953636D02*
X10060437Y-9934589D01*
X10060437Y-9934589D02*
X10060437Y-9886970D01*
X10060437Y-9886970D02*
X10050913Y-9867922D01*
X10050913Y-9867922D02*
X10041389Y-9858398D01*
X10041389Y-9858398D02*
X10022342Y-9848874D01*
X10022342Y-9848874D02*
X9984246Y-9848874D01*
X9984246Y-9848874D02*
X9965199Y-9858398D01*
X9965199Y-9858398D02*
X9955675Y-9867922D01*
X9955675Y-9867922D02*
X9946151Y-9886970D01*
X10184246Y-9772684D02*
X10203294Y-9772684D01*
X10203294Y-9772684D02*
X10222342Y-9782208D01*
X10222342Y-9782208D02*
X10231866Y-9791732D01*
X10231866Y-9791732D02*
X10241389Y-9810779D01*
X10241389Y-9810779D02*
X10250913Y-9848874D01*
X10250913Y-9848874D02*
X10250913Y-9896493D01*
X10250913Y-9896493D02*
X10241389Y-9934589D01*
X10241389Y-9934589D02*
X10231866Y-9953636D01*
X10231866Y-9953636D02*
X10222342Y-9963160D01*
X10222342Y-9963160D02*
X10203294Y-9972684D01*
X10203294Y-9972684D02*
X10184246Y-9972684D01*
X10184246Y-9972684D02*
X10165199Y-9963160D01*
X10165199Y-9963160D02*
X10155675Y-9953636D01*
X10155675Y-9953636D02*
X10146151Y-9934589D01*
X10146151Y-9934589D02*
X10136627Y-9896493D01*
X10136627Y-9896493D02*
X10136627Y-9848874D01*
X10136627Y-9848874D02*
X10146151Y-9810779D01*
X10146151Y-9810779D02*
X10155675Y-9791732D01*
X10155675Y-9791732D02*
X10165199Y-9782208D01*
X10165199Y-9782208D02*
X10184246Y-9772684D01*
X10336627Y-9972684D02*
X10336627Y-9839351D01*
X10336627Y-9858398D02*
X10346151Y-9848874D01*
X10346151Y-9848874D02*
X10365199Y-9839351D01*
X10365199Y-9839351D02*
X10393770Y-9839351D01*
X10393770Y-9839351D02*
X10412818Y-9848874D01*
X10412818Y-9848874D02*
X10422342Y-9867922D01*
X10422342Y-9867922D02*
X10422342Y-9972684D01*
X10422342Y-9867922D02*
X10431866Y-9848874D01*
X10431866Y-9848874D02*
X10450913Y-9839351D01*
X10450913Y-9839351D02*
X10479485Y-9839351D01*
X10479485Y-9839351D02*
X10498532Y-9848874D01*
X10498532Y-9848874D02*
X10508056Y-9867922D01*
X10508056Y-9867922D02*
X10508056Y-9972684D01*
X10603294Y-9972684D02*
X10603294Y-9839351D01*
X10603294Y-9858398D02*
X10612818Y-9848874D01*
X10612818Y-9848874D02*
X10631866Y-9839351D01*
X10631866Y-9839351D02*
X10660437Y-9839351D01*
X10660437Y-9839351D02*
X10679485Y-9848874D01*
X10679485Y-9848874D02*
X10689008Y-9867922D01*
X10689008Y-9867922D02*
X10689008Y-9972684D01*
X10689008Y-9867922D02*
X10698532Y-9848874D01*
X10698532Y-9848874D02*
X10717580Y-9839351D01*
X10717580Y-9839351D02*
X10746151Y-9839351D01*
X10746151Y-9839351D02*
X10765199Y-9848874D01*
X10765199Y-9848874D02*
X10774723Y-9867922D01*
X10774723Y-9867922D02*
X10774723Y-9972684D01*
X11165199Y-9763160D02*
X10993770Y-10020303D01*
X11422342Y-9772684D02*
X11441389Y-9772684D01*
X11441389Y-9772684D02*
X11460437Y-9782208D01*
X11460437Y-9782208D02*
X11469961Y-9791732D01*
X11469961Y-9791732D02*
X11479485Y-9810779D01*
X11479485Y-9810779D02*
X11489008Y-9848874D01*
X11489008Y-9848874D02*
X11489008Y-9896493D01*
X11489008Y-9896493D02*
X11479485Y-9934589D01*
X11479485Y-9934589D02*
X11469961Y-9953636D01*
X11469961Y-9953636D02*
X11460437Y-9963160D01*
X11460437Y-9963160D02*
X11441389Y-9972684D01*
X11441389Y-9972684D02*
X11422342Y-9972684D01*
X11422342Y-9972684D02*
X11403294Y-9963160D01*
X11403294Y-9963160D02*
X11393770Y-9953636D01*
X11393770Y-9953636D02*
X11384247Y-9934589D01*
X11384247Y-9934589D02*
X11374723Y-9896493D01*
X11374723Y-9896493D02*
X11374723Y-9848874D01*
X11374723Y-9848874D02*
X11384247Y-9810779D01*
X11384247Y-9810779D02*
X11393770Y-9791732D01*
X11393770Y-9791732D02*
X11403294Y-9782208D01*
X11403294Y-9782208D02*
X11422342Y-9772684D01*
X11574723Y-9953636D02*
X11584247Y-9963160D01*
X11584247Y-9963160D02*
X11574723Y-9972684D01*
X11574723Y-9972684D02*
X11565199Y-9963160D01*
X11565199Y-9963160D02*
X11574723Y-9953636D01*
X11574723Y-9953636D02*
X11574723Y-9972684D01*
X11708056Y-9772684D02*
X11727104Y-9772684D01*
X11727104Y-9772684D02*
X11746151Y-9782208D01*
X11746151Y-9782208D02*
X11755675Y-9791732D01*
X11755675Y-9791732D02*
X11765199Y-9810779D01*
X11765199Y-9810779D02*
X11774723Y-9848874D01*
X11774723Y-9848874D02*
X11774723Y-9896493D01*
X11774723Y-9896493D02*
X11765199Y-9934589D01*
X11765199Y-9934589D02*
X11755675Y-9953636D01*
X11755675Y-9953636D02*
X11746151Y-9963160D01*
X11746151Y-9963160D02*
X11727104Y-9972684D01*
X11727104Y-9972684D02*
X11708056Y-9972684D01*
X11708056Y-9972684D02*
X11689008Y-9963160D01*
X11689008Y-9963160D02*
X11679485Y-9953636D01*
X11679485Y-9953636D02*
X11669961Y-9934589D01*
X11669961Y-9934589D02*
X11660437Y-9896493D01*
X11660437Y-9896493D02*
X11660437Y-9848874D01*
X11660437Y-9848874D02*
X11669961Y-9810779D01*
X11669961Y-9810779D02*
X11679485Y-9791732D01*
X11679485Y-9791732D02*
X11689008Y-9782208D01*
X11689008Y-9782208D02*
X11708056Y-9772684D01*
X11850913Y-9791732D02*
X11860437Y-9782208D01*
X11860437Y-9782208D02*
X11879485Y-9772684D01*
X11879485Y-9772684D02*
X11927104Y-9772684D01*
X11927104Y-9772684D02*
X11946151Y-9782208D01*
X11946151Y-9782208D02*
X11955675Y-9791732D01*
X11955675Y-9791732D02*
X11965199Y-9810779D01*
X11965199Y-9810779D02*
X11965199Y-9829827D01*
X11965199Y-9829827D02*
X11955675Y-9858398D01*
X11955675Y-9858398D02*
X11841389Y-9972684D01*
X11841389Y-9972684D02*
X11965199Y-9972684D01*
X12136628Y-9772684D02*
X12098532Y-9772684D01*
X12098532Y-9772684D02*
X12079485Y-9782208D01*
X12079485Y-9782208D02*
X12069961Y-9791732D01*
X12069961Y-9791732D02*
X12050913Y-9820303D01*
X12050913Y-9820303D02*
X12041389Y-9858398D01*
X12041389Y-9858398D02*
X12041389Y-9934589D01*
X12041389Y-9934589D02*
X12050913Y-9953636D01*
X12050913Y-9953636D02*
X12060437Y-9963160D01*
X12060437Y-9963160D02*
X12079485Y-9972684D01*
X12079485Y-9972684D02*
X12117580Y-9972684D01*
X12117580Y-9972684D02*
X12136628Y-9963160D01*
X12136628Y-9963160D02*
X12146151Y-9953636D01*
X12146151Y-9953636D02*
X12155675Y-9934589D01*
X12155675Y-9934589D02*
X12155675Y-9886970D01*
X12155675Y-9886970D02*
X12146151Y-9867922D01*
X12146151Y-9867922D02*
X12136628Y-9858398D01*
X12136628Y-9858398D02*
X12117580Y-9848874D01*
X12117580Y-9848874D02*
X12079485Y-9848874D01*
X12079485Y-9848874D02*
X12060437Y-9858398D01*
X12060437Y-9858398D02*
X12050913Y-9867922D01*
X12050913Y-9867922D02*
X12041389Y-9886970D01*
X12279485Y-9772684D02*
X12298532Y-9772684D01*
X12298532Y-9772684D02*
X12317580Y-9782208D01*
X12317580Y-9782208D02*
X12327104Y-9791732D01*
X12327104Y-9791732D02*
X12336628Y-9810779D01*
X12336628Y-9810779D02*
X12346151Y-9848874D01*
X12346151Y-9848874D02*
X12346151Y-9896493D01*
X12346151Y-9896493D02*
X12336628Y-9934589D01*
X12336628Y-9934589D02*
X12327104Y-9953636D01*
X12327104Y-9953636D02*
X12317580Y-9963160D01*
X12317580Y-9963160D02*
X12298532Y-9972684D01*
X12298532Y-9972684D02*
X12279485Y-9972684D01*
X12279485Y-9972684D02*
X12260437Y-9963160D01*
X12260437Y-9963160D02*
X12250913Y-9953636D01*
X12250913Y-9953636D02*
X12241389Y-9934589D01*
X12241389Y-9934589D02*
X12231866Y-9896493D01*
X12231866Y-9896493D02*
X12231866Y-9848874D01*
X12231866Y-9848874D02*
X12241389Y-9810779D01*
X12241389Y-9810779D02*
X12250913Y-9791732D01*
X12250913Y-9791732D02*
X12260437Y-9782208D01*
X12260437Y-9782208D02*
X12279485Y-9772684D01*
X12422342Y-9772684D02*
X12422342Y-9810779D01*
X12498532Y-9772684D02*
X12498532Y-9810779D01*
X12793771Y-10048874D02*
X12784247Y-10039351D01*
X12784247Y-10039351D02*
X12765199Y-10010779D01*
X12765199Y-10010779D02*
X12755675Y-9991732D01*
X12755675Y-9991732D02*
X12746151Y-9963160D01*
X12746151Y-9963160D02*
X12736628Y-9915541D01*
X12736628Y-9915541D02*
X12736628Y-9877446D01*
X12736628Y-9877446D02*
X12746151Y-9829827D01*
X12746151Y-9829827D02*
X12755675Y-9801255D01*
X12755675Y-9801255D02*
X12765199Y-9782208D01*
X12765199Y-9782208D02*
X12784247Y-9753636D01*
X12784247Y-9753636D02*
X12793771Y-9744112D01*
X12860437Y-9791732D02*
X12869961Y-9782208D01*
X12869961Y-9782208D02*
X12889009Y-9772684D01*
X12889009Y-9772684D02*
X12936628Y-9772684D01*
X12936628Y-9772684D02*
X12955675Y-9782208D01*
X12955675Y-9782208D02*
X12965199Y-9791732D01*
X12965199Y-9791732D02*
X12974723Y-9810779D01*
X12974723Y-9810779D02*
X12974723Y-9829827D01*
X12974723Y-9829827D02*
X12965199Y-9858398D01*
X12965199Y-9858398D02*
X12850913Y-9972684D01*
X12850913Y-9972684D02*
X12974723Y-9972684D01*
X13212818Y-9972684D02*
X13212818Y-9772684D01*
X13298532Y-9972684D02*
X13298532Y-9867922D01*
X13298532Y-9867922D02*
X13289009Y-9848874D01*
X13289009Y-9848874D02*
X13269961Y-9839351D01*
X13269961Y-9839351D02*
X13241390Y-9839351D01*
X13241390Y-9839351D02*
X13222342Y-9848874D01*
X13222342Y-9848874D02*
X13212818Y-9858398D01*
X13422342Y-9972684D02*
X13403294Y-9963160D01*
X13403294Y-9963160D02*
X13393771Y-9953636D01*
X13393771Y-9953636D02*
X13384247Y-9934589D01*
X13384247Y-9934589D02*
X13384247Y-9877446D01*
X13384247Y-9877446D02*
X13393771Y-9858398D01*
X13393771Y-9858398D02*
X13403294Y-9848874D01*
X13403294Y-9848874D02*
X13422342Y-9839351D01*
X13422342Y-9839351D02*
X13450913Y-9839351D01*
X13450913Y-9839351D02*
X13469961Y-9848874D01*
X13469961Y-9848874D02*
X13479485Y-9858398D01*
X13479485Y-9858398D02*
X13489009Y-9877446D01*
X13489009Y-9877446D02*
X13489009Y-9934589D01*
X13489009Y-9934589D02*
X13479485Y-9953636D01*
X13479485Y-9953636D02*
X13469961Y-9963160D01*
X13469961Y-9963160D02*
X13450913Y-9972684D01*
X13450913Y-9972684D02*
X13422342Y-9972684D01*
X13603294Y-9972684D02*
X13584247Y-9963160D01*
X13584247Y-9963160D02*
X13574723Y-9944112D01*
X13574723Y-9944112D02*
X13574723Y-9772684D01*
X13755675Y-9963160D02*
X13736628Y-9972684D01*
X13736628Y-9972684D02*
X13698532Y-9972684D01*
X13698532Y-9972684D02*
X13679485Y-9963160D01*
X13679485Y-9963160D02*
X13669961Y-9944112D01*
X13669961Y-9944112D02*
X13669961Y-9867922D01*
X13669961Y-9867922D02*
X13679485Y-9848874D01*
X13679485Y-9848874D02*
X13698532Y-9839351D01*
X13698532Y-9839351D02*
X13736628Y-9839351D01*
X13736628Y-9839351D02*
X13755675Y-9848874D01*
X13755675Y-9848874D02*
X13765199Y-9867922D01*
X13765199Y-9867922D02*
X13765199Y-9886970D01*
X13765199Y-9886970D02*
X13669961Y-9906017D01*
X13841390Y-9963160D02*
X13860437Y-9972684D01*
X13860437Y-9972684D02*
X13898532Y-9972684D01*
X13898532Y-9972684D02*
X13917580Y-9963160D01*
X13917580Y-9963160D02*
X13927104Y-9944112D01*
X13927104Y-9944112D02*
X13927104Y-9934589D01*
X13927104Y-9934589D02*
X13917580Y-9915541D01*
X13917580Y-9915541D02*
X13898532Y-9906017D01*
X13898532Y-9906017D02*
X13869961Y-9906017D01*
X13869961Y-9906017D02*
X13850913Y-9896493D01*
X13850913Y-9896493D02*
X13841390Y-9877446D01*
X13841390Y-9877446D02*
X13841390Y-9867922D01*
X13841390Y-9867922D02*
X13850913Y-9848874D01*
X13850913Y-9848874D02*
X13869961Y-9839351D01*
X13869961Y-9839351D02*
X13898532Y-9839351D01*
X13898532Y-9839351D02*
X13917580Y-9848874D01*
X13993771Y-10048874D02*
X14003294Y-10039351D01*
X14003294Y-10039351D02*
X14022342Y-10010779D01*
X14022342Y-10010779D02*
X14031866Y-9991732D01*
X14031866Y-9991732D02*
X14041390Y-9963160D01*
X14041390Y-9963160D02*
X14050913Y-9915541D01*
X14050913Y-9915541D02*
X14050913Y-9877446D01*
X14050913Y-9877446D02*
X14041390Y-9829827D01*
X14041390Y-9829827D02*
X14031866Y-9801255D01*
X14031866Y-9801255D02*
X14022342Y-9782208D01*
X14022342Y-9782208D02*
X14003294Y-9753636D01*
X14003294Y-9753636D02*
X13993771Y-9744112D01*
X14355675Y-10048874D02*
X14346152Y-10039351D01*
X14346152Y-10039351D02*
X14327104Y-10010779D01*
X14327104Y-10010779D02*
X14317580Y-9991732D01*
X14317580Y-9991732D02*
X14308056Y-9963160D01*
X14308056Y-9963160D02*
X14298533Y-9915541D01*
X14298533Y-9915541D02*
X14298533Y-9877446D01*
X14298533Y-9877446D02*
X14308056Y-9829827D01*
X14308056Y-9829827D02*
X14317580Y-9801255D01*
X14317580Y-9801255D02*
X14327104Y-9782208D01*
X14327104Y-9782208D02*
X14346152Y-9753636D01*
X14346152Y-9753636D02*
X14355675Y-9744112D01*
X14431866Y-9839351D02*
X14431866Y-9972684D01*
X14431866Y-9858398D02*
X14441390Y-9848874D01*
X14441390Y-9848874D02*
X14460437Y-9839351D01*
X14460437Y-9839351D02*
X14489009Y-9839351D01*
X14489009Y-9839351D02*
X14508056Y-9848874D01*
X14508056Y-9848874D02*
X14517580Y-9867922D01*
X14517580Y-9867922D02*
X14517580Y-9972684D01*
X14641390Y-9972684D02*
X14622342Y-9963160D01*
X14622342Y-9963160D02*
X14612818Y-9953636D01*
X14612818Y-9953636D02*
X14603294Y-9934589D01*
X14603294Y-9934589D02*
X14603294Y-9877446D01*
X14603294Y-9877446D02*
X14612818Y-9858398D01*
X14612818Y-9858398D02*
X14622342Y-9848874D01*
X14622342Y-9848874D02*
X14641390Y-9839351D01*
X14641390Y-9839351D02*
X14669961Y-9839351D01*
X14669961Y-9839351D02*
X14689009Y-9848874D01*
X14689009Y-9848874D02*
X14698533Y-9858398D01*
X14698533Y-9858398D02*
X14708056Y-9877446D01*
X14708056Y-9877446D02*
X14708056Y-9934589D01*
X14708056Y-9934589D02*
X14698533Y-9953636D01*
X14698533Y-9953636D02*
X14689009Y-9963160D01*
X14689009Y-9963160D02*
X14669961Y-9972684D01*
X14669961Y-9972684D02*
X14641390Y-9972684D01*
X14765199Y-9839351D02*
X14841390Y-9839351D01*
X14793771Y-9772684D02*
X14793771Y-9944112D01*
X14793771Y-9944112D02*
X14803294Y-9963160D01*
X14803294Y-9963160D02*
X14822342Y-9972684D01*
X14822342Y-9972684D02*
X14841390Y-9972684D01*
X15060437Y-9839351D02*
X15060437Y-10039351D01*
X15060437Y-9848874D02*
X15079485Y-9839351D01*
X15079485Y-9839351D02*
X15117580Y-9839351D01*
X15117580Y-9839351D02*
X15136628Y-9848874D01*
X15136628Y-9848874D02*
X15146152Y-9858398D01*
X15146152Y-9858398D02*
X15155675Y-9877446D01*
X15155675Y-9877446D02*
X15155675Y-9934589D01*
X15155675Y-9934589D02*
X15146152Y-9953636D01*
X15146152Y-9953636D02*
X15136628Y-9963160D01*
X15136628Y-9963160D02*
X15117580Y-9972684D01*
X15117580Y-9972684D02*
X15079485Y-9972684D01*
X15079485Y-9972684D02*
X15060437Y-9963160D01*
X15269961Y-9972684D02*
X15250914Y-9963160D01*
X15250914Y-9963160D02*
X15241390Y-9944112D01*
X15241390Y-9944112D02*
X15241390Y-9772684D01*
X15431866Y-9972684D02*
X15431866Y-9867922D01*
X15431866Y-9867922D02*
X15422342Y-9848874D01*
X15422342Y-9848874D02*
X15403295Y-9839351D01*
X15403295Y-9839351D02*
X15365199Y-9839351D01*
X15365199Y-9839351D02*
X15346152Y-9848874D01*
X15431866Y-9963160D02*
X15412818Y-9972684D01*
X15412818Y-9972684D02*
X15365199Y-9972684D01*
X15365199Y-9972684D02*
X15346152Y-9963160D01*
X15346152Y-9963160D02*
X15336628Y-9944112D01*
X15336628Y-9944112D02*
X15336628Y-9925065D01*
X15336628Y-9925065D02*
X15346152Y-9906017D01*
X15346152Y-9906017D02*
X15365199Y-9896493D01*
X15365199Y-9896493D02*
X15412818Y-9896493D01*
X15412818Y-9896493D02*
X15431866Y-9886970D01*
X15498533Y-9839351D02*
X15574723Y-9839351D01*
X15527104Y-9772684D02*
X15527104Y-9944112D01*
X15527104Y-9944112D02*
X15536628Y-9963160D01*
X15536628Y-9963160D02*
X15555675Y-9972684D01*
X15555675Y-9972684D02*
X15574723Y-9972684D01*
X15717580Y-9963160D02*
X15698533Y-9972684D01*
X15698533Y-9972684D02*
X15660437Y-9972684D01*
X15660437Y-9972684D02*
X15641390Y-9963160D01*
X15641390Y-9963160D02*
X15631866Y-9944112D01*
X15631866Y-9944112D02*
X15631866Y-9867922D01*
X15631866Y-9867922D02*
X15641390Y-9848874D01*
X15641390Y-9848874D02*
X15660437Y-9839351D01*
X15660437Y-9839351D02*
X15698533Y-9839351D01*
X15698533Y-9839351D02*
X15717580Y-9848874D01*
X15717580Y-9848874D02*
X15727104Y-9867922D01*
X15727104Y-9867922D02*
X15727104Y-9886970D01*
X15727104Y-9886970D02*
X15631866Y-9906017D01*
X15898533Y-9972684D02*
X15898533Y-9772684D01*
X15898533Y-9963160D02*
X15879485Y-9972684D01*
X15879485Y-9972684D02*
X15841390Y-9972684D01*
X15841390Y-9972684D02*
X15822342Y-9963160D01*
X15822342Y-9963160D02*
X15812818Y-9953636D01*
X15812818Y-9953636D02*
X15803295Y-9934589D01*
X15803295Y-9934589D02*
X15803295Y-9877446D01*
X15803295Y-9877446D02*
X15812818Y-9858398D01*
X15812818Y-9858398D02*
X15822342Y-9848874D01*
X15822342Y-9848874D02*
X15841390Y-9839351D01*
X15841390Y-9839351D02*
X15879485Y-9839351D01*
X15879485Y-9839351D02*
X15898533Y-9848874D01*
X15974723Y-10048874D02*
X15984247Y-10039351D01*
X15984247Y-10039351D02*
X16003295Y-10010779D01*
X16003295Y-10010779D02*
X16012818Y-9991732D01*
X16012818Y-9991732D02*
X16022342Y-9963160D01*
X16022342Y-9963160D02*
X16031866Y-9915541D01*
X16031866Y-9915541D02*
X16031866Y-9877446D01*
X16031866Y-9877446D02*
X16022342Y-9829827D01*
X16022342Y-9829827D02*
X16012818Y-9801255D01*
X16012818Y-9801255D02*
X16003295Y-9782208D01*
X16003295Y-9782208D02*
X15984247Y-9753636D01*
X15984247Y-9753636D02*
X15974723Y-9744112D01*
D12*
X9173708Y-10100200D02*
X9173708Y-10190200D01*
X9128708Y-10145200D02*
X9218708Y-10145200D01*
D11*
X9517580Y-10036684D02*
X9536627Y-10036684D01*
X9536627Y-10036684D02*
X9555675Y-10046208D01*
X9555675Y-10046208D02*
X9565199Y-10055732D01*
X9565199Y-10055732D02*
X9574723Y-10074779D01*
X9574723Y-10074779D02*
X9584246Y-10112874D01*
X9584246Y-10112874D02*
X9584246Y-10160493D01*
X9584246Y-10160493D02*
X9574723Y-10198589D01*
X9574723Y-10198589D02*
X9565199Y-10217636D01*
X9565199Y-10217636D02*
X9555675Y-10227160D01*
X9555675Y-10227160D02*
X9536627Y-10236684D01*
X9536627Y-10236684D02*
X9517580Y-10236684D01*
X9517580Y-10236684D02*
X9498532Y-10227160D01*
X9498532Y-10227160D02*
X9489008Y-10217636D01*
X9489008Y-10217636D02*
X9479485Y-10198589D01*
X9479485Y-10198589D02*
X9469961Y-10160493D01*
X9469961Y-10160493D02*
X9469961Y-10112874D01*
X9469961Y-10112874D02*
X9479485Y-10074779D01*
X9479485Y-10074779D02*
X9489008Y-10055732D01*
X9489008Y-10055732D02*
X9498532Y-10046208D01*
X9498532Y-10046208D02*
X9517580Y-10036684D01*
X9669961Y-10217636D02*
X9679485Y-10227160D01*
X9679485Y-10227160D02*
X9669961Y-10236684D01*
X9669961Y-10236684D02*
X9660437Y-10227160D01*
X9660437Y-10227160D02*
X9669961Y-10217636D01*
X9669961Y-10217636D02*
X9669961Y-10236684D01*
X9774723Y-10236684D02*
X9812818Y-10236684D01*
X9812818Y-10236684D02*
X9831866Y-10227160D01*
X9831866Y-10227160D02*
X9841389Y-10217636D01*
X9841389Y-10217636D02*
X9860437Y-10189065D01*
X9860437Y-10189065D02*
X9869961Y-10150970D01*
X9869961Y-10150970D02*
X9869961Y-10074779D01*
X9869961Y-10074779D02*
X9860437Y-10055732D01*
X9860437Y-10055732D02*
X9850913Y-10046208D01*
X9850913Y-10046208D02*
X9831866Y-10036684D01*
X9831866Y-10036684D02*
X9793770Y-10036684D01*
X9793770Y-10036684D02*
X9774723Y-10046208D01*
X9774723Y-10046208D02*
X9765199Y-10055732D01*
X9765199Y-10055732D02*
X9755675Y-10074779D01*
X9755675Y-10074779D02*
X9755675Y-10122398D01*
X9755675Y-10122398D02*
X9765199Y-10141446D01*
X9765199Y-10141446D02*
X9774723Y-10150970D01*
X9774723Y-10150970D02*
X9793770Y-10160493D01*
X9793770Y-10160493D02*
X9831866Y-10160493D01*
X9831866Y-10160493D02*
X9850913Y-10150970D01*
X9850913Y-10150970D02*
X9860437Y-10141446D01*
X9860437Y-10141446D02*
X9869961Y-10122398D01*
X9993770Y-10036684D02*
X10012818Y-10036684D01*
X10012818Y-10036684D02*
X10031866Y-10046208D01*
X10031866Y-10046208D02*
X10041389Y-10055732D01*
X10041389Y-10055732D02*
X10050913Y-10074779D01*
X10050913Y-10074779D02*
X10060437Y-10112874D01*
X10060437Y-10112874D02*
X10060437Y-10160493D01*
X10060437Y-10160493D02*
X10050913Y-10198589D01*
X10050913Y-10198589D02*
X10041389Y-10217636D01*
X10041389Y-10217636D02*
X10031866Y-10227160D01*
X10031866Y-10227160D02*
X10012818Y-10236684D01*
X10012818Y-10236684D02*
X9993770Y-10236684D01*
X9993770Y-10236684D02*
X9974723Y-10227160D01*
X9974723Y-10227160D02*
X9965199Y-10217636D01*
X9965199Y-10217636D02*
X9955675Y-10198589D01*
X9955675Y-10198589D02*
X9946151Y-10160493D01*
X9946151Y-10160493D02*
X9946151Y-10112874D01*
X9946151Y-10112874D02*
X9955675Y-10074779D01*
X9955675Y-10074779D02*
X9965199Y-10055732D01*
X9965199Y-10055732D02*
X9974723Y-10046208D01*
X9974723Y-10046208D02*
X9993770Y-10036684D01*
X10184246Y-10036684D02*
X10203294Y-10036684D01*
X10203294Y-10036684D02*
X10222342Y-10046208D01*
X10222342Y-10046208D02*
X10231866Y-10055732D01*
X10231866Y-10055732D02*
X10241389Y-10074779D01*
X10241389Y-10074779D02*
X10250913Y-10112874D01*
X10250913Y-10112874D02*
X10250913Y-10160493D01*
X10250913Y-10160493D02*
X10241389Y-10198589D01*
X10241389Y-10198589D02*
X10231866Y-10217636D01*
X10231866Y-10217636D02*
X10222342Y-10227160D01*
X10222342Y-10227160D02*
X10203294Y-10236684D01*
X10203294Y-10236684D02*
X10184246Y-10236684D01*
X10184246Y-10236684D02*
X10165199Y-10227160D01*
X10165199Y-10227160D02*
X10155675Y-10217636D01*
X10155675Y-10217636D02*
X10146151Y-10198589D01*
X10146151Y-10198589D02*
X10136627Y-10160493D01*
X10136627Y-10160493D02*
X10136627Y-10112874D01*
X10136627Y-10112874D02*
X10146151Y-10074779D01*
X10146151Y-10074779D02*
X10155675Y-10055732D01*
X10155675Y-10055732D02*
X10165199Y-10046208D01*
X10165199Y-10046208D02*
X10184246Y-10036684D01*
X10336627Y-10236684D02*
X10336627Y-10103351D01*
X10336627Y-10122398D02*
X10346151Y-10112874D01*
X10346151Y-10112874D02*
X10365199Y-10103351D01*
X10365199Y-10103351D02*
X10393770Y-10103351D01*
X10393770Y-10103351D02*
X10412818Y-10112874D01*
X10412818Y-10112874D02*
X10422342Y-10131922D01*
X10422342Y-10131922D02*
X10422342Y-10236684D01*
X10422342Y-10131922D02*
X10431866Y-10112874D01*
X10431866Y-10112874D02*
X10450913Y-10103351D01*
X10450913Y-10103351D02*
X10479485Y-10103351D01*
X10479485Y-10103351D02*
X10498532Y-10112874D01*
X10498532Y-10112874D02*
X10508056Y-10131922D01*
X10508056Y-10131922D02*
X10508056Y-10236684D01*
X10603294Y-10236684D02*
X10603294Y-10103351D01*
X10603294Y-10122398D02*
X10612818Y-10112874D01*
X10612818Y-10112874D02*
X10631866Y-10103351D01*
X10631866Y-10103351D02*
X10660437Y-10103351D01*
X10660437Y-10103351D02*
X10679485Y-10112874D01*
X10679485Y-10112874D02*
X10689008Y-10131922D01*
X10689008Y-10131922D02*
X10689008Y-10236684D01*
X10689008Y-10131922D02*
X10698532Y-10112874D01*
X10698532Y-10112874D02*
X10717580Y-10103351D01*
X10717580Y-10103351D02*
X10746151Y-10103351D01*
X10746151Y-10103351D02*
X10765199Y-10112874D01*
X10765199Y-10112874D02*
X10774723Y-10131922D01*
X10774723Y-10131922D02*
X10774723Y-10236684D01*
X11165199Y-10027160D02*
X10993770Y-10284303D01*
X11422342Y-10036684D02*
X11441389Y-10036684D01*
X11441389Y-10036684D02*
X11460437Y-10046208D01*
X11460437Y-10046208D02*
X11469961Y-10055732D01*
X11469961Y-10055732D02*
X11479485Y-10074779D01*
X11479485Y-10074779D02*
X11489008Y-10112874D01*
X11489008Y-10112874D02*
X11489008Y-10160493D01*
X11489008Y-10160493D02*
X11479485Y-10198589D01*
X11479485Y-10198589D02*
X11469961Y-10217636D01*
X11469961Y-10217636D02*
X11460437Y-10227160D01*
X11460437Y-10227160D02*
X11441389Y-10236684D01*
X11441389Y-10236684D02*
X11422342Y-10236684D01*
X11422342Y-10236684D02*
X11403294Y-10227160D01*
X11403294Y-10227160D02*
X11393770Y-10217636D01*
X11393770Y-10217636D02*
X11384247Y-10198589D01*
X11384247Y-10198589D02*
X11374723Y-10160493D01*
X11374723Y-10160493D02*
X11374723Y-10112874D01*
X11374723Y-10112874D02*
X11384247Y-10074779D01*
X11384247Y-10074779D02*
X11393770Y-10055732D01*
X11393770Y-10055732D02*
X11403294Y-10046208D01*
X11403294Y-10046208D02*
X11422342Y-10036684D01*
X11574723Y-10217636D02*
X11584247Y-10227160D01*
X11584247Y-10227160D02*
X11574723Y-10236684D01*
X11574723Y-10236684D02*
X11565199Y-10227160D01*
X11565199Y-10227160D02*
X11574723Y-10217636D01*
X11574723Y-10217636D02*
X11574723Y-10236684D01*
X11708056Y-10036684D02*
X11727104Y-10036684D01*
X11727104Y-10036684D02*
X11746151Y-10046208D01*
X11746151Y-10046208D02*
X11755675Y-10055732D01*
X11755675Y-10055732D02*
X11765199Y-10074779D01*
X11765199Y-10074779D02*
X11774723Y-10112874D01*
X11774723Y-10112874D02*
X11774723Y-10160493D01*
X11774723Y-10160493D02*
X11765199Y-10198589D01*
X11765199Y-10198589D02*
X11755675Y-10217636D01*
X11755675Y-10217636D02*
X11746151Y-10227160D01*
X11746151Y-10227160D02*
X11727104Y-10236684D01*
X11727104Y-10236684D02*
X11708056Y-10236684D01*
X11708056Y-10236684D02*
X11689008Y-10227160D01*
X11689008Y-10227160D02*
X11679485Y-10217636D01*
X11679485Y-10217636D02*
X11669961Y-10198589D01*
X11669961Y-10198589D02*
X11660437Y-10160493D01*
X11660437Y-10160493D02*
X11660437Y-10112874D01*
X11660437Y-10112874D02*
X11669961Y-10074779D01*
X11669961Y-10074779D02*
X11679485Y-10055732D01*
X11679485Y-10055732D02*
X11689008Y-10046208D01*
X11689008Y-10046208D02*
X11708056Y-10036684D01*
X11841389Y-10036684D02*
X11965199Y-10036684D01*
X11965199Y-10036684D02*
X11898532Y-10112874D01*
X11898532Y-10112874D02*
X11927104Y-10112874D01*
X11927104Y-10112874D02*
X11946151Y-10122398D01*
X11946151Y-10122398D02*
X11955675Y-10131922D01*
X11955675Y-10131922D02*
X11965199Y-10150970D01*
X11965199Y-10150970D02*
X11965199Y-10198589D01*
X11965199Y-10198589D02*
X11955675Y-10217636D01*
X11955675Y-10217636D02*
X11946151Y-10227160D01*
X11946151Y-10227160D02*
X11927104Y-10236684D01*
X11927104Y-10236684D02*
X11869961Y-10236684D01*
X11869961Y-10236684D02*
X11850913Y-10227160D01*
X11850913Y-10227160D02*
X11841389Y-10217636D01*
X12146151Y-10036684D02*
X12050913Y-10036684D01*
X12050913Y-10036684D02*
X12041389Y-10131922D01*
X12041389Y-10131922D02*
X12050913Y-10122398D01*
X12050913Y-10122398D02*
X12069961Y-10112874D01*
X12069961Y-10112874D02*
X12117580Y-10112874D01*
X12117580Y-10112874D02*
X12136628Y-10122398D01*
X12136628Y-10122398D02*
X12146151Y-10131922D01*
X12146151Y-10131922D02*
X12155675Y-10150970D01*
X12155675Y-10150970D02*
X12155675Y-10198589D01*
X12155675Y-10198589D02*
X12146151Y-10217636D01*
X12146151Y-10217636D02*
X12136628Y-10227160D01*
X12136628Y-10227160D02*
X12117580Y-10236684D01*
X12117580Y-10236684D02*
X12069961Y-10236684D01*
X12069961Y-10236684D02*
X12050913Y-10227160D01*
X12050913Y-10227160D02*
X12041389Y-10217636D01*
X12327104Y-10103351D02*
X12327104Y-10236684D01*
X12279485Y-10027160D02*
X12231866Y-10170017D01*
X12231866Y-10170017D02*
X12355675Y-10170017D01*
X12422342Y-10036684D02*
X12422342Y-10074779D01*
X12498532Y-10036684D02*
X12498532Y-10074779D01*
X12793771Y-10312874D02*
X12784247Y-10303351D01*
X12784247Y-10303351D02*
X12765199Y-10274779D01*
X12765199Y-10274779D02*
X12755675Y-10255732D01*
X12755675Y-10255732D02*
X12746151Y-10227160D01*
X12746151Y-10227160D02*
X12736628Y-10179541D01*
X12736628Y-10179541D02*
X12736628Y-10141446D01*
X12736628Y-10141446D02*
X12746151Y-10093827D01*
X12746151Y-10093827D02*
X12755675Y-10065255D01*
X12755675Y-10065255D02*
X12765199Y-10046208D01*
X12765199Y-10046208D02*
X12784247Y-10017636D01*
X12784247Y-10017636D02*
X12793771Y-10008112D01*
X12860437Y-10055732D02*
X12869961Y-10046208D01*
X12869961Y-10046208D02*
X12889009Y-10036684D01*
X12889009Y-10036684D02*
X12936628Y-10036684D01*
X12936628Y-10036684D02*
X12955675Y-10046208D01*
X12955675Y-10046208D02*
X12965199Y-10055732D01*
X12965199Y-10055732D02*
X12974723Y-10074779D01*
X12974723Y-10074779D02*
X12974723Y-10093827D01*
X12974723Y-10093827D02*
X12965199Y-10122398D01*
X12965199Y-10122398D02*
X12850913Y-10236684D01*
X12850913Y-10236684D02*
X12974723Y-10236684D01*
X13212818Y-10236684D02*
X13212818Y-10036684D01*
X13298532Y-10236684D02*
X13298532Y-10131922D01*
X13298532Y-10131922D02*
X13289009Y-10112874D01*
X13289009Y-10112874D02*
X13269961Y-10103351D01*
X13269961Y-10103351D02*
X13241390Y-10103351D01*
X13241390Y-10103351D02*
X13222342Y-10112874D01*
X13222342Y-10112874D02*
X13212818Y-10122398D01*
X13422342Y-10236684D02*
X13403294Y-10227160D01*
X13403294Y-10227160D02*
X13393771Y-10217636D01*
X13393771Y-10217636D02*
X13384247Y-10198589D01*
X13384247Y-10198589D02*
X13384247Y-10141446D01*
X13384247Y-10141446D02*
X13393771Y-10122398D01*
X13393771Y-10122398D02*
X13403294Y-10112874D01*
X13403294Y-10112874D02*
X13422342Y-10103351D01*
X13422342Y-10103351D02*
X13450913Y-10103351D01*
X13450913Y-10103351D02*
X13469961Y-10112874D01*
X13469961Y-10112874D02*
X13479485Y-10122398D01*
X13479485Y-10122398D02*
X13489009Y-10141446D01*
X13489009Y-10141446D02*
X13489009Y-10198589D01*
X13489009Y-10198589D02*
X13479485Y-10217636D01*
X13479485Y-10217636D02*
X13469961Y-10227160D01*
X13469961Y-10227160D02*
X13450913Y-10236684D01*
X13450913Y-10236684D02*
X13422342Y-10236684D01*
X13603294Y-10236684D02*
X13584247Y-10227160D01*
X13584247Y-10227160D02*
X13574723Y-10208112D01*
X13574723Y-10208112D02*
X13574723Y-10036684D01*
X13755675Y-10227160D02*
X13736628Y-10236684D01*
X13736628Y-10236684D02*
X13698532Y-10236684D01*
X13698532Y-10236684D02*
X13679485Y-10227160D01*
X13679485Y-10227160D02*
X13669961Y-10208112D01*
X13669961Y-10208112D02*
X13669961Y-10131922D01*
X13669961Y-10131922D02*
X13679485Y-10112874D01*
X13679485Y-10112874D02*
X13698532Y-10103351D01*
X13698532Y-10103351D02*
X13736628Y-10103351D01*
X13736628Y-10103351D02*
X13755675Y-10112874D01*
X13755675Y-10112874D02*
X13765199Y-10131922D01*
X13765199Y-10131922D02*
X13765199Y-10150970D01*
X13765199Y-10150970D02*
X13669961Y-10170017D01*
X13841390Y-10227160D02*
X13860437Y-10236684D01*
X13860437Y-10236684D02*
X13898532Y-10236684D01*
X13898532Y-10236684D02*
X13917580Y-10227160D01*
X13917580Y-10227160D02*
X13927104Y-10208112D01*
X13927104Y-10208112D02*
X13927104Y-10198589D01*
X13927104Y-10198589D02*
X13917580Y-10179541D01*
X13917580Y-10179541D02*
X13898532Y-10170017D01*
X13898532Y-10170017D02*
X13869961Y-10170017D01*
X13869961Y-10170017D02*
X13850913Y-10160493D01*
X13850913Y-10160493D02*
X13841390Y-10141446D01*
X13841390Y-10141446D02*
X13841390Y-10131922D01*
X13841390Y-10131922D02*
X13850913Y-10112874D01*
X13850913Y-10112874D02*
X13869961Y-10103351D01*
X13869961Y-10103351D02*
X13898532Y-10103351D01*
X13898532Y-10103351D02*
X13917580Y-10112874D01*
X13993771Y-10312874D02*
X14003294Y-10303351D01*
X14003294Y-10303351D02*
X14022342Y-10274779D01*
X14022342Y-10274779D02*
X14031866Y-10255732D01*
X14031866Y-10255732D02*
X14041390Y-10227160D01*
X14041390Y-10227160D02*
X14050913Y-10179541D01*
X14050913Y-10179541D02*
X14050913Y-10141446D01*
X14050913Y-10141446D02*
X14041390Y-10093827D01*
X14041390Y-10093827D02*
X14031866Y-10065255D01*
X14031866Y-10065255D02*
X14022342Y-10046208D01*
X14022342Y-10046208D02*
X14003294Y-10017636D01*
X14003294Y-10017636D02*
X13993771Y-10008112D01*
X14355675Y-10312874D02*
X14346152Y-10303351D01*
X14346152Y-10303351D02*
X14327104Y-10274779D01*
X14327104Y-10274779D02*
X14317580Y-10255732D01*
X14317580Y-10255732D02*
X14308056Y-10227160D01*
X14308056Y-10227160D02*
X14298533Y-10179541D01*
X14298533Y-10179541D02*
X14298533Y-10141446D01*
X14298533Y-10141446D02*
X14308056Y-10093827D01*
X14308056Y-10093827D02*
X14317580Y-10065255D01*
X14317580Y-10065255D02*
X14327104Y-10046208D01*
X14327104Y-10046208D02*
X14346152Y-10017636D01*
X14346152Y-10017636D02*
X14355675Y-10008112D01*
X14431866Y-10103351D02*
X14431866Y-10236684D01*
X14431866Y-10122398D02*
X14441390Y-10112874D01*
X14441390Y-10112874D02*
X14460437Y-10103351D01*
X14460437Y-10103351D02*
X14489009Y-10103351D01*
X14489009Y-10103351D02*
X14508056Y-10112874D01*
X14508056Y-10112874D02*
X14517580Y-10131922D01*
X14517580Y-10131922D02*
X14517580Y-10236684D01*
X14641390Y-10236684D02*
X14622342Y-10227160D01*
X14622342Y-10227160D02*
X14612818Y-10217636D01*
X14612818Y-10217636D02*
X14603294Y-10198589D01*
X14603294Y-10198589D02*
X14603294Y-10141446D01*
X14603294Y-10141446D02*
X14612818Y-10122398D01*
X14612818Y-10122398D02*
X14622342Y-10112874D01*
X14622342Y-10112874D02*
X14641390Y-10103351D01*
X14641390Y-10103351D02*
X14669961Y-10103351D01*
X14669961Y-10103351D02*
X14689009Y-10112874D01*
X14689009Y-10112874D02*
X14698533Y-10122398D01*
X14698533Y-10122398D02*
X14708056Y-10141446D01*
X14708056Y-10141446D02*
X14708056Y-10198589D01*
X14708056Y-10198589D02*
X14698533Y-10217636D01*
X14698533Y-10217636D02*
X14689009Y-10227160D01*
X14689009Y-10227160D02*
X14669961Y-10236684D01*
X14669961Y-10236684D02*
X14641390Y-10236684D01*
X14765199Y-10103351D02*
X14841390Y-10103351D01*
X14793771Y-10036684D02*
X14793771Y-10208112D01*
X14793771Y-10208112D02*
X14803294Y-10227160D01*
X14803294Y-10227160D02*
X14822342Y-10236684D01*
X14822342Y-10236684D02*
X14841390Y-10236684D01*
X15060437Y-10103351D02*
X15060437Y-10303351D01*
X15060437Y-10112874D02*
X15079485Y-10103351D01*
X15079485Y-10103351D02*
X15117580Y-10103351D01*
X15117580Y-10103351D02*
X15136628Y-10112874D01*
X15136628Y-10112874D02*
X15146152Y-10122398D01*
X15146152Y-10122398D02*
X15155675Y-10141446D01*
X15155675Y-10141446D02*
X15155675Y-10198589D01*
X15155675Y-10198589D02*
X15146152Y-10217636D01*
X15146152Y-10217636D02*
X15136628Y-10227160D01*
X15136628Y-10227160D02*
X15117580Y-10236684D01*
X15117580Y-10236684D02*
X15079485Y-10236684D01*
X15079485Y-10236684D02*
X15060437Y-10227160D01*
X15269961Y-10236684D02*
X15250914Y-10227160D01*
X15250914Y-10227160D02*
X15241390Y-10208112D01*
X15241390Y-10208112D02*
X15241390Y-10036684D01*
X15431866Y-10236684D02*
X15431866Y-10131922D01*
X15431866Y-10131922D02*
X15422342Y-10112874D01*
X15422342Y-10112874D02*
X15403295Y-10103351D01*
X15403295Y-10103351D02*
X15365199Y-10103351D01*
X15365199Y-10103351D02*
X15346152Y-10112874D01*
X15431866Y-10227160D02*
X15412818Y-10236684D01*
X15412818Y-10236684D02*
X15365199Y-10236684D01*
X15365199Y-10236684D02*
X15346152Y-10227160D01*
X15346152Y-10227160D02*
X15336628Y-10208112D01*
X15336628Y-10208112D02*
X15336628Y-10189065D01*
X15336628Y-10189065D02*
X15346152Y-10170017D01*
X15346152Y-10170017D02*
X15365199Y-10160493D01*
X15365199Y-10160493D02*
X15412818Y-10160493D01*
X15412818Y-10160493D02*
X15431866Y-10150970D01*
X15498533Y-10103351D02*
X15574723Y-10103351D01*
X15527104Y-10036684D02*
X15527104Y-10208112D01*
X15527104Y-10208112D02*
X15536628Y-10227160D01*
X15536628Y-10227160D02*
X15555675Y-10236684D01*
X15555675Y-10236684D02*
X15574723Y-10236684D01*
X15717580Y-10227160D02*
X15698533Y-10236684D01*
X15698533Y-10236684D02*
X15660437Y-10236684D01*
X15660437Y-10236684D02*
X15641390Y-10227160D01*
X15641390Y-10227160D02*
X15631866Y-10208112D01*
X15631866Y-10208112D02*
X15631866Y-10131922D01*
X15631866Y-10131922D02*
X15641390Y-10112874D01*
X15641390Y-10112874D02*
X15660437Y-10103351D01*
X15660437Y-10103351D02*
X15698533Y-10103351D01*
X15698533Y-10103351D02*
X15717580Y-10112874D01*
X15717580Y-10112874D02*
X15727104Y-10131922D01*
X15727104Y-10131922D02*
X15727104Y-10150970D01*
X15727104Y-10150970D02*
X15631866Y-10170017D01*
X15898533Y-10236684D02*
X15898533Y-10036684D01*
X15898533Y-10227160D02*
X15879485Y-10236684D01*
X15879485Y-10236684D02*
X15841390Y-10236684D01*
X15841390Y-10236684D02*
X15822342Y-10227160D01*
X15822342Y-10227160D02*
X15812818Y-10217636D01*
X15812818Y-10217636D02*
X15803295Y-10198589D01*
X15803295Y-10198589D02*
X15803295Y-10141446D01*
X15803295Y-10141446D02*
X15812818Y-10122398D01*
X15812818Y-10122398D02*
X15822342Y-10112874D01*
X15822342Y-10112874D02*
X15841390Y-10103351D01*
X15841390Y-10103351D02*
X15879485Y-10103351D01*
X15879485Y-10103351D02*
X15898533Y-10112874D01*
X15974723Y-10312874D02*
X15984247Y-10303351D01*
X15984247Y-10303351D02*
X16003295Y-10274779D01*
X16003295Y-10274779D02*
X16012818Y-10255732D01*
X16012818Y-10255732D02*
X16022342Y-10227160D01*
X16022342Y-10227160D02*
X16031866Y-10179541D01*
X16031866Y-10179541D02*
X16031866Y-10141446D01*
X16031866Y-10141446D02*
X16022342Y-10093827D01*
X16022342Y-10093827D02*
X16012818Y-10065255D01*
X16012818Y-10065255D02*
X16003295Y-10046208D01*
X16003295Y-10046208D02*
X15984247Y-10017636D01*
X15984247Y-10017636D02*
X15974723Y-10008112D01*
X9189419Y-10479912D02*
X9189419Y-10338489D01*
X9047996Y-10338489D01*
X9047996Y-10479912D01*
X9189419Y-10479912D01*
X9460437Y-10300684D02*
X9584246Y-10300684D01*
X9584246Y-10300684D02*
X9517580Y-10376874D01*
X9517580Y-10376874D02*
X9546151Y-10376874D01*
X9546151Y-10376874D02*
X9565199Y-10386398D01*
X9565199Y-10386398D02*
X9574723Y-10395922D01*
X9574723Y-10395922D02*
X9584246Y-10414970D01*
X9584246Y-10414970D02*
X9584246Y-10462589D01*
X9584246Y-10462589D02*
X9574723Y-10481636D01*
X9574723Y-10481636D02*
X9565199Y-10491160D01*
X9565199Y-10491160D02*
X9546151Y-10500684D01*
X9546151Y-10500684D02*
X9489008Y-10500684D01*
X9489008Y-10500684D02*
X9469961Y-10491160D01*
X9469961Y-10491160D02*
X9460437Y-10481636D01*
X9669961Y-10481636D02*
X9679485Y-10491160D01*
X9679485Y-10491160D02*
X9669961Y-10500684D01*
X9669961Y-10500684D02*
X9660437Y-10491160D01*
X9660437Y-10491160D02*
X9669961Y-10481636D01*
X9669961Y-10481636D02*
X9669961Y-10500684D01*
X9869961Y-10500684D02*
X9755675Y-10500684D01*
X9812818Y-10500684D02*
X9812818Y-10300684D01*
X9812818Y-10300684D02*
X9793770Y-10329255D01*
X9793770Y-10329255D02*
X9774723Y-10348303D01*
X9774723Y-10348303D02*
X9755675Y-10357827D01*
X9936627Y-10300684D02*
X10069961Y-10300684D01*
X10069961Y-10300684D02*
X9984246Y-10500684D01*
X10241389Y-10300684D02*
X10146151Y-10300684D01*
X10146151Y-10300684D02*
X10136627Y-10395922D01*
X10136627Y-10395922D02*
X10146151Y-10386398D01*
X10146151Y-10386398D02*
X10165199Y-10376874D01*
X10165199Y-10376874D02*
X10212818Y-10376874D01*
X10212818Y-10376874D02*
X10231866Y-10386398D01*
X10231866Y-10386398D02*
X10241389Y-10395922D01*
X10241389Y-10395922D02*
X10250913Y-10414970D01*
X10250913Y-10414970D02*
X10250913Y-10462589D01*
X10250913Y-10462589D02*
X10241389Y-10481636D01*
X10241389Y-10481636D02*
X10231866Y-10491160D01*
X10231866Y-10491160D02*
X10212818Y-10500684D01*
X10212818Y-10500684D02*
X10165199Y-10500684D01*
X10165199Y-10500684D02*
X10146151Y-10491160D01*
X10146151Y-10491160D02*
X10136627Y-10481636D01*
X10336627Y-10500684D02*
X10336627Y-10367351D01*
X10336627Y-10386398D02*
X10346151Y-10376874D01*
X10346151Y-10376874D02*
X10365199Y-10367351D01*
X10365199Y-10367351D02*
X10393770Y-10367351D01*
X10393770Y-10367351D02*
X10412818Y-10376874D01*
X10412818Y-10376874D02*
X10422342Y-10395922D01*
X10422342Y-10395922D02*
X10422342Y-10500684D01*
X10422342Y-10395922D02*
X10431866Y-10376874D01*
X10431866Y-10376874D02*
X10450913Y-10367351D01*
X10450913Y-10367351D02*
X10479485Y-10367351D01*
X10479485Y-10367351D02*
X10498532Y-10376874D01*
X10498532Y-10376874D02*
X10508056Y-10395922D01*
X10508056Y-10395922D02*
X10508056Y-10500684D01*
X10603294Y-10500684D02*
X10603294Y-10367351D01*
X10603294Y-10386398D02*
X10612818Y-10376874D01*
X10612818Y-10376874D02*
X10631866Y-10367351D01*
X10631866Y-10367351D02*
X10660437Y-10367351D01*
X10660437Y-10367351D02*
X10679485Y-10376874D01*
X10679485Y-10376874D02*
X10689008Y-10395922D01*
X10689008Y-10395922D02*
X10689008Y-10500684D01*
X10689008Y-10395922D02*
X10698532Y-10376874D01*
X10698532Y-10376874D02*
X10717580Y-10367351D01*
X10717580Y-10367351D02*
X10746151Y-10367351D01*
X10746151Y-10367351D02*
X10765199Y-10376874D01*
X10765199Y-10376874D02*
X10774723Y-10395922D01*
X10774723Y-10395922D02*
X10774723Y-10500684D01*
X11165199Y-10291160D02*
X10993770Y-10548303D01*
X11422342Y-10300684D02*
X11441389Y-10300684D01*
X11441389Y-10300684D02*
X11460437Y-10310208D01*
X11460437Y-10310208D02*
X11469961Y-10319732D01*
X11469961Y-10319732D02*
X11479485Y-10338779D01*
X11479485Y-10338779D02*
X11489008Y-10376874D01*
X11489008Y-10376874D02*
X11489008Y-10424493D01*
X11489008Y-10424493D02*
X11479485Y-10462589D01*
X11479485Y-10462589D02*
X11469961Y-10481636D01*
X11469961Y-10481636D02*
X11460437Y-10491160D01*
X11460437Y-10491160D02*
X11441389Y-10500684D01*
X11441389Y-10500684D02*
X11422342Y-10500684D01*
X11422342Y-10500684D02*
X11403294Y-10491160D01*
X11403294Y-10491160D02*
X11393770Y-10481636D01*
X11393770Y-10481636D02*
X11384247Y-10462589D01*
X11384247Y-10462589D02*
X11374723Y-10424493D01*
X11374723Y-10424493D02*
X11374723Y-10376874D01*
X11374723Y-10376874D02*
X11384247Y-10338779D01*
X11384247Y-10338779D02*
X11393770Y-10319732D01*
X11393770Y-10319732D02*
X11403294Y-10310208D01*
X11403294Y-10310208D02*
X11422342Y-10300684D01*
X11574723Y-10481636D02*
X11584247Y-10491160D01*
X11584247Y-10491160D02*
X11574723Y-10500684D01*
X11574723Y-10500684D02*
X11565199Y-10491160D01*
X11565199Y-10491160D02*
X11574723Y-10481636D01*
X11574723Y-10481636D02*
X11574723Y-10500684D01*
X11774723Y-10500684D02*
X11660437Y-10500684D01*
X11717580Y-10500684D02*
X11717580Y-10300684D01*
X11717580Y-10300684D02*
X11698532Y-10329255D01*
X11698532Y-10329255D02*
X11679485Y-10348303D01*
X11679485Y-10348303D02*
X11660437Y-10357827D01*
X11850913Y-10319732D02*
X11860437Y-10310208D01*
X11860437Y-10310208D02*
X11879485Y-10300684D01*
X11879485Y-10300684D02*
X11927104Y-10300684D01*
X11927104Y-10300684D02*
X11946151Y-10310208D01*
X11946151Y-10310208D02*
X11955675Y-10319732D01*
X11955675Y-10319732D02*
X11965199Y-10338779D01*
X11965199Y-10338779D02*
X11965199Y-10357827D01*
X11965199Y-10357827D02*
X11955675Y-10386398D01*
X11955675Y-10386398D02*
X11841389Y-10500684D01*
X11841389Y-10500684D02*
X11965199Y-10500684D01*
X12146151Y-10300684D02*
X12050913Y-10300684D01*
X12050913Y-10300684D02*
X12041389Y-10395922D01*
X12041389Y-10395922D02*
X12050913Y-10386398D01*
X12050913Y-10386398D02*
X12069961Y-10376874D01*
X12069961Y-10376874D02*
X12117580Y-10376874D01*
X12117580Y-10376874D02*
X12136628Y-10386398D01*
X12136628Y-10386398D02*
X12146151Y-10395922D01*
X12146151Y-10395922D02*
X12155675Y-10414970D01*
X12155675Y-10414970D02*
X12155675Y-10462589D01*
X12155675Y-10462589D02*
X12146151Y-10481636D01*
X12146151Y-10481636D02*
X12136628Y-10491160D01*
X12136628Y-10491160D02*
X12117580Y-10500684D01*
X12117580Y-10500684D02*
X12069961Y-10500684D01*
X12069961Y-10500684D02*
X12050913Y-10491160D01*
X12050913Y-10491160D02*
X12041389Y-10481636D01*
X12279485Y-10300684D02*
X12298532Y-10300684D01*
X12298532Y-10300684D02*
X12317580Y-10310208D01*
X12317580Y-10310208D02*
X12327104Y-10319732D01*
X12327104Y-10319732D02*
X12336628Y-10338779D01*
X12336628Y-10338779D02*
X12346151Y-10376874D01*
X12346151Y-10376874D02*
X12346151Y-10424493D01*
X12346151Y-10424493D02*
X12336628Y-10462589D01*
X12336628Y-10462589D02*
X12327104Y-10481636D01*
X12327104Y-10481636D02*
X12317580Y-10491160D01*
X12317580Y-10491160D02*
X12298532Y-10500684D01*
X12298532Y-10500684D02*
X12279485Y-10500684D01*
X12279485Y-10500684D02*
X12260437Y-10491160D01*
X12260437Y-10491160D02*
X12250913Y-10481636D01*
X12250913Y-10481636D02*
X12241389Y-10462589D01*
X12241389Y-10462589D02*
X12231866Y-10424493D01*
X12231866Y-10424493D02*
X12231866Y-10376874D01*
X12231866Y-10376874D02*
X12241389Y-10338779D01*
X12241389Y-10338779D02*
X12250913Y-10319732D01*
X12250913Y-10319732D02*
X12260437Y-10310208D01*
X12260437Y-10310208D02*
X12279485Y-10300684D01*
X12422342Y-10300684D02*
X12422342Y-10338779D01*
X12498532Y-10300684D02*
X12498532Y-10338779D01*
X12793771Y-10576874D02*
X12784247Y-10567351D01*
X12784247Y-10567351D02*
X12765199Y-10538779D01*
X12765199Y-10538779D02*
X12755675Y-10519732D01*
X12755675Y-10519732D02*
X12746151Y-10491160D01*
X12746151Y-10491160D02*
X12736628Y-10443541D01*
X12736628Y-10443541D02*
X12736628Y-10405446D01*
X12736628Y-10405446D02*
X12746151Y-10357827D01*
X12746151Y-10357827D02*
X12755675Y-10329255D01*
X12755675Y-10329255D02*
X12765199Y-10310208D01*
X12765199Y-10310208D02*
X12784247Y-10281636D01*
X12784247Y-10281636D02*
X12793771Y-10272112D01*
X12955675Y-10367351D02*
X12955675Y-10500684D01*
X12908056Y-10291160D02*
X12860437Y-10434017D01*
X12860437Y-10434017D02*
X12984247Y-10434017D01*
X13212818Y-10500684D02*
X13212818Y-10300684D01*
X13298532Y-10500684D02*
X13298532Y-10395922D01*
X13298532Y-10395922D02*
X13289009Y-10376874D01*
X13289009Y-10376874D02*
X13269961Y-10367351D01*
X13269961Y-10367351D02*
X13241390Y-10367351D01*
X13241390Y-10367351D02*
X13222342Y-10376874D01*
X13222342Y-10376874D02*
X13212818Y-10386398D01*
X13422342Y-10500684D02*
X13403294Y-10491160D01*
X13403294Y-10491160D02*
X13393771Y-10481636D01*
X13393771Y-10481636D02*
X13384247Y-10462589D01*
X13384247Y-10462589D02*
X13384247Y-10405446D01*
X13384247Y-10405446D02*
X13393771Y-10386398D01*
X13393771Y-10386398D02*
X13403294Y-10376874D01*
X13403294Y-10376874D02*
X13422342Y-10367351D01*
X13422342Y-10367351D02*
X13450913Y-10367351D01*
X13450913Y-10367351D02*
X13469961Y-10376874D01*
X13469961Y-10376874D02*
X13479485Y-10386398D01*
X13479485Y-10386398D02*
X13489009Y-10405446D01*
X13489009Y-10405446D02*
X13489009Y-10462589D01*
X13489009Y-10462589D02*
X13479485Y-10481636D01*
X13479485Y-10481636D02*
X13469961Y-10491160D01*
X13469961Y-10491160D02*
X13450913Y-10500684D01*
X13450913Y-10500684D02*
X13422342Y-10500684D01*
X13603294Y-10500684D02*
X13584247Y-10491160D01*
X13584247Y-10491160D02*
X13574723Y-10472112D01*
X13574723Y-10472112D02*
X13574723Y-10300684D01*
X13755675Y-10491160D02*
X13736628Y-10500684D01*
X13736628Y-10500684D02*
X13698532Y-10500684D01*
X13698532Y-10500684D02*
X13679485Y-10491160D01*
X13679485Y-10491160D02*
X13669961Y-10472112D01*
X13669961Y-10472112D02*
X13669961Y-10395922D01*
X13669961Y-10395922D02*
X13679485Y-10376874D01*
X13679485Y-10376874D02*
X13698532Y-10367351D01*
X13698532Y-10367351D02*
X13736628Y-10367351D01*
X13736628Y-10367351D02*
X13755675Y-10376874D01*
X13755675Y-10376874D02*
X13765199Y-10395922D01*
X13765199Y-10395922D02*
X13765199Y-10414970D01*
X13765199Y-10414970D02*
X13669961Y-10434017D01*
X13841390Y-10491160D02*
X13860437Y-10500684D01*
X13860437Y-10500684D02*
X13898532Y-10500684D01*
X13898532Y-10500684D02*
X13917580Y-10491160D01*
X13917580Y-10491160D02*
X13927104Y-10472112D01*
X13927104Y-10472112D02*
X13927104Y-10462589D01*
X13927104Y-10462589D02*
X13917580Y-10443541D01*
X13917580Y-10443541D02*
X13898532Y-10434017D01*
X13898532Y-10434017D02*
X13869961Y-10434017D01*
X13869961Y-10434017D02*
X13850913Y-10424493D01*
X13850913Y-10424493D02*
X13841390Y-10405446D01*
X13841390Y-10405446D02*
X13841390Y-10395922D01*
X13841390Y-10395922D02*
X13850913Y-10376874D01*
X13850913Y-10376874D02*
X13869961Y-10367351D01*
X13869961Y-10367351D02*
X13898532Y-10367351D01*
X13898532Y-10367351D02*
X13917580Y-10376874D01*
X13993771Y-10576874D02*
X14003294Y-10567351D01*
X14003294Y-10567351D02*
X14022342Y-10538779D01*
X14022342Y-10538779D02*
X14031866Y-10519732D01*
X14031866Y-10519732D02*
X14041390Y-10491160D01*
X14041390Y-10491160D02*
X14050913Y-10443541D01*
X14050913Y-10443541D02*
X14050913Y-10405446D01*
X14050913Y-10405446D02*
X14041390Y-10357827D01*
X14041390Y-10357827D02*
X14031866Y-10329255D01*
X14031866Y-10329255D02*
X14022342Y-10310208D01*
X14022342Y-10310208D02*
X14003294Y-10281636D01*
X14003294Y-10281636D02*
X13993771Y-10272112D01*
X14355675Y-10576874D02*
X14346152Y-10567351D01*
X14346152Y-10567351D02*
X14327104Y-10538779D01*
X14327104Y-10538779D02*
X14317580Y-10519732D01*
X14317580Y-10519732D02*
X14308056Y-10491160D01*
X14308056Y-10491160D02*
X14298533Y-10443541D01*
X14298533Y-10443541D02*
X14298533Y-10405446D01*
X14298533Y-10405446D02*
X14308056Y-10357827D01*
X14308056Y-10357827D02*
X14317580Y-10329255D01*
X14317580Y-10329255D02*
X14327104Y-10310208D01*
X14327104Y-10310208D02*
X14346152Y-10281636D01*
X14346152Y-10281636D02*
X14355675Y-10272112D01*
X14431866Y-10367351D02*
X14431866Y-10500684D01*
X14431866Y-10386398D02*
X14441390Y-10376874D01*
X14441390Y-10376874D02*
X14460437Y-10367351D01*
X14460437Y-10367351D02*
X14489009Y-10367351D01*
X14489009Y-10367351D02*
X14508056Y-10376874D01*
X14508056Y-10376874D02*
X14517580Y-10395922D01*
X14517580Y-10395922D02*
X14517580Y-10500684D01*
X14641390Y-10500684D02*
X14622342Y-10491160D01*
X14622342Y-10491160D02*
X14612818Y-10481636D01*
X14612818Y-10481636D02*
X14603294Y-10462589D01*
X14603294Y-10462589D02*
X14603294Y-10405446D01*
X14603294Y-10405446D02*
X14612818Y-10386398D01*
X14612818Y-10386398D02*
X14622342Y-10376874D01*
X14622342Y-10376874D02*
X14641390Y-10367351D01*
X14641390Y-10367351D02*
X14669961Y-10367351D01*
X14669961Y-10367351D02*
X14689009Y-10376874D01*
X14689009Y-10376874D02*
X14698533Y-10386398D01*
X14698533Y-10386398D02*
X14708056Y-10405446D01*
X14708056Y-10405446D02*
X14708056Y-10462589D01*
X14708056Y-10462589D02*
X14698533Y-10481636D01*
X14698533Y-10481636D02*
X14689009Y-10491160D01*
X14689009Y-10491160D02*
X14669961Y-10500684D01*
X14669961Y-10500684D02*
X14641390Y-10500684D01*
X14765199Y-10367351D02*
X14841390Y-10367351D01*
X14793771Y-10300684D02*
X14793771Y-10472112D01*
X14793771Y-10472112D02*
X14803294Y-10491160D01*
X14803294Y-10491160D02*
X14822342Y-10500684D01*
X14822342Y-10500684D02*
X14841390Y-10500684D01*
X15060437Y-10367351D02*
X15060437Y-10567351D01*
X15060437Y-10376874D02*
X15079485Y-10367351D01*
X15079485Y-10367351D02*
X15117580Y-10367351D01*
X15117580Y-10367351D02*
X15136628Y-10376874D01*
X15136628Y-10376874D02*
X15146152Y-10386398D01*
X15146152Y-10386398D02*
X15155675Y-10405446D01*
X15155675Y-10405446D02*
X15155675Y-10462589D01*
X15155675Y-10462589D02*
X15146152Y-10481636D01*
X15146152Y-10481636D02*
X15136628Y-10491160D01*
X15136628Y-10491160D02*
X15117580Y-10500684D01*
X15117580Y-10500684D02*
X15079485Y-10500684D01*
X15079485Y-10500684D02*
X15060437Y-10491160D01*
X15269961Y-10500684D02*
X15250914Y-10491160D01*
X15250914Y-10491160D02*
X15241390Y-10472112D01*
X15241390Y-10472112D02*
X15241390Y-10300684D01*
X15431866Y-10500684D02*
X15431866Y-10395922D01*
X15431866Y-10395922D02*
X15422342Y-10376874D01*
X15422342Y-10376874D02*
X15403295Y-10367351D01*
X15403295Y-10367351D02*
X15365199Y-10367351D01*
X15365199Y-10367351D02*
X15346152Y-10376874D01*
X15431866Y-10491160D02*
X15412818Y-10500684D01*
X15412818Y-10500684D02*
X15365199Y-10500684D01*
X15365199Y-10500684D02*
X15346152Y-10491160D01*
X15346152Y-10491160D02*
X15336628Y-10472112D01*
X15336628Y-10472112D02*
X15336628Y-10453065D01*
X15336628Y-10453065D02*
X15346152Y-10434017D01*
X15346152Y-10434017D02*
X15365199Y-10424493D01*
X15365199Y-10424493D02*
X15412818Y-10424493D01*
X15412818Y-10424493D02*
X15431866Y-10414970D01*
X15498533Y-10367351D02*
X15574723Y-10367351D01*
X15527104Y-10300684D02*
X15527104Y-10472112D01*
X15527104Y-10472112D02*
X15536628Y-10491160D01*
X15536628Y-10491160D02*
X15555675Y-10500684D01*
X15555675Y-10500684D02*
X15574723Y-10500684D01*
X15717580Y-10491160D02*
X15698533Y-10500684D01*
X15698533Y-10500684D02*
X15660437Y-10500684D01*
X15660437Y-10500684D02*
X15641390Y-10491160D01*
X15641390Y-10491160D02*
X15631866Y-10472112D01*
X15631866Y-10472112D02*
X15631866Y-10395922D01*
X15631866Y-10395922D02*
X15641390Y-10376874D01*
X15641390Y-10376874D02*
X15660437Y-10367351D01*
X15660437Y-10367351D02*
X15698533Y-10367351D01*
X15698533Y-10367351D02*
X15717580Y-10376874D01*
X15717580Y-10376874D02*
X15727104Y-10395922D01*
X15727104Y-10395922D02*
X15727104Y-10414970D01*
X15727104Y-10414970D02*
X15631866Y-10434017D01*
X15898533Y-10500684D02*
X15898533Y-10300684D01*
X15898533Y-10491160D02*
X15879485Y-10500684D01*
X15879485Y-10500684D02*
X15841390Y-10500684D01*
X15841390Y-10500684D02*
X15822342Y-10491160D01*
X15822342Y-10491160D02*
X15812818Y-10481636D01*
X15812818Y-10481636D02*
X15803295Y-10462589D01*
X15803295Y-10462589D02*
X15803295Y-10405446D01*
X15803295Y-10405446D02*
X15812818Y-10386398D01*
X15812818Y-10386398D02*
X15822342Y-10376874D01*
X15822342Y-10376874D02*
X15841390Y-10367351D01*
X15841390Y-10367351D02*
X15879485Y-10367351D01*
X15879485Y-10367351D02*
X15898533Y-10376874D01*
X15974723Y-10576874D02*
X15984247Y-10567351D01*
X15984247Y-10567351D02*
X16003295Y-10538779D01*
X16003295Y-10538779D02*
X16012818Y-10519732D01*
X16012818Y-10519732D02*
X16022342Y-10491160D01*
X16022342Y-10491160D02*
X16031866Y-10443541D01*
X16031866Y-10443541D02*
X16031866Y-10405446D01*
X16031866Y-10405446D02*
X16022342Y-10357827D01*
X16022342Y-10357827D02*
X16012818Y-10329255D01*
X16012818Y-10329255D02*
X16003295Y-10310208D01*
X16003295Y-10310208D02*
X15984247Y-10281636D01*
X15984247Y-10281636D02*
X15974723Y-10272112D01*
M02*
