%TF.GenerationSoftware,KiCad,Pcbnew,8.0.5*%
%TF.CreationDate,2025-04-03T18:32:10+07:00*%
%TF.ProjectId,ZenFly F71,5a656e46-6c79-4204-9637-312e6b696361,rev?*%
%TF.SameCoordinates,Original*%
%TF.FileFunction,Copper,L3,Inr*%
%TF.FilePolarity,Positive*%
%FSLAX46Y46*%
G04 Gerber Fmt 4.6, Leading zero omitted, Abs format (unit mm)*
G04 Created by KiCad (PCBNEW 8.0.5) date 2025-04-03 18:32:10*
%MOMM*%
%LPD*%
G01*
G04 APERTURE LIST*
%TA.AperFunction,ViaPad*%
%ADD10C,0.420000*%
%TD*%
%TA.AperFunction,ViaPad*%
%ADD11C,0.500000*%
%TD*%
%TA.AperFunction,ViaPad*%
%ADD12C,0.600000*%
%TD*%
%TA.AperFunction,ViaPad*%
%ADD13C,0.700000*%
%TD*%
%TA.AperFunction,ViaPad*%
%ADD14C,0.800000*%
%TD*%
%TA.AperFunction,Conductor*%
%ADD15C,0.700000*%
%TD*%
%TA.AperFunction,Conductor*%
%ADD16C,0.400000*%
%TD*%
%TA.AperFunction,Conductor*%
%ADD17C,0.600000*%
%TD*%
%TA.AperFunction,Conductor*%
%ADD18C,1.000000*%
%TD*%
%TA.AperFunction,Conductor*%
%ADD19C,0.500000*%
%TD*%
%TA.AperFunction,Conductor*%
%ADD20C,0.900000*%
%TD*%
%TA.AperFunction,Conductor*%
%ADD21C,0.102000*%
%TD*%
%TA.AperFunction,Conductor*%
%ADD22C,0.200000*%
%TD*%
G04 APERTURE END LIST*
D10*
%TO.N,GND*%
X116682649Y-49928000D03*
X109487649Y-59223000D03*
X103363750Y-72090000D03*
X95462649Y-70298000D03*
X109162649Y-81023000D03*
X113062649Y-60988000D03*
X93432649Y-53753000D03*
X94712649Y-80419250D03*
X116307649Y-77455500D03*
X105712649Y-73423000D03*
X94207649Y-66253000D03*
X118487649Y-64048000D03*
X105244316Y-88153000D03*
X128762649Y-74802151D03*
X105487649Y-70098000D03*
X131700000Y-64475000D03*
X98965149Y-73603000D03*
X110137649Y-68998000D03*
X125862649Y-62523000D03*
X109047649Y-88153000D03*
X104462649Y-85723000D03*
X112847649Y-88153000D03*
X123282649Y-53378000D03*
X97978899Y-77583000D03*
X99757649Y-69099250D03*
X113237649Y-79753000D03*
X110307649Y-65173000D03*
X94725000Y-77694250D03*
X96913899Y-62968000D03*
X111132649Y-59473000D03*
X109162649Y-79673000D03*
X115696399Y-80548000D03*
X124362649Y-56697999D03*
X118237649Y-65928000D03*
X130007649Y-70428000D03*
X124282649Y-49928000D03*
X96763899Y-67245500D03*
X102487649Y-62408000D03*
X105212649Y-65318000D03*
%TO.N,+3.3V*%
X103344316Y-88153000D03*
X110807649Y-73473000D03*
X106425647Y-63148000D03*
X102420149Y-84753000D03*
X113775000Y-57950000D03*
X111262649Y-62098000D03*
X107887649Y-65248000D03*
X112062649Y-79753000D03*
X114768899Y-79838000D03*
X109807649Y-64498000D03*
X106387649Y-71948000D03*
X109057649Y-77253000D03*
X119227649Y-64798000D03*
X96482649Y-70458000D03*
D11*
X132832649Y-77088000D03*
D12*
X105612649Y-74823000D03*
D10*
X119462649Y-81523000D03*
X103707649Y-59768000D03*
%TO.N,+3.3Vrx*%
X99037649Y-63298000D03*
X101312649Y-75898000D03*
X101837649Y-57473000D03*
X96482649Y-69458000D03*
X99757649Y-70026750D03*
X97837649Y-68198000D03*
X101987649Y-71148000D03*
X99462649Y-76048000D03*
%TO.N,Net-(U9-XTAL_OUT)*%
X97978899Y-78683000D03*
X97028899Y-77078899D03*
%TO.N,+5V*%
X94662801Y-50783152D03*
X117582649Y-53378000D03*
D11*
X117282649Y-57773000D03*
D10*
X131102497Y-87222848D03*
X94662801Y-87222848D03*
X107147649Y-88153000D03*
X131102497Y-50783152D03*
X110947649Y-87953000D03*
X114782649Y-49928000D03*
D13*
X121727649Y-64993000D03*
D10*
%TO.N,/V_DCC*%
X96763899Y-66318000D03*
X102948899Y-63259250D03*
D14*
%TO.N,+BATT*%
X124257649Y-60703000D03*
D10*
X103080149Y-69903000D03*
X123100140Y-59876000D03*
D14*
X113637649Y-56098000D03*
D10*
%TO.N,ADC_VBAT*%
X109097649Y-69928000D03*
X104007649Y-69631001D03*
%TO.N,+9V*%
X115382649Y-82098000D03*
X122487649Y-55348000D03*
X109192232Y-84803000D03*
%TO.N,+5VBAT*%
X129633899Y-58718000D03*
X123802649Y-64043000D03*
%TO.N,FRONTEND_IN*%
X102617649Y-59431650D03*
%TO.N,RADIO_OUT*%
X107550000Y-64383000D03*
X101137649Y-68498000D03*
%TO.N,DJI_UART2_RX*%
X112382649Y-82098000D03*
%TO.N,DJI_SBUS_RX*%
X110387649Y-82098000D03*
X119432649Y-82503000D03*
%TO.N,DJI_UART2_TX*%
X113382649Y-82098000D03*
%TO.N,MOTOR_4*%
X113000000Y-66329351D03*
X106025649Y-53378000D03*
X111720329Y-57140320D03*
%TO.N,ADC_CURR*%
X111924649Y-66080500D03*
D12*
X104125649Y-53378000D03*
D10*
X113030019Y-62123000D03*
%TO.N,MOTOR_3*%
X107925649Y-53378000D03*
X117150000Y-61625000D03*
X112124798Y-57544789D03*
%TO.N,ESC_UART8_RX*%
X102225649Y-53378000D03*
%TO.N,MOTOR_2*%
X110687256Y-54987744D03*
X117728821Y-61625000D03*
%TO.N,MOTOR_1*%
X118307649Y-61625000D03*
X111725649Y-55000000D03*
%TO.N,RST*%
X98190149Y-65898000D03*
X98215149Y-69518000D03*
%TO.N,CS*%
X100505969Y-68976320D03*
%TO.N,PWR_TXEN*%
X102537649Y-61721000D03*
X93075000Y-67450000D03*
%TO.N,SWCLK*%
X117307649Y-62325000D03*
X119482649Y-53378000D03*
%TO.N,SPI2_MISO_FLASH*%
X116862649Y-70848000D03*
%TO.N,SPI2_MOSI_FLASH*%
X116862649Y-70325997D03*
%TO.N,GPS_UART1_RX*%
X115507649Y-62287820D03*
X109175000Y-72428000D03*
%TO.N,SWDIO*%
X121382649Y-53378000D03*
X120825000Y-66425000D03*
%TO.N,CS_FLASH*%
X116616799Y-72470160D03*
%TO.N,LED_STRIP*%
X128132649Y-88453000D03*
X128132649Y-49553000D03*
X97632649Y-49553000D03*
%TO.N,IMU_SP1_SCK*%
X112517649Y-77723000D03*
X111807649Y-75933000D03*
%TO.N,RADIO_UART5_RX*%
X123750000Y-85800000D03*
X97055820Y-78919180D03*
%TO.N,RADIO_UART5_TX*%
X123060085Y-85828000D03*
X96400000Y-78750000D03*
%TO.N,GPS_UART1_TX*%
X109612649Y-71928000D03*
X116207649Y-62247996D03*
%TO.N,SPI2_SCK_FLASH*%
X116600000Y-71940000D03*
%TO.N,IMU_CS*%
X111307649Y-76475000D03*
X113420149Y-77723000D03*
%TO.N,BUSY*%
X99037649Y-62458000D03*
X95697649Y-74228000D03*
%TO.N,SCK*%
X101097649Y-69625000D03*
%TO.N,MISO*%
X100597649Y-70048000D03*
%TO.N,DIO*%
X96387649Y-71228000D03*
%TO.N,MOSI*%
X101975345Y-69108345D03*
%TO.N,ANT_TRACE*%
X102200000Y-80925000D03*
X102200000Y-74850000D03*
%TO.N,Net-(J21-CLK)*%
X115782649Y-67100000D03*
X132812000Y-75673426D03*
%TO.N,SPI3_SCK_SD*%
X114300000Y-67100000D03*
%TO.N,SPI3_MOSI_SD*%
X113382649Y-65818000D03*
X132837000Y-62803000D03*
%TO.N,SPI3_MISO_SD*%
X132837000Y-63425000D03*
X114240649Y-69328000D03*
%TO.N,SD_CS*%
X131857649Y-79078000D03*
X116525000Y-65200000D03*
%TO.N,STATE_LED3*%
X94387649Y-72673000D03*
X95670936Y-76804064D03*
%TD*%
D15*
%TO.N,+3.3V*%
X131062649Y-81523000D02*
X119462649Y-81523000D01*
D16*
X111568211Y-58056789D02*
X109857000Y-59768000D01*
D15*
X132832649Y-77088000D02*
X132832649Y-79753000D01*
D17*
X106425647Y-63148000D02*
X106425647Y-62485998D01*
D18*
X113775000Y-57950000D02*
X113775000Y-58610649D01*
X111262649Y-61123000D02*
X111262649Y-62098000D01*
X113775000Y-58610649D02*
X111262649Y-61123000D01*
D16*
X113668211Y-58056789D02*
X111568211Y-58056789D01*
X109857000Y-59768000D02*
X103707649Y-59768000D01*
X113775000Y-57950000D02*
X113668211Y-58056789D01*
D15*
X132832649Y-79753000D02*
X131062649Y-81523000D01*
D17*
X106425647Y-62485998D02*
X103707649Y-59768000D01*
D15*
%TO.N,+3.3Vrx*%
X101312649Y-71823000D02*
X101987649Y-71148000D01*
D19*
X99461399Y-70323000D02*
X99757649Y-70026750D01*
X96482649Y-69458000D02*
X97347649Y-70323000D01*
X95862649Y-66173000D02*
X98737649Y-63298000D01*
X98737649Y-63298000D02*
X99037649Y-63298000D01*
X101837649Y-57473000D02*
X101837649Y-60848000D01*
X96482649Y-69458000D02*
X95862649Y-68838000D01*
X101837649Y-60848000D02*
X99387649Y-63298000D01*
X95862649Y-68838000D02*
X95862649Y-66173000D01*
D15*
X101312649Y-75898000D02*
X101312649Y-71823000D01*
D19*
X99387649Y-63298000D02*
X99037649Y-63298000D01*
X97347649Y-70323000D02*
X99461399Y-70323000D01*
D16*
%TO.N,Net-(U9-XTAL_OUT)*%
X97028899Y-77078899D02*
X97028899Y-77733000D01*
X97028899Y-77733000D02*
X97978899Y-78683000D01*
D18*
%TO.N,+5V*%
X105994649Y-87000000D02*
X94885649Y-87000000D01*
X94885649Y-87000000D02*
X94662801Y-87222848D01*
X107147649Y-88153000D02*
X105994649Y-87000000D01*
D17*
%TO.N,/V_DCC*%
X96763899Y-66318000D02*
X97983899Y-65098000D01*
X101110149Y-65098000D02*
X102948899Y-63259250D01*
X97983899Y-65098000D02*
X101110149Y-65098000D01*
D20*
%TO.N,+9V*%
X122487649Y-58248000D02*
X119923829Y-60811820D01*
X122487649Y-55348000D02*
X122487649Y-58248000D01*
X115906018Y-60811820D02*
X108112649Y-68605189D01*
X119923829Y-60811820D02*
X115906018Y-60811820D01*
X108112649Y-68605189D02*
X108112649Y-83723417D01*
X108112649Y-83723417D02*
X109192232Y-84803000D01*
D16*
%TO.N,RADIO_OUT*%
X107550000Y-64383000D02*
X105252649Y-64383000D01*
X105252649Y-64383000D02*
X101137649Y-68498000D01*
%TO.N,DJI_SBUS_RX*%
X118832649Y-83103000D02*
X119432649Y-82503000D01*
X110387649Y-82098000D02*
X111392649Y-83103000D01*
X111392649Y-83103000D02*
X118832649Y-83103000D01*
%TO.N,RST*%
X98575000Y-69158149D02*
X98215149Y-69518000D01*
X98215149Y-65923000D02*
X98575000Y-66282851D01*
D21*
X98190149Y-65898000D02*
X98215149Y-65923000D01*
D16*
X98575000Y-66282851D02*
X98575000Y-69158149D01*
%TO.N,SWCLK*%
X123239649Y-54850921D02*
X122913728Y-54525000D01*
X119475000Y-62325000D02*
X123239649Y-58560351D01*
X122913728Y-54525000D02*
X120629649Y-54525000D01*
X117307649Y-62325000D02*
X119475000Y-62325000D01*
X120629649Y-54525000D02*
X119482649Y-53378000D01*
X123239649Y-58560351D02*
X123239649Y-54850921D01*
%TO.N,SWDIO*%
X121382649Y-53378000D02*
X122476664Y-53378000D01*
X120825000Y-63142871D02*
X120825000Y-66425000D01*
X122476664Y-53378000D02*
X123741649Y-54642985D01*
X123741649Y-54642985D02*
X123741649Y-60226222D01*
X123741649Y-60226222D02*
X120825000Y-63142871D01*
%TO.N,Net-(J21-CLK)*%
X132758075Y-75673426D02*
X128484649Y-71400000D01*
X115124000Y-68576000D02*
X115782649Y-67917351D01*
X113510649Y-69935649D02*
X113510649Y-68997908D01*
X114975000Y-71400000D02*
X113510649Y-69935649D01*
X132812000Y-75673426D02*
X132758075Y-75673426D01*
X113932557Y-68576000D02*
X115124000Y-68576000D01*
X115782649Y-67917351D02*
X115782649Y-67100000D01*
X113510649Y-68997908D02*
X113932557Y-68576000D01*
X128484649Y-71400000D02*
X114975000Y-71400000D01*
%TO.N,SPI3_MOSI_SD*%
X125275000Y-67200000D02*
X116900000Y-67200000D01*
X132837000Y-62803000D02*
X129672000Y-62803000D01*
D22*
X113382649Y-65818000D02*
X113393000Y-65818000D01*
D16*
X116288000Y-66588000D02*
X114163000Y-66588000D01*
X116900000Y-67200000D02*
X116288000Y-66588000D01*
X114163000Y-66588000D02*
X113393000Y-65818000D01*
X129672000Y-62803000D02*
X125275000Y-67200000D01*
%TO.N,SPI3_MISO_SD*%
X132307649Y-69328000D02*
X114240649Y-69328000D01*
X132825000Y-68810649D02*
X132307649Y-69328000D01*
X132825000Y-63437000D02*
X132825000Y-68810649D01*
X132837000Y-63425000D02*
X132825000Y-63437000D01*
%TO.N,SD_CS*%
X112450000Y-70025000D02*
X121503000Y-79078000D01*
X112450000Y-65925000D02*
X112450000Y-70025000D01*
X113175000Y-65200000D02*
X112450000Y-65925000D01*
X116525000Y-65200000D02*
X113175000Y-65200000D01*
X121503000Y-79078000D02*
X131857649Y-79078000D01*
%TD*%
%TA.AperFunction,Conductor*%
%TO.N,GND*%
G36*
X103032211Y-59911386D02*
G01*
X103082209Y-59960191D01*
X103088663Y-59973474D01*
X103131182Y-60076124D01*
X103131183Y-60076126D01*
X103131184Y-60076127D01*
X103192406Y-60167754D01*
X103202375Y-60182673D01*
X103202376Y-60182674D01*
X105738828Y-62719125D01*
X105772313Y-62780448D01*
X105775147Y-62806806D01*
X105775147Y-63212069D01*
X105775147Y-63212071D01*
X105775146Y-63212071D01*
X105800144Y-63337738D01*
X105800146Y-63337744D01*
X105849180Y-63456124D01*
X105849185Y-63456133D01*
X105920370Y-63562668D01*
X105920373Y-63562672D01*
X105978520Y-63620819D01*
X106012005Y-63682142D01*
X106007021Y-63751834D01*
X105965149Y-63807767D01*
X105899685Y-63832184D01*
X105890839Y-63832500D01*
X105180174Y-63832500D01*
X105065089Y-63863337D01*
X105065088Y-63863336D01*
X105040166Y-63870015D01*
X105040163Y-63870016D01*
X104914635Y-63942489D01*
X104914632Y-63942491D01*
X100833821Y-68023301D01*
X100821627Y-68033995D01*
X100737893Y-68098247D01*
X100648053Y-68215330D01*
X100597928Y-68336342D01*
X100554086Y-68390745D01*
X100499553Y-68411827D01*
X100359649Y-68430246D01*
X100359648Y-68430246D01*
X100223301Y-68486723D01*
X100106215Y-68576566D01*
X100016372Y-68693652D01*
X99959895Y-68829999D01*
X99959894Y-68830001D01*
X99940632Y-68976318D01*
X99940632Y-68976321D01*
X99959894Y-69122638D01*
X99959895Y-69122640D01*
X100019483Y-69266498D01*
X100016963Y-69267541D01*
X100030286Y-69322456D01*
X100007433Y-69388483D01*
X99952512Y-69431674D01*
X99882959Y-69438315D01*
X99874336Y-69436332D01*
X99836707Y-69426249D01*
X99678592Y-69426249D01*
X99602228Y-69446711D01*
X99525863Y-69467173D01*
X99525858Y-69467176D01*
X99388939Y-69546225D01*
X99388931Y-69546231D01*
X99248982Y-69686181D01*
X99187659Y-69719666D01*
X99161301Y-69722500D01*
X99088536Y-69722500D01*
X99021497Y-69702815D01*
X98975742Y-69650011D01*
X98965798Y-69580853D01*
X98994823Y-69517297D01*
X99000855Y-69510819D01*
X99007037Y-69504637D01*
X99015510Y-69496164D01*
X99087984Y-69370634D01*
X99090120Y-69362663D01*
X99125500Y-69230624D01*
X99125500Y-66210376D01*
X99087984Y-66070366D01*
X99053707Y-66010996D01*
X99015510Y-65944836D01*
X99011446Y-65937796D01*
X99013525Y-65936595D01*
X98992734Y-65882826D01*
X99006767Y-65814380D01*
X99055578Y-65764387D01*
X99116303Y-65748500D01*
X101174220Y-65748500D01*
X101258764Y-65731682D01*
X101299893Y-65723501D01*
X101418276Y-65674465D01*
X101420348Y-65673080D01*
X101422448Y-65671678D01*
X101490693Y-65626078D01*
X101524818Y-65603277D01*
X103454175Y-63673919D01*
X103510512Y-63589605D01*
X103525363Y-63567379D01*
X103525365Y-63567374D01*
X103527314Y-63562669D01*
X103574400Y-63448994D01*
X103599398Y-63323319D01*
X103599398Y-63195181D01*
X103574400Y-63069507D01*
X103574398Y-63069502D01*
X103525367Y-62951129D01*
X103525360Y-62951116D01*
X103454175Y-62844581D01*
X103454172Y-62844577D01*
X103363571Y-62753976D01*
X103363567Y-62753973D01*
X103257032Y-62682788D01*
X103257019Y-62682781D01*
X103138646Y-62633750D01*
X103138634Y-62633747D01*
X103012972Y-62608751D01*
X103012968Y-62608751D01*
X102884830Y-62608751D01*
X102884825Y-62608751D01*
X102759162Y-62633747D01*
X102759154Y-62633749D01*
X102640774Y-62682783D01*
X102640765Y-62682788D01*
X102534230Y-62753973D01*
X102534226Y-62753976D01*
X100877022Y-64411181D01*
X100815699Y-64444666D01*
X100789341Y-64447500D01*
X98736746Y-64447500D01*
X98669707Y-64427815D01*
X98623952Y-64375011D01*
X98614008Y-64305853D01*
X98643033Y-64242297D01*
X98649065Y-64235819D01*
X98950065Y-63934819D01*
X99011388Y-63901334D01*
X99037746Y-63898500D01*
X99300980Y-63898500D01*
X99300996Y-63898501D01*
X99308592Y-63898501D01*
X99466703Y-63898501D01*
X99466706Y-63898501D01*
X99619434Y-63857577D01*
X99669553Y-63828639D01*
X99756365Y-63778520D01*
X99868169Y-63666716D01*
X99868169Y-63666714D01*
X99878377Y-63656507D01*
X99878379Y-63656504D01*
X101776083Y-61758799D01*
X101837404Y-61725316D01*
X101907096Y-61730300D01*
X101963029Y-61772172D01*
X101986701Y-61830297D01*
X101991574Y-61867318D01*
X101991575Y-61867320D01*
X102048052Y-62003668D01*
X102048053Y-62003669D01*
X102137895Y-62120754D01*
X102254980Y-62210596D01*
X102391329Y-62267074D01*
X102413312Y-62269968D01*
X102537648Y-62286337D01*
X102537649Y-62286337D01*
X102537650Y-62286337D01*
X102586422Y-62279916D01*
X102683969Y-62267074D01*
X102820318Y-62210596D01*
X102937403Y-62120754D01*
X103027245Y-62003669D01*
X103083723Y-61867320D01*
X103102986Y-61721000D01*
X103100474Y-61701922D01*
X103084019Y-61576926D01*
X103083723Y-61574680D01*
X103027652Y-61439314D01*
X103027245Y-61438331D01*
X102937405Y-61321247D01*
X102820317Y-61231403D01*
X102683969Y-61174926D01*
X102683967Y-61174925D01*
X102529591Y-61154602D01*
X102529787Y-61153106D01*
X102471455Y-61135978D01*
X102425700Y-61083174D01*
X102415756Y-61014016D01*
X102418716Y-60999581D01*
X102438149Y-60927058D01*
X102438149Y-60768943D01*
X102438149Y-60114750D01*
X102457834Y-60047711D01*
X102510638Y-60001956D01*
X102578333Y-59991811D01*
X102617649Y-59996987D01*
X102617650Y-59996987D01*
X102666422Y-59990566D01*
X102763969Y-59977724D01*
X102900318Y-59921246D01*
X102900321Y-59921244D01*
X102907355Y-59917184D01*
X102908295Y-59918813D01*
X102963764Y-59897359D01*
X103032211Y-59911386D01*
G37*
%TD.AperFunction*%
%TA.AperFunction,Conductor*%
G36*
X97795681Y-66308675D02*
G01*
X97827832Y-66326480D01*
X97858206Y-66349787D01*
X97874129Y-66362005D01*
X97886323Y-66372699D01*
X97988181Y-66474557D01*
X98021666Y-66535880D01*
X98024500Y-66562238D01*
X98024500Y-67515867D01*
X98004815Y-67582906D01*
X97952011Y-67628661D01*
X97884316Y-67638806D01*
X97837652Y-67632663D01*
X97837648Y-67632663D01*
X97691330Y-67651925D01*
X97691328Y-67651926D01*
X97554981Y-67708403D01*
X97437895Y-67798246D01*
X97348052Y-67915332D01*
X97291575Y-68051679D01*
X97291574Y-68051681D01*
X97272312Y-68197998D01*
X97272312Y-68198001D01*
X97291574Y-68344318D01*
X97291575Y-68344320D01*
X97348052Y-68480668D01*
X97348053Y-68480669D01*
X97437895Y-68597754D01*
X97554980Y-68687596D01*
X97691329Y-68744074D01*
X97746445Y-68751330D01*
X97837648Y-68763337D01*
X97837649Y-68763337D01*
X97882735Y-68757401D01*
X97951769Y-68768166D01*
X98004025Y-68814546D01*
X98022911Y-68881815D01*
X98002431Y-68948615D01*
X97986601Y-68968021D01*
X97911317Y-69043305D01*
X97899129Y-69053994D01*
X97828301Y-69108343D01*
X97815391Y-69118249D01*
X97725552Y-69235331D01*
X97669075Y-69371679D01*
X97669075Y-69371681D01*
X97652625Y-69496626D01*
X97624358Y-69560522D01*
X97566033Y-69598993D01*
X97496169Y-69599824D01*
X97442006Y-69568122D01*
X96851365Y-68977481D01*
X96499468Y-68625584D01*
X96465983Y-68564261D01*
X96463149Y-68537903D01*
X96463149Y-67072514D01*
X96482834Y-67005475D01*
X96535638Y-66959720D01*
X96604796Y-66949776D01*
X96611317Y-66950892D01*
X96699828Y-66968498D01*
X96699829Y-66968499D01*
X96699830Y-66968499D01*
X96827969Y-66968499D01*
X96827970Y-66968498D01*
X96953643Y-66943501D01*
X97072026Y-66894465D01*
X97178568Y-66823277D01*
X97664670Y-66337173D01*
X97725990Y-66303691D01*
X97795681Y-66308675D01*
G37*
%TD.AperFunction*%
%TA.AperFunction,Conductor*%
G36*
X128162497Y-48355523D02*
G01*
X128178667Y-48355514D01*
X128178669Y-48355515D01*
X128203570Y-48355501D01*
X128208632Y-48355603D01*
X128646580Y-48373486D01*
X128656768Y-48374324D01*
X129089151Y-48427997D01*
X129099238Y-48429675D01*
X129525719Y-48518878D01*
X129535616Y-48521380D01*
X129953263Y-48645500D01*
X129962951Y-48648821D01*
X130368896Y-48807003D01*
X130378277Y-48811112D01*
X130574029Y-48906700D01*
X130769778Y-49002286D01*
X130778780Y-49007152D01*
X131153168Y-49230017D01*
X131161727Y-49235603D01*
X131516426Y-49488626D01*
X131524516Y-49494918D01*
X131702255Y-49645331D01*
X131857079Y-49776351D01*
X131864609Y-49783276D01*
X132172822Y-50091245D01*
X132179757Y-50098773D01*
X132461457Y-50431120D01*
X132467756Y-50439206D01*
X132721055Y-50793697D01*
X132726664Y-50802277D01*
X132949803Y-51176452D01*
X132954685Y-51185465D01*
X133146165Y-51576807D01*
X133150286Y-51586193D01*
X133308789Y-51992013D01*
X133312120Y-52001707D01*
X133436563Y-52419234D01*
X133439082Y-52429169D01*
X133517234Y-52801338D01*
X133525083Y-52838717D01*
X133528616Y-52855539D01*
X133530306Y-52865650D01*
X133584316Y-53297953D01*
X133585166Y-53308168D01*
X133600749Y-53682523D01*
X133603470Y-53747870D01*
X133603577Y-53753027D01*
X133603577Y-62565632D01*
X133583892Y-62632671D01*
X133531088Y-62678426D01*
X133461930Y-62688370D01*
X133398374Y-62659345D01*
X133365016Y-62613085D01*
X133364813Y-62612596D01*
X133330876Y-62530665D01*
X133326596Y-62520331D01*
X133236756Y-62403247D01*
X133119668Y-62313403D01*
X132983320Y-62256926D01*
X132983318Y-62256925D01*
X132837001Y-62237663D01*
X132836999Y-62237663D01*
X132732358Y-62251439D01*
X132716173Y-62252500D01*
X129599525Y-62252500D01*
X129494517Y-62280637D01*
X129459514Y-62290016D01*
X129333986Y-62362489D01*
X129333983Y-62362491D01*
X125083294Y-66613181D01*
X125021971Y-66646666D01*
X124995613Y-66649500D01*
X121502176Y-66649500D01*
X121435137Y-66629815D01*
X121389382Y-66577011D01*
X121379237Y-66509315D01*
X121390337Y-66425001D01*
X121390337Y-66424998D01*
X121376561Y-66320358D01*
X121375500Y-66304173D01*
X121375500Y-65785942D01*
X121395185Y-65718903D01*
X121447989Y-65673148D01*
X121517147Y-65663204D01*
X121529168Y-65665543D01*
X121642593Y-65693500D01*
X121812705Y-65693500D01*
X121977874Y-65652790D01*
X122078925Y-65599754D01*
X122128498Y-65573736D01*
X122128499Y-65573734D01*
X122128501Y-65573734D01*
X122255832Y-65460929D01*
X122352467Y-65320930D01*
X122412789Y-65161872D01*
X122433294Y-64993000D01*
X122412789Y-64824128D01*
X122402880Y-64798001D01*
X122352466Y-64665068D01*
X122300010Y-64589074D01*
X122255832Y-64525071D01*
X122160965Y-64441026D01*
X122128498Y-64412263D01*
X121977875Y-64333210D01*
X121812705Y-64292500D01*
X121642593Y-64292500D01*
X121642591Y-64292500D01*
X121529174Y-64320454D01*
X121459372Y-64317384D01*
X121402310Y-64277064D01*
X121376105Y-64212295D01*
X121375500Y-64200057D01*
X121375500Y-64042998D01*
X123237312Y-64042998D01*
X123237312Y-64043001D01*
X123256574Y-64189318D01*
X123256575Y-64189320D01*
X123313052Y-64325668D01*
X123318839Y-64333210D01*
X123402895Y-64442754D01*
X123519980Y-64532596D01*
X123656329Y-64589074D01*
X123729489Y-64598705D01*
X123802648Y-64608337D01*
X123802649Y-64608337D01*
X123802650Y-64608337D01*
X123851422Y-64601916D01*
X123948969Y-64589074D01*
X124085318Y-64532596D01*
X124202403Y-64442754D01*
X124292245Y-64325669D01*
X124348723Y-64189320D01*
X124367986Y-64043000D01*
X124363431Y-64008404D01*
X124348963Y-63898501D01*
X124348723Y-63896680D01*
X124315638Y-63816809D01*
X124292245Y-63760331D01*
X124202405Y-63643247D01*
X124085317Y-63553403D01*
X123948969Y-63496926D01*
X123948967Y-63496925D01*
X123802650Y-63477663D01*
X123802648Y-63477663D01*
X123656330Y-63496925D01*
X123656328Y-63496926D01*
X123519981Y-63553403D01*
X123402895Y-63643246D01*
X123313052Y-63760332D01*
X123256575Y-63896679D01*
X123256574Y-63896681D01*
X123237312Y-64042998D01*
X121375500Y-64042998D01*
X121375500Y-63422257D01*
X121395185Y-63355218D01*
X121411819Y-63334576D01*
X122460058Y-62286337D01*
X123532159Y-61214235D01*
X123593480Y-61180752D01*
X123663172Y-61185736D01*
X123707519Y-61214237D01*
X123786758Y-61293476D01*
X123786764Y-61293481D01*
X123929951Y-61383452D01*
X123929954Y-61383454D01*
X123929958Y-61383455D01*
X123929959Y-61383456D01*
X124002562Y-61408860D01*
X124089592Y-61439314D01*
X124257646Y-61458249D01*
X124257649Y-61458249D01*
X124257652Y-61458249D01*
X124425705Y-61439314D01*
X124426688Y-61438970D01*
X124585339Y-61383456D01*
X124585341Y-61383454D01*
X124585343Y-61383454D01*
X124585346Y-61383452D01*
X124728533Y-61293481D01*
X124728534Y-61293480D01*
X124728539Y-61293477D01*
X124848126Y-61173890D01*
X124905127Y-61083174D01*
X124938101Y-61030697D01*
X124938103Y-61030694D01*
X124938103Y-61030692D01*
X124938105Y-61030690D01*
X124993962Y-60871059D01*
X124993962Y-60871058D01*
X124993963Y-60871056D01*
X125012898Y-60703002D01*
X125012898Y-60702997D01*
X124993963Y-60534943D01*
X124963509Y-60447913D01*
X124938105Y-60375310D01*
X124938104Y-60375309D01*
X124938103Y-60375305D01*
X124938101Y-60375302D01*
X124848130Y-60232115D01*
X124848125Y-60232109D01*
X124728539Y-60112523D01*
X124728533Y-60112518D01*
X124585346Y-60022547D01*
X124585341Y-60022544D01*
X124425703Y-59966685D01*
X124402262Y-59964044D01*
X124337849Y-59936975D01*
X124298295Y-59879379D01*
X124292149Y-59840824D01*
X124292149Y-58717998D01*
X129068562Y-58717998D01*
X129068562Y-58718001D01*
X129087824Y-58864318D01*
X129087825Y-58864320D01*
X129144302Y-59000668D01*
X129144303Y-59000669D01*
X129234145Y-59117754D01*
X129351230Y-59207596D01*
X129487579Y-59264074D01*
X129549326Y-59272203D01*
X129633898Y-59283337D01*
X129633899Y-59283337D01*
X129633900Y-59283337D01*
X129682672Y-59276916D01*
X129780219Y-59264074D01*
X129916568Y-59207596D01*
X130033653Y-59117754D01*
X130123495Y-59000669D01*
X130179973Y-58864320D01*
X130199236Y-58718000D01*
X130196131Y-58694417D01*
X130184661Y-58607289D01*
X130179973Y-58571680D01*
X130123495Y-58435332D01*
X130123495Y-58435331D01*
X130033655Y-58318247D01*
X129916567Y-58228403D01*
X129780219Y-58171926D01*
X129780217Y-58171925D01*
X129633900Y-58152663D01*
X129633898Y-58152663D01*
X129487580Y-58171925D01*
X129487578Y-58171926D01*
X129351231Y-58228403D01*
X129234145Y-58318246D01*
X129144302Y-58435332D01*
X129087825Y-58571679D01*
X129087824Y-58571681D01*
X129068562Y-58717998D01*
X124292149Y-58717998D01*
X124292149Y-54570512D01*
X124292149Y-54570510D01*
X124254633Y-54430500D01*
X124182159Y-54304970D01*
X123516413Y-53639224D01*
X126519077Y-53639224D01*
X126519077Y-53860775D01*
X126541160Y-54028500D01*
X126547994Y-54080410D01*
X126583085Y-54211373D01*
X126605333Y-54294403D01*
X126690104Y-54499060D01*
X126690111Y-54499074D01*
X126731355Y-54570510D01*
X126800878Y-54690928D01*
X126800881Y-54690932D01*
X126800885Y-54690938D01*
X126935742Y-54866685D01*
X126935750Y-54866694D01*
X127092383Y-55023327D01*
X127092391Y-55023334D01*
X127268138Y-55158191D01*
X127268141Y-55158193D01*
X127268149Y-55158199D01*
X127460005Y-55268967D01*
X127460010Y-55268969D01*
X127460016Y-55268972D01*
X127664674Y-55353743D01*
X127664672Y-55353743D01*
X127664678Y-55353744D01*
X127664679Y-55353745D01*
X127878667Y-55411083D01*
X128098309Y-55440000D01*
X128098316Y-55440000D01*
X128319838Y-55440000D01*
X128319845Y-55440000D01*
X128539487Y-55411083D01*
X128753475Y-55353745D01*
X128822950Y-55324968D01*
X128958137Y-55268972D01*
X128958137Y-55268971D01*
X128958149Y-55268967D01*
X129150005Y-55158199D01*
X129325762Y-55023335D01*
X129325766Y-55023330D01*
X129325771Y-55023327D01*
X129482404Y-54866694D01*
X129482407Y-54866689D01*
X129482412Y-54866685D01*
X129617276Y-54690928D01*
X129728044Y-54499072D01*
X129746744Y-54453925D01*
X129812820Y-54294403D01*
X129812820Y-54294402D01*
X129812822Y-54294398D01*
X129870160Y-54080410D01*
X129899077Y-53860768D01*
X129899077Y-53639232D01*
X129870160Y-53419590D01*
X129812822Y-53205602D01*
X129767147Y-53095332D01*
X129728049Y-53000939D01*
X129728046Y-53000933D01*
X129728044Y-53000928D01*
X129617276Y-52809072D01*
X129583691Y-52765304D01*
X129482411Y-52633314D01*
X129482404Y-52633306D01*
X129325771Y-52476673D01*
X129325762Y-52476665D01*
X129150015Y-52341808D01*
X129150009Y-52341804D01*
X129150005Y-52341801D01*
X128958149Y-52231033D01*
X128958137Y-52231027D01*
X128753479Y-52146256D01*
X128753481Y-52146256D01*
X128639765Y-52115786D01*
X128539487Y-52088917D01*
X128490677Y-52082491D01*
X128319852Y-52060000D01*
X128319845Y-52060000D01*
X128098309Y-52060000D01*
X128098301Y-52060000D01*
X127903071Y-52085704D01*
X127878667Y-52088917D01*
X127813185Y-52106462D01*
X127664673Y-52146256D01*
X127460016Y-52231027D01*
X127460002Y-52231034D01*
X127268155Y-52341797D01*
X127268138Y-52341808D01*
X127092391Y-52476665D01*
X126935742Y-52633314D01*
X126800885Y-52809061D01*
X126800874Y-52809078D01*
X126690111Y-53000925D01*
X126690104Y-53000939D01*
X126605333Y-53205596D01*
X126547994Y-53419591D01*
X126519077Y-53639224D01*
X123516413Y-53639224D01*
X122814679Y-52937490D01*
X122689149Y-52865016D01*
X122689144Y-52865014D01*
X122672516Y-52860558D01*
X122672516Y-52860559D01*
X122610827Y-52844029D01*
X122549139Y-52827500D01*
X122549138Y-52827500D01*
X121503476Y-52827500D01*
X121487291Y-52826439D01*
X121382650Y-52812663D01*
X121382648Y-52812663D01*
X121236330Y-52831925D01*
X121236328Y-52831926D01*
X121099981Y-52888403D01*
X120982895Y-52978246D01*
X120893052Y-53095332D01*
X120836575Y-53231679D01*
X120836574Y-53231681D01*
X120817312Y-53377998D01*
X120817312Y-53378001D01*
X120836574Y-53524318D01*
X120836575Y-53524320D01*
X120893054Y-53660672D01*
X120897115Y-53667706D01*
X120895998Y-53668350D01*
X120918199Y-53725778D01*
X120904160Y-53794222D01*
X120855345Y-53844211D01*
X120787254Y-53859873D01*
X120721504Y-53836236D01*
X120706948Y-53823774D01*
X119957346Y-53074172D01*
X119946650Y-53061976D01*
X119882404Y-52978247D01*
X119765317Y-52888403D01*
X119628969Y-52831926D01*
X119628967Y-52831925D01*
X119482650Y-52812663D01*
X119482648Y-52812663D01*
X119336330Y-52831925D01*
X119336328Y-52831926D01*
X119199981Y-52888403D01*
X119082895Y-52978246D01*
X118993052Y-53095332D01*
X118936575Y-53231679D01*
X118936574Y-53231681D01*
X118917312Y-53377998D01*
X118917312Y-53378001D01*
X118936574Y-53524318D01*
X118936575Y-53524320D01*
X118993052Y-53660668D01*
X118998947Y-53668350D01*
X119082895Y-53777754D01*
X119142870Y-53823774D01*
X119166628Y-53842004D01*
X119178823Y-53852699D01*
X120291634Y-54965510D01*
X120358359Y-55004033D01*
X120417164Y-55037984D01*
X120557174Y-55075500D01*
X120557175Y-55075500D01*
X120702123Y-55075500D01*
X121574575Y-55075500D01*
X121641614Y-55095185D01*
X121687369Y-55147989D01*
X121697313Y-55217147D01*
X121696192Y-55223691D01*
X121687149Y-55269153D01*
X121687149Y-57865060D01*
X121667464Y-57932099D01*
X121650830Y-57952741D01*
X119628570Y-59975001D01*
X119567247Y-60008486D01*
X119540889Y-60011320D01*
X115827173Y-60011320D01*
X115672526Y-60042081D01*
X115672516Y-60042084D01*
X115526845Y-60102422D01*
X115526833Y-60102429D01*
X115429069Y-60167754D01*
X115429068Y-60167755D01*
X115395726Y-60190032D01*
X113716536Y-61869222D01*
X113655213Y-61902707D01*
X113585521Y-61897723D01*
X113529588Y-61855851D01*
X113521467Y-61843540D01*
X113519613Y-61840329D01*
X113429775Y-61723247D01*
X113312687Y-61633403D01*
X113176339Y-61576926D01*
X113176337Y-61576925D01*
X113030020Y-61557663D01*
X113030018Y-61557663D01*
X112883700Y-61576925D01*
X112883698Y-61576926D01*
X112747351Y-61633403D01*
X112630265Y-61723246D01*
X112540422Y-61840332D01*
X112483945Y-61976679D01*
X112483944Y-61976681D01*
X112464682Y-62122998D01*
X112464682Y-62123001D01*
X112483944Y-62269318D01*
X112483945Y-62269320D01*
X112540422Y-62405668D01*
X112540423Y-62405669D01*
X112630265Y-62522754D01*
X112686145Y-62565632D01*
X112747347Y-62612594D01*
X112750555Y-62614446D01*
X112752721Y-62616718D01*
X112753798Y-62617544D01*
X112753669Y-62617711D01*
X112798773Y-62665010D01*
X112811999Y-62733617D01*
X112786034Y-62798483D01*
X112776241Y-62809517D01*
X108889726Y-66696034D01*
X107602360Y-67983400D01*
X107570423Y-68015337D01*
X107490858Y-68094901D01*
X107403258Y-68226003D01*
X107403251Y-68226016D01*
X107342913Y-68371687D01*
X107342910Y-68371699D01*
X107312149Y-68526342D01*
X107312149Y-83802263D01*
X107342910Y-83956906D01*
X107342913Y-83956918D01*
X107403251Y-84102589D01*
X107403258Y-84102602D01*
X107490859Y-84233705D01*
X107490862Y-84233709D01*
X108681939Y-85424786D01*
X108681943Y-85424789D01*
X108813046Y-85512390D01*
X108813059Y-85512397D01*
X108956118Y-85571653D01*
X108958735Y-85572737D01*
X109113385Y-85603499D01*
X109113388Y-85603500D01*
X109113390Y-85603500D01*
X109271076Y-85603500D01*
X109271077Y-85603499D01*
X109425729Y-85572737D01*
X109571411Y-85512394D01*
X109702521Y-85424789D01*
X109814021Y-85313289D01*
X109901626Y-85182179D01*
X109961969Y-85036497D01*
X109992732Y-84881842D01*
X109992732Y-84724158D01*
X109992732Y-84724155D01*
X109992731Y-84724153D01*
X109986459Y-84692622D01*
X109961969Y-84569503D01*
X109961967Y-84569498D01*
X109901629Y-84423827D01*
X109901622Y-84423814D01*
X109814021Y-84292711D01*
X109814018Y-84292707D01*
X109660535Y-84139224D01*
X126519077Y-84139224D01*
X126519077Y-84360775D01*
X126533656Y-84471503D01*
X126547994Y-84580410D01*
X126576687Y-84687494D01*
X126605333Y-84794403D01*
X126690104Y-84999060D01*
X126690110Y-84999072D01*
X126800878Y-85190928D01*
X126800881Y-85190932D01*
X126800885Y-85190938D01*
X126935742Y-85366685D01*
X126935750Y-85366694D01*
X127092383Y-85523327D01*
X127092391Y-85523334D01*
X127092392Y-85523335D01*
X127153120Y-85569934D01*
X127268138Y-85658191D01*
X127268141Y-85658193D01*
X127268149Y-85658199D01*
X127460005Y-85768967D01*
X127460010Y-85768969D01*
X127460016Y-85768972D01*
X127664674Y-85853743D01*
X127664672Y-85853743D01*
X127664678Y-85853744D01*
X127664679Y-85853745D01*
X127878667Y-85911083D01*
X128098309Y-85940000D01*
X128098316Y-85940000D01*
X128319838Y-85940000D01*
X128319845Y-85940000D01*
X128539487Y-85911083D01*
X128753475Y-85853745D01*
X128815630Y-85828000D01*
X128958137Y-85768972D01*
X128958137Y-85768971D01*
X128958149Y-85768967D01*
X129150005Y-85658199D01*
X129325762Y-85523335D01*
X129325766Y-85523330D01*
X129325771Y-85523327D01*
X129482404Y-85366694D01*
X129482407Y-85366689D01*
X129482412Y-85366685D01*
X129617276Y-85190928D01*
X129728044Y-84999072D01*
X129812822Y-84794398D01*
X129870160Y-84580410D01*
X129899077Y-84360768D01*
X129899077Y-84139232D01*
X129870160Y-83919590D01*
X129812822Y-83705602D01*
X129775701Y-83615984D01*
X129728049Y-83500939D01*
X129728046Y-83500933D01*
X129728044Y-83500928D01*
X129617276Y-83309072D01*
X129482412Y-83133315D01*
X129482411Y-83133314D01*
X129482404Y-83133306D01*
X129325771Y-82976673D01*
X129325762Y-82976665D01*
X129150015Y-82841808D01*
X129150009Y-82841804D01*
X129150005Y-82841801D01*
X129109458Y-82818391D01*
X128958151Y-82731034D01*
X128958137Y-82731027D01*
X128753479Y-82646256D01*
X128753481Y-82646256D01*
X128639765Y-82615786D01*
X128539487Y-82588917D01*
X128490677Y-82582491D01*
X128319852Y-82560000D01*
X128319845Y-82560000D01*
X128098309Y-82560000D01*
X128098301Y-82560000D01*
X127903071Y-82585704D01*
X127878667Y-82588917D01*
X127813185Y-82606462D01*
X127664673Y-82646256D01*
X127460016Y-82731027D01*
X127460002Y-82731034D01*
X127268155Y-82841797D01*
X127268138Y-82841808D01*
X127092391Y-82976665D01*
X126935742Y-83133314D01*
X126800885Y-83309061D01*
X126800874Y-83309078D01*
X126690111Y-83500925D01*
X126690104Y-83500939D01*
X126605333Y-83705596D01*
X126547994Y-83919591D01*
X126519077Y-84139224D01*
X109660535Y-84139224D01*
X108949468Y-83428157D01*
X108915983Y-83366834D01*
X108913149Y-83340476D01*
X108913149Y-79752998D01*
X111497312Y-79752998D01*
X111497312Y-79753001D01*
X111516574Y-79899318D01*
X111516575Y-79899320D01*
X111573052Y-80035668D01*
X111573053Y-80035669D01*
X111662895Y-80152754D01*
X111779980Y-80242596D01*
X111916329Y-80299074D01*
X111989489Y-80308705D01*
X112062648Y-80318337D01*
X112062649Y-80318337D01*
X112062650Y-80318337D01*
X112111422Y-80311916D01*
X112208969Y-80299074D01*
X112345318Y-80242596D01*
X112462403Y-80152754D01*
X112552245Y-80035669D01*
X112608723Y-79899320D01*
X112616796Y-79837998D01*
X114203562Y-79837998D01*
X114203562Y-79838001D01*
X114222824Y-79984318D01*
X114222825Y-79984320D01*
X114279302Y-80120668D01*
X114279303Y-80120669D01*
X114369145Y-80237754D01*
X114486230Y-80327596D01*
X114622579Y-80384074D01*
X114695739Y-80393705D01*
X114768898Y-80403337D01*
X114768899Y-80403337D01*
X114768900Y-80403337D01*
X114817672Y-80396916D01*
X114915219Y-80384074D01*
X115051568Y-80327596D01*
X115168653Y-80237754D01*
X115258495Y-80120669D01*
X115314973Y-79984320D01*
X115334236Y-79838000D01*
X115333670Y-79833703D01*
X115321394Y-79740453D01*
X115314973Y-79691680D01*
X115258495Y-79555332D01*
X115258495Y-79555331D01*
X115168655Y-79438247D01*
X115051567Y-79348403D01*
X114915219Y-79291926D01*
X114915217Y-79291925D01*
X114768900Y-79272663D01*
X114768898Y-79272663D01*
X114622580Y-79291925D01*
X114622578Y-79291926D01*
X114486231Y-79348403D01*
X114369145Y-79438246D01*
X114279302Y-79555332D01*
X114222825Y-79691679D01*
X114222824Y-79691681D01*
X114203562Y-79837998D01*
X112616796Y-79837998D01*
X112627986Y-79753000D01*
X112608723Y-79606680D01*
X112552245Y-79470332D01*
X112552245Y-79470331D01*
X112462405Y-79353247D01*
X112345317Y-79263403D01*
X112208969Y-79206926D01*
X112208967Y-79206925D01*
X112062650Y-79187663D01*
X112062648Y-79187663D01*
X111916330Y-79206925D01*
X111916328Y-79206926D01*
X111779981Y-79263403D01*
X111662895Y-79353246D01*
X111573052Y-79470332D01*
X111516575Y-79606679D01*
X111516574Y-79606681D01*
X111497312Y-79752998D01*
X108913149Y-79752998D01*
X108913149Y-77940708D01*
X108932834Y-77873669D01*
X108985638Y-77827914D01*
X109049521Y-77818340D01*
X109049521Y-77818337D01*
X109049546Y-77818337D01*
X109053335Y-77817769D01*
X109057649Y-77818337D01*
X109057649Y-77818336D01*
X109057650Y-77818337D01*
X109106422Y-77811916D01*
X109203969Y-77799074D01*
X109340318Y-77742596D01*
X109365859Y-77722998D01*
X111952312Y-77722998D01*
X111952312Y-77723001D01*
X111971574Y-77869318D01*
X111971575Y-77869320D01*
X112028052Y-78005668D01*
X112028053Y-78005669D01*
X112117895Y-78122754D01*
X112234980Y-78212596D01*
X112371329Y-78269074D01*
X112444489Y-78278705D01*
X112517648Y-78288337D01*
X112517649Y-78288337D01*
X112517650Y-78288337D01*
X112566422Y-78281916D01*
X112663969Y-78269074D01*
X112800318Y-78212596D01*
X112893414Y-78141161D01*
X112958581Y-78115967D01*
X113027026Y-78130005D01*
X113044379Y-78141157D01*
X113093129Y-78178564D01*
X113137479Y-78212596D01*
X113193957Y-78235989D01*
X113273829Y-78269074D01*
X113346989Y-78278705D01*
X113420148Y-78288337D01*
X113420149Y-78288337D01*
X113420150Y-78288337D01*
X113468922Y-78281916D01*
X113566469Y-78269074D01*
X113702818Y-78212596D01*
X113819903Y-78122754D01*
X113909745Y-78005669D01*
X113966223Y-77869320D01*
X113985486Y-77723000D01*
X113966223Y-77576680D01*
X113926164Y-77479971D01*
X113909745Y-77440331D01*
X113819905Y-77323247D01*
X113702817Y-77233403D01*
X113566469Y-77176926D01*
X113566467Y-77176925D01*
X113420150Y-77157663D01*
X113420148Y-77157663D01*
X113273830Y-77176925D01*
X113273828Y-77176926D01*
X113137481Y-77233403D01*
X113044383Y-77304838D01*
X112979213Y-77330031D01*
X112910769Y-77315992D01*
X112893412Y-77304837D01*
X112800317Y-77233403D01*
X112663969Y-77176926D01*
X112663967Y-77176925D01*
X112517650Y-77157663D01*
X112517648Y-77157663D01*
X112371330Y-77176925D01*
X112371328Y-77176926D01*
X112234981Y-77233403D01*
X112117895Y-77323246D01*
X112028052Y-77440332D01*
X111971575Y-77576679D01*
X111971574Y-77576681D01*
X111952312Y-77722998D01*
X109365859Y-77722998D01*
X109457403Y-77652754D01*
X109547245Y-77535669D01*
X109603723Y-77399320D01*
X109622986Y-77253000D01*
X109613841Y-77183539D01*
X109603723Y-77106681D01*
X109603723Y-77106680D01*
X109547245Y-76970332D01*
X109547245Y-76970331D01*
X109457405Y-76853247D01*
X109340317Y-76763403D01*
X109203969Y-76706926D01*
X109203967Y-76706925D01*
X109057650Y-76687663D01*
X109057642Y-76687663D01*
X109053325Y-76688231D01*
X109049685Y-76687663D01*
X109049522Y-76687663D01*
X109049522Y-76687637D01*
X108984291Y-76677460D01*
X108932038Y-76631077D01*
X108913149Y-76565291D01*
X108913149Y-76474998D01*
X110742312Y-76474998D01*
X110742312Y-76475001D01*
X110761574Y-76621318D01*
X110761575Y-76621320D01*
X110818052Y-76757668D01*
X110838956Y-76784911D01*
X110907895Y-76874754D01*
X111024980Y-76964596D01*
X111161329Y-77021074D01*
X111234489Y-77030705D01*
X111307648Y-77040337D01*
X111307649Y-77040337D01*
X111307650Y-77040337D01*
X111356422Y-77033916D01*
X111453969Y-77021074D01*
X111590318Y-76964596D01*
X111707403Y-76874754D01*
X111797245Y-76757669D01*
X111853723Y-76621320D01*
X111858654Y-76583861D01*
X111886918Y-76519966D01*
X111945241Y-76481493D01*
X111949510Y-76480267D01*
X111953953Y-76479076D01*
X111953969Y-76479074D01*
X112090318Y-76422596D01*
X112207403Y-76332754D01*
X112297245Y-76215669D01*
X112353723Y-76079320D01*
X112372986Y-75933000D01*
X112367066Y-75888036D01*
X112353723Y-75786681D01*
X112353723Y-75786680D01*
X112297245Y-75650332D01*
X112297245Y-75650331D01*
X112207405Y-75533247D01*
X112090317Y-75443403D01*
X111953969Y-75386926D01*
X111953967Y-75386925D01*
X111807650Y-75367663D01*
X111807648Y-75367663D01*
X111661330Y-75386925D01*
X111661328Y-75386926D01*
X111524981Y-75443403D01*
X111407895Y-75533246D01*
X111318052Y-75650332D01*
X111261575Y-75786679D01*
X111261575Y-75786680D01*
X111256643Y-75824140D01*
X111228375Y-75888036D01*
X111170050Y-75926507D01*
X111165805Y-75927726D01*
X111161330Y-75928925D01*
X111024981Y-75985403D01*
X110907895Y-76075246D01*
X110818052Y-76192332D01*
X110761575Y-76328679D01*
X110761574Y-76328681D01*
X110742312Y-76474998D01*
X108913149Y-76474998D01*
X108913149Y-73472998D01*
X110242312Y-73472998D01*
X110242312Y-73473001D01*
X110261574Y-73619318D01*
X110261575Y-73619320D01*
X110318052Y-73755668D01*
X110318053Y-73755669D01*
X110407895Y-73872754D01*
X110524980Y-73962596D01*
X110661329Y-74019074D01*
X110734489Y-74028705D01*
X110807648Y-74038337D01*
X110807649Y-74038337D01*
X110807650Y-74038337D01*
X110856422Y-74031916D01*
X110953969Y-74019074D01*
X111090318Y-73962596D01*
X111207403Y-73872754D01*
X111297245Y-73755669D01*
X111353723Y-73619320D01*
X111372986Y-73473000D01*
X111353723Y-73326680D01*
X111316377Y-73236521D01*
X111297245Y-73190331D01*
X111207405Y-73073247D01*
X111090317Y-72983403D01*
X110953969Y-72926926D01*
X110953967Y-72926925D01*
X110807650Y-72907663D01*
X110807648Y-72907663D01*
X110661330Y-72926925D01*
X110661328Y-72926926D01*
X110524981Y-72983403D01*
X110407895Y-73073246D01*
X110318052Y-73190332D01*
X110261575Y-73326679D01*
X110261574Y-73326681D01*
X110242312Y-73472998D01*
X108913149Y-73472998D01*
X108913149Y-73100258D01*
X108932834Y-73033219D01*
X108985638Y-72987464D01*
X109053332Y-72977319D01*
X109175000Y-72993337D01*
X109175001Y-72993337D01*
X109250450Y-72983404D01*
X109321320Y-72974074D01*
X109457669Y-72917596D01*
X109574754Y-72827754D01*
X109664596Y-72710669D01*
X109721074Y-72574320D01*
X109723501Y-72555877D01*
X109751764Y-72491981D01*
X109798989Y-72457497D01*
X109895316Y-72417597D01*
X109895316Y-72417596D01*
X109895318Y-72417596D01*
X110012403Y-72327754D01*
X110102245Y-72210669D01*
X110158723Y-72074320D01*
X110177986Y-71928000D01*
X110171920Y-71881926D01*
X110158723Y-71781681D01*
X110158723Y-71781680D01*
X110112579Y-71670280D01*
X110102245Y-71645331D01*
X110012405Y-71528247D01*
X109895317Y-71438403D01*
X109758969Y-71381926D01*
X109758967Y-71381925D01*
X109612650Y-71362663D01*
X109612648Y-71362663D01*
X109466330Y-71381925D01*
X109466328Y-71381926D01*
X109329981Y-71438403D01*
X109212895Y-71528246D01*
X109135525Y-71629077D01*
X109079097Y-71670280D01*
X109009351Y-71674435D01*
X108948431Y-71640223D01*
X108915678Y-71578505D01*
X108913149Y-71553591D01*
X108913149Y-70610441D01*
X108932834Y-70543402D01*
X108985638Y-70497647D01*
X109053331Y-70487502D01*
X109097649Y-70493337D01*
X109243969Y-70474074D01*
X109380318Y-70417596D01*
X109497403Y-70327754D01*
X109587245Y-70210669D01*
X109643723Y-70074320D01*
X109662986Y-69928000D01*
X109661099Y-69913670D01*
X109643723Y-69781681D01*
X109643723Y-69781680D01*
X109610638Y-69701809D01*
X109587245Y-69645331D01*
X109497405Y-69528247D01*
X109380317Y-69438403D01*
X109243969Y-69381926D01*
X109243967Y-69381925D01*
X109097650Y-69362663D01*
X109097648Y-69362663D01*
X109053334Y-69368497D01*
X108984299Y-69357731D01*
X108932043Y-69311351D01*
X108913149Y-69245558D01*
X108913149Y-68988128D01*
X108932834Y-68921089D01*
X108949463Y-68900452D01*
X111360167Y-66489747D01*
X111421488Y-66456264D01*
X111491180Y-66461248D01*
X111523333Y-66479054D01*
X111524892Y-66480250D01*
X111524895Y-66480254D01*
X111641980Y-66570096D01*
X111778329Y-66626574D01*
X111791684Y-66628332D01*
X111855581Y-66656598D01*
X111894053Y-66714922D01*
X111899500Y-66751271D01*
X111899500Y-69952526D01*
X111899500Y-70097474D01*
X111937016Y-70237485D01*
X112009490Y-70363015D01*
X121164985Y-79518510D01*
X121290515Y-79590984D01*
X121430525Y-79628500D01*
X131667129Y-79628500D01*
X131734168Y-79648185D01*
X131779923Y-79700989D01*
X131789867Y-79770147D01*
X131760842Y-79833703D01*
X131754810Y-79840181D01*
X130808811Y-80786181D01*
X130747488Y-80819666D01*
X130721130Y-80822500D01*
X119393654Y-80822500D01*
X119258326Y-80849418D01*
X119258316Y-80849421D01*
X119130844Y-80902221D01*
X119130831Y-80902228D01*
X119016107Y-80978885D01*
X119016103Y-80978888D01*
X118918537Y-81076454D01*
X118918534Y-81076458D01*
X118841877Y-81191182D01*
X118841870Y-81191195D01*
X118789070Y-81318667D01*
X118789067Y-81318677D01*
X118762149Y-81454004D01*
X118762149Y-81454007D01*
X118762149Y-81591993D01*
X118762149Y-81591995D01*
X118762148Y-81591995D01*
X118789067Y-81727322D01*
X118789070Y-81727332D01*
X118841870Y-81854804D01*
X118841877Y-81854817D01*
X118918534Y-81969541D01*
X118918537Y-81969545D01*
X118964398Y-82015406D01*
X118997883Y-82076729D01*
X118992899Y-82146421D01*
X118975096Y-82178569D01*
X118968648Y-82186973D01*
X118957950Y-82199172D01*
X118640941Y-82516182D01*
X118579620Y-82549666D01*
X118553262Y-82552500D01*
X115986650Y-82552500D01*
X115919611Y-82532815D01*
X115873856Y-82480011D01*
X115863912Y-82410853D01*
X115872089Y-82381048D01*
X115907875Y-82294650D01*
X115928723Y-82244320D01*
X115947986Y-82098000D01*
X115946923Y-82089928D01*
X115931075Y-81969545D01*
X115928723Y-81951680D01*
X115895638Y-81871809D01*
X115872245Y-81815331D01*
X115782405Y-81698247D01*
X115665317Y-81608403D01*
X115528969Y-81551926D01*
X115528967Y-81551925D01*
X115382650Y-81532663D01*
X115382648Y-81532663D01*
X115236330Y-81551925D01*
X115236328Y-81551926D01*
X115099981Y-81608403D01*
X114982895Y-81698246D01*
X114893052Y-81815332D01*
X114836575Y-81951679D01*
X114836574Y-81951681D01*
X114817312Y-82097998D01*
X114817312Y-82098001D01*
X114836574Y-82244318D01*
X114836576Y-82244323D01*
X114893209Y-82381048D01*
X114900678Y-82450517D01*
X114869403Y-82512996D01*
X114809314Y-82548648D01*
X114778648Y-82552500D01*
X113986650Y-82552500D01*
X113919611Y-82532815D01*
X113873856Y-82480011D01*
X113863912Y-82410853D01*
X113872089Y-82381048D01*
X113907875Y-82294650D01*
X113928723Y-82244320D01*
X113947986Y-82098000D01*
X113946923Y-82089928D01*
X113931075Y-81969545D01*
X113928723Y-81951680D01*
X113895638Y-81871809D01*
X113872245Y-81815331D01*
X113782405Y-81698247D01*
X113665317Y-81608403D01*
X113528969Y-81551926D01*
X113528967Y-81551925D01*
X113382650Y-81532663D01*
X113382648Y-81532663D01*
X113236330Y-81551925D01*
X113236328Y-81551926D01*
X113099981Y-81608403D01*
X112982893Y-81698247D01*
X112981019Y-81700690D01*
X112978914Y-81702226D01*
X112977148Y-81703993D01*
X112976872Y-81703717D01*
X112924588Y-81741888D01*
X112854842Y-81746038D01*
X112793924Y-81711821D01*
X112784274Y-81700683D01*
X112782405Y-81698248D01*
X112782406Y-81698248D01*
X112665317Y-81608403D01*
X112528969Y-81551926D01*
X112528967Y-81551925D01*
X112382650Y-81532663D01*
X112382648Y-81532663D01*
X112236330Y-81551925D01*
X112236328Y-81551926D01*
X112099981Y-81608403D01*
X111982895Y-81698246D01*
X111893052Y-81815332D01*
X111836575Y-81951679D01*
X111836574Y-81951681D01*
X111817312Y-82097998D01*
X111817312Y-82098001D01*
X111836574Y-82244318D01*
X111836576Y-82244323D01*
X111893209Y-82381048D01*
X111900678Y-82450517D01*
X111869403Y-82512996D01*
X111809314Y-82548648D01*
X111778648Y-82552500D01*
X111672035Y-82552500D01*
X111604996Y-82532815D01*
X111584354Y-82516181D01*
X110862346Y-81794172D01*
X110851650Y-81781976D01*
X110824074Y-81746038D01*
X110809718Y-81727328D01*
X110787404Y-81698247D01*
X110670317Y-81608403D01*
X110533969Y-81551926D01*
X110533967Y-81551925D01*
X110387650Y-81532663D01*
X110387648Y-81532663D01*
X110241330Y-81551925D01*
X110241328Y-81551926D01*
X110104981Y-81608403D01*
X109987895Y-81698246D01*
X109898052Y-81815332D01*
X109841575Y-81951679D01*
X109841574Y-81951681D01*
X109822312Y-82097998D01*
X109822312Y-82098001D01*
X109841574Y-82244318D01*
X109841575Y-82244320D01*
X109898052Y-82380668D01*
X109898053Y-82380669D01*
X109987895Y-82497754D01*
X110059242Y-82552500D01*
X110071629Y-82562005D01*
X110083824Y-82572700D01*
X111054635Y-83543510D01*
X111180164Y-83615984D01*
X111320174Y-83653500D01*
X111320175Y-83653500D01*
X111320177Y-83653500D01*
X118905121Y-83653500D01*
X118905123Y-83653500D01*
X118905124Y-83653500D01*
X119045134Y-83615984D01*
X119170664Y-83543510D01*
X119736477Y-82977695D01*
X119748665Y-82967007D01*
X119832403Y-82902754D01*
X119922245Y-82785669D01*
X119978723Y-82649320D01*
X119997986Y-82503000D01*
X119997295Y-82497754D01*
X119979645Y-82363685D01*
X119990411Y-82294650D01*
X120036791Y-82242394D01*
X120102584Y-82223500D01*
X131131645Y-82223500D01*
X131253946Y-82199172D01*
X131266977Y-82196580D01*
X131330718Y-82170177D01*
X131394456Y-82143777D01*
X131394457Y-82143776D01*
X131394460Y-82143775D01*
X131509192Y-82067114D01*
X133376763Y-80199543D01*
X133376765Y-80199539D01*
X133380627Y-80194835D01*
X133381635Y-80195663D01*
X133430081Y-80155172D01*
X133499406Y-80146461D01*
X133562435Y-80176612D01*
X133599157Y-80236053D01*
X133603577Y-80268865D01*
X133603577Y-84203746D01*
X133603553Y-84203934D01*
X133603575Y-84244473D01*
X133603472Y-84249597D01*
X133585597Y-84687494D01*
X133584756Y-84697711D01*
X133531091Y-85130073D01*
X133529409Y-85140184D01*
X133440216Y-85566639D01*
X133437704Y-85576577D01*
X133313600Y-85994186D01*
X133310277Y-86003883D01*
X133152096Y-86409837D01*
X133147983Y-86419226D01*
X132956814Y-86810728D01*
X132951939Y-86819745D01*
X132729092Y-87194111D01*
X132723489Y-87202695D01*
X132470486Y-87557371D01*
X132464194Y-87565463D01*
X132182745Y-87898049D01*
X132175805Y-87905593D01*
X131867866Y-88213779D01*
X131860328Y-88220724D01*
X131527982Y-88502427D01*
X131519895Y-88508727D01*
X131165401Y-88762029D01*
X131156821Y-88767638D01*
X130782642Y-88990779D01*
X130773629Y-88995661D01*
X130382286Y-89187142D01*
X130372900Y-89191263D01*
X129967073Y-89349769D01*
X129957379Y-89353100D01*
X129539854Y-89477543D01*
X129529918Y-89480062D01*
X129103544Y-89569594D01*
X129093434Y-89571284D01*
X128661128Y-89625293D01*
X128650913Y-89626143D01*
X128345564Y-89638854D01*
X128212488Y-89644393D01*
X128207351Y-89644500D01*
X97755707Y-89644500D01*
X97755516Y-89644475D01*
X97739482Y-89644484D01*
X97738726Y-89644484D01*
X97714610Y-89644498D01*
X97709485Y-89644395D01*
X97271572Y-89626525D01*
X97261356Y-89625684D01*
X96828992Y-89572025D01*
X96818880Y-89570343D01*
X96392430Y-89481157D01*
X96382492Y-89478646D01*
X95964853Y-89354539D01*
X95955156Y-89351215D01*
X95549208Y-89193042D01*
X95539819Y-89188929D01*
X95148319Y-88997766D01*
X95139302Y-88992892D01*
X94997110Y-88908252D01*
X94764922Y-88770041D01*
X94756338Y-88764438D01*
X94401647Y-88511430D01*
X94393555Y-88505138D01*
X94060963Y-88223689D01*
X94053433Y-88216762D01*
X93745236Y-87908817D01*
X93738290Y-87901278D01*
X93726749Y-87887663D01*
X93658105Y-87806679D01*
X93456580Y-87568929D01*
X93450281Y-87560843D01*
X93196979Y-87206356D01*
X93191369Y-87197776D01*
X93156363Y-87139076D01*
X93812301Y-87139076D01*
X93812301Y-87306619D01*
X93844982Y-87470921D01*
X93844985Y-87470930D01*
X93909097Y-87625711D01*
X93909098Y-87625714D01*
X94002173Y-87765009D01*
X94002176Y-87765013D01*
X94120635Y-87883472D01*
X94120639Y-87883475D01*
X94259934Y-87976550D01*
X94259936Y-87976550D01*
X94259938Y-87976552D01*
X94414720Y-88040664D01*
X94414722Y-88040664D01*
X94414727Y-88040666D01*
X94579029Y-88073347D01*
X94579033Y-88073348D01*
X94579034Y-88073348D01*
X94746569Y-88073348D01*
X94746570Y-88073347D01*
X94801339Y-88062453D01*
X94910874Y-88040666D01*
X94910877Y-88040664D01*
X94910882Y-88040664D01*
X95065664Y-87976552D01*
X95204963Y-87883475D01*
X95204967Y-87883470D01*
X95209673Y-87879610D01*
X95211266Y-87881551D01*
X95262943Y-87853334D01*
X95289301Y-87850500D01*
X102678491Y-87850500D01*
X102745530Y-87870185D01*
X102791285Y-87922989D01*
X102801229Y-87992147D01*
X102798265Y-88006598D01*
X102798243Y-88006675D01*
X102798242Y-88006680D01*
X102798241Y-88006684D01*
X102798241Y-88006686D01*
X102778979Y-88152998D01*
X102778979Y-88153001D01*
X102798241Y-88299318D01*
X102798242Y-88299320D01*
X102854719Y-88435668D01*
X102854720Y-88435669D01*
X102944562Y-88552754D01*
X103061647Y-88642596D01*
X103197996Y-88699074D01*
X103271156Y-88708705D01*
X103344315Y-88718337D01*
X103344316Y-88718337D01*
X103344317Y-88718337D01*
X103393089Y-88711916D01*
X103490636Y-88699074D01*
X103626985Y-88642596D01*
X103744070Y-88552754D01*
X103833912Y-88435669D01*
X103890390Y-88299320D01*
X103909653Y-88153000D01*
X103890390Y-88006680D01*
X103890385Y-88006669D01*
X103890367Y-88006598D01*
X103890368Y-88006520D01*
X103889329Y-87998622D01*
X103890560Y-87998459D01*
X103892028Y-87936748D01*
X103931188Y-87878884D01*
X103995416Y-87851377D01*
X104010141Y-87850500D01*
X105590998Y-87850500D01*
X105658037Y-87870185D01*
X105678679Y-87886819D01*
X106605480Y-88813620D01*
X106605483Y-88813622D01*
X106605487Y-88813626D01*
X106744786Y-88906704D01*
X106744791Y-88906706D01*
X106899556Y-88970811D01*
X106899560Y-88970812D01*
X106899567Y-88970815D01*
X107035060Y-88997766D01*
X107063877Y-89003498D01*
X107063881Y-89003499D01*
X107063882Y-89003499D01*
X107231417Y-89003499D01*
X107231418Y-89003498D01*
X107295364Y-88990779D01*
X107395727Y-88970816D01*
X107395735Y-88970813D01*
X107415493Y-88962628D01*
X107550512Y-88906704D01*
X107689811Y-88813626D01*
X107689817Y-88813620D01*
X107689818Y-88813620D01*
X107808269Y-88695169D01*
X107808269Y-88695168D01*
X107808275Y-88695162D01*
X107901353Y-88555863D01*
X107965464Y-88401081D01*
X107984242Y-88306680D01*
X107998147Y-88236771D01*
X107998148Y-88236768D01*
X107998148Y-88069232D01*
X107998147Y-88069228D01*
X107985707Y-88006686D01*
X107975028Y-87952998D01*
X110382312Y-87952998D01*
X110382312Y-87953001D01*
X110401574Y-88099318D01*
X110401575Y-88099320D01*
X110458052Y-88235668D01*
X110478956Y-88262911D01*
X110547895Y-88352754D01*
X110664980Y-88442596D01*
X110801329Y-88499074D01*
X110847391Y-88505138D01*
X110947648Y-88518337D01*
X110947649Y-88518337D01*
X110947650Y-88518337D01*
X111000114Y-88511430D01*
X111093969Y-88499074D01*
X111205206Y-88452998D01*
X127567312Y-88452998D01*
X127567312Y-88453001D01*
X127586574Y-88599318D01*
X127586575Y-88599320D01*
X127643052Y-88735668D01*
X127643053Y-88735669D01*
X127732895Y-88852754D01*
X127849980Y-88942596D01*
X127986329Y-88999074D01*
X128019941Y-89003499D01*
X128132648Y-89018337D01*
X128132649Y-89018337D01*
X128132650Y-89018337D01*
X128181422Y-89011916D01*
X128278969Y-88999074D01*
X128415318Y-88942596D01*
X128532403Y-88852754D01*
X128622245Y-88735669D01*
X128678723Y-88599320D01*
X128691920Y-88499074D01*
X128697986Y-88453001D01*
X128697986Y-88452998D01*
X128684789Y-88352754D01*
X128678723Y-88306680D01*
X128622245Y-88170332D01*
X128622245Y-88170331D01*
X128532405Y-88053247D01*
X128415317Y-87963403D01*
X128278969Y-87906926D01*
X128278967Y-87906925D01*
X128132650Y-87887663D01*
X128132648Y-87887663D01*
X127986330Y-87906925D01*
X127986328Y-87906926D01*
X127849981Y-87963403D01*
X127732895Y-88053246D01*
X127643052Y-88170332D01*
X127586575Y-88306679D01*
X127586574Y-88306681D01*
X127567312Y-88452998D01*
X111205206Y-88452998D01*
X111230318Y-88442596D01*
X111347403Y-88352754D01*
X111437245Y-88235669D01*
X111493723Y-88099320D01*
X111511616Y-87963404D01*
X111512986Y-87953001D01*
X111512986Y-87952998D01*
X111493723Y-87806681D01*
X111493723Y-87806680D01*
X111437245Y-87670332D01*
X111437245Y-87670331D01*
X111347405Y-87553247D01*
X111230317Y-87463403D01*
X111093969Y-87406926D01*
X111093967Y-87406925D01*
X110947650Y-87387663D01*
X110947648Y-87387663D01*
X110801330Y-87406925D01*
X110801328Y-87406926D01*
X110664981Y-87463403D01*
X110547895Y-87553246D01*
X110458052Y-87670332D01*
X110401575Y-87806679D01*
X110401574Y-87806681D01*
X110382312Y-87952998D01*
X107975028Y-87952998D01*
X107965464Y-87904918D01*
X107965461Y-87904911D01*
X107965460Y-87904907D01*
X107901355Y-87750142D01*
X107901354Y-87750140D01*
X107901353Y-87750137D01*
X107808275Y-87610838D01*
X107808271Y-87610834D01*
X107808269Y-87610831D01*
X107808268Y-87610830D01*
X107420284Y-87222846D01*
X130537160Y-87222846D01*
X130537160Y-87222849D01*
X130556422Y-87369166D01*
X130556423Y-87369168D01*
X130612900Y-87505516D01*
X130612901Y-87505517D01*
X130702743Y-87622602D01*
X130819828Y-87712444D01*
X130956177Y-87768922D01*
X131029337Y-87778553D01*
X131102496Y-87788185D01*
X131102497Y-87788185D01*
X131102498Y-87788185D01*
X131151270Y-87781764D01*
X131248817Y-87768922D01*
X131385166Y-87712444D01*
X131502251Y-87622602D01*
X131592093Y-87505517D01*
X131648571Y-87369168D01*
X131667834Y-87222848D01*
X131648571Y-87076528D01*
X131592093Y-86940180D01*
X131592093Y-86940179D01*
X131502253Y-86823095D01*
X131385165Y-86733251D01*
X131248817Y-86676774D01*
X131248815Y-86676773D01*
X131102498Y-86657511D01*
X131102496Y-86657511D01*
X130956178Y-86676773D01*
X130956176Y-86676774D01*
X130819829Y-86733251D01*
X130702743Y-86823094D01*
X130612900Y-86940180D01*
X130556423Y-87076527D01*
X130556422Y-87076529D01*
X130537160Y-87222846D01*
X107420284Y-87222846D01*
X106536814Y-86339375D01*
X106536810Y-86339372D01*
X106397518Y-86246299D01*
X106397505Y-86246292D01*
X106254466Y-86187045D01*
X106254461Y-86187043D01*
X106242735Y-86182185D01*
X106242724Y-86182182D01*
X106078420Y-86149500D01*
X106078416Y-86149500D01*
X98091575Y-86149500D01*
X98024536Y-86129815D01*
X97978781Y-86077011D01*
X97968837Y-86007853D01*
X97997862Y-85944297D01*
X98056640Y-85906523D01*
X98059454Y-85905732D01*
X98253475Y-85853745D01*
X98315630Y-85828000D01*
X98315635Y-85827998D01*
X122494748Y-85827998D01*
X122494748Y-85828001D01*
X122514010Y-85974318D01*
X122514011Y-85974320D01*
X122570488Y-86110668D01*
X122570489Y-86110669D01*
X122660331Y-86227754D01*
X122777416Y-86317596D01*
X122913765Y-86374074D01*
X122986925Y-86383705D01*
X123060084Y-86393337D01*
X123060085Y-86393337D01*
X123060086Y-86393337D01*
X123108858Y-86386916D01*
X123206405Y-86374074D01*
X123342754Y-86317596D01*
X123353325Y-86309483D01*
X123418491Y-86284288D01*
X123476265Y-86293296D01*
X123603680Y-86346074D01*
X123676840Y-86355705D01*
X123749999Y-86365337D01*
X123750000Y-86365337D01*
X123750001Y-86365337D01*
X123798773Y-86358916D01*
X123896320Y-86346074D01*
X124032669Y-86289596D01*
X124149754Y-86199754D01*
X124239596Y-86082669D01*
X124296074Y-85946320D01*
X124315337Y-85800000D01*
X124296074Y-85653680D01*
X124242083Y-85523335D01*
X124239596Y-85517331D01*
X124149756Y-85400247D01*
X124032668Y-85310403D01*
X123896320Y-85253926D01*
X123896318Y-85253925D01*
X123750001Y-85234663D01*
X123749999Y-85234663D01*
X123603681Y-85253925D01*
X123603679Y-85253926D01*
X123467330Y-85310404D01*
X123456753Y-85318520D01*
X123391583Y-85343711D01*
X123333819Y-85334702D01*
X123206408Y-85281927D01*
X123206403Y-85281925D01*
X123060086Y-85262663D01*
X123060084Y-85262663D01*
X122913766Y-85281925D01*
X122913764Y-85281926D01*
X122777417Y-85338403D01*
X122660331Y-85428246D01*
X122570488Y-85545332D01*
X122514011Y-85681679D01*
X122514010Y-85681681D01*
X122494748Y-85827998D01*
X98315635Y-85827998D01*
X98458137Y-85768972D01*
X98458137Y-85768971D01*
X98458149Y-85768967D01*
X98650005Y-85658199D01*
X98825762Y-85523335D01*
X98825766Y-85523330D01*
X98825771Y-85523327D01*
X98982404Y-85366694D01*
X98982407Y-85366689D01*
X98982412Y-85366685D01*
X99117276Y-85190928D01*
X99228044Y-84999072D01*
X99312822Y-84794398D01*
X99323915Y-84752998D01*
X101854812Y-84752998D01*
X101854812Y-84753001D01*
X101874074Y-84899318D01*
X101874075Y-84899320D01*
X101930552Y-85035668D01*
X101930553Y-85035669D01*
X102020395Y-85152754D01*
X102137480Y-85242596D01*
X102273829Y-85299074D01*
X102346989Y-85308705D01*
X102420148Y-85318337D01*
X102420149Y-85318337D01*
X102420150Y-85318337D01*
X102480415Y-85310403D01*
X102566469Y-85299074D01*
X102702818Y-85242596D01*
X102819903Y-85152754D01*
X102909745Y-85035669D01*
X102966223Y-84899320D01*
X102985486Y-84753000D01*
X102966223Y-84606680D01*
X102909745Y-84470332D01*
X102909745Y-84470331D01*
X102819905Y-84353247D01*
X102702817Y-84263403D01*
X102566469Y-84206926D01*
X102566467Y-84206925D01*
X102420150Y-84187663D01*
X102420148Y-84187663D01*
X102273830Y-84206925D01*
X102273828Y-84206926D01*
X102137481Y-84263403D01*
X102020395Y-84353246D01*
X101930552Y-84470332D01*
X101874075Y-84606679D01*
X101874074Y-84606681D01*
X101854812Y-84752998D01*
X99323915Y-84752998D01*
X99370160Y-84580410D01*
X99399077Y-84360768D01*
X99399077Y-84139232D01*
X99370160Y-83919590D01*
X99312822Y-83705602D01*
X99275701Y-83615984D01*
X99228049Y-83500939D01*
X99228046Y-83500933D01*
X99228044Y-83500928D01*
X99117276Y-83309072D01*
X98982412Y-83133315D01*
X98982411Y-83133314D01*
X98982404Y-83133306D01*
X98825771Y-82976673D01*
X98825762Y-82976665D01*
X98650015Y-82841808D01*
X98650009Y-82841804D01*
X98650005Y-82841801D01*
X98609458Y-82818391D01*
X98458151Y-82731034D01*
X98458137Y-82731027D01*
X98253479Y-82646256D01*
X98253481Y-82646256D01*
X98139765Y-82615786D01*
X98039487Y-82588917D01*
X97990677Y-82582491D01*
X97819852Y-82560000D01*
X97819845Y-82560000D01*
X97598309Y-82560000D01*
X97598301Y-82560000D01*
X97403071Y-82585704D01*
X97378667Y-82588917D01*
X97313185Y-82606462D01*
X97164673Y-82646256D01*
X96960016Y-82731027D01*
X96960002Y-82731034D01*
X96768155Y-82841797D01*
X96768138Y-82841808D01*
X96592391Y-82976665D01*
X96435742Y-83133314D01*
X96300885Y-83309061D01*
X96300874Y-83309078D01*
X96190111Y-83500925D01*
X96190104Y-83500939D01*
X96105333Y-83705596D01*
X96047994Y-83919591D01*
X96019077Y-84139224D01*
X96019077Y-84360775D01*
X96033656Y-84471503D01*
X96047994Y-84580410D01*
X96076687Y-84687494D01*
X96105333Y-84794403D01*
X96190104Y-84999060D01*
X96190110Y-84999072D01*
X96300878Y-85190928D01*
X96300881Y-85190932D01*
X96300885Y-85190938D01*
X96435742Y-85366685D01*
X96435750Y-85366694D01*
X96592383Y-85523327D01*
X96592391Y-85523334D01*
X96592392Y-85523335D01*
X96653120Y-85569934D01*
X96768138Y-85658191D01*
X96768141Y-85658193D01*
X96768149Y-85658199D01*
X96960005Y-85768967D01*
X96960010Y-85768969D01*
X96960016Y-85768972D01*
X97164674Y-85853743D01*
X97164672Y-85853743D01*
X97164678Y-85853744D01*
X97164679Y-85853745D01*
X97358673Y-85905725D01*
X97418333Y-85942090D01*
X97448862Y-86004937D01*
X97440567Y-86074313D01*
X97396082Y-86128190D01*
X97329530Y-86149465D01*
X97326579Y-86149500D01*
X94801877Y-86149500D01*
X94637573Y-86182182D01*
X94637562Y-86182185D01*
X94625837Y-86187043D01*
X94625832Y-86187045D01*
X94482792Y-86246292D01*
X94482779Y-86246299D01*
X94343487Y-86339372D01*
X94343483Y-86339375D01*
X94002176Y-86680682D01*
X94002173Y-86680686D01*
X93909098Y-86819981D01*
X93909097Y-86819984D01*
X93844985Y-86974765D01*
X93844982Y-86974774D01*
X93812301Y-87139076D01*
X93156363Y-87139076D01*
X92968209Y-86823574D01*
X92963343Y-86814589D01*
X92771845Y-86423217D01*
X92767725Y-86413831D01*
X92638379Y-86082669D01*
X92609221Y-86008018D01*
X92605891Y-85998328D01*
X92481435Y-85580771D01*
X92478925Y-85570871D01*
X92389382Y-85144453D01*
X92387699Y-85134387D01*
X92333685Y-84702055D01*
X92332835Y-84691840D01*
X92314684Y-84255821D01*
X92314577Y-84250663D01*
X92314577Y-80924998D01*
X101634663Y-80924998D01*
X101634663Y-80925001D01*
X101653925Y-81071318D01*
X101653926Y-81071320D01*
X101710403Y-81207668D01*
X101710404Y-81207669D01*
X101800246Y-81324754D01*
X101917331Y-81414596D01*
X102053680Y-81471074D01*
X102126840Y-81480705D01*
X102199999Y-81490337D01*
X102200000Y-81490337D01*
X102200001Y-81490337D01*
X102248773Y-81483916D01*
X102346320Y-81471074D01*
X102482669Y-81414596D01*
X102599754Y-81324754D01*
X102689596Y-81207669D01*
X102746074Y-81071320D01*
X102765337Y-80925000D01*
X102746074Y-80778680D01*
X102689596Y-80642332D01*
X102689596Y-80642331D01*
X102599756Y-80525247D01*
X102482668Y-80435403D01*
X102346320Y-80378926D01*
X102346318Y-80378925D01*
X102200001Y-80359663D01*
X102199999Y-80359663D01*
X102053681Y-80378925D01*
X102053679Y-80378926D01*
X101917332Y-80435403D01*
X101800246Y-80525246D01*
X101710403Y-80642332D01*
X101653926Y-80778679D01*
X101653925Y-80778681D01*
X101634663Y-80924998D01*
X92314577Y-80924998D01*
X92314577Y-78749998D01*
X95834663Y-78749998D01*
X95834663Y-78750001D01*
X95853925Y-78896318D01*
X95853926Y-78896320D01*
X95910403Y-79032668D01*
X95910404Y-79032669D01*
X96000246Y-79149754D01*
X96117331Y-79239596D01*
X96253680Y-79296074D01*
X96265887Y-79297681D01*
X96399999Y-79315337D01*
X96400000Y-79315337D01*
X96400001Y-79315337D01*
X96442981Y-79309678D01*
X96546320Y-79296074D01*
X96546331Y-79296069D01*
X96546505Y-79296023D01*
X96546675Y-79296027D01*
X96554378Y-79295013D01*
X96554536Y-79296213D01*
X96616355Y-79297681D01*
X96654093Y-79317420D01*
X96656065Y-79318933D01*
X96656066Y-79318934D01*
X96773151Y-79408776D01*
X96909500Y-79465254D01*
X96948072Y-79470332D01*
X97055819Y-79484517D01*
X97055820Y-79484517D01*
X97055821Y-79484517D01*
X97104593Y-79478096D01*
X97202140Y-79465254D01*
X97338489Y-79408776D01*
X97455574Y-79318934D01*
X97541072Y-79207509D01*
X97597500Y-79166307D01*
X97667246Y-79162152D01*
X97688323Y-79170446D01*
X97688721Y-79169486D01*
X97732605Y-79187663D01*
X97832579Y-79229074D01*
X97905739Y-79238705D01*
X97978898Y-79248337D01*
X97978899Y-79248337D01*
X97978900Y-79248337D01*
X98027672Y-79241916D01*
X98125219Y-79229074D01*
X98261568Y-79172596D01*
X98378653Y-79082754D01*
X98468495Y-78965669D01*
X98524973Y-78829320D01*
X98544236Y-78683000D01*
X98524973Y-78536680D01*
X98491888Y-78456809D01*
X98468495Y-78400331D01*
X98378656Y-78283249D01*
X98378654Y-78283247D01*
X98378653Y-78283246D01*
X98294911Y-78218989D01*
X98282723Y-78208299D01*
X97615718Y-77541294D01*
X97582233Y-77479971D01*
X97579399Y-77453613D01*
X97579399Y-77199724D01*
X97580460Y-77183539D01*
X97594236Y-77078900D01*
X97594236Y-77078897D01*
X97574973Y-76932580D01*
X97574973Y-76932579D01*
X97518495Y-76796231D01*
X97518495Y-76796230D01*
X97428655Y-76679146D01*
X97311567Y-76589302D01*
X97175219Y-76532825D01*
X97175217Y-76532824D01*
X97028900Y-76513562D01*
X97028898Y-76513562D01*
X96882580Y-76532824D01*
X96882578Y-76532825D01*
X96746231Y-76589302D01*
X96629145Y-76679145D01*
X96539302Y-76796231D01*
X96482825Y-76932578D01*
X96482824Y-76932580D01*
X96463562Y-77078897D01*
X96463562Y-77078900D01*
X96477338Y-77183539D01*
X96478399Y-77199724D01*
X96478399Y-77805475D01*
X96496672Y-77873669D01*
X96515915Y-77945485D01*
X96549176Y-78003095D01*
X96565648Y-78070995D01*
X96542795Y-78137022D01*
X96487873Y-78180212D01*
X96425605Y-78188033D01*
X96400004Y-78184663D01*
X96399999Y-78184663D01*
X96253681Y-78203925D01*
X96253679Y-78203926D01*
X96117332Y-78260403D01*
X96000246Y-78350246D01*
X95910403Y-78467332D01*
X95853926Y-78603679D01*
X95853925Y-78603681D01*
X95834663Y-78749998D01*
X92314577Y-78749998D01*
X92314577Y-76804062D01*
X95105599Y-76804062D01*
X95105599Y-76804065D01*
X95124861Y-76950382D01*
X95124862Y-76950384D01*
X95181339Y-77086732D01*
X95202243Y-77113975D01*
X95271182Y-77203818D01*
X95388267Y-77293660D01*
X95524616Y-77350138D01*
X95597776Y-77359769D01*
X95670935Y-77369401D01*
X95670936Y-77369401D01*
X95670937Y-77369401D01*
X95719709Y-77362980D01*
X95817256Y-77350138D01*
X95953605Y-77293660D01*
X96070690Y-77203818D01*
X96160532Y-77086733D01*
X96217010Y-76950384D01*
X96236273Y-76804064D01*
X96217010Y-76657744D01*
X96169848Y-76543886D01*
X96160532Y-76521395D01*
X96070692Y-76404311D01*
X95953604Y-76314467D01*
X95817256Y-76257990D01*
X95817254Y-76257989D01*
X95670937Y-76238727D01*
X95670935Y-76238727D01*
X95524617Y-76257989D01*
X95524615Y-76257990D01*
X95388268Y-76314467D01*
X95271182Y-76404310D01*
X95181339Y-76521396D01*
X95124862Y-76657743D01*
X95124861Y-76657745D01*
X95105599Y-76804062D01*
X92314577Y-76804062D01*
X92314577Y-76047998D01*
X98897312Y-76047998D01*
X98897312Y-76048001D01*
X98916574Y-76194318D01*
X98916575Y-76194320D01*
X98973052Y-76330668D01*
X98973053Y-76330669D01*
X99062895Y-76447754D01*
X99179980Y-76537596D01*
X99316329Y-76594074D01*
X99389489Y-76603705D01*
X99462648Y-76613337D01*
X99462649Y-76613337D01*
X99462650Y-76613337D01*
X99511422Y-76606916D01*
X99608969Y-76594074D01*
X99745318Y-76537596D01*
X99862403Y-76447754D01*
X99952245Y-76330669D01*
X100008723Y-76194320D01*
X100027986Y-76048000D01*
X100017322Y-75966995D01*
X100612148Y-75966995D01*
X100639067Y-76102322D01*
X100639070Y-76102332D01*
X100691870Y-76229804D01*
X100691877Y-76229817D01*
X100768534Y-76344541D01*
X100768537Y-76344545D01*
X100866103Y-76442111D01*
X100866107Y-76442114D01*
X100980831Y-76518771D01*
X100980844Y-76518778D01*
X101041466Y-76543888D01*
X101108321Y-76571580D01*
X101108325Y-76571580D01*
X101108326Y-76571581D01*
X101243653Y-76598500D01*
X101243656Y-76598500D01*
X101381644Y-76598500D01*
X101472690Y-76580389D01*
X101516977Y-76571580D01*
X101615573Y-76530740D01*
X101644453Y-76518778D01*
X101644453Y-76518777D01*
X101644460Y-76518775D01*
X101759191Y-76442114D01*
X101856763Y-76344542D01*
X101933424Y-76229811D01*
X101937331Y-76220380D01*
X101981421Y-76113936D01*
X101986229Y-76102328D01*
X102013149Y-75966993D01*
X102013149Y-75532132D01*
X102032834Y-75465093D01*
X102085638Y-75419338D01*
X102153333Y-75409193D01*
X102200000Y-75415337D01*
X102200001Y-75415337D01*
X102248773Y-75408916D01*
X102346320Y-75396074D01*
X102482669Y-75339596D01*
X102599754Y-75249754D01*
X102689596Y-75132669D01*
X102746074Y-74996320D01*
X102765337Y-74850000D01*
X102761782Y-74823000D01*
X102761782Y-74822999D01*
X104957371Y-74822999D01*
X104957371Y-74823000D01*
X104976411Y-74979818D01*
X105032429Y-75127523D01*
X105122166Y-75257530D01*
X105240409Y-75362283D01*
X105240411Y-75362284D01*
X105380283Y-75435696D01*
X105533663Y-75473500D01*
X105533664Y-75473500D01*
X105691634Y-75473500D01*
X105845014Y-75435696D01*
X105883804Y-75415337D01*
X105984889Y-75362283D01*
X106103132Y-75257530D01*
X106192869Y-75127523D01*
X106248886Y-74979818D01*
X106267927Y-74823000D01*
X106248886Y-74666182D01*
X106192869Y-74518477D01*
X106103132Y-74388470D01*
X105984889Y-74283717D01*
X105984887Y-74283716D01*
X105984886Y-74283715D01*
X105845014Y-74210303D01*
X105691635Y-74172500D01*
X105691634Y-74172500D01*
X105533664Y-74172500D01*
X105533663Y-74172500D01*
X105380283Y-74210303D01*
X105240411Y-74283715D01*
X105161580Y-74353552D01*
X105138141Y-74374318D01*
X105122165Y-74388471D01*
X105032430Y-74518475D01*
X105032429Y-74518476D01*
X104976411Y-74666181D01*
X104957371Y-74822999D01*
X102761782Y-74822999D01*
X102746074Y-74703681D01*
X102746074Y-74703680D01*
X102689596Y-74567332D01*
X102689596Y-74567331D01*
X102599756Y-74450247D01*
X102482668Y-74360403D01*
X102346320Y-74303926D01*
X102346318Y-74303925D01*
X102200001Y-74284663D01*
X102199997Y-74284663D01*
X102153333Y-74290806D01*
X102084298Y-74280040D01*
X102032043Y-74233659D01*
X102013149Y-74167867D01*
X102013149Y-72164519D01*
X102032834Y-72097480D01*
X102049468Y-72076838D01*
X102178308Y-71947998D01*
X105822312Y-71947998D01*
X105822312Y-71948001D01*
X105841574Y-72094318D01*
X105841575Y-72094320D01*
X105898052Y-72230668D01*
X105898053Y-72230669D01*
X105987895Y-72347754D01*
X106104980Y-72437596D01*
X106241329Y-72494074D01*
X106314489Y-72503705D01*
X106387648Y-72513337D01*
X106387649Y-72513337D01*
X106387650Y-72513337D01*
X106436422Y-72506916D01*
X106533969Y-72494074D01*
X106670318Y-72437596D01*
X106787403Y-72347754D01*
X106877245Y-72230669D01*
X106933723Y-72094320D01*
X106946875Y-71994418D01*
X106952986Y-71948001D01*
X106952986Y-71947998D01*
X106933723Y-71801681D01*
X106933723Y-71801680D01*
X106889151Y-71694075D01*
X106877245Y-71665331D01*
X106787405Y-71548247D01*
X106670317Y-71458403D01*
X106533969Y-71401926D01*
X106533967Y-71401925D01*
X106387650Y-71382663D01*
X106387648Y-71382663D01*
X106241330Y-71401925D01*
X106241328Y-71401926D01*
X106104981Y-71458403D01*
X105987895Y-71548246D01*
X105898052Y-71665332D01*
X105841575Y-71801679D01*
X105841574Y-71801681D01*
X105822312Y-71947998D01*
X102178308Y-71947998D01*
X102531761Y-71594545D01*
X102531763Y-71594543D01*
X102608424Y-71479811D01*
X102661229Y-71352329D01*
X102688148Y-71216994D01*
X102688148Y-71079006D01*
X102661229Y-70943672D01*
X102608424Y-70816189D01*
X102531763Y-70701457D01*
X102531761Y-70701454D01*
X102434194Y-70603887D01*
X102375969Y-70564983D01*
X102319460Y-70527225D01*
X102319457Y-70527223D01*
X102319456Y-70527223D01*
X102191980Y-70474421D01*
X102191978Y-70474420D01*
X102191977Y-70474420D01*
X102191972Y-70474419D01*
X102191968Y-70474418D01*
X102056647Y-70447501D01*
X102056643Y-70447501D01*
X101918655Y-70447501D01*
X101918650Y-70447501D01*
X101783327Y-70474418D01*
X101783317Y-70474421D01*
X101655839Y-70527224D01*
X101541103Y-70603887D01*
X100768536Y-71376454D01*
X100691872Y-71491192D01*
X100639070Y-71618668D01*
X100639069Y-71618672D01*
X100624071Y-71694074D01*
X100612149Y-71754007D01*
X100612149Y-75966993D01*
X100612149Y-75966995D01*
X100612148Y-75966995D01*
X100017322Y-75966995D01*
X100008723Y-75901680D01*
X99961088Y-75786680D01*
X99952245Y-75765331D01*
X99862405Y-75648247D01*
X99745317Y-75558403D01*
X99608969Y-75501926D01*
X99608967Y-75501925D01*
X99462650Y-75482663D01*
X99462648Y-75482663D01*
X99316330Y-75501925D01*
X99316328Y-75501926D01*
X99179981Y-75558403D01*
X99062895Y-75648246D01*
X98973052Y-75765332D01*
X98916575Y-75901679D01*
X98916574Y-75901681D01*
X98897312Y-76047998D01*
X92314577Y-76047998D01*
X92314577Y-74227998D01*
X95132312Y-74227998D01*
X95132312Y-74228001D01*
X95151574Y-74374318D01*
X95151575Y-74374320D01*
X95208052Y-74510668D01*
X95208053Y-74510669D01*
X95297895Y-74627754D01*
X95414980Y-74717596D01*
X95551329Y-74774074D01*
X95624489Y-74783705D01*
X95697648Y-74793337D01*
X95697649Y-74793337D01*
X95697650Y-74793337D01*
X95746422Y-74786916D01*
X95843969Y-74774074D01*
X95980318Y-74717596D01*
X96097403Y-74627754D01*
X96187245Y-74510669D01*
X96243723Y-74374320D01*
X96262986Y-74228000D01*
X96260656Y-74210304D01*
X96243723Y-74081681D01*
X96243723Y-74081680D01*
X96187245Y-73945332D01*
X96187245Y-73945331D01*
X96097405Y-73828247D01*
X95980317Y-73738403D01*
X95843969Y-73681926D01*
X95843967Y-73681925D01*
X95697650Y-73662663D01*
X95697648Y-73662663D01*
X95551330Y-73681925D01*
X95551328Y-73681926D01*
X95414981Y-73738403D01*
X95297895Y-73828246D01*
X95208052Y-73945332D01*
X95151575Y-74081679D01*
X95151574Y-74081681D01*
X95132312Y-74227998D01*
X92314577Y-74227998D01*
X92314577Y-72672998D01*
X93822312Y-72672998D01*
X93822312Y-72673001D01*
X93841574Y-72819318D01*
X93841575Y-72819320D01*
X93898052Y-72955668D01*
X93918956Y-72982911D01*
X93987895Y-73072754D01*
X94104980Y-73162596D01*
X94241329Y-73219074D01*
X94314489Y-73228705D01*
X94387648Y-73238337D01*
X94387649Y-73238337D01*
X94387650Y-73238337D01*
X94436422Y-73231916D01*
X94533969Y-73219074D01*
X94670318Y-73162596D01*
X94787403Y-73072754D01*
X94877245Y-72955669D01*
X94933723Y-72819320D01*
X94952986Y-72673000D01*
X94951635Y-72662741D01*
X94937567Y-72555879D01*
X94933723Y-72526680D01*
X94877245Y-72390332D01*
X94877245Y-72390331D01*
X94787405Y-72273247D01*
X94670317Y-72183403D01*
X94533969Y-72126926D01*
X94533967Y-72126925D01*
X94387650Y-72107663D01*
X94387648Y-72107663D01*
X94241330Y-72126925D01*
X94241328Y-72126926D01*
X94104981Y-72183403D01*
X93987895Y-72273246D01*
X93898052Y-72390332D01*
X93841575Y-72526679D01*
X93841574Y-72526681D01*
X93822312Y-72672998D01*
X92314577Y-72672998D01*
X92314577Y-70885262D01*
X93880149Y-70885262D01*
X93880149Y-71030738D01*
X93917801Y-71171257D01*
X93990539Y-71297243D01*
X94093406Y-71400110D01*
X94219392Y-71472848D01*
X94359911Y-71510500D01*
X94359913Y-71510500D01*
X94505384Y-71510500D01*
X94505387Y-71510500D01*
X94645906Y-71472848D01*
X94771892Y-71400110D01*
X94874759Y-71297243D01*
X94947497Y-71171257D01*
X94985149Y-71030738D01*
X94985149Y-70885262D01*
X94947497Y-70744743D01*
X94874759Y-70618757D01*
X94771892Y-70515890D01*
X94656163Y-70449074D01*
X94645908Y-70443153D01*
X94645907Y-70443152D01*
X94645906Y-70443152D01*
X94505387Y-70405500D01*
X94359911Y-70405500D01*
X94219392Y-70443152D01*
X94219390Y-70443153D01*
X94219389Y-70443153D01*
X94093409Y-70515888D01*
X94093403Y-70515892D01*
X93990541Y-70618754D01*
X93990537Y-70618760D01*
X93917802Y-70744740D01*
X93917802Y-70744741D01*
X93917801Y-70744743D01*
X93880149Y-70885262D01*
X92314577Y-70885262D01*
X92314577Y-68917054D01*
X95262147Y-68917054D01*
X95301967Y-69065664D01*
X95303072Y-69069785D01*
X95325335Y-69108345D01*
X95344422Y-69141405D01*
X95382128Y-69206714D01*
X95382130Y-69206717D01*
X95500998Y-69325585D01*
X95501004Y-69325590D01*
X96071458Y-69896044D01*
X96104943Y-69957367D01*
X96099959Y-70027059D01*
X96082154Y-70059210D01*
X95993052Y-70175332D01*
X95936575Y-70311679D01*
X95936574Y-70311681D01*
X95917312Y-70457998D01*
X95917312Y-70458001D01*
X95936574Y-70604318D01*
X95936576Y-70604323D01*
X95987406Y-70727038D01*
X95994875Y-70796507D01*
X95971221Y-70849976D01*
X95898052Y-70945332D01*
X95841575Y-71081679D01*
X95841574Y-71081681D01*
X95822312Y-71227998D01*
X95822312Y-71228001D01*
X95841574Y-71374318D01*
X95841575Y-71374320D01*
X95898052Y-71510668D01*
X95898053Y-71510669D01*
X95987895Y-71627754D01*
X96104980Y-71717596D01*
X96241329Y-71774074D01*
X96299111Y-71781681D01*
X96387648Y-71793337D01*
X96387649Y-71793337D01*
X96387650Y-71793337D01*
X96436422Y-71786916D01*
X96533969Y-71774074D01*
X96670318Y-71717596D01*
X96787403Y-71627754D01*
X96877245Y-71510669D01*
X96933723Y-71374320D01*
X96952986Y-71228000D01*
X96933723Y-71081680D01*
X96907870Y-71019268D01*
X96900402Y-70949800D01*
X96931677Y-70887320D01*
X96991766Y-70851668D01*
X97061591Y-70854161D01*
X97084429Y-70864427D01*
X97115865Y-70882577D01*
X97268592Y-70923501D01*
X97268594Y-70923501D01*
X97434303Y-70923501D01*
X97434319Y-70923500D01*
X99374730Y-70923500D01*
X99374746Y-70923501D01*
X99382342Y-70923501D01*
X99540453Y-70923501D01*
X99540456Y-70923501D01*
X99693184Y-70882577D01*
X99743303Y-70853639D01*
X99830115Y-70803520D01*
X99941919Y-70691716D01*
X99941919Y-70691715D01*
X99959359Y-70674275D01*
X99959359Y-70674273D01*
X100114204Y-70519428D01*
X100175524Y-70485946D01*
X100245216Y-70490930D01*
X100277368Y-70508736D01*
X100314979Y-70537596D01*
X100371457Y-70560989D01*
X100451329Y-70594074D01*
X100524489Y-70603705D01*
X100597648Y-70613337D01*
X100597649Y-70613337D01*
X100597650Y-70613337D01*
X100646422Y-70606916D01*
X100743969Y-70594074D01*
X100880318Y-70537596D01*
X100997403Y-70447754D01*
X101087245Y-70330669D01*
X101088453Y-70327754D01*
X101120728Y-70249834D01*
X101164568Y-70195430D01*
X101219103Y-70174347D01*
X101243969Y-70171074D01*
X101380318Y-70114596D01*
X101497403Y-70024754D01*
X101587245Y-69907669D01*
X101589180Y-69902998D01*
X102514812Y-69902998D01*
X102514812Y-69903001D01*
X102534074Y-70049318D01*
X102534075Y-70049320D01*
X102590552Y-70185668D01*
X102609735Y-70210668D01*
X102680395Y-70302754D01*
X102797480Y-70392596D01*
X102933829Y-70449074D01*
X103001615Y-70457998D01*
X103080148Y-70468337D01*
X103080149Y-70468337D01*
X103080150Y-70468337D01*
X103128922Y-70461916D01*
X103226469Y-70449074D01*
X103362818Y-70392596D01*
X103479903Y-70302754D01*
X103569745Y-70185669D01*
X103569747Y-70185665D01*
X103573810Y-70178630D01*
X103576016Y-70179903D01*
X103611848Y-70135417D01*
X103678137Y-70113336D01*
X103730044Y-70122694D01*
X103861329Y-70177075D01*
X103914645Y-70184094D01*
X104007648Y-70196338D01*
X104007649Y-70196338D01*
X104007650Y-70196338D01*
X104056422Y-70189917D01*
X104153969Y-70177075D01*
X104290318Y-70120597D01*
X104407403Y-70030755D01*
X104497245Y-69913670D01*
X104553723Y-69777321D01*
X104571099Y-69645332D01*
X104572986Y-69631002D01*
X104572986Y-69630999D01*
X104556049Y-69502352D01*
X104553723Y-69484681D01*
X104511160Y-69381926D01*
X104497245Y-69348332D01*
X104407405Y-69231248D01*
X104290317Y-69141404D01*
X104153969Y-69084927D01*
X104153967Y-69084926D01*
X104007650Y-69065664D01*
X104007648Y-69065664D01*
X103861330Y-69084926D01*
X103861328Y-69084927D01*
X103724981Y-69141404D01*
X103607895Y-69231247D01*
X103518050Y-69348336D01*
X103513988Y-69355372D01*
X103511789Y-69354102D01*
X103475902Y-69398616D01*
X103409603Y-69420666D01*
X103357751Y-69411305D01*
X103226469Y-69356926D01*
X103226467Y-69356925D01*
X103080150Y-69337663D01*
X103080148Y-69337663D01*
X102933830Y-69356925D01*
X102933828Y-69356926D01*
X102797481Y-69413403D01*
X102680393Y-69503247D01*
X102674648Y-69508993D01*
X102672374Y-69506719D01*
X102628106Y-69539027D01*
X102579025Y-69541938D01*
X102590761Y-69564015D01*
X102584996Y-69633647D01*
X102583868Y-69636467D01*
X102534076Y-69756676D01*
X102534074Y-69756681D01*
X102514812Y-69902998D01*
X101589180Y-69902998D01*
X101643723Y-69771320D01*
X101646807Y-69747893D01*
X101675071Y-69684001D01*
X101733394Y-69645529D01*
X101803259Y-69644696D01*
X101817187Y-69649515D01*
X101829025Y-69654419D01*
X101902185Y-69664050D01*
X101975344Y-69673682D01*
X101975345Y-69673682D01*
X101975346Y-69673682D01*
X102024118Y-69667261D01*
X102121665Y-69654419D01*
X102258014Y-69597941D01*
X102375099Y-69508099D01*
X102375102Y-69508094D01*
X102380846Y-69502352D01*
X102383131Y-69504637D01*
X102427277Y-69472355D01*
X102476471Y-69469389D01*
X102464710Y-69447213D01*
X102470540Y-69377587D01*
X102471626Y-69374875D01*
X102479061Y-69356925D01*
X102521419Y-69254665D01*
X102540682Y-69108345D01*
X102533527Y-69054000D01*
X102521419Y-68962026D01*
X102521419Y-68962025D01*
X102466732Y-68830000D01*
X102464941Y-68825676D01*
X102375101Y-68708592D01*
X102258013Y-68618748D01*
X102121661Y-68562269D01*
X102116363Y-68560850D01*
X102056703Y-68524485D01*
X102026175Y-68461637D01*
X102034470Y-68392262D01*
X102060774Y-68353398D01*
X105444355Y-64969819D01*
X105505678Y-64936334D01*
X105532036Y-64933500D01*
X107225659Y-64933500D01*
X107292698Y-64953185D01*
X107338453Y-65005989D01*
X107348397Y-65075147D01*
X107343298Y-65093727D01*
X107343679Y-65093829D01*
X107341574Y-65101681D01*
X107322312Y-65247998D01*
X107322312Y-65248001D01*
X107341574Y-65394318D01*
X107341575Y-65394320D01*
X107398052Y-65530668D01*
X107398053Y-65530669D01*
X107487895Y-65647754D01*
X107604980Y-65737596D01*
X107741329Y-65794074D01*
X107814489Y-65803705D01*
X107887648Y-65813337D01*
X107887649Y-65813337D01*
X107887650Y-65813337D01*
X107956407Y-65804285D01*
X108033969Y-65794074D01*
X108170318Y-65737596D01*
X108287403Y-65647754D01*
X108377245Y-65530669D01*
X108433723Y-65394320D01*
X108452986Y-65248000D01*
X108433723Y-65101680D01*
X108377245Y-64965332D01*
X108377245Y-64965331D01*
X108287405Y-64848247D01*
X108170318Y-64758404D01*
X108140513Y-64746058D01*
X108086110Y-64702216D01*
X108064046Y-64635922D01*
X108073406Y-64584044D01*
X108096074Y-64529320D01*
X108100198Y-64497998D01*
X109242312Y-64497998D01*
X109242312Y-64498001D01*
X109261574Y-64644318D01*
X109261575Y-64644320D01*
X109318052Y-64780668D01*
X109318053Y-64780669D01*
X109407895Y-64897754D01*
X109524980Y-64987596D01*
X109661329Y-65044074D01*
X109734288Y-65053679D01*
X109807648Y-65063337D01*
X109807649Y-65063337D01*
X109807650Y-65063337D01*
X109880995Y-65053681D01*
X109953969Y-65044074D01*
X110090318Y-64987596D01*
X110207403Y-64897754D01*
X110297245Y-64780669D01*
X110353723Y-64644320D01*
X110372986Y-64498000D01*
X110353723Y-64351680D01*
X110312403Y-64251925D01*
X110297245Y-64215331D01*
X110207405Y-64098247D01*
X110090317Y-64008403D01*
X109953969Y-63951926D01*
X109953967Y-63951925D01*
X109807650Y-63932663D01*
X109807648Y-63932663D01*
X109661330Y-63951925D01*
X109661328Y-63951926D01*
X109524981Y-64008403D01*
X109407895Y-64098246D01*
X109318052Y-64215332D01*
X109261575Y-64351679D01*
X109261574Y-64351681D01*
X109242312Y-64497998D01*
X108100198Y-64497998D01*
X108115337Y-64383000D01*
X108105516Y-64308404D01*
X108096074Y-64236681D01*
X108096074Y-64236680D01*
X108039596Y-64100332D01*
X108039596Y-64100331D01*
X107949756Y-63983247D01*
X107832668Y-63893403D01*
X107696320Y-63836926D01*
X107696318Y-63836925D01*
X107550001Y-63817663D01*
X107549999Y-63817663D01*
X107445358Y-63831439D01*
X107429173Y-63832500D01*
X106960455Y-63832500D01*
X106893416Y-63812815D01*
X106847661Y-63760011D01*
X106837717Y-63690853D01*
X106866742Y-63627297D01*
X106872774Y-63620819D01*
X106930920Y-63562672D01*
X106930923Y-63562669D01*
X107002112Y-63456127D01*
X107051148Y-63337744D01*
X107076147Y-63212069D01*
X107076147Y-62421929D01*
X107076147Y-62421926D01*
X107051149Y-62296259D01*
X107051148Y-62296258D01*
X107051148Y-62296254D01*
X107026879Y-62237663D01*
X107015668Y-62210596D01*
X107002116Y-62177879D01*
X107002115Y-62177878D01*
X107002113Y-62177872D01*
X106963948Y-62120754D01*
X106930925Y-62071330D01*
X106930919Y-62071323D01*
X105389776Y-60530181D01*
X105356291Y-60468858D01*
X105361275Y-60399166D01*
X105403147Y-60343233D01*
X105468611Y-60318816D01*
X105477457Y-60318500D01*
X109929472Y-60318500D01*
X109929474Y-60318500D01*
X109929475Y-60318500D01*
X110069485Y-60280984D01*
X110078546Y-60275753D01*
X110084181Y-60272500D01*
X110156342Y-60230837D01*
X110195015Y-60208510D01*
X111759917Y-58643608D01*
X111821240Y-58610123D01*
X111847598Y-58607289D01*
X112276209Y-58607289D01*
X112343248Y-58626974D01*
X112389003Y-58679778D01*
X112398947Y-58748936D01*
X112369922Y-58812492D01*
X112363890Y-58818970D01*
X110602024Y-60580834D01*
X110602021Y-60580838D01*
X110508948Y-60720130D01*
X110508941Y-60720143D01*
X110463611Y-60829583D01*
X110444834Y-60874913D01*
X110444831Y-60874925D01*
X110412149Y-61039228D01*
X110412149Y-62181771D01*
X110444831Y-62346074D01*
X110444833Y-62346082D01*
X110508944Y-62500860D01*
X110602022Y-62640162D01*
X110720486Y-62758626D01*
X110764608Y-62788107D01*
X110859786Y-62851703D01*
X111014567Y-62915816D01*
X111178877Y-62948499D01*
X111178881Y-62948500D01*
X111178882Y-62948500D01*
X111346417Y-62948500D01*
X111346418Y-62948499D01*
X111510731Y-62915816D01*
X111665512Y-62851703D01*
X111804811Y-62758626D01*
X111923275Y-62640162D01*
X112016352Y-62500863D01*
X112080465Y-62346082D01*
X112113149Y-62181767D01*
X112113149Y-61526651D01*
X112132834Y-61459612D01*
X112149468Y-61438970D01*
X114435624Y-59152814D01*
X114435627Y-59152811D01*
X114528704Y-59013512D01*
X114576004Y-58899319D01*
X114583799Y-58880501D01*
X114592814Y-58858735D01*
X114592816Y-58858731D01*
X114625500Y-58694416D01*
X114625500Y-57866233D01*
X114606955Y-57772998D01*
X116676967Y-57772998D01*
X116676967Y-57773001D01*
X116697604Y-57929760D01*
X116697605Y-57929762D01*
X116758113Y-58075841D01*
X116854367Y-58201282D01*
X116979808Y-58297536D01*
X117125887Y-58358044D01*
X117204268Y-58368363D01*
X117282648Y-58378682D01*
X117282649Y-58378682D01*
X117282650Y-58378682D01*
X117334903Y-58371802D01*
X117439411Y-58358044D01*
X117585490Y-58297536D01*
X117710931Y-58201282D01*
X117807185Y-58075841D01*
X117867693Y-57929762D01*
X117888331Y-57773000D01*
X117867693Y-57616238D01*
X117807185Y-57470159D01*
X117710931Y-57344718D01*
X117585490Y-57248464D01*
X117439411Y-57187956D01*
X117439409Y-57187955D01*
X117282650Y-57167318D01*
X117282648Y-57167318D01*
X117125888Y-57187955D01*
X117125886Y-57187956D01*
X116979809Y-57248463D01*
X116854367Y-57344718D01*
X116758112Y-57470160D01*
X116697605Y-57616237D01*
X116697604Y-57616239D01*
X116676967Y-57772998D01*
X114606955Y-57772998D01*
X114592816Y-57701918D01*
X114528703Y-57547137D01*
X114488256Y-57486604D01*
X114435626Y-57407837D01*
X114317162Y-57289373D01*
X114177860Y-57196295D01*
X114023082Y-57132184D01*
X114023074Y-57132182D01*
X113858771Y-57099500D01*
X113858767Y-57099500D01*
X113691233Y-57099500D01*
X113691228Y-57099500D01*
X113526925Y-57132182D01*
X113526917Y-57132184D01*
X113372139Y-57196295D01*
X113232837Y-57289373D01*
X113114375Y-57407835D01*
X113104251Y-57422988D01*
X113085413Y-57451180D01*
X113031803Y-57495984D01*
X112982312Y-57506289D01*
X112793811Y-57506289D01*
X112726772Y-57486604D01*
X112681017Y-57433800D01*
X112673114Y-57406281D01*
X112672975Y-57406319D01*
X112670871Y-57398467D01*
X112614394Y-57262120D01*
X112524554Y-57145036D01*
X112407466Y-57055192D01*
X112315235Y-57016989D01*
X112260832Y-56973148D01*
X112248129Y-56949884D01*
X112233026Y-56913423D01*
X112209926Y-56857652D01*
X112120085Y-56740567D01*
X112002997Y-56650723D01*
X111866649Y-56594246D01*
X111866647Y-56594245D01*
X111720330Y-56574983D01*
X111720328Y-56574983D01*
X111574010Y-56594245D01*
X111574008Y-56594246D01*
X111437661Y-56650723D01*
X111320575Y-56740566D01*
X111230732Y-56857652D01*
X111174255Y-56993999D01*
X111174254Y-56994001D01*
X111154992Y-57140318D01*
X111154992Y-57140321D01*
X111174254Y-57286638D01*
X111174255Y-57286640D01*
X111230732Y-57422988D01*
X111248400Y-57446014D01*
X111273593Y-57511184D01*
X111259554Y-57579628D01*
X111234575Y-57609164D01*
X111235943Y-57610532D01*
X109665294Y-59181181D01*
X109603971Y-59214666D01*
X109577613Y-59217500D01*
X104092251Y-59217500D01*
X104025212Y-59197815D01*
X104023363Y-59196604D01*
X104015776Y-59191534D01*
X103897393Y-59142499D01*
X103897385Y-59142497D01*
X103771722Y-59117501D01*
X103771718Y-59117501D01*
X103643580Y-59117501D01*
X103643575Y-59117501D01*
X103517912Y-59142497D01*
X103517904Y-59142499D01*
X103399523Y-59191534D01*
X103310037Y-59251326D01*
X103243359Y-59272203D01*
X103175979Y-59253718D01*
X103129290Y-59201738D01*
X103126601Y-59195711D01*
X103107245Y-59148982D01*
X103082622Y-59116892D01*
X103017405Y-59031897D01*
X102900317Y-58942053D01*
X102763969Y-58885576D01*
X102763967Y-58885575D01*
X102617650Y-58866313D01*
X102617645Y-58866313D01*
X102578332Y-58871488D01*
X102509297Y-58860722D01*
X102457042Y-58814341D01*
X102438149Y-58748549D01*
X102438149Y-58577773D01*
X104980149Y-58577773D01*
X104980149Y-58678226D01*
X105009278Y-58748549D01*
X105018590Y-58771030D01*
X105089619Y-58842059D01*
X105182424Y-58880500D01*
X105182426Y-58880500D01*
X105282872Y-58880500D01*
X105282874Y-58880500D01*
X105375679Y-58842059D01*
X105446708Y-58771030D01*
X105485149Y-58678225D01*
X105485149Y-58577775D01*
X105485148Y-58577773D01*
X106980149Y-58577773D01*
X106980149Y-58678226D01*
X107009278Y-58748549D01*
X107018590Y-58771030D01*
X107089619Y-58842059D01*
X107182424Y-58880500D01*
X107182426Y-58880500D01*
X107282872Y-58880500D01*
X107282874Y-58880500D01*
X107375679Y-58842059D01*
X107446708Y-58771030D01*
X107485149Y-58678225D01*
X107485149Y-58577775D01*
X107446708Y-58484970D01*
X107375679Y-58413941D01*
X107282875Y-58375500D01*
X107282874Y-58375500D01*
X107182424Y-58375500D01*
X107182422Y-58375500D01*
X107089618Y-58413941D01*
X107018590Y-58484969D01*
X106980149Y-58577773D01*
X105485148Y-58577773D01*
X105446708Y-58484970D01*
X105375679Y-58413941D01*
X105282875Y-58375500D01*
X105282874Y-58375500D01*
X105182424Y-58375500D01*
X105182422Y-58375500D01*
X105089618Y-58413941D01*
X105018590Y-58484969D01*
X104980149Y-58577773D01*
X102438149Y-58577773D01*
X102438149Y-57393945D01*
X102438149Y-57393943D01*
X102397226Y-57241216D01*
X102366476Y-57187955D01*
X102318173Y-57104290D01*
X102318167Y-57104282D01*
X102206366Y-56992481D01*
X102206358Y-56992475D01*
X102069439Y-56913426D01*
X102069435Y-56913424D01*
X102069433Y-56913423D01*
X101916706Y-56872500D01*
X101758592Y-56872500D01*
X101605865Y-56913423D01*
X101605858Y-56913426D01*
X101468939Y-56992475D01*
X101468931Y-56992481D01*
X101357130Y-57104282D01*
X101357124Y-57104290D01*
X101278075Y-57241209D01*
X101278072Y-57241216D01*
X101237149Y-57393943D01*
X101237149Y-60547902D01*
X101217464Y-60614941D01*
X101200830Y-60635583D01*
X99685334Y-62151078D01*
X99624011Y-62184563D01*
X99554319Y-62179579D01*
X99499276Y-62138882D01*
X99487090Y-62123001D01*
X99437403Y-62058246D01*
X99378860Y-62013325D01*
X99320317Y-61968403D01*
X99183969Y-61911926D01*
X99183967Y-61911925D01*
X99037650Y-61892663D01*
X99037648Y-61892663D01*
X98891330Y-61911925D01*
X98891328Y-61911926D01*
X98754981Y-61968403D01*
X98637895Y-62058246D01*
X98548052Y-62175332D01*
X98491575Y-62311679D01*
X98491574Y-62311681D01*
X98472312Y-62457998D01*
X98472312Y-62458001D01*
X98491574Y-62604318D01*
X98491575Y-62604320D01*
X98497512Y-62618654D01*
X98497545Y-62618732D01*
X98505014Y-62688201D01*
X98473739Y-62750681D01*
X98444984Y-62773572D01*
X98368936Y-62817477D01*
X98368931Y-62817481D01*
X95382130Y-65804282D01*
X95382129Y-65804284D01*
X95339078Y-65878851D01*
X95303072Y-65941215D01*
X95262148Y-66093943D01*
X95262148Y-66093945D01*
X95262148Y-66262046D01*
X95262149Y-66262059D01*
X95262149Y-68751330D01*
X95262148Y-68751348D01*
X95262148Y-68917054D01*
X95262147Y-68917054D01*
X92314577Y-68917054D01*
X92314577Y-67702225D01*
X92334262Y-67635186D01*
X92387066Y-67589431D01*
X92456224Y-67579487D01*
X92519780Y-67608512D01*
X92553138Y-67654773D01*
X92585402Y-67732667D01*
X92599086Y-67750500D01*
X92675246Y-67849754D01*
X92792331Y-67939596D01*
X92928680Y-67996074D01*
X93001840Y-68005705D01*
X93074999Y-68015337D01*
X93075000Y-68015337D01*
X93075001Y-68015337D01*
X93123773Y-68008916D01*
X93221320Y-67996074D01*
X93357669Y-67939596D01*
X93428479Y-67885262D01*
X93880149Y-67885262D01*
X93880149Y-68030738D01*
X93917801Y-68171257D01*
X93990539Y-68297243D01*
X94093406Y-68400110D01*
X94219392Y-68472848D01*
X94359911Y-68510500D01*
X94359913Y-68510500D01*
X94505384Y-68510500D01*
X94505387Y-68510500D01*
X94645906Y-68472848D01*
X94771892Y-68400110D01*
X94874759Y-68297243D01*
X94947497Y-68171257D01*
X94985149Y-68030738D01*
X94985149Y-67885262D01*
X94947497Y-67744743D01*
X94874759Y-67618757D01*
X94771892Y-67515890D01*
X94645906Y-67443152D01*
X94505387Y-67405500D01*
X94359911Y-67405500D01*
X94219392Y-67443152D01*
X94219390Y-67443153D01*
X94219389Y-67443153D01*
X94093409Y-67515888D01*
X94093403Y-67515892D01*
X93990541Y-67618754D01*
X93990537Y-67618760D01*
X93917802Y-67744740D01*
X93917802Y-67744741D01*
X93917801Y-67744743D01*
X93880149Y-67885262D01*
X93428479Y-67885262D01*
X93474754Y-67849754D01*
X93564596Y-67732669D01*
X93621074Y-67596320D01*
X93640337Y-67450000D01*
X93639435Y-67443152D01*
X93621074Y-67303681D01*
X93621074Y-67303680D01*
X93577206Y-67197775D01*
X93564596Y-67167331D01*
X93474756Y-67050247D01*
X93357668Y-66960403D01*
X93221320Y-66903926D01*
X93221318Y-66903925D01*
X93075001Y-66884663D01*
X93074999Y-66884663D01*
X92928681Y-66903925D01*
X92928679Y-66903926D01*
X92792332Y-66960403D01*
X92675246Y-67050246D01*
X92585403Y-67167332D01*
X92553138Y-67245228D01*
X92509297Y-67299631D01*
X92443003Y-67321696D01*
X92375303Y-67304417D01*
X92327693Y-67253279D01*
X92314577Y-67197775D01*
X92314577Y-64328000D01*
X93157649Y-64328000D01*
X95247649Y-64328000D01*
X95247649Y-62428000D01*
X93157649Y-62428000D01*
X93157649Y-64328000D01*
X92314577Y-64328000D01*
X92314577Y-59603000D01*
X93157649Y-59603000D01*
X95247649Y-59603000D01*
X95247649Y-57703000D01*
X93157649Y-57703000D01*
X93157649Y-59603000D01*
X92314577Y-59603000D01*
X92314577Y-56097997D01*
X112882400Y-56097997D01*
X112882400Y-56098002D01*
X112901334Y-56266056D01*
X112957194Y-56425694D01*
X112957196Y-56425697D01*
X113047167Y-56568884D01*
X113047172Y-56568890D01*
X113166758Y-56688476D01*
X113166764Y-56688481D01*
X113309951Y-56778452D01*
X113309954Y-56778454D01*
X113309958Y-56778455D01*
X113309959Y-56778456D01*
X113382562Y-56803860D01*
X113469592Y-56834314D01*
X113637646Y-56853249D01*
X113637649Y-56853249D01*
X113637652Y-56853249D01*
X113805705Y-56834314D01*
X113805708Y-56834313D01*
X113965339Y-56778456D01*
X113965341Y-56778454D01*
X113965343Y-56778454D01*
X113965346Y-56778452D01*
X114108533Y-56688481D01*
X114108534Y-56688480D01*
X114108539Y-56688477D01*
X114228126Y-56568890D01*
X114318101Y-56425697D01*
X114318103Y-56425694D01*
X114318103Y-56425692D01*
X114318105Y-56425690D01*
X114373962Y-56266059D01*
X114373962Y-56266058D01*
X114373963Y-56266056D01*
X114392898Y-56098002D01*
X114392898Y-56097997D01*
X114373963Y-55929943D01*
X114318103Y-55770305D01*
X114318101Y-55770302D01*
X114228130Y-55627115D01*
X114228125Y-55627109D01*
X114108539Y-55507523D01*
X114108533Y-55507518D01*
X113965346Y-55417547D01*
X113965343Y-55417545D01*
X113805705Y-55361685D01*
X113637652Y-55342751D01*
X113637646Y-55342751D01*
X113469592Y-55361685D01*
X113309954Y-55417545D01*
X113309951Y-55417547D01*
X113166764Y-55507518D01*
X113166758Y-55507523D01*
X113047172Y-55627109D01*
X113047167Y-55627115D01*
X112957196Y-55770302D01*
X112957194Y-55770305D01*
X112901334Y-55929943D01*
X112882400Y-56097997D01*
X92314577Y-56097997D01*
X92314577Y-53797655D01*
X92314601Y-53797476D01*
X92314592Y-53780408D01*
X92314593Y-53780407D01*
X92314579Y-53755507D01*
X92314681Y-53750434D01*
X92319221Y-53639224D01*
X96019077Y-53639224D01*
X96019077Y-53860775D01*
X96041160Y-54028500D01*
X96047994Y-54080410D01*
X96083085Y-54211373D01*
X96105333Y-54294403D01*
X96190104Y-54499060D01*
X96190111Y-54499074D01*
X96231355Y-54570510D01*
X96300878Y-54690928D01*
X96300881Y-54690932D01*
X96300885Y-54690938D01*
X96435742Y-54866685D01*
X96435750Y-54866694D01*
X96592383Y-55023327D01*
X96592391Y-55023334D01*
X96768138Y-55158191D01*
X96768141Y-55158193D01*
X96768149Y-55158199D01*
X96960005Y-55268967D01*
X96960010Y-55268969D01*
X96960016Y-55268972D01*
X97164674Y-55353743D01*
X97164672Y-55353743D01*
X97164678Y-55353744D01*
X97164679Y-55353745D01*
X97378667Y-55411083D01*
X97598309Y-55440000D01*
X97598316Y-55440000D01*
X97819838Y-55440000D01*
X97819845Y-55440000D01*
X98039487Y-55411083D01*
X98253475Y-55353745D01*
X98322950Y-55324968D01*
X98458137Y-55268972D01*
X98458137Y-55268971D01*
X98458149Y-55268967D01*
X98650005Y-55158199D01*
X98825762Y-55023335D01*
X98825766Y-55023330D01*
X98825771Y-55023327D01*
X98861356Y-54987742D01*
X110121919Y-54987742D01*
X110121919Y-54987745D01*
X110141181Y-55134062D01*
X110141182Y-55134064D01*
X110197659Y-55270412D01*
X110207064Y-55282669D01*
X110287502Y-55387498D01*
X110404587Y-55477340D01*
X110540936Y-55533818D01*
X110614096Y-55543449D01*
X110687255Y-55553081D01*
X110687256Y-55553081D01*
X110687257Y-55553081D01*
X110736029Y-55546660D01*
X110833576Y-55533818D01*
X110969925Y-55477340D01*
X111087010Y-55387498D01*
X111103375Y-55366170D01*
X111159801Y-55324968D01*
X111229547Y-55320813D01*
X111290467Y-55355024D01*
X111300119Y-55366162D01*
X111316490Y-55387497D01*
X111325896Y-55399755D01*
X111378345Y-55440000D01*
X111442980Y-55489596D01*
X111579329Y-55546074D01*
X111632554Y-55553081D01*
X111725648Y-55565337D01*
X111725649Y-55565337D01*
X111725650Y-55565337D01*
X111818744Y-55553081D01*
X111871969Y-55546074D01*
X112008318Y-55489596D01*
X112125403Y-55399754D01*
X112215245Y-55282669D01*
X112271723Y-55146320D01*
X112290986Y-55000000D01*
X112289372Y-54987744D01*
X112271723Y-54853681D01*
X112271723Y-54853680D01*
X112215245Y-54717332D01*
X112215245Y-54717331D01*
X112125405Y-54600247D01*
X112008317Y-54510403D01*
X111871969Y-54453926D01*
X111871967Y-54453925D01*
X111725650Y-54434663D01*
X111725648Y-54434663D01*
X111579330Y-54453925D01*
X111579328Y-54453926D01*
X111442981Y-54510403D01*
X111325894Y-54600246D01*
X111309530Y-54621573D01*
X111253102Y-54662775D01*
X111183356Y-54666930D01*
X111122436Y-54632717D01*
X111112779Y-54621572D01*
X111087012Y-54587991D01*
X110969924Y-54498147D01*
X110833576Y-54441670D01*
X110833574Y-54441669D01*
X110687257Y-54422407D01*
X110687255Y-54422407D01*
X110540937Y-54441669D01*
X110540935Y-54441670D01*
X110404588Y-54498147D01*
X110287502Y-54587990D01*
X110197659Y-54705076D01*
X110141182Y-54841423D01*
X110141181Y-54841425D01*
X110121919Y-54987742D01*
X98861356Y-54987742D01*
X98982404Y-54866694D01*
X98982407Y-54866689D01*
X98982412Y-54866685D01*
X99117276Y-54690928D01*
X99228044Y-54499072D01*
X99246744Y-54453925D01*
X99312820Y-54294403D01*
X99312820Y-54294402D01*
X99312822Y-54294398D01*
X99370160Y-54080410D01*
X99399077Y-53860768D01*
X99399077Y-53639232D01*
X99370160Y-53419590D01*
X99359015Y-53377998D01*
X101660312Y-53377998D01*
X101660312Y-53378001D01*
X101679574Y-53524318D01*
X101679575Y-53524320D01*
X101736052Y-53660668D01*
X101741947Y-53668350D01*
X101825895Y-53777754D01*
X101942980Y-53867596D01*
X102079329Y-53924074D01*
X102152489Y-53933705D01*
X102225648Y-53943337D01*
X102225649Y-53943337D01*
X102225650Y-53943337D01*
X102274422Y-53936916D01*
X102371969Y-53924074D01*
X102508318Y-53867596D01*
X102625403Y-53777754D01*
X102715245Y-53660669D01*
X102771723Y-53524320D01*
X102790986Y-53378000D01*
X102790986Y-53377999D01*
X103470371Y-53377999D01*
X103470371Y-53378000D01*
X103489411Y-53534818D01*
X103537141Y-53660669D01*
X103545429Y-53682523D01*
X103635166Y-53812530D01*
X103753409Y-53917283D01*
X103753411Y-53917284D01*
X103893283Y-53990696D01*
X104046663Y-54028500D01*
X104046664Y-54028500D01*
X104204634Y-54028500D01*
X104358014Y-53990696D01*
X104497889Y-53917283D01*
X104616132Y-53812530D01*
X104705869Y-53682523D01*
X104761886Y-53534818D01*
X104780927Y-53378000D01*
X104780927Y-53377998D01*
X105460312Y-53377998D01*
X105460312Y-53378001D01*
X105479574Y-53524318D01*
X105479575Y-53524320D01*
X105536052Y-53660668D01*
X105541947Y-53668350D01*
X105625895Y-53777754D01*
X105742980Y-53867596D01*
X105879329Y-53924074D01*
X105952489Y-53933705D01*
X106025648Y-53943337D01*
X106025649Y-53943337D01*
X106025650Y-53943337D01*
X106074422Y-53936916D01*
X106171969Y-53924074D01*
X106308318Y-53867596D01*
X106425403Y-53777754D01*
X106515245Y-53660669D01*
X106571723Y-53524320D01*
X106590986Y-53378000D01*
X106590986Y-53377998D01*
X107360312Y-53377998D01*
X107360312Y-53378001D01*
X107379574Y-53524318D01*
X107379575Y-53524320D01*
X107436052Y-53660668D01*
X107441947Y-53668350D01*
X107525895Y-53777754D01*
X107642980Y-53867596D01*
X107779329Y-53924074D01*
X107852489Y-53933705D01*
X107925648Y-53943337D01*
X107925649Y-53943337D01*
X107925650Y-53943337D01*
X107974422Y-53936916D01*
X108071969Y-53924074D01*
X108208318Y-53867596D01*
X108325403Y-53777754D01*
X108415245Y-53660669D01*
X108471723Y-53524320D01*
X108490986Y-53378000D01*
X108490986Y-53377998D01*
X117017312Y-53377998D01*
X117017312Y-53378001D01*
X117036574Y-53524318D01*
X117036575Y-53524320D01*
X117093052Y-53660668D01*
X117098947Y-53668350D01*
X117182895Y-53777754D01*
X117299980Y-53867596D01*
X117436329Y-53924074D01*
X117509489Y-53933705D01*
X117582648Y-53943337D01*
X117582649Y-53943337D01*
X117582650Y-53943337D01*
X117631422Y-53936916D01*
X117728969Y-53924074D01*
X117865318Y-53867596D01*
X117982403Y-53777754D01*
X118072245Y-53660669D01*
X118128723Y-53524320D01*
X118147986Y-53378000D01*
X118128723Y-53231680D01*
X118072245Y-53095332D01*
X118072245Y-53095331D01*
X117982405Y-52978247D01*
X117865317Y-52888403D01*
X117728969Y-52831926D01*
X117728967Y-52831925D01*
X117582650Y-52812663D01*
X117582648Y-52812663D01*
X117436330Y-52831925D01*
X117436328Y-52831926D01*
X117299981Y-52888403D01*
X117182895Y-52978246D01*
X117093052Y-53095332D01*
X117036575Y-53231679D01*
X117036574Y-53231681D01*
X117017312Y-53377998D01*
X108490986Y-53377998D01*
X108471723Y-53231680D01*
X108415245Y-53095332D01*
X108415245Y-53095331D01*
X108325405Y-52978247D01*
X108208317Y-52888403D01*
X108071969Y-52831926D01*
X108071967Y-52831925D01*
X107925650Y-52812663D01*
X107925648Y-52812663D01*
X107779330Y-52831925D01*
X107779328Y-52831926D01*
X107642981Y-52888403D01*
X107525895Y-52978246D01*
X107436052Y-53095332D01*
X107379575Y-53231679D01*
X107379574Y-53231681D01*
X107360312Y-53377998D01*
X106590986Y-53377998D01*
X106571723Y-53231680D01*
X106515245Y-53095332D01*
X106515245Y-53095331D01*
X106425405Y-52978247D01*
X106308317Y-52888403D01*
X106171969Y-52831926D01*
X106171967Y-52831925D01*
X106025650Y-52812663D01*
X106025648Y-52812663D01*
X105879330Y-52831925D01*
X105879328Y-52831926D01*
X105742981Y-52888403D01*
X105625895Y-52978246D01*
X105536052Y-53095332D01*
X105479575Y-53231679D01*
X105479574Y-53231681D01*
X105460312Y-53377998D01*
X104780927Y-53377998D01*
X104761886Y-53221182D01*
X104755977Y-53205602D01*
X104714157Y-53095331D01*
X104705869Y-53073477D01*
X104616132Y-52943470D01*
X104497889Y-52838717D01*
X104497887Y-52838716D01*
X104497886Y-52838715D01*
X104358014Y-52765303D01*
X104204635Y-52727500D01*
X104204634Y-52727500D01*
X104046664Y-52727500D01*
X104046663Y-52727500D01*
X103893283Y-52765303D01*
X103753411Y-52838715D01*
X103635165Y-52943471D01*
X103545430Y-53073475D01*
X103545429Y-53073476D01*
X103489411Y-53221181D01*
X103470371Y-53377999D01*
X102790986Y-53377999D01*
X102771723Y-53231680D01*
X102715245Y-53095332D01*
X102715245Y-53095331D01*
X102625405Y-52978247D01*
X102508317Y-52888403D01*
X102371969Y-52831926D01*
X102371967Y-52831925D01*
X102225650Y-52812663D01*
X102225648Y-52812663D01*
X102079330Y-52831925D01*
X102079328Y-52831926D01*
X101942981Y-52888403D01*
X101825895Y-52978246D01*
X101736052Y-53095332D01*
X101679575Y-53231679D01*
X101679574Y-53231681D01*
X101660312Y-53377998D01*
X99359015Y-53377998D01*
X99312822Y-53205602D01*
X99267147Y-53095332D01*
X99228049Y-53000939D01*
X99228046Y-53000933D01*
X99228044Y-53000928D01*
X99117276Y-52809072D01*
X99083691Y-52765304D01*
X98982411Y-52633314D01*
X98982404Y-52633306D01*
X98825771Y-52476673D01*
X98825762Y-52476665D01*
X98650015Y-52341808D01*
X98650009Y-52341804D01*
X98650005Y-52341801D01*
X98458149Y-52231033D01*
X98458137Y-52231027D01*
X98253479Y-52146256D01*
X98253481Y-52146256D01*
X98139765Y-52115786D01*
X98039487Y-52088917D01*
X97990677Y-52082491D01*
X97819852Y-52060000D01*
X97819845Y-52060000D01*
X97598309Y-52060000D01*
X97598301Y-52060000D01*
X97403071Y-52085704D01*
X97378667Y-52088917D01*
X97313185Y-52106462D01*
X97164673Y-52146256D01*
X96960016Y-52231027D01*
X96960002Y-52231034D01*
X96768155Y-52341797D01*
X96768138Y-52341808D01*
X96592391Y-52476665D01*
X96435742Y-52633314D01*
X96300885Y-52809061D01*
X96300874Y-52809078D01*
X96190111Y-53000925D01*
X96190104Y-53000939D01*
X96105333Y-53205596D01*
X96047994Y-53419591D01*
X96019077Y-53639224D01*
X92319221Y-53639224D01*
X92332558Y-53312485D01*
X92333396Y-53302304D01*
X92387064Y-52869911D01*
X92388742Y-52859824D01*
X92477940Y-52433343D01*
X92480445Y-52423431D01*
X92604556Y-52005797D01*
X92607876Y-51996110D01*
X92766061Y-51590144D01*
X92770170Y-51580766D01*
X92857361Y-51402204D01*
X92961348Y-51189243D01*
X92966199Y-51180270D01*
X93189064Y-50805872D01*
X93194649Y-50797314D01*
X93204753Y-50783150D01*
X94097464Y-50783150D01*
X94097464Y-50783153D01*
X94116726Y-50929470D01*
X94116727Y-50929472D01*
X94173204Y-51065820D01*
X94173205Y-51065821D01*
X94263047Y-51182906D01*
X94380132Y-51272748D01*
X94516481Y-51329226D01*
X94589641Y-51338857D01*
X94662800Y-51348489D01*
X94662801Y-51348489D01*
X94662802Y-51348489D01*
X94711574Y-51342068D01*
X94809121Y-51329226D01*
X94945470Y-51272748D01*
X95062555Y-51182906D01*
X95152397Y-51065821D01*
X95208875Y-50929472D01*
X95228138Y-50783152D01*
X95228138Y-50783150D01*
X130537160Y-50783150D01*
X130537160Y-50783153D01*
X130556422Y-50929470D01*
X130556423Y-50929472D01*
X130612900Y-51065820D01*
X130612901Y-51065821D01*
X130702743Y-51182906D01*
X130819828Y-51272748D01*
X130956177Y-51329226D01*
X131029337Y-51338857D01*
X131102496Y-51348489D01*
X131102497Y-51348489D01*
X131102498Y-51348489D01*
X131151270Y-51342068D01*
X131248817Y-51329226D01*
X131385166Y-51272748D01*
X131502251Y-51182906D01*
X131592093Y-51065821D01*
X131648571Y-50929472D01*
X131667834Y-50783152D01*
X131648571Y-50636832D01*
X131592093Y-50500484D01*
X131592093Y-50500483D01*
X131502253Y-50383399D01*
X131385165Y-50293555D01*
X131248817Y-50237078D01*
X131248815Y-50237077D01*
X131102498Y-50217815D01*
X131102496Y-50217815D01*
X130956178Y-50237077D01*
X130956176Y-50237078D01*
X130819829Y-50293555D01*
X130702743Y-50383398D01*
X130612900Y-50500484D01*
X130556423Y-50636831D01*
X130556422Y-50636833D01*
X130537160Y-50783150D01*
X95228138Y-50783150D01*
X95208875Y-50636832D01*
X95152397Y-50500484D01*
X95152397Y-50500483D01*
X95062557Y-50383399D01*
X94945469Y-50293555D01*
X94809121Y-50237078D01*
X94809119Y-50237077D01*
X94662802Y-50217815D01*
X94662800Y-50217815D01*
X94516482Y-50237077D01*
X94516480Y-50237078D01*
X94380133Y-50293555D01*
X94263047Y-50383398D01*
X94173204Y-50500484D01*
X94116727Y-50636831D01*
X94116726Y-50636833D01*
X94097464Y-50783150D01*
X93204753Y-50783150D01*
X93447692Y-50442580D01*
X93453953Y-50434530D01*
X93735397Y-50101946D01*
X93742336Y-50094402D01*
X94050302Y-49786186D01*
X94057818Y-49779262D01*
X94324756Y-49552998D01*
X97067312Y-49552998D01*
X97067312Y-49553001D01*
X97086574Y-49699318D01*
X97086575Y-49699320D01*
X97143052Y-49835668D01*
X97143053Y-49835669D01*
X97232895Y-49952754D01*
X97349980Y-50042596D01*
X97486329Y-50099074D01*
X97559489Y-50108705D01*
X97632648Y-50118337D01*
X97632649Y-50118337D01*
X97632650Y-50118337D01*
X97681422Y-50111916D01*
X97778969Y-50099074D01*
X97915318Y-50042596D01*
X98032403Y-49952754D01*
X98051399Y-49927998D01*
X114217312Y-49927998D01*
X114217312Y-49928001D01*
X114236574Y-50074318D01*
X114236575Y-50074320D01*
X114293052Y-50210668D01*
X114293053Y-50210669D01*
X114382895Y-50327754D01*
X114499980Y-50417596D01*
X114636329Y-50474074D01*
X114709489Y-50483705D01*
X114782648Y-50493337D01*
X114782649Y-50493337D01*
X114782650Y-50493337D01*
X114831422Y-50486916D01*
X114928969Y-50474074D01*
X115065318Y-50417596D01*
X115182403Y-50327754D01*
X115272245Y-50210669D01*
X115328723Y-50074320D01*
X115347986Y-49928000D01*
X115328723Y-49781680D01*
X115272245Y-49645332D01*
X115272245Y-49645331D01*
X115201397Y-49552998D01*
X127567312Y-49552998D01*
X127567312Y-49553001D01*
X127586574Y-49699318D01*
X127586575Y-49699320D01*
X127643052Y-49835668D01*
X127643053Y-49835669D01*
X127732895Y-49952754D01*
X127849980Y-50042596D01*
X127986329Y-50099074D01*
X128059489Y-50108705D01*
X128132648Y-50118337D01*
X128132649Y-50118337D01*
X128132650Y-50118337D01*
X128181422Y-50111916D01*
X128278969Y-50099074D01*
X128415318Y-50042596D01*
X128532403Y-49952754D01*
X128622245Y-49835669D01*
X128678723Y-49699320D01*
X128697986Y-49553000D01*
X128690685Y-49497546D01*
X128678723Y-49406681D01*
X128678723Y-49406680D01*
X128622245Y-49270332D01*
X128622245Y-49270331D01*
X128532405Y-49153247D01*
X128415317Y-49063403D01*
X128278969Y-49006926D01*
X128278967Y-49006925D01*
X128132650Y-48987663D01*
X128132648Y-48987663D01*
X127986330Y-49006925D01*
X127986328Y-49006926D01*
X127849981Y-49063403D01*
X127732895Y-49153246D01*
X127643052Y-49270332D01*
X127586575Y-49406679D01*
X127586574Y-49406681D01*
X127567312Y-49552998D01*
X115201397Y-49552998D01*
X115182405Y-49528247D01*
X115065317Y-49438403D01*
X114928969Y-49381926D01*
X114928967Y-49381925D01*
X114782650Y-49362663D01*
X114782648Y-49362663D01*
X114636330Y-49381925D01*
X114636328Y-49381926D01*
X114499981Y-49438403D01*
X114382895Y-49528246D01*
X114293052Y-49645332D01*
X114236575Y-49781679D01*
X114236574Y-49781681D01*
X114217312Y-49927998D01*
X98051399Y-49927998D01*
X98122245Y-49835669D01*
X98178723Y-49699320D01*
X98197986Y-49553000D01*
X98190685Y-49497546D01*
X98178723Y-49406681D01*
X98178723Y-49406680D01*
X98122245Y-49270332D01*
X98122245Y-49270331D01*
X98032405Y-49153247D01*
X97915317Y-49063403D01*
X97778969Y-49006926D01*
X97778967Y-49006925D01*
X97632650Y-48987663D01*
X97632648Y-48987663D01*
X97486330Y-49006925D01*
X97486328Y-49006926D01*
X97349981Y-49063403D01*
X97232895Y-49153246D01*
X97143052Y-49270332D01*
X97086575Y-49406679D01*
X97086574Y-49406681D01*
X97067312Y-49552998D01*
X94324756Y-49552998D01*
X94390192Y-49497533D01*
X94398248Y-49491259D01*
X94752755Y-49237944D01*
X94761298Y-49232358D01*
X95135533Y-49009180D01*
X95144497Y-49004325D01*
X95535881Y-48812820D01*
X95545256Y-48808705D01*
X95951087Y-48650195D01*
X95960743Y-48646876D01*
X96378321Y-48522415D01*
X96388211Y-48519907D01*
X96814632Y-48430362D01*
X96824698Y-48428679D01*
X97257051Y-48374660D01*
X97267216Y-48373815D01*
X97704578Y-48355607D01*
X97709736Y-48355500D01*
X128162315Y-48355500D01*
X128162497Y-48355523D01*
G37*
%TD.AperFunction*%
%TA.AperFunction,Conductor*%
G36*
X126755437Y-71970185D02*
G01*
X126801192Y-72022989D01*
X126811136Y-72092147D01*
X126782111Y-72155703D01*
X126750399Y-72181886D01*
X126741971Y-72186752D01*
X126741962Y-72186758D01*
X126661405Y-72267315D01*
X126661400Y-72267321D01*
X126604438Y-72365982D01*
X126604437Y-72365986D01*
X126574949Y-72476036D01*
X126574949Y-72589968D01*
X126604437Y-72700018D01*
X126604438Y-72700021D01*
X126661400Y-72798682D01*
X126661402Y-72798684D01*
X126661403Y-72798686D01*
X126741965Y-72879248D01*
X126741966Y-72879249D01*
X126741968Y-72879250D01*
X126840629Y-72936212D01*
X126840630Y-72936212D01*
X126840633Y-72936214D01*
X126950683Y-72965702D01*
X126950686Y-72965702D01*
X127064612Y-72965702D01*
X127064615Y-72965702D01*
X127174665Y-72936214D01*
X127273333Y-72879248D01*
X127353895Y-72798686D01*
X127410861Y-72700018D01*
X127440349Y-72589968D01*
X127440349Y-72476036D01*
X127410861Y-72365986D01*
X127353895Y-72267318D01*
X127273333Y-72186756D01*
X127271341Y-72185606D01*
X127264899Y-72181886D01*
X127216684Y-72131319D01*
X127203462Y-72062712D01*
X127229430Y-71997847D01*
X127286345Y-71957319D01*
X127326900Y-71950500D01*
X128205262Y-71950500D01*
X128272301Y-71970185D01*
X128292943Y-71986819D01*
X132420060Y-76113936D01*
X132420061Y-76113937D01*
X132420063Y-76113938D01*
X132535642Y-76180667D01*
X132538718Y-76182442D01*
X132545590Y-76186410D01*
X132577226Y-76194887D01*
X132636885Y-76231251D01*
X132667414Y-76294098D01*
X132659119Y-76363474D01*
X132614634Y-76417352D01*
X132592584Y-76429222D01*
X132500841Y-76467223D01*
X132500831Y-76467228D01*
X132386107Y-76543885D01*
X132386103Y-76543888D01*
X132288537Y-76641454D01*
X132288534Y-76641458D01*
X132211877Y-76756182D01*
X132211870Y-76756195D01*
X132159070Y-76883667D01*
X132159067Y-76883677D01*
X132132149Y-77019004D01*
X132132149Y-78407406D01*
X132112464Y-78474445D01*
X132059660Y-78520200D01*
X131991964Y-78530345D01*
X131857650Y-78512663D01*
X131857648Y-78512663D01*
X131753007Y-78526439D01*
X131736822Y-78527500D01*
X121782387Y-78527500D01*
X121715348Y-78507815D01*
X121694706Y-78491181D01*
X116440046Y-73236521D01*
X116406561Y-73175198D01*
X116411545Y-73105506D01*
X116453417Y-73049573D01*
X116518881Y-73025156D01*
X116543907Y-73025900D01*
X116616799Y-73035497D01*
X116616800Y-73035497D01*
X116695348Y-73025156D01*
X116763119Y-73016234D01*
X116899468Y-72959756D01*
X117016553Y-72869914D01*
X117106395Y-72752829D01*
X117162873Y-72616480D01*
X117181362Y-72476038D01*
X117182136Y-72470161D01*
X117182136Y-72470158D01*
X117171627Y-72390331D01*
X117162873Y-72323840D01*
X117124935Y-72232252D01*
X117117467Y-72162786D01*
X117124932Y-72137358D01*
X117146074Y-72086320D01*
X117149761Y-72058313D01*
X117178028Y-71994418D01*
X117236353Y-71955947D01*
X117272700Y-71950500D01*
X126688398Y-71950500D01*
X126755437Y-71970185D01*
G37*
%TD.AperFunction*%
%TA.AperFunction,Conductor*%
G36*
X133528390Y-68859814D02*
G01*
X133582268Y-68904300D01*
X133603542Y-68970852D01*
X133603577Y-68973802D01*
X133603577Y-75501463D01*
X133583892Y-75568502D01*
X133531088Y-75614257D01*
X133461930Y-75624201D01*
X133398374Y-75595176D01*
X133360600Y-75536398D01*
X133359802Y-75533557D01*
X133358073Y-75527104D01*
X133347643Y-75501925D01*
X133320210Y-75435696D01*
X133301596Y-75390757D01*
X133211756Y-75273673D01*
X133172725Y-75243724D01*
X133094669Y-75183830D01*
X133094665Y-75183828D01*
X133094666Y-75183828D01*
X133036085Y-75159563D01*
X132995857Y-75132683D01*
X128822665Y-70959491D01*
X128822664Y-70959490D01*
X128697134Y-70887016D01*
X128686001Y-70884033D01*
X128686000Y-70884032D01*
X128587928Y-70857754D01*
X128557124Y-70849500D01*
X128557123Y-70849500D01*
X117536929Y-70849500D01*
X117469890Y-70829815D01*
X117424135Y-70777011D01*
X117413990Y-70741686D01*
X117412061Y-70727038D01*
X117408723Y-70701680D01*
X117380874Y-70634450D01*
X117373406Y-70564983D01*
X117380876Y-70539544D01*
X117407995Y-70474074D01*
X117408723Y-70472317D01*
X117427986Y-70325997D01*
X117426101Y-70311681D01*
X117408723Y-70179678D01*
X117408723Y-70179677D01*
X117354989Y-70049953D01*
X117347520Y-69980484D01*
X117378795Y-69918004D01*
X117438884Y-69882352D01*
X117469550Y-69878500D01*
X132380121Y-69878500D01*
X132380123Y-69878500D01*
X132380124Y-69878500D01*
X132520134Y-69840984D01*
X132544847Y-69826716D01*
X132645664Y-69768510D01*
X133265510Y-69148664D01*
X133337984Y-69023134D01*
X133359802Y-68941707D01*
X133396168Y-68882048D01*
X133459015Y-68851519D01*
X133528390Y-68859814D01*
G37*
%TD.AperFunction*%
%TA.AperFunction,Conductor*%
G36*
X132217539Y-63373185D02*
G01*
X132263294Y-63425989D01*
X132274500Y-63477500D01*
X132274500Y-68531262D01*
X132254815Y-68598301D01*
X132238181Y-68618943D01*
X132115943Y-68741181D01*
X132054620Y-68774666D01*
X132028262Y-68777500D01*
X116000387Y-68777500D01*
X115933348Y-68757815D01*
X115887593Y-68705011D01*
X115877649Y-68635853D01*
X115906674Y-68572297D01*
X115912706Y-68565819D01*
X116067542Y-68410983D01*
X116223159Y-68255366D01*
X116295633Y-68129836D01*
X116333149Y-67989826D01*
X116333149Y-67711036D01*
X116352834Y-67643997D01*
X116405638Y-67598242D01*
X116474796Y-67588298D01*
X116538352Y-67617323D01*
X116544830Y-67623355D01*
X116561985Y-67640510D01*
X116561987Y-67640511D01*
X116561991Y-67640514D01*
X116658201Y-67696060D01*
X116658203Y-67696061D01*
X116658207Y-67696063D01*
X116687515Y-67712984D01*
X116827525Y-67750500D01*
X116827526Y-67750500D01*
X116827528Y-67750500D01*
X125347472Y-67750500D01*
X125347474Y-67750500D01*
X125347475Y-67750500D01*
X125487485Y-67712984D01*
X125516792Y-67696063D01*
X125516794Y-67696063D01*
X125613008Y-67640514D01*
X125613007Y-67640514D01*
X125613015Y-67640510D01*
X126395316Y-66858207D01*
X126456637Y-66824724D01*
X126526328Y-66829708D01*
X126582262Y-66871579D01*
X126602768Y-66913789D01*
X126604436Y-66920016D01*
X126604438Y-66920019D01*
X126661400Y-67018680D01*
X126661402Y-67018682D01*
X126661403Y-67018684D01*
X126741965Y-67099246D01*
X126741966Y-67099247D01*
X126741968Y-67099248D01*
X126840629Y-67156210D01*
X126840630Y-67156210D01*
X126840633Y-67156212D01*
X126950683Y-67185700D01*
X126950686Y-67185700D01*
X127064612Y-67185700D01*
X127064615Y-67185700D01*
X127174665Y-67156212D01*
X127273333Y-67099246D01*
X127353895Y-67018684D01*
X127410861Y-66920016D01*
X127440349Y-66809966D01*
X127440349Y-66696034D01*
X127410861Y-66585984D01*
X127405680Y-66577011D01*
X127353897Y-66487319D01*
X127353892Y-66487313D01*
X127273335Y-66406756D01*
X127273329Y-66406751D01*
X127174668Y-66349789D01*
X127174665Y-66349787D01*
X127168438Y-66348119D01*
X127108780Y-66311750D01*
X127078255Y-66248901D01*
X127086554Y-66179526D01*
X127112855Y-66140668D01*
X129863706Y-63389819D01*
X129925029Y-63356334D01*
X129951387Y-63353500D01*
X132150500Y-63353500D01*
X132217539Y-63373185D01*
G37*
%TD.AperFunction*%
%TA.AperFunction,Conductor*%
G36*
X122558784Y-60122251D02*
G01*
X122613826Y-60162946D01*
X122700386Y-60275754D01*
X122707201Y-60280983D01*
X122708847Y-60282246D01*
X122750050Y-60338674D01*
X122754205Y-60408420D01*
X122721042Y-60468303D01*
X120384489Y-62804856D01*
X120367725Y-62833894D01*
X120335138Y-62890337D01*
X120312016Y-62930386D01*
X120274500Y-63070396D01*
X120274500Y-63070398D01*
X120274500Y-66304173D01*
X120273439Y-66320358D01*
X120259663Y-66424998D01*
X120259663Y-66425001D01*
X120270763Y-66509315D01*
X120259997Y-66578350D01*
X120213617Y-66630606D01*
X120147824Y-66649500D01*
X117179387Y-66649500D01*
X117112348Y-66629815D01*
X117091706Y-66613181D01*
X116626016Y-66147491D01*
X116626015Y-66147490D01*
X116500485Y-66075016D01*
X116500480Y-66075014D01*
X116459609Y-66064062D01*
X116459609Y-66064063D01*
X116410041Y-66050781D01*
X116360475Y-66037500D01*
X116360474Y-66037500D01*
X114442387Y-66037500D01*
X114375348Y-66017815D01*
X114354706Y-66001181D01*
X114315706Y-65962181D01*
X114282221Y-65900858D01*
X114287205Y-65831166D01*
X114329077Y-65775233D01*
X114394541Y-65750816D01*
X114403387Y-65750500D01*
X116404173Y-65750500D01*
X116420358Y-65751561D01*
X116524999Y-65765337D01*
X116525000Y-65765337D01*
X116525001Y-65765337D01*
X116573773Y-65758916D01*
X116671320Y-65746074D01*
X116807669Y-65689596D01*
X116924754Y-65599754D01*
X117014596Y-65482669D01*
X117071074Y-65346320D01*
X117090337Y-65200000D01*
X117090041Y-65197754D01*
X117071074Y-65053681D01*
X117071074Y-65053680D01*
X117014596Y-64917332D01*
X117014596Y-64917331D01*
X116924756Y-64800247D01*
X116921825Y-64797998D01*
X118662312Y-64797998D01*
X118662312Y-64798001D01*
X118681574Y-64944318D01*
X118681575Y-64944320D01*
X118738052Y-65080668D01*
X118738053Y-65080669D01*
X118827895Y-65197754D01*
X118944980Y-65287596D01*
X119081329Y-65344074D01*
X119154489Y-65353705D01*
X119227648Y-65363337D01*
X119227649Y-65363337D01*
X119227650Y-65363337D01*
X119276422Y-65356916D01*
X119373969Y-65344074D01*
X119510318Y-65287596D01*
X119627403Y-65197754D01*
X119717245Y-65080669D01*
X119773723Y-64944320D01*
X119792986Y-64798000D01*
X119790704Y-64780669D01*
X119775486Y-64665070D01*
X119773723Y-64651680D01*
X119723039Y-64529320D01*
X119717245Y-64515331D01*
X119627405Y-64398247D01*
X119510317Y-64308403D01*
X119373969Y-64251926D01*
X119373967Y-64251925D01*
X119227650Y-64232663D01*
X119227648Y-64232663D01*
X119081330Y-64251925D01*
X119081328Y-64251926D01*
X118944981Y-64308403D01*
X118827895Y-64398246D01*
X118738052Y-64515332D01*
X118681575Y-64651679D01*
X118681574Y-64651681D01*
X118662312Y-64797998D01*
X116921825Y-64797998D01*
X116807668Y-64710403D01*
X116671320Y-64653926D01*
X116671318Y-64653925D01*
X116525001Y-64634663D01*
X116524999Y-64634663D01*
X116420358Y-64648439D01*
X116404173Y-64649500D01*
X113499778Y-64649500D01*
X113432739Y-64629815D01*
X113386984Y-64577011D01*
X113377040Y-64507853D01*
X113406065Y-64444297D01*
X113412097Y-64437819D01*
X113806918Y-64042998D01*
X115061809Y-62788105D01*
X115123130Y-62754622D01*
X115192821Y-62759606D01*
X115217871Y-62773478D01*
X115217943Y-62773354D01*
X115224897Y-62777369D01*
X115224971Y-62777410D01*
X115224978Y-62777415D01*
X115224979Y-62777415D01*
X115224980Y-62777416D01*
X115361329Y-62833894D01*
X115434489Y-62843525D01*
X115507648Y-62853157D01*
X115507649Y-62853157D01*
X115507650Y-62853157D01*
X115556422Y-62846736D01*
X115653969Y-62833894D01*
X115790318Y-62777416D01*
X115814434Y-62758910D01*
X115879600Y-62733716D01*
X115937371Y-62742724D01*
X116061329Y-62794070D01*
X116134489Y-62803701D01*
X116207648Y-62813333D01*
X116207649Y-62813333D01*
X116207650Y-62813333D01*
X116257227Y-62806806D01*
X116353969Y-62794070D01*
X116490318Y-62737592D01*
X116607403Y-62647750D01*
X116629730Y-62618652D01*
X116686156Y-62577450D01*
X116755902Y-62573295D01*
X116816822Y-62607506D01*
X116826481Y-62618653D01*
X116842986Y-62640162D01*
X116907895Y-62724754D01*
X117024980Y-62814596D01*
X117161329Y-62871074D01*
X117203008Y-62876561D01*
X117307648Y-62890337D01*
X117307649Y-62890337D01*
X117307650Y-62890337D01*
X117412291Y-62876561D01*
X117428476Y-62875500D01*
X119547472Y-62875500D01*
X119547474Y-62875500D01*
X119547475Y-62875500D01*
X119687485Y-62837984D01*
X119694569Y-62833894D01*
X119813015Y-62765510D01*
X122427772Y-60150750D01*
X122489093Y-60117267D01*
X122558784Y-60122251D01*
G37*
%TD.AperFunction*%
%TD*%
M02*
