%TF.GenerationSoftware,KiCad,Pcbnew,8.0.5*%
%TF.CreationDate,2025-04-03T18:32:19+07:00*%
%TF.ProjectId,ZenFly F71,5a656e46-6c79-4204-9637-312e6b696361,rev?*%
%TF.SameCoordinates,Original*%
%TF.FileFunction,Drillmap*%
%TF.FilePolarity,Positive*%
%FSLAX45Y45*%
G04 Gerber Fmt 4.5, Leading zero omitted, Abs format (unit mm)*
G04 Created by KiCad (PCBNEW 8.0.5) date 2025-04-03 18:32:19*
%MOMM*%
%LPD*%
G01*
G04 APERTURE LIST*
%ADD10C,0.050000*%
%ADD11C,0.200000*%
%ADD12C,0.100000*%
G04 APERTURE END LIST*
D10*
X9221208Y-5375300D02*
G75*
G02*
X9770765Y-4825298I549702J300D01*
G01*
X9221208Y-5375300D02*
X9221208Y-8425143D01*
X13370608Y-8424700D02*
X13370608Y-5374857D01*
X9771208Y-8974700D02*
X12821051Y-8974700D01*
X9771208Y-8974700D02*
G75*
G02*
X9221200Y-8425143I-308J549700D01*
G01*
X9770765Y-4825300D02*
X12820608Y-4825300D01*
X12820608Y-4825300D02*
G75*
G02*
X13370600Y-5374857I292J-549700D01*
G01*
X13370608Y-8424700D02*
G75*
G02*
X12821051Y-8974698I-549698J-300D01*
G01*
D11*
D12*
X9297500Y-6735000D02*
X9317500Y-6755000D01*
X9317500Y-6735000D02*
X9297500Y-6755000D01*
X9333265Y-5365300D02*
X9353265Y-5385300D01*
X9353265Y-5365300D02*
X9333265Y-5385300D01*
X9410765Y-6615300D02*
X9430765Y-6635300D01*
X9430765Y-6615300D02*
X9410765Y-6635300D01*
X9428765Y-7257300D02*
X9448765Y-7277300D01*
X9448765Y-7257300D02*
X9428765Y-7277300D01*
X9456280Y-5068315D02*
X9476280Y-5088315D01*
X9476280Y-5068315D02*
X9456280Y-5088315D01*
X9456280Y-8712285D02*
X9476280Y-8732285D01*
X9476280Y-8712285D02*
X9456280Y-8732285D01*
X9461265Y-8031925D02*
X9481265Y-8051925D01*
X9481265Y-8031925D02*
X9461265Y-8051925D01*
X9462500Y-7759425D02*
X9482500Y-7779425D01*
X9482500Y-7759425D02*
X9462500Y-7779425D01*
X9536265Y-7019800D02*
X9556265Y-7039800D01*
X9556265Y-7019800D02*
X9536265Y-7039800D01*
X9557094Y-7670406D02*
X9577094Y-7690406D01*
X9577094Y-7670406D02*
X9557094Y-7690406D01*
X9559765Y-7412800D02*
X9579765Y-7432800D01*
X9579765Y-7412800D02*
X9559765Y-7432800D01*
X9628765Y-7112800D02*
X9648765Y-7132800D01*
X9648765Y-7112800D02*
X9628765Y-7132800D01*
X9630000Y-7865000D02*
X9650000Y-7885000D01*
X9650000Y-7865000D02*
X9630000Y-7885000D01*
X9638265Y-6935800D02*
X9658265Y-6955800D01*
X9658265Y-6935800D02*
X9638265Y-6955800D01*
X9638265Y-7035800D02*
X9658265Y-7055800D01*
X9658265Y-7035800D02*
X9638265Y-7055800D01*
X9666390Y-6621800D02*
X9686390Y-6641800D01*
X9686390Y-6621800D02*
X9666390Y-6641800D01*
X9666390Y-6714550D02*
X9686390Y-6734550D01*
X9686390Y-6714550D02*
X9666390Y-6734550D01*
X9681390Y-6286800D02*
X9701390Y-6306800D01*
X9701390Y-6286800D02*
X9681390Y-6306800D01*
X9692890Y-7697890D02*
X9712890Y-7717890D01*
X9712890Y-7697890D02*
X9692890Y-7717890D01*
X9695582Y-7881918D02*
X9715582Y-7901918D01*
X9715582Y-7881918D02*
X9695582Y-7901918D01*
X9753265Y-4945300D02*
X9773265Y-4965300D01*
X9773265Y-4945300D02*
X9753265Y-4965300D01*
X9773765Y-6809800D02*
X9793765Y-6829800D01*
X9793765Y-6809800D02*
X9773765Y-6829800D01*
X9787890Y-7748300D02*
X9807890Y-7768300D01*
X9807890Y-7748300D02*
X9787890Y-7768300D01*
X9787890Y-7858300D02*
X9807890Y-7878300D01*
X9807890Y-7858300D02*
X9787890Y-7878300D01*
X9809015Y-6579800D02*
X9829015Y-6599800D01*
X9829015Y-6579800D02*
X9809015Y-6599800D01*
X9811515Y-6941800D02*
X9831515Y-6961800D01*
X9831515Y-6941800D02*
X9811515Y-6961800D01*
X9886515Y-7350300D02*
X9906515Y-7370300D01*
X9906515Y-7350300D02*
X9886515Y-7370300D01*
X9893765Y-6235800D02*
X9913765Y-6255800D01*
X9913765Y-6235800D02*
X9893765Y-6255800D01*
X9893765Y-6319800D02*
X9913765Y-6339800D01*
X9913765Y-6319800D02*
X9893765Y-6339800D01*
X9936265Y-7594800D02*
X9956265Y-7614800D01*
X9956265Y-7594800D02*
X9936265Y-7614800D01*
X9965765Y-6899925D02*
X9985765Y-6919925D01*
X9985765Y-6899925D02*
X9965765Y-6919925D01*
X9965765Y-6992675D02*
X9985765Y-7012675D01*
X9985765Y-6992675D02*
X9965765Y-7012675D01*
X10040597Y-6887632D02*
X10060597Y-6907632D01*
X10060597Y-6887632D02*
X10040597Y-6907632D01*
X10049765Y-6994800D02*
X10069765Y-7014800D01*
X10069765Y-6994800D02*
X10049765Y-7014800D01*
X10099765Y-6952500D02*
X10119765Y-6972500D01*
X10119765Y-6952500D02*
X10099765Y-6972500D01*
X10103765Y-6839800D02*
X10123765Y-6859800D01*
X10123765Y-6839800D02*
X10103765Y-6859800D01*
X10121265Y-7579800D02*
X10141265Y-7599800D01*
X10141265Y-7579800D02*
X10121265Y-7599800D01*
X10173765Y-5737300D02*
X10193765Y-5757300D01*
X10193765Y-5737300D02*
X10173765Y-5757300D01*
X10187535Y-6900834D02*
X10207535Y-6920834D01*
X10207535Y-6900834D02*
X10187535Y-6920834D01*
X10188765Y-7104800D02*
X10208765Y-7124800D01*
X10208765Y-7104800D02*
X10188765Y-7124800D01*
X10210000Y-7475000D02*
X10230000Y-7495000D01*
X10230000Y-7475000D02*
X10210000Y-7495000D01*
X10210000Y-8082500D02*
X10230000Y-8102500D01*
X10230000Y-8082500D02*
X10210000Y-8102500D01*
X10212565Y-5327800D02*
X10232565Y-5347800D01*
X10232565Y-5327800D02*
X10212565Y-5347800D01*
X10232015Y-8465300D02*
X10252015Y-8485300D01*
X10252015Y-8465300D02*
X10232015Y-8485300D01*
X10238765Y-6230800D02*
X10258765Y-6250800D01*
X10258765Y-6230800D02*
X10238765Y-6250800D01*
X10243765Y-6162100D02*
X10263765Y-6182100D01*
X10263765Y-6162100D02*
X10243765Y-6182100D01*
X10251765Y-5933165D02*
X10271765Y-5953165D01*
X10271765Y-5933165D02*
X10251765Y-5953165D01*
X10284890Y-6315925D02*
X10304890Y-6335925D01*
X10304890Y-6315925D02*
X10284890Y-6335925D01*
X10298015Y-6980300D02*
X10318015Y-7000300D01*
X10318015Y-6980300D02*
X10298015Y-7000300D01*
X10324432Y-8805300D02*
X10344432Y-8825300D01*
X10344432Y-8805300D02*
X10324432Y-8825300D01*
X10326375Y-7199000D02*
X10346375Y-7219000D01*
X10346375Y-7199000D02*
X10326375Y-7219000D01*
X10360765Y-5966800D02*
X10380765Y-5986800D01*
X10380765Y-5966800D02*
X10360765Y-5986800D01*
X10390765Y-6953100D02*
X10410765Y-6973100D01*
X10410765Y-6953100D02*
X10390765Y-6973100D01*
X10436265Y-8562300D02*
X10456265Y-8582300D01*
X10456265Y-8562300D02*
X10436265Y-8582300D01*
X10511265Y-6521800D02*
X10531265Y-6541800D01*
X10531265Y-6521800D02*
X10511265Y-6541800D01*
X10514432Y-8805300D02*
X10534432Y-8825300D01*
X10534432Y-8805300D02*
X10514432Y-8825300D01*
X10538765Y-6999800D02*
X10558765Y-7019800D01*
X10558765Y-6999800D02*
X10538765Y-7019800D01*
X10561265Y-7332300D02*
X10581265Y-7352300D01*
X10581265Y-7332300D02*
X10561265Y-7352300D01*
X10592565Y-5327800D02*
X10612565Y-5347800D01*
X10612565Y-5327800D02*
X10592565Y-5347800D01*
X10628765Y-7184800D02*
X10648765Y-7204800D01*
X10648765Y-7184800D02*
X10628765Y-7204800D01*
X10632565Y-6304800D02*
X10652565Y-6324800D01*
X10652565Y-6304800D02*
X10632565Y-6324800D01*
X10704765Y-8805300D02*
X10724765Y-8825300D01*
X10724765Y-8805300D02*
X10704765Y-8825300D01*
X10745000Y-6428300D02*
X10765000Y-6448300D01*
X10765000Y-6428300D02*
X10745000Y-6448300D01*
X10778765Y-6514800D02*
X10798765Y-6534800D01*
X10798765Y-6514800D02*
X10778765Y-6534800D01*
X10782565Y-5327800D02*
X10802565Y-5347800D01*
X10802565Y-5327800D02*
X10782565Y-5347800D01*
X10894765Y-8805300D02*
X10914765Y-8825300D01*
X10914765Y-8805300D02*
X10894765Y-8825300D01*
X10895765Y-7715300D02*
X10915765Y-7735300D01*
X10915765Y-7715300D02*
X10895765Y-7735300D01*
X10899765Y-6982800D02*
X10919765Y-7002800D01*
X10919765Y-6982800D02*
X10899765Y-7002800D01*
X10906265Y-7957300D02*
X10926265Y-7977300D01*
X10926265Y-7957300D02*
X10906265Y-7977300D01*
X10906265Y-8092300D02*
X10926265Y-8112300D01*
X10926265Y-8092300D02*
X10906265Y-8112300D01*
X10907500Y-7232800D02*
X10927500Y-7252800D01*
X10927500Y-7232800D02*
X10907500Y-7252800D01*
X10909223Y-8470300D02*
X10929223Y-8490300D01*
X10929223Y-8470300D02*
X10909223Y-8490300D01*
X10938765Y-5912300D02*
X10958765Y-5932300D01*
X10958765Y-5912300D02*
X10938765Y-5932300D01*
X10951265Y-7182800D02*
X10971265Y-7202800D01*
X10971265Y-7182800D02*
X10951265Y-7202800D01*
X10970765Y-6439800D02*
X10990765Y-6459800D01*
X10990765Y-6439800D02*
X10970765Y-6459800D01*
X11003765Y-6889800D02*
X11023765Y-6909800D01*
X11023765Y-6889800D02*
X11003765Y-6909800D01*
X11020765Y-6507300D02*
X11040765Y-6527300D01*
X11040765Y-6507300D02*
X11020765Y-6527300D01*
X11028765Y-8199800D02*
X11048765Y-8219800D01*
X11048765Y-8199800D02*
X11028765Y-8219800D01*
X11058726Y-5488774D02*
X11078726Y-5508774D01*
X11078726Y-5488774D02*
X11058726Y-5508774D01*
X11070765Y-7337300D02*
X11090765Y-7357300D01*
X11090765Y-7337300D02*
X11070765Y-7357300D01*
X11084765Y-8785300D02*
X11104765Y-8805300D01*
X11104765Y-8785300D02*
X11084765Y-8805300D01*
X11103265Y-5937300D02*
X11123265Y-5957300D01*
X11123265Y-5937300D02*
X11103265Y-5957300D01*
X11116265Y-6199800D02*
X11136265Y-6219800D01*
X11136265Y-6199800D02*
X11116265Y-6219800D01*
X11120765Y-7637500D02*
X11140765Y-7657500D01*
X11140765Y-7637500D02*
X11120765Y-7657500D01*
X11162033Y-5704032D02*
X11182033Y-5724032D01*
X11182033Y-5704032D02*
X11162033Y-5724032D01*
X11162565Y-5490000D02*
X11182565Y-5510000D01*
X11182565Y-5490000D02*
X11162565Y-5510000D01*
X11170765Y-7583300D02*
X11190765Y-7603300D01*
X11190765Y-7583300D02*
X11170765Y-7603300D01*
X11182465Y-6598050D02*
X11202465Y-6618050D01*
X11202465Y-6598050D02*
X11182465Y-6618050D01*
X11196265Y-7965300D02*
X11216265Y-7985300D01*
X11216265Y-7965300D02*
X11196265Y-7985300D01*
X11202480Y-5744479D02*
X11222480Y-5764479D01*
X11222480Y-5744479D02*
X11202480Y-5764479D01*
X11228265Y-8199800D02*
X11248265Y-8219800D01*
X11248265Y-8199800D02*
X11228265Y-8219800D01*
X11241765Y-7762300D02*
X11261765Y-7782300D01*
X11261765Y-7762300D02*
X11241765Y-7782300D01*
X11274765Y-8805300D02*
X11294765Y-8825300D01*
X11294765Y-8805300D02*
X11274765Y-8825300D01*
X11290000Y-6622935D02*
X11310000Y-6642935D01*
X11310000Y-6622935D02*
X11290000Y-6642935D01*
X11293002Y-6202300D02*
X11313002Y-6222300D01*
X11313002Y-6202300D02*
X11293002Y-6222300D01*
X11296265Y-6088800D02*
X11316265Y-6108800D01*
X11316265Y-6088800D02*
X11296265Y-6108800D01*
X11313765Y-7965300D02*
X11333765Y-7985300D01*
X11333765Y-7965300D02*
X11313765Y-7985300D01*
X11328265Y-6571800D02*
X11348265Y-6591800D01*
X11348265Y-6571800D02*
X11328265Y-6591800D01*
X11328265Y-8199800D02*
X11348265Y-8219800D01*
X11348265Y-8199800D02*
X11328265Y-8219800D01*
X11332015Y-7762300D02*
X11352015Y-7782300D01*
X11352015Y-7762300D02*
X11332015Y-7782300D01*
X11367500Y-5785000D02*
X11387500Y-5805000D01*
X11387500Y-5785000D02*
X11367500Y-5805000D01*
X11414065Y-6922800D02*
X11434065Y-6942800D01*
X11434065Y-6922800D02*
X11414065Y-6942800D01*
X11420000Y-6700000D02*
X11440000Y-6720000D01*
X11440000Y-6700000D02*
X11420000Y-6720000D01*
X11466890Y-7973800D02*
X11486890Y-7993800D01*
X11486890Y-7973800D02*
X11466890Y-7993800D01*
X11468265Y-4982800D02*
X11488265Y-5002800D01*
X11488265Y-4982800D02*
X11468265Y-5002800D01*
X11528265Y-8199800D02*
X11548265Y-8219800D01*
X11548265Y-8199800D02*
X11528265Y-8219800D01*
X11540765Y-6218782D02*
X11560765Y-6238782D01*
X11560765Y-6218782D02*
X11540765Y-6238782D01*
X11559640Y-8044800D02*
X11579640Y-8064800D01*
X11579640Y-8044800D02*
X11559640Y-8064800D01*
X11568265Y-6700000D02*
X11588265Y-6720000D01*
X11588265Y-6700000D02*
X11568265Y-6720000D01*
X11610765Y-6214800D02*
X11630765Y-6234800D01*
X11630765Y-6214800D02*
X11610765Y-6234800D01*
X11620765Y-7735550D02*
X11640765Y-7755550D01*
X11640765Y-7735550D02*
X11620765Y-7755550D01*
X11642500Y-6510000D02*
X11662500Y-6530000D01*
X11662500Y-6510000D02*
X11642500Y-6530000D01*
X11650000Y-7184000D02*
X11670000Y-7204000D01*
X11670000Y-7184000D02*
X11650000Y-7204000D01*
X11651680Y-7237016D02*
X11671680Y-7257016D01*
X11671680Y-7237016D02*
X11651680Y-7257016D01*
X11658265Y-4982800D02*
X11678265Y-5002800D01*
X11678265Y-4982800D02*
X11658265Y-5002800D01*
X11676265Y-7022600D02*
X11696265Y-7042600D01*
X11696265Y-7022600D02*
X11676265Y-7042600D01*
X11676265Y-7074800D02*
X11696265Y-7094800D01*
X11696265Y-7074800D02*
X11676265Y-7094800D01*
X11705000Y-6152500D02*
X11725000Y-6172500D01*
X11725000Y-6152500D02*
X11705000Y-6172500D01*
X11720765Y-6222500D02*
X11740765Y-6242500D01*
X11740765Y-6222500D02*
X11720765Y-6242500D01*
X11748265Y-5327800D02*
X11768265Y-5347800D01*
X11768265Y-5327800D02*
X11748265Y-5347800D01*
X11762882Y-6152500D02*
X11782882Y-6172500D01*
X11782882Y-6152500D02*
X11762882Y-6172500D01*
X11813765Y-6582800D02*
X11833765Y-6602800D01*
X11833765Y-6582800D02*
X11813765Y-6602800D01*
X11820765Y-6152500D02*
X11840765Y-6172500D01*
X11840765Y-6152500D02*
X11820765Y-6172500D01*
X11838765Y-6394800D02*
X11858765Y-6414800D01*
X11858765Y-6394800D02*
X11838765Y-6414800D01*
X11912765Y-6469800D02*
X11932765Y-6489800D01*
X11932765Y-6469800D02*
X11912765Y-6489800D01*
X11933265Y-8240300D02*
X11953265Y-8260300D01*
X11953265Y-8240300D02*
X11933265Y-8260300D01*
X11936265Y-8142300D02*
X11956265Y-8162300D01*
X11956265Y-8142300D02*
X11936265Y-8162300D01*
X11938265Y-5327800D02*
X11958265Y-5347800D01*
X11958265Y-5327800D02*
X11938265Y-5347800D01*
X12072500Y-6632500D02*
X12092500Y-6652500D01*
X12092500Y-6632500D02*
X12072500Y-6652500D01*
X12128265Y-5327800D02*
X12148265Y-5347800D01*
X12148265Y-5327800D02*
X12128265Y-5347800D01*
X12238765Y-5524800D02*
X12258765Y-5544800D01*
X12258765Y-5524800D02*
X12238765Y-5544800D01*
X12296008Y-8572800D02*
X12316008Y-8592800D01*
X12316008Y-8572800D02*
X12296008Y-8592800D01*
X12300014Y-5977600D02*
X12320014Y-5997600D01*
X12320014Y-5977600D02*
X12300014Y-5997600D01*
X12318265Y-5327800D02*
X12338265Y-5347800D01*
X12338265Y-5327800D02*
X12318265Y-5347800D01*
X12365000Y-8570000D02*
X12385000Y-8590000D01*
X12385000Y-8570000D02*
X12365000Y-8590000D01*
X12370265Y-6394300D02*
X12390265Y-6414300D01*
X12390265Y-6394300D02*
X12370265Y-6414300D01*
X12418265Y-4982800D02*
X12438265Y-5002800D01*
X12438265Y-4982800D02*
X12418265Y-5002800D01*
X12426265Y-5659800D02*
X12446265Y-5679800D01*
X12446265Y-5659800D02*
X12426265Y-5679800D01*
X12576265Y-6242300D02*
X12596265Y-6262300D01*
X12596265Y-6242300D02*
X12576265Y-6262300D01*
X12803265Y-4945300D02*
X12823265Y-4965300D01*
X12823265Y-4945300D02*
X12803265Y-4965300D01*
X12803265Y-8835300D02*
X12823265Y-8855300D01*
X12823265Y-8835300D02*
X12803265Y-8855300D01*
X12866265Y-7470215D02*
X12886265Y-7490215D01*
X12886265Y-7470215D02*
X12866265Y-7490215D01*
X12953390Y-5861800D02*
X12973390Y-5881800D01*
X12973390Y-5861800D02*
X12953390Y-5881800D01*
X12990765Y-7032800D02*
X13010765Y-7052800D01*
X13010765Y-7032800D02*
X12990765Y-7052800D01*
X13100250Y-5068315D02*
X13120250Y-5088315D01*
X13120250Y-5068315D02*
X13100250Y-5088315D01*
X13100250Y-8712285D02*
X13120250Y-8732285D01*
X13120250Y-8712285D02*
X13100250Y-8732285D01*
X13160000Y-6437500D02*
X13180000Y-6457500D01*
X13180000Y-6437500D02*
X13160000Y-6457500D01*
X13175765Y-7897800D02*
X13195765Y-7917800D01*
X13195765Y-7897800D02*
X13175765Y-7917800D01*
X13271200Y-7557343D02*
X13291200Y-7577343D01*
X13291200Y-7557343D02*
X13271200Y-7577343D01*
X13273700Y-6270300D02*
X13293700Y-6290300D01*
X13293700Y-6270300D02*
X13273700Y-6290300D01*
X13273700Y-6332500D02*
X13293700Y-6352500D01*
X13293700Y-6332500D02*
X13273700Y-6352500D01*
X10425065Y-5337800D02*
G75*
G02*
X10400065Y-5337800I-12500J0D01*
G01*
X10400065Y-5337800D02*
G75*
G02*
X10425065Y-5337800I12500J0D01*
G01*
X11740765Y-5777300D02*
G75*
G02*
X11715765Y-5777300I-12500J0D01*
G01*
X11715765Y-5777300D02*
G75*
G02*
X11740765Y-5777300I12500J0D01*
G01*
X13295765Y-7708800D02*
G75*
G02*
X13270765Y-7708800I-12500J0D01*
G01*
X13270765Y-7708800D02*
G75*
G02*
X13295765Y-7708800I12500J0D01*
G01*
X10561265Y-7467300D02*
X10561265Y-7497300D01*
X10546265Y-7482300D02*
X10576265Y-7482300D01*
X12185139Y-6511674D02*
X12185139Y-6486925D01*
X12160390Y-6486925D01*
X12160390Y-6511674D01*
X12185139Y-6511674D01*
X11363765Y-5629800D02*
X11383765Y-5609800D01*
X11363765Y-5589800D01*
X11343765Y-5609800D01*
X11363765Y-5629800D01*
X12425765Y-6090300D02*
X12445765Y-6070300D01*
X12425765Y-6050300D01*
X12405765Y-6070300D01*
X12425765Y-6090300D01*
D11*
X9479485Y-9288684D02*
X9479485Y-9088684D01*
X9479485Y-9088684D02*
X9527104Y-9088684D01*
X9527104Y-9088684D02*
X9555675Y-9098208D01*
X9555675Y-9098208D02*
X9574723Y-9117255D01*
X9574723Y-9117255D02*
X9584246Y-9136303D01*
X9584246Y-9136303D02*
X9593770Y-9174398D01*
X9593770Y-9174398D02*
X9593770Y-9202970D01*
X9593770Y-9202970D02*
X9584246Y-9241065D01*
X9584246Y-9241065D02*
X9574723Y-9260112D01*
X9574723Y-9260112D02*
X9555675Y-9279160D01*
X9555675Y-9279160D02*
X9527104Y-9288684D01*
X9527104Y-9288684D02*
X9479485Y-9288684D01*
X9679485Y-9288684D02*
X9679485Y-9155351D01*
X9679485Y-9193446D02*
X9689008Y-9174398D01*
X9689008Y-9174398D02*
X9698532Y-9164874D01*
X9698532Y-9164874D02*
X9717580Y-9155351D01*
X9717580Y-9155351D02*
X9736627Y-9155351D01*
X9803294Y-9288684D02*
X9803294Y-9155351D01*
X9803294Y-9088684D02*
X9793770Y-9098208D01*
X9793770Y-9098208D02*
X9803294Y-9107732D01*
X9803294Y-9107732D02*
X9812818Y-9098208D01*
X9812818Y-9098208D02*
X9803294Y-9088684D01*
X9803294Y-9088684D02*
X9803294Y-9107732D01*
X9927104Y-9288684D02*
X9908056Y-9279160D01*
X9908056Y-9279160D02*
X9898532Y-9260112D01*
X9898532Y-9260112D02*
X9898532Y-9088684D01*
X10031865Y-9288684D02*
X10012818Y-9279160D01*
X10012818Y-9279160D02*
X10003294Y-9260112D01*
X10003294Y-9260112D02*
X10003294Y-9088684D01*
X10260437Y-9288684D02*
X10260437Y-9088684D01*
X10260437Y-9088684D02*
X10327104Y-9231541D01*
X10327104Y-9231541D02*
X10393770Y-9088684D01*
X10393770Y-9088684D02*
X10393770Y-9288684D01*
X10574723Y-9288684D02*
X10574723Y-9183922D01*
X10574723Y-9183922D02*
X10565199Y-9164874D01*
X10565199Y-9164874D02*
X10546151Y-9155351D01*
X10546151Y-9155351D02*
X10508056Y-9155351D01*
X10508056Y-9155351D02*
X10489008Y-9164874D01*
X10574723Y-9279160D02*
X10555675Y-9288684D01*
X10555675Y-9288684D02*
X10508056Y-9288684D01*
X10508056Y-9288684D02*
X10489008Y-9279160D01*
X10489008Y-9279160D02*
X10479485Y-9260112D01*
X10479485Y-9260112D02*
X10479485Y-9241065D01*
X10479485Y-9241065D02*
X10489008Y-9222017D01*
X10489008Y-9222017D02*
X10508056Y-9212493D01*
X10508056Y-9212493D02*
X10555675Y-9212493D01*
X10555675Y-9212493D02*
X10574723Y-9202970D01*
X10669961Y-9155351D02*
X10669961Y-9355351D01*
X10669961Y-9164874D02*
X10689008Y-9155351D01*
X10689008Y-9155351D02*
X10727104Y-9155351D01*
X10727104Y-9155351D02*
X10746151Y-9164874D01*
X10746151Y-9164874D02*
X10755675Y-9174398D01*
X10755675Y-9174398D02*
X10765199Y-9193446D01*
X10765199Y-9193446D02*
X10765199Y-9250589D01*
X10765199Y-9250589D02*
X10755675Y-9269636D01*
X10755675Y-9269636D02*
X10746151Y-9279160D01*
X10746151Y-9279160D02*
X10727104Y-9288684D01*
X10727104Y-9288684D02*
X10689008Y-9288684D01*
X10689008Y-9288684D02*
X10669961Y-9279160D01*
X10850913Y-9269636D02*
X10860437Y-9279160D01*
X10860437Y-9279160D02*
X10850913Y-9288684D01*
X10850913Y-9288684D02*
X10841389Y-9279160D01*
X10841389Y-9279160D02*
X10850913Y-9269636D01*
X10850913Y-9269636D02*
X10850913Y-9288684D01*
X10850913Y-9164874D02*
X10860437Y-9174398D01*
X10860437Y-9174398D02*
X10850913Y-9183922D01*
X10850913Y-9183922D02*
X10841389Y-9174398D01*
X10841389Y-9174398D02*
X10850913Y-9164874D01*
X10850913Y-9164874D02*
X10850913Y-9183922D01*
D12*
X9198708Y-9607200D02*
X9218708Y-9627200D01*
X9218708Y-9607200D02*
X9198708Y-9627200D01*
D11*
X9517580Y-9508684D02*
X9536627Y-9508684D01*
X9536627Y-9508684D02*
X9555675Y-9518208D01*
X9555675Y-9518208D02*
X9565199Y-9527732D01*
X9565199Y-9527732D02*
X9574723Y-9546779D01*
X9574723Y-9546779D02*
X9584246Y-9584874D01*
X9584246Y-9584874D02*
X9584246Y-9632493D01*
X9584246Y-9632493D02*
X9574723Y-9670589D01*
X9574723Y-9670589D02*
X9565199Y-9689636D01*
X9565199Y-9689636D02*
X9555675Y-9699160D01*
X9555675Y-9699160D02*
X9536627Y-9708684D01*
X9536627Y-9708684D02*
X9517580Y-9708684D01*
X9517580Y-9708684D02*
X9498532Y-9699160D01*
X9498532Y-9699160D02*
X9489008Y-9689636D01*
X9489008Y-9689636D02*
X9479485Y-9670589D01*
X9479485Y-9670589D02*
X9469961Y-9632493D01*
X9469961Y-9632493D02*
X9469961Y-9584874D01*
X9469961Y-9584874D02*
X9479485Y-9546779D01*
X9479485Y-9546779D02*
X9489008Y-9527732D01*
X9489008Y-9527732D02*
X9498532Y-9518208D01*
X9498532Y-9518208D02*
X9517580Y-9508684D01*
X9669961Y-9689636D02*
X9679485Y-9699160D01*
X9679485Y-9699160D02*
X9669961Y-9708684D01*
X9669961Y-9708684D02*
X9660437Y-9699160D01*
X9660437Y-9699160D02*
X9669961Y-9689636D01*
X9669961Y-9689636D02*
X9669961Y-9708684D01*
X9755675Y-9527732D02*
X9765199Y-9518208D01*
X9765199Y-9518208D02*
X9784246Y-9508684D01*
X9784246Y-9508684D02*
X9831866Y-9508684D01*
X9831866Y-9508684D02*
X9850913Y-9518208D01*
X9850913Y-9518208D02*
X9860437Y-9527732D01*
X9860437Y-9527732D02*
X9869961Y-9546779D01*
X9869961Y-9546779D02*
X9869961Y-9565827D01*
X9869961Y-9565827D02*
X9860437Y-9594398D01*
X9860437Y-9594398D02*
X9746151Y-9708684D01*
X9746151Y-9708684D02*
X9869961Y-9708684D01*
X9993770Y-9508684D02*
X10012818Y-9508684D01*
X10012818Y-9508684D02*
X10031866Y-9518208D01*
X10031866Y-9518208D02*
X10041389Y-9527732D01*
X10041389Y-9527732D02*
X10050913Y-9546779D01*
X10050913Y-9546779D02*
X10060437Y-9584874D01*
X10060437Y-9584874D02*
X10060437Y-9632493D01*
X10060437Y-9632493D02*
X10050913Y-9670589D01*
X10050913Y-9670589D02*
X10041389Y-9689636D01*
X10041389Y-9689636D02*
X10031866Y-9699160D01*
X10031866Y-9699160D02*
X10012818Y-9708684D01*
X10012818Y-9708684D02*
X9993770Y-9708684D01*
X9993770Y-9708684D02*
X9974723Y-9699160D01*
X9974723Y-9699160D02*
X9965199Y-9689636D01*
X9965199Y-9689636D02*
X9955675Y-9670589D01*
X9955675Y-9670589D02*
X9946151Y-9632493D01*
X9946151Y-9632493D02*
X9946151Y-9584874D01*
X9946151Y-9584874D02*
X9955675Y-9546779D01*
X9955675Y-9546779D02*
X9965199Y-9527732D01*
X9965199Y-9527732D02*
X9974723Y-9518208D01*
X9974723Y-9518208D02*
X9993770Y-9508684D01*
X10184246Y-9508684D02*
X10203294Y-9508684D01*
X10203294Y-9508684D02*
X10222342Y-9518208D01*
X10222342Y-9518208D02*
X10231866Y-9527732D01*
X10231866Y-9527732D02*
X10241389Y-9546779D01*
X10241389Y-9546779D02*
X10250913Y-9584874D01*
X10250913Y-9584874D02*
X10250913Y-9632493D01*
X10250913Y-9632493D02*
X10241389Y-9670589D01*
X10241389Y-9670589D02*
X10231866Y-9689636D01*
X10231866Y-9689636D02*
X10222342Y-9699160D01*
X10222342Y-9699160D02*
X10203294Y-9708684D01*
X10203294Y-9708684D02*
X10184246Y-9708684D01*
X10184246Y-9708684D02*
X10165199Y-9699160D01*
X10165199Y-9699160D02*
X10155675Y-9689636D01*
X10155675Y-9689636D02*
X10146151Y-9670589D01*
X10146151Y-9670589D02*
X10136627Y-9632493D01*
X10136627Y-9632493D02*
X10136627Y-9584874D01*
X10136627Y-9584874D02*
X10146151Y-9546779D01*
X10146151Y-9546779D02*
X10155675Y-9527732D01*
X10155675Y-9527732D02*
X10165199Y-9518208D01*
X10165199Y-9518208D02*
X10184246Y-9508684D01*
X10336627Y-9708684D02*
X10336627Y-9575351D01*
X10336627Y-9594398D02*
X10346151Y-9584874D01*
X10346151Y-9584874D02*
X10365199Y-9575351D01*
X10365199Y-9575351D02*
X10393770Y-9575351D01*
X10393770Y-9575351D02*
X10412818Y-9584874D01*
X10412818Y-9584874D02*
X10422342Y-9603922D01*
X10422342Y-9603922D02*
X10422342Y-9708684D01*
X10422342Y-9603922D02*
X10431866Y-9584874D01*
X10431866Y-9584874D02*
X10450913Y-9575351D01*
X10450913Y-9575351D02*
X10479485Y-9575351D01*
X10479485Y-9575351D02*
X10498532Y-9584874D01*
X10498532Y-9584874D02*
X10508056Y-9603922D01*
X10508056Y-9603922D02*
X10508056Y-9708684D01*
X10603294Y-9708684D02*
X10603294Y-9575351D01*
X10603294Y-9594398D02*
X10612818Y-9584874D01*
X10612818Y-9584874D02*
X10631866Y-9575351D01*
X10631866Y-9575351D02*
X10660437Y-9575351D01*
X10660437Y-9575351D02*
X10679485Y-9584874D01*
X10679485Y-9584874D02*
X10689008Y-9603922D01*
X10689008Y-9603922D02*
X10689008Y-9708684D01*
X10689008Y-9603922D02*
X10698532Y-9584874D01*
X10698532Y-9584874D02*
X10717580Y-9575351D01*
X10717580Y-9575351D02*
X10746151Y-9575351D01*
X10746151Y-9575351D02*
X10765199Y-9584874D01*
X10765199Y-9584874D02*
X10774723Y-9603922D01*
X10774723Y-9603922D02*
X10774723Y-9708684D01*
X11165199Y-9499160D02*
X10993770Y-9756303D01*
X11422342Y-9508684D02*
X11441389Y-9508684D01*
X11441389Y-9508684D02*
X11460437Y-9518208D01*
X11460437Y-9518208D02*
X11469961Y-9527732D01*
X11469961Y-9527732D02*
X11479485Y-9546779D01*
X11479485Y-9546779D02*
X11489008Y-9584874D01*
X11489008Y-9584874D02*
X11489008Y-9632493D01*
X11489008Y-9632493D02*
X11479485Y-9670589D01*
X11479485Y-9670589D02*
X11469961Y-9689636D01*
X11469961Y-9689636D02*
X11460437Y-9699160D01*
X11460437Y-9699160D02*
X11441389Y-9708684D01*
X11441389Y-9708684D02*
X11422342Y-9708684D01*
X11422342Y-9708684D02*
X11403294Y-9699160D01*
X11403294Y-9699160D02*
X11393770Y-9689636D01*
X11393770Y-9689636D02*
X11384247Y-9670589D01*
X11384247Y-9670589D02*
X11374723Y-9632493D01*
X11374723Y-9632493D02*
X11374723Y-9584874D01*
X11374723Y-9584874D02*
X11384247Y-9546779D01*
X11384247Y-9546779D02*
X11393770Y-9527732D01*
X11393770Y-9527732D02*
X11403294Y-9518208D01*
X11403294Y-9518208D02*
X11422342Y-9508684D01*
X11574723Y-9689636D02*
X11584247Y-9699160D01*
X11584247Y-9699160D02*
X11574723Y-9708684D01*
X11574723Y-9708684D02*
X11565199Y-9699160D01*
X11565199Y-9699160D02*
X11574723Y-9689636D01*
X11574723Y-9689636D02*
X11574723Y-9708684D01*
X11708056Y-9508684D02*
X11727104Y-9508684D01*
X11727104Y-9508684D02*
X11746151Y-9518208D01*
X11746151Y-9518208D02*
X11755675Y-9527732D01*
X11755675Y-9527732D02*
X11765199Y-9546779D01*
X11765199Y-9546779D02*
X11774723Y-9584874D01*
X11774723Y-9584874D02*
X11774723Y-9632493D01*
X11774723Y-9632493D02*
X11765199Y-9670589D01*
X11765199Y-9670589D02*
X11755675Y-9689636D01*
X11755675Y-9689636D02*
X11746151Y-9699160D01*
X11746151Y-9699160D02*
X11727104Y-9708684D01*
X11727104Y-9708684D02*
X11708056Y-9708684D01*
X11708056Y-9708684D02*
X11689008Y-9699160D01*
X11689008Y-9699160D02*
X11679485Y-9689636D01*
X11679485Y-9689636D02*
X11669961Y-9670589D01*
X11669961Y-9670589D02*
X11660437Y-9632493D01*
X11660437Y-9632493D02*
X11660437Y-9584874D01*
X11660437Y-9584874D02*
X11669961Y-9546779D01*
X11669961Y-9546779D02*
X11679485Y-9527732D01*
X11679485Y-9527732D02*
X11689008Y-9518208D01*
X11689008Y-9518208D02*
X11708056Y-9508684D01*
X11898532Y-9508684D02*
X11917580Y-9508684D01*
X11917580Y-9508684D02*
X11936628Y-9518208D01*
X11936628Y-9518208D02*
X11946151Y-9527732D01*
X11946151Y-9527732D02*
X11955675Y-9546779D01*
X11955675Y-9546779D02*
X11965199Y-9584874D01*
X11965199Y-9584874D02*
X11965199Y-9632493D01*
X11965199Y-9632493D02*
X11955675Y-9670589D01*
X11955675Y-9670589D02*
X11946151Y-9689636D01*
X11946151Y-9689636D02*
X11936628Y-9699160D01*
X11936628Y-9699160D02*
X11917580Y-9708684D01*
X11917580Y-9708684D02*
X11898532Y-9708684D01*
X11898532Y-9708684D02*
X11879485Y-9699160D01*
X11879485Y-9699160D02*
X11869961Y-9689636D01*
X11869961Y-9689636D02*
X11860437Y-9670589D01*
X11860437Y-9670589D02*
X11850913Y-9632493D01*
X11850913Y-9632493D02*
X11850913Y-9584874D01*
X11850913Y-9584874D02*
X11860437Y-9546779D01*
X11860437Y-9546779D02*
X11869961Y-9527732D01*
X11869961Y-9527732D02*
X11879485Y-9518208D01*
X11879485Y-9518208D02*
X11898532Y-9508684D01*
X12031866Y-9508684D02*
X12165199Y-9508684D01*
X12165199Y-9508684D02*
X12079485Y-9708684D01*
X12250913Y-9708684D02*
X12289008Y-9708684D01*
X12289008Y-9708684D02*
X12308056Y-9699160D01*
X12308056Y-9699160D02*
X12317580Y-9689636D01*
X12317580Y-9689636D02*
X12336628Y-9661065D01*
X12336628Y-9661065D02*
X12346151Y-9622970D01*
X12346151Y-9622970D02*
X12346151Y-9546779D01*
X12346151Y-9546779D02*
X12336628Y-9527732D01*
X12336628Y-9527732D02*
X12327104Y-9518208D01*
X12327104Y-9518208D02*
X12308056Y-9508684D01*
X12308056Y-9508684D02*
X12269961Y-9508684D01*
X12269961Y-9508684D02*
X12250913Y-9518208D01*
X12250913Y-9518208D02*
X12241389Y-9527732D01*
X12241389Y-9527732D02*
X12231866Y-9546779D01*
X12231866Y-9546779D02*
X12231866Y-9594398D01*
X12231866Y-9594398D02*
X12241389Y-9613446D01*
X12241389Y-9613446D02*
X12250913Y-9622970D01*
X12250913Y-9622970D02*
X12269961Y-9632493D01*
X12269961Y-9632493D02*
X12308056Y-9632493D01*
X12308056Y-9632493D02*
X12327104Y-9622970D01*
X12327104Y-9622970D02*
X12336628Y-9613446D01*
X12336628Y-9613446D02*
X12346151Y-9594398D01*
X12422342Y-9508684D02*
X12422342Y-9546779D01*
X12498532Y-9508684D02*
X12498532Y-9546779D01*
X12793771Y-9784874D02*
X12784247Y-9775351D01*
X12784247Y-9775351D02*
X12765199Y-9746779D01*
X12765199Y-9746779D02*
X12755675Y-9727732D01*
X12755675Y-9727732D02*
X12746151Y-9699160D01*
X12746151Y-9699160D02*
X12736628Y-9651541D01*
X12736628Y-9651541D02*
X12736628Y-9613446D01*
X12736628Y-9613446D02*
X12746151Y-9565827D01*
X12746151Y-9565827D02*
X12755675Y-9537255D01*
X12755675Y-9537255D02*
X12765199Y-9518208D01*
X12765199Y-9518208D02*
X12784247Y-9489636D01*
X12784247Y-9489636D02*
X12793771Y-9480112D01*
X12974723Y-9708684D02*
X12860437Y-9708684D01*
X12917580Y-9708684D02*
X12917580Y-9508684D01*
X12917580Y-9508684D02*
X12898532Y-9537255D01*
X12898532Y-9537255D02*
X12879485Y-9556303D01*
X12879485Y-9556303D02*
X12860437Y-9565827D01*
X13155675Y-9508684D02*
X13060437Y-9508684D01*
X13060437Y-9508684D02*
X13050913Y-9603922D01*
X13050913Y-9603922D02*
X13060437Y-9594398D01*
X13060437Y-9594398D02*
X13079485Y-9584874D01*
X13079485Y-9584874D02*
X13127104Y-9584874D01*
X13127104Y-9584874D02*
X13146151Y-9594398D01*
X13146151Y-9594398D02*
X13155675Y-9603922D01*
X13155675Y-9603922D02*
X13165199Y-9622970D01*
X13165199Y-9622970D02*
X13165199Y-9670589D01*
X13165199Y-9670589D02*
X13155675Y-9689636D01*
X13155675Y-9689636D02*
X13146151Y-9699160D01*
X13146151Y-9699160D02*
X13127104Y-9708684D01*
X13127104Y-9708684D02*
X13079485Y-9708684D01*
X13079485Y-9708684D02*
X13060437Y-9699160D01*
X13060437Y-9699160D02*
X13050913Y-9689636D01*
X13355675Y-9708684D02*
X13241390Y-9708684D01*
X13298532Y-9708684D02*
X13298532Y-9508684D01*
X13298532Y-9508684D02*
X13279485Y-9537255D01*
X13279485Y-9537255D02*
X13260437Y-9556303D01*
X13260437Y-9556303D02*
X13241390Y-9565827D01*
X13593771Y-9708684D02*
X13593771Y-9508684D01*
X13679485Y-9708684D02*
X13679485Y-9603922D01*
X13679485Y-9603922D02*
X13669961Y-9584874D01*
X13669961Y-9584874D02*
X13650913Y-9575351D01*
X13650913Y-9575351D02*
X13622342Y-9575351D01*
X13622342Y-9575351D02*
X13603294Y-9584874D01*
X13603294Y-9584874D02*
X13593771Y-9594398D01*
X13803294Y-9708684D02*
X13784247Y-9699160D01*
X13784247Y-9699160D02*
X13774723Y-9689636D01*
X13774723Y-9689636D02*
X13765199Y-9670589D01*
X13765199Y-9670589D02*
X13765199Y-9613446D01*
X13765199Y-9613446D02*
X13774723Y-9594398D01*
X13774723Y-9594398D02*
X13784247Y-9584874D01*
X13784247Y-9584874D02*
X13803294Y-9575351D01*
X13803294Y-9575351D02*
X13831866Y-9575351D01*
X13831866Y-9575351D02*
X13850913Y-9584874D01*
X13850913Y-9584874D02*
X13860437Y-9594398D01*
X13860437Y-9594398D02*
X13869961Y-9613446D01*
X13869961Y-9613446D02*
X13869961Y-9670589D01*
X13869961Y-9670589D02*
X13860437Y-9689636D01*
X13860437Y-9689636D02*
X13850913Y-9699160D01*
X13850913Y-9699160D02*
X13831866Y-9708684D01*
X13831866Y-9708684D02*
X13803294Y-9708684D01*
X13984247Y-9708684D02*
X13965199Y-9699160D01*
X13965199Y-9699160D02*
X13955675Y-9680112D01*
X13955675Y-9680112D02*
X13955675Y-9508684D01*
X14136628Y-9699160D02*
X14117580Y-9708684D01*
X14117580Y-9708684D02*
X14079485Y-9708684D01*
X14079485Y-9708684D02*
X14060437Y-9699160D01*
X14060437Y-9699160D02*
X14050913Y-9680112D01*
X14050913Y-9680112D02*
X14050913Y-9603922D01*
X14050913Y-9603922D02*
X14060437Y-9584874D01*
X14060437Y-9584874D02*
X14079485Y-9575351D01*
X14079485Y-9575351D02*
X14117580Y-9575351D01*
X14117580Y-9575351D02*
X14136628Y-9584874D01*
X14136628Y-9584874D02*
X14146152Y-9603922D01*
X14146152Y-9603922D02*
X14146152Y-9622970D01*
X14146152Y-9622970D02*
X14050913Y-9642017D01*
X14222342Y-9699160D02*
X14241390Y-9708684D01*
X14241390Y-9708684D02*
X14279485Y-9708684D01*
X14279485Y-9708684D02*
X14298533Y-9699160D01*
X14298533Y-9699160D02*
X14308056Y-9680112D01*
X14308056Y-9680112D02*
X14308056Y-9670589D01*
X14308056Y-9670589D02*
X14298533Y-9651541D01*
X14298533Y-9651541D02*
X14279485Y-9642017D01*
X14279485Y-9642017D02*
X14250913Y-9642017D01*
X14250913Y-9642017D02*
X14231866Y-9632493D01*
X14231866Y-9632493D02*
X14222342Y-9613446D01*
X14222342Y-9613446D02*
X14222342Y-9603922D01*
X14222342Y-9603922D02*
X14231866Y-9584874D01*
X14231866Y-9584874D02*
X14250913Y-9575351D01*
X14250913Y-9575351D02*
X14279485Y-9575351D01*
X14279485Y-9575351D02*
X14298533Y-9584874D01*
X14374723Y-9784874D02*
X14384247Y-9775351D01*
X14384247Y-9775351D02*
X14403294Y-9746779D01*
X14403294Y-9746779D02*
X14412818Y-9727732D01*
X14412818Y-9727732D02*
X14422342Y-9699160D01*
X14422342Y-9699160D02*
X14431866Y-9651541D01*
X14431866Y-9651541D02*
X14431866Y-9613446D01*
X14431866Y-9613446D02*
X14422342Y-9565827D01*
X14422342Y-9565827D02*
X14412818Y-9537255D01*
X14412818Y-9537255D02*
X14403294Y-9518208D01*
X14403294Y-9518208D02*
X14384247Y-9489636D01*
X14384247Y-9489636D02*
X14374723Y-9480112D01*
D12*
X9218708Y-9881200D02*
G75*
G02*
X9193708Y-9881200I-12500J0D01*
G01*
X9193708Y-9881200D02*
G75*
G02*
X9218708Y-9881200I12500J0D01*
G01*
D11*
X9517580Y-9772684D02*
X9536627Y-9772684D01*
X9536627Y-9772684D02*
X9555675Y-9782208D01*
X9555675Y-9782208D02*
X9565199Y-9791732D01*
X9565199Y-9791732D02*
X9574723Y-9810779D01*
X9574723Y-9810779D02*
X9584246Y-9848874D01*
X9584246Y-9848874D02*
X9584246Y-9896493D01*
X9584246Y-9896493D02*
X9574723Y-9934589D01*
X9574723Y-9934589D02*
X9565199Y-9953636D01*
X9565199Y-9953636D02*
X9555675Y-9963160D01*
X9555675Y-9963160D02*
X9536627Y-9972684D01*
X9536627Y-9972684D02*
X9517580Y-9972684D01*
X9517580Y-9972684D02*
X9498532Y-9963160D01*
X9498532Y-9963160D02*
X9489008Y-9953636D01*
X9489008Y-9953636D02*
X9479485Y-9934589D01*
X9479485Y-9934589D02*
X9469961Y-9896493D01*
X9469961Y-9896493D02*
X9469961Y-9848874D01*
X9469961Y-9848874D02*
X9479485Y-9810779D01*
X9479485Y-9810779D02*
X9489008Y-9791732D01*
X9489008Y-9791732D02*
X9498532Y-9782208D01*
X9498532Y-9782208D02*
X9517580Y-9772684D01*
X9669961Y-9953636D02*
X9679485Y-9963160D01*
X9679485Y-9963160D02*
X9669961Y-9972684D01*
X9669961Y-9972684D02*
X9660437Y-9963160D01*
X9660437Y-9963160D02*
X9669961Y-9953636D01*
X9669961Y-9953636D02*
X9669961Y-9972684D01*
X9755675Y-9791732D02*
X9765199Y-9782208D01*
X9765199Y-9782208D02*
X9784246Y-9772684D01*
X9784246Y-9772684D02*
X9831866Y-9772684D01*
X9831866Y-9772684D02*
X9850913Y-9782208D01*
X9850913Y-9782208D02*
X9860437Y-9791732D01*
X9860437Y-9791732D02*
X9869961Y-9810779D01*
X9869961Y-9810779D02*
X9869961Y-9829827D01*
X9869961Y-9829827D02*
X9860437Y-9858398D01*
X9860437Y-9858398D02*
X9746151Y-9972684D01*
X9746151Y-9972684D02*
X9869961Y-9972684D01*
X10050913Y-9772684D02*
X9955675Y-9772684D01*
X9955675Y-9772684D02*
X9946151Y-9867922D01*
X9946151Y-9867922D02*
X9955675Y-9858398D01*
X9955675Y-9858398D02*
X9974723Y-9848874D01*
X9974723Y-9848874D02*
X10022342Y-9848874D01*
X10022342Y-9848874D02*
X10041389Y-9858398D01*
X10041389Y-9858398D02*
X10050913Y-9867922D01*
X10050913Y-9867922D02*
X10060437Y-9886970D01*
X10060437Y-9886970D02*
X10060437Y-9934589D01*
X10060437Y-9934589D02*
X10050913Y-9953636D01*
X10050913Y-9953636D02*
X10041389Y-9963160D01*
X10041389Y-9963160D02*
X10022342Y-9972684D01*
X10022342Y-9972684D02*
X9974723Y-9972684D01*
X9974723Y-9972684D02*
X9955675Y-9963160D01*
X9955675Y-9963160D02*
X9946151Y-9953636D01*
X10184246Y-9772684D02*
X10203294Y-9772684D01*
X10203294Y-9772684D02*
X10222342Y-9782208D01*
X10222342Y-9782208D02*
X10231866Y-9791732D01*
X10231866Y-9791732D02*
X10241389Y-9810779D01*
X10241389Y-9810779D02*
X10250913Y-9848874D01*
X10250913Y-9848874D02*
X10250913Y-9896493D01*
X10250913Y-9896493D02*
X10241389Y-9934589D01*
X10241389Y-9934589D02*
X10231866Y-9953636D01*
X10231866Y-9953636D02*
X10222342Y-9963160D01*
X10222342Y-9963160D02*
X10203294Y-9972684D01*
X10203294Y-9972684D02*
X10184246Y-9972684D01*
X10184246Y-9972684D02*
X10165199Y-9963160D01*
X10165199Y-9963160D02*
X10155675Y-9953636D01*
X10155675Y-9953636D02*
X10146151Y-9934589D01*
X10146151Y-9934589D02*
X10136627Y-9896493D01*
X10136627Y-9896493D02*
X10136627Y-9848874D01*
X10136627Y-9848874D02*
X10146151Y-9810779D01*
X10146151Y-9810779D02*
X10155675Y-9791732D01*
X10155675Y-9791732D02*
X10165199Y-9782208D01*
X10165199Y-9782208D02*
X10184246Y-9772684D01*
X10336627Y-9972684D02*
X10336627Y-9839351D01*
X10336627Y-9858398D02*
X10346151Y-9848874D01*
X10346151Y-9848874D02*
X10365199Y-9839351D01*
X10365199Y-9839351D02*
X10393770Y-9839351D01*
X10393770Y-9839351D02*
X10412818Y-9848874D01*
X10412818Y-9848874D02*
X10422342Y-9867922D01*
X10422342Y-9867922D02*
X10422342Y-9972684D01*
X10422342Y-9867922D02*
X10431866Y-9848874D01*
X10431866Y-9848874D02*
X10450913Y-9839351D01*
X10450913Y-9839351D02*
X10479485Y-9839351D01*
X10479485Y-9839351D02*
X10498532Y-9848874D01*
X10498532Y-9848874D02*
X10508056Y-9867922D01*
X10508056Y-9867922D02*
X10508056Y-9972684D01*
X10603294Y-9972684D02*
X10603294Y-9839351D01*
X10603294Y-9858398D02*
X10612818Y-9848874D01*
X10612818Y-9848874D02*
X10631866Y-9839351D01*
X10631866Y-9839351D02*
X10660437Y-9839351D01*
X10660437Y-9839351D02*
X10679485Y-9848874D01*
X10679485Y-9848874D02*
X10689008Y-9867922D01*
X10689008Y-9867922D02*
X10689008Y-9972684D01*
X10689008Y-9867922D02*
X10698532Y-9848874D01*
X10698532Y-9848874D02*
X10717580Y-9839351D01*
X10717580Y-9839351D02*
X10746151Y-9839351D01*
X10746151Y-9839351D02*
X10765199Y-9848874D01*
X10765199Y-9848874D02*
X10774723Y-9867922D01*
X10774723Y-9867922D02*
X10774723Y-9972684D01*
X11165199Y-9763160D02*
X10993770Y-10020303D01*
X11422342Y-9772684D02*
X11441389Y-9772684D01*
X11441389Y-9772684D02*
X11460437Y-9782208D01*
X11460437Y-9782208D02*
X11469961Y-9791732D01*
X11469961Y-9791732D02*
X11479485Y-9810779D01*
X11479485Y-9810779D02*
X11489008Y-9848874D01*
X11489008Y-9848874D02*
X11489008Y-9896493D01*
X11489008Y-9896493D02*
X11479485Y-9934589D01*
X11479485Y-9934589D02*
X11469961Y-9953636D01*
X11469961Y-9953636D02*
X11460437Y-9963160D01*
X11460437Y-9963160D02*
X11441389Y-9972684D01*
X11441389Y-9972684D02*
X11422342Y-9972684D01*
X11422342Y-9972684D02*
X11403294Y-9963160D01*
X11403294Y-9963160D02*
X11393770Y-9953636D01*
X11393770Y-9953636D02*
X11384247Y-9934589D01*
X11384247Y-9934589D02*
X11374723Y-9896493D01*
X11374723Y-9896493D02*
X11374723Y-9848874D01*
X11374723Y-9848874D02*
X11384247Y-9810779D01*
X11384247Y-9810779D02*
X11393770Y-9791732D01*
X11393770Y-9791732D02*
X11403294Y-9782208D01*
X11403294Y-9782208D02*
X11422342Y-9772684D01*
X11574723Y-9953636D02*
X11584247Y-9963160D01*
X11584247Y-9963160D02*
X11574723Y-9972684D01*
X11574723Y-9972684D02*
X11565199Y-9963160D01*
X11565199Y-9963160D02*
X11574723Y-9953636D01*
X11574723Y-9953636D02*
X11574723Y-9972684D01*
X11708056Y-9772684D02*
X11727104Y-9772684D01*
X11727104Y-9772684D02*
X11746151Y-9782208D01*
X11746151Y-9782208D02*
X11755675Y-9791732D01*
X11755675Y-9791732D02*
X11765199Y-9810779D01*
X11765199Y-9810779D02*
X11774723Y-9848874D01*
X11774723Y-9848874D02*
X11774723Y-9896493D01*
X11774723Y-9896493D02*
X11765199Y-9934589D01*
X11765199Y-9934589D02*
X11755675Y-9953636D01*
X11755675Y-9953636D02*
X11746151Y-9963160D01*
X11746151Y-9963160D02*
X11727104Y-9972684D01*
X11727104Y-9972684D02*
X11708056Y-9972684D01*
X11708056Y-9972684D02*
X11689008Y-9963160D01*
X11689008Y-9963160D02*
X11679485Y-9953636D01*
X11679485Y-9953636D02*
X11669961Y-9934589D01*
X11669961Y-9934589D02*
X11660437Y-9896493D01*
X11660437Y-9896493D02*
X11660437Y-9848874D01*
X11660437Y-9848874D02*
X11669961Y-9810779D01*
X11669961Y-9810779D02*
X11679485Y-9791732D01*
X11679485Y-9791732D02*
X11689008Y-9782208D01*
X11689008Y-9782208D02*
X11708056Y-9772684D01*
X11898532Y-9772684D02*
X11917580Y-9772684D01*
X11917580Y-9772684D02*
X11936628Y-9782208D01*
X11936628Y-9782208D02*
X11946151Y-9791732D01*
X11946151Y-9791732D02*
X11955675Y-9810779D01*
X11955675Y-9810779D02*
X11965199Y-9848874D01*
X11965199Y-9848874D02*
X11965199Y-9896493D01*
X11965199Y-9896493D02*
X11955675Y-9934589D01*
X11955675Y-9934589D02*
X11946151Y-9953636D01*
X11946151Y-9953636D02*
X11936628Y-9963160D01*
X11936628Y-9963160D02*
X11917580Y-9972684D01*
X11917580Y-9972684D02*
X11898532Y-9972684D01*
X11898532Y-9972684D02*
X11879485Y-9963160D01*
X11879485Y-9963160D02*
X11869961Y-9953636D01*
X11869961Y-9953636D02*
X11860437Y-9934589D01*
X11860437Y-9934589D02*
X11850913Y-9896493D01*
X11850913Y-9896493D02*
X11850913Y-9848874D01*
X11850913Y-9848874D02*
X11860437Y-9810779D01*
X11860437Y-9810779D02*
X11869961Y-9791732D01*
X11869961Y-9791732D02*
X11879485Y-9782208D01*
X11879485Y-9782208D02*
X11898532Y-9772684D01*
X12060437Y-9972684D02*
X12098532Y-9972684D01*
X12098532Y-9972684D02*
X12117580Y-9963160D01*
X12117580Y-9963160D02*
X12127104Y-9953636D01*
X12127104Y-9953636D02*
X12146151Y-9925065D01*
X12146151Y-9925065D02*
X12155675Y-9886970D01*
X12155675Y-9886970D02*
X12155675Y-9810779D01*
X12155675Y-9810779D02*
X12146151Y-9791732D01*
X12146151Y-9791732D02*
X12136628Y-9782208D01*
X12136628Y-9782208D02*
X12117580Y-9772684D01*
X12117580Y-9772684D02*
X12079485Y-9772684D01*
X12079485Y-9772684D02*
X12060437Y-9782208D01*
X12060437Y-9782208D02*
X12050913Y-9791732D01*
X12050913Y-9791732D02*
X12041389Y-9810779D01*
X12041389Y-9810779D02*
X12041389Y-9858398D01*
X12041389Y-9858398D02*
X12050913Y-9877446D01*
X12050913Y-9877446D02*
X12060437Y-9886970D01*
X12060437Y-9886970D02*
X12079485Y-9896493D01*
X12079485Y-9896493D02*
X12117580Y-9896493D01*
X12117580Y-9896493D02*
X12136628Y-9886970D01*
X12136628Y-9886970D02*
X12146151Y-9877446D01*
X12146151Y-9877446D02*
X12155675Y-9858398D01*
X12269961Y-9858398D02*
X12250913Y-9848874D01*
X12250913Y-9848874D02*
X12241389Y-9839351D01*
X12241389Y-9839351D02*
X12231866Y-9820303D01*
X12231866Y-9820303D02*
X12231866Y-9810779D01*
X12231866Y-9810779D02*
X12241389Y-9791732D01*
X12241389Y-9791732D02*
X12250913Y-9782208D01*
X12250913Y-9782208D02*
X12269961Y-9772684D01*
X12269961Y-9772684D02*
X12308056Y-9772684D01*
X12308056Y-9772684D02*
X12327104Y-9782208D01*
X12327104Y-9782208D02*
X12336628Y-9791732D01*
X12336628Y-9791732D02*
X12346151Y-9810779D01*
X12346151Y-9810779D02*
X12346151Y-9820303D01*
X12346151Y-9820303D02*
X12336628Y-9839351D01*
X12336628Y-9839351D02*
X12327104Y-9848874D01*
X12327104Y-9848874D02*
X12308056Y-9858398D01*
X12308056Y-9858398D02*
X12269961Y-9858398D01*
X12269961Y-9858398D02*
X12250913Y-9867922D01*
X12250913Y-9867922D02*
X12241389Y-9877446D01*
X12241389Y-9877446D02*
X12231866Y-9896493D01*
X12231866Y-9896493D02*
X12231866Y-9934589D01*
X12231866Y-9934589D02*
X12241389Y-9953636D01*
X12241389Y-9953636D02*
X12250913Y-9963160D01*
X12250913Y-9963160D02*
X12269961Y-9972684D01*
X12269961Y-9972684D02*
X12308056Y-9972684D01*
X12308056Y-9972684D02*
X12327104Y-9963160D01*
X12327104Y-9963160D02*
X12336628Y-9953636D01*
X12336628Y-9953636D02*
X12346151Y-9934589D01*
X12346151Y-9934589D02*
X12346151Y-9896493D01*
X12346151Y-9896493D02*
X12336628Y-9877446D01*
X12336628Y-9877446D02*
X12327104Y-9867922D01*
X12327104Y-9867922D02*
X12308056Y-9858398D01*
X12422342Y-9772684D02*
X12422342Y-9810779D01*
X12498532Y-9772684D02*
X12498532Y-9810779D01*
X12793771Y-10048874D02*
X12784247Y-10039351D01*
X12784247Y-10039351D02*
X12765199Y-10010779D01*
X12765199Y-10010779D02*
X12755675Y-9991732D01*
X12755675Y-9991732D02*
X12746151Y-9963160D01*
X12746151Y-9963160D02*
X12736628Y-9915541D01*
X12736628Y-9915541D02*
X12736628Y-9877446D01*
X12736628Y-9877446D02*
X12746151Y-9829827D01*
X12746151Y-9829827D02*
X12755675Y-9801255D01*
X12755675Y-9801255D02*
X12765199Y-9782208D01*
X12765199Y-9782208D02*
X12784247Y-9753636D01*
X12784247Y-9753636D02*
X12793771Y-9744112D01*
X12850913Y-9772684D02*
X12974723Y-9772684D01*
X12974723Y-9772684D02*
X12908056Y-9848874D01*
X12908056Y-9848874D02*
X12936628Y-9848874D01*
X12936628Y-9848874D02*
X12955675Y-9858398D01*
X12955675Y-9858398D02*
X12965199Y-9867922D01*
X12965199Y-9867922D02*
X12974723Y-9886970D01*
X12974723Y-9886970D02*
X12974723Y-9934589D01*
X12974723Y-9934589D02*
X12965199Y-9953636D01*
X12965199Y-9953636D02*
X12955675Y-9963160D01*
X12955675Y-9963160D02*
X12936628Y-9972684D01*
X12936628Y-9972684D02*
X12879485Y-9972684D01*
X12879485Y-9972684D02*
X12860437Y-9963160D01*
X12860437Y-9963160D02*
X12850913Y-9953636D01*
X13212818Y-9972684D02*
X13212818Y-9772684D01*
X13298532Y-9972684D02*
X13298532Y-9867922D01*
X13298532Y-9867922D02*
X13289009Y-9848874D01*
X13289009Y-9848874D02*
X13269961Y-9839351D01*
X13269961Y-9839351D02*
X13241390Y-9839351D01*
X13241390Y-9839351D02*
X13222342Y-9848874D01*
X13222342Y-9848874D02*
X13212818Y-9858398D01*
X13422342Y-9972684D02*
X13403294Y-9963160D01*
X13403294Y-9963160D02*
X13393771Y-9953636D01*
X13393771Y-9953636D02*
X13384247Y-9934589D01*
X13384247Y-9934589D02*
X13384247Y-9877446D01*
X13384247Y-9877446D02*
X13393771Y-9858398D01*
X13393771Y-9858398D02*
X13403294Y-9848874D01*
X13403294Y-9848874D02*
X13422342Y-9839351D01*
X13422342Y-9839351D02*
X13450913Y-9839351D01*
X13450913Y-9839351D02*
X13469961Y-9848874D01*
X13469961Y-9848874D02*
X13479485Y-9858398D01*
X13479485Y-9858398D02*
X13489009Y-9877446D01*
X13489009Y-9877446D02*
X13489009Y-9934589D01*
X13489009Y-9934589D02*
X13479485Y-9953636D01*
X13479485Y-9953636D02*
X13469961Y-9963160D01*
X13469961Y-9963160D02*
X13450913Y-9972684D01*
X13450913Y-9972684D02*
X13422342Y-9972684D01*
X13603294Y-9972684D02*
X13584247Y-9963160D01*
X13584247Y-9963160D02*
X13574723Y-9944112D01*
X13574723Y-9944112D02*
X13574723Y-9772684D01*
X13755675Y-9963160D02*
X13736628Y-9972684D01*
X13736628Y-9972684D02*
X13698532Y-9972684D01*
X13698532Y-9972684D02*
X13679485Y-9963160D01*
X13679485Y-9963160D02*
X13669961Y-9944112D01*
X13669961Y-9944112D02*
X13669961Y-9867922D01*
X13669961Y-9867922D02*
X13679485Y-9848874D01*
X13679485Y-9848874D02*
X13698532Y-9839351D01*
X13698532Y-9839351D02*
X13736628Y-9839351D01*
X13736628Y-9839351D02*
X13755675Y-9848874D01*
X13755675Y-9848874D02*
X13765199Y-9867922D01*
X13765199Y-9867922D02*
X13765199Y-9886970D01*
X13765199Y-9886970D02*
X13669961Y-9906017D01*
X13841390Y-9963160D02*
X13860437Y-9972684D01*
X13860437Y-9972684D02*
X13898532Y-9972684D01*
X13898532Y-9972684D02*
X13917580Y-9963160D01*
X13917580Y-9963160D02*
X13927104Y-9944112D01*
X13927104Y-9944112D02*
X13927104Y-9934589D01*
X13927104Y-9934589D02*
X13917580Y-9915541D01*
X13917580Y-9915541D02*
X13898532Y-9906017D01*
X13898532Y-9906017D02*
X13869961Y-9906017D01*
X13869961Y-9906017D02*
X13850913Y-9896493D01*
X13850913Y-9896493D02*
X13841390Y-9877446D01*
X13841390Y-9877446D02*
X13841390Y-9867922D01*
X13841390Y-9867922D02*
X13850913Y-9848874D01*
X13850913Y-9848874D02*
X13869961Y-9839351D01*
X13869961Y-9839351D02*
X13898532Y-9839351D01*
X13898532Y-9839351D02*
X13917580Y-9848874D01*
X13993771Y-10048874D02*
X14003294Y-10039351D01*
X14003294Y-10039351D02*
X14022342Y-10010779D01*
X14022342Y-10010779D02*
X14031866Y-9991732D01*
X14031866Y-9991732D02*
X14041390Y-9963160D01*
X14041390Y-9963160D02*
X14050913Y-9915541D01*
X14050913Y-9915541D02*
X14050913Y-9877446D01*
X14050913Y-9877446D02*
X14041390Y-9829827D01*
X14041390Y-9829827D02*
X14031866Y-9801255D01*
X14031866Y-9801255D02*
X14022342Y-9782208D01*
X14022342Y-9782208D02*
X14003294Y-9753636D01*
X14003294Y-9753636D02*
X13993771Y-9744112D01*
D12*
X9203708Y-10130200D02*
X9203708Y-10160200D01*
X9188708Y-10145200D02*
X9218708Y-10145200D01*
D11*
X9517580Y-10036684D02*
X9536627Y-10036684D01*
X9536627Y-10036684D02*
X9555675Y-10046208D01*
X9555675Y-10046208D02*
X9565199Y-10055732D01*
X9565199Y-10055732D02*
X9574723Y-10074779D01*
X9574723Y-10074779D02*
X9584246Y-10112874D01*
X9584246Y-10112874D02*
X9584246Y-10160493D01*
X9584246Y-10160493D02*
X9574723Y-10198589D01*
X9574723Y-10198589D02*
X9565199Y-10217636D01*
X9565199Y-10217636D02*
X9555675Y-10227160D01*
X9555675Y-10227160D02*
X9536627Y-10236684D01*
X9536627Y-10236684D02*
X9517580Y-10236684D01*
X9517580Y-10236684D02*
X9498532Y-10227160D01*
X9498532Y-10227160D02*
X9489008Y-10217636D01*
X9489008Y-10217636D02*
X9479485Y-10198589D01*
X9479485Y-10198589D02*
X9469961Y-10160493D01*
X9469961Y-10160493D02*
X9469961Y-10112874D01*
X9469961Y-10112874D02*
X9479485Y-10074779D01*
X9479485Y-10074779D02*
X9489008Y-10055732D01*
X9489008Y-10055732D02*
X9498532Y-10046208D01*
X9498532Y-10046208D02*
X9517580Y-10036684D01*
X9669961Y-10217636D02*
X9679485Y-10227160D01*
X9679485Y-10227160D02*
X9669961Y-10236684D01*
X9669961Y-10236684D02*
X9660437Y-10227160D01*
X9660437Y-10227160D02*
X9669961Y-10217636D01*
X9669961Y-10217636D02*
X9669961Y-10236684D01*
X9746151Y-10036684D02*
X9869961Y-10036684D01*
X9869961Y-10036684D02*
X9803294Y-10112874D01*
X9803294Y-10112874D02*
X9831866Y-10112874D01*
X9831866Y-10112874D02*
X9850913Y-10122398D01*
X9850913Y-10122398D02*
X9860437Y-10131922D01*
X9860437Y-10131922D02*
X9869961Y-10150970D01*
X9869961Y-10150970D02*
X9869961Y-10198589D01*
X9869961Y-10198589D02*
X9860437Y-10217636D01*
X9860437Y-10217636D02*
X9850913Y-10227160D01*
X9850913Y-10227160D02*
X9831866Y-10236684D01*
X9831866Y-10236684D02*
X9774723Y-10236684D01*
X9774723Y-10236684D02*
X9755675Y-10227160D01*
X9755675Y-10227160D02*
X9746151Y-10217636D01*
X9993770Y-10036684D02*
X10012818Y-10036684D01*
X10012818Y-10036684D02*
X10031866Y-10046208D01*
X10031866Y-10046208D02*
X10041389Y-10055732D01*
X10041389Y-10055732D02*
X10050913Y-10074779D01*
X10050913Y-10074779D02*
X10060437Y-10112874D01*
X10060437Y-10112874D02*
X10060437Y-10160493D01*
X10060437Y-10160493D02*
X10050913Y-10198589D01*
X10050913Y-10198589D02*
X10041389Y-10217636D01*
X10041389Y-10217636D02*
X10031866Y-10227160D01*
X10031866Y-10227160D02*
X10012818Y-10236684D01*
X10012818Y-10236684D02*
X9993770Y-10236684D01*
X9993770Y-10236684D02*
X9974723Y-10227160D01*
X9974723Y-10227160D02*
X9965199Y-10217636D01*
X9965199Y-10217636D02*
X9955675Y-10198589D01*
X9955675Y-10198589D02*
X9946151Y-10160493D01*
X9946151Y-10160493D02*
X9946151Y-10112874D01*
X9946151Y-10112874D02*
X9955675Y-10074779D01*
X9955675Y-10074779D02*
X9965199Y-10055732D01*
X9965199Y-10055732D02*
X9974723Y-10046208D01*
X9974723Y-10046208D02*
X9993770Y-10036684D01*
X10184246Y-10036684D02*
X10203294Y-10036684D01*
X10203294Y-10036684D02*
X10222342Y-10046208D01*
X10222342Y-10046208D02*
X10231866Y-10055732D01*
X10231866Y-10055732D02*
X10241389Y-10074779D01*
X10241389Y-10074779D02*
X10250913Y-10112874D01*
X10250913Y-10112874D02*
X10250913Y-10160493D01*
X10250913Y-10160493D02*
X10241389Y-10198589D01*
X10241389Y-10198589D02*
X10231866Y-10217636D01*
X10231866Y-10217636D02*
X10222342Y-10227160D01*
X10222342Y-10227160D02*
X10203294Y-10236684D01*
X10203294Y-10236684D02*
X10184246Y-10236684D01*
X10184246Y-10236684D02*
X10165199Y-10227160D01*
X10165199Y-10227160D02*
X10155675Y-10217636D01*
X10155675Y-10217636D02*
X10146151Y-10198589D01*
X10146151Y-10198589D02*
X10136627Y-10160493D01*
X10136627Y-10160493D02*
X10136627Y-10112874D01*
X10136627Y-10112874D02*
X10146151Y-10074779D01*
X10146151Y-10074779D02*
X10155675Y-10055732D01*
X10155675Y-10055732D02*
X10165199Y-10046208D01*
X10165199Y-10046208D02*
X10184246Y-10036684D01*
X10336627Y-10236684D02*
X10336627Y-10103351D01*
X10336627Y-10122398D02*
X10346151Y-10112874D01*
X10346151Y-10112874D02*
X10365199Y-10103351D01*
X10365199Y-10103351D02*
X10393770Y-10103351D01*
X10393770Y-10103351D02*
X10412818Y-10112874D01*
X10412818Y-10112874D02*
X10422342Y-10131922D01*
X10422342Y-10131922D02*
X10422342Y-10236684D01*
X10422342Y-10131922D02*
X10431866Y-10112874D01*
X10431866Y-10112874D02*
X10450913Y-10103351D01*
X10450913Y-10103351D02*
X10479485Y-10103351D01*
X10479485Y-10103351D02*
X10498532Y-10112874D01*
X10498532Y-10112874D02*
X10508056Y-10131922D01*
X10508056Y-10131922D02*
X10508056Y-10236684D01*
X10603294Y-10236684D02*
X10603294Y-10103351D01*
X10603294Y-10122398D02*
X10612818Y-10112874D01*
X10612818Y-10112874D02*
X10631866Y-10103351D01*
X10631866Y-10103351D02*
X10660437Y-10103351D01*
X10660437Y-10103351D02*
X10679485Y-10112874D01*
X10679485Y-10112874D02*
X10689008Y-10131922D01*
X10689008Y-10131922D02*
X10689008Y-10236684D01*
X10689008Y-10131922D02*
X10698532Y-10112874D01*
X10698532Y-10112874D02*
X10717580Y-10103351D01*
X10717580Y-10103351D02*
X10746151Y-10103351D01*
X10746151Y-10103351D02*
X10765199Y-10112874D01*
X10765199Y-10112874D02*
X10774723Y-10131922D01*
X10774723Y-10131922D02*
X10774723Y-10236684D01*
X11165199Y-10027160D02*
X10993770Y-10284303D01*
X11422342Y-10036684D02*
X11441389Y-10036684D01*
X11441389Y-10036684D02*
X11460437Y-10046208D01*
X11460437Y-10046208D02*
X11469961Y-10055732D01*
X11469961Y-10055732D02*
X11479485Y-10074779D01*
X11479485Y-10074779D02*
X11489008Y-10112874D01*
X11489008Y-10112874D02*
X11489008Y-10160493D01*
X11489008Y-10160493D02*
X11479485Y-10198589D01*
X11479485Y-10198589D02*
X11469961Y-10217636D01*
X11469961Y-10217636D02*
X11460437Y-10227160D01*
X11460437Y-10227160D02*
X11441389Y-10236684D01*
X11441389Y-10236684D02*
X11422342Y-10236684D01*
X11422342Y-10236684D02*
X11403294Y-10227160D01*
X11403294Y-10227160D02*
X11393770Y-10217636D01*
X11393770Y-10217636D02*
X11384247Y-10198589D01*
X11384247Y-10198589D02*
X11374723Y-10160493D01*
X11374723Y-10160493D02*
X11374723Y-10112874D01*
X11374723Y-10112874D02*
X11384247Y-10074779D01*
X11384247Y-10074779D02*
X11393770Y-10055732D01*
X11393770Y-10055732D02*
X11403294Y-10046208D01*
X11403294Y-10046208D02*
X11422342Y-10036684D01*
X11574723Y-10217636D02*
X11584247Y-10227160D01*
X11584247Y-10227160D02*
X11574723Y-10236684D01*
X11574723Y-10236684D02*
X11565199Y-10227160D01*
X11565199Y-10227160D02*
X11574723Y-10217636D01*
X11574723Y-10217636D02*
X11574723Y-10236684D01*
X11708056Y-10036684D02*
X11727104Y-10036684D01*
X11727104Y-10036684D02*
X11746151Y-10046208D01*
X11746151Y-10046208D02*
X11755675Y-10055732D01*
X11755675Y-10055732D02*
X11765199Y-10074779D01*
X11765199Y-10074779D02*
X11774723Y-10112874D01*
X11774723Y-10112874D02*
X11774723Y-10160493D01*
X11774723Y-10160493D02*
X11765199Y-10198589D01*
X11765199Y-10198589D02*
X11755675Y-10217636D01*
X11755675Y-10217636D02*
X11746151Y-10227160D01*
X11746151Y-10227160D02*
X11727104Y-10236684D01*
X11727104Y-10236684D02*
X11708056Y-10236684D01*
X11708056Y-10236684D02*
X11689008Y-10227160D01*
X11689008Y-10227160D02*
X11679485Y-10217636D01*
X11679485Y-10217636D02*
X11669961Y-10198589D01*
X11669961Y-10198589D02*
X11660437Y-10160493D01*
X11660437Y-10160493D02*
X11660437Y-10112874D01*
X11660437Y-10112874D02*
X11669961Y-10074779D01*
X11669961Y-10074779D02*
X11679485Y-10055732D01*
X11679485Y-10055732D02*
X11689008Y-10046208D01*
X11689008Y-10046208D02*
X11708056Y-10036684D01*
X11965199Y-10236684D02*
X11850913Y-10236684D01*
X11908056Y-10236684D02*
X11908056Y-10036684D01*
X11908056Y-10036684D02*
X11889008Y-10065255D01*
X11889008Y-10065255D02*
X11869961Y-10084303D01*
X11869961Y-10084303D02*
X11850913Y-10093827D01*
X12155675Y-10236684D02*
X12041389Y-10236684D01*
X12098532Y-10236684D02*
X12098532Y-10036684D01*
X12098532Y-10036684D02*
X12079485Y-10065255D01*
X12079485Y-10065255D02*
X12060437Y-10084303D01*
X12060437Y-10084303D02*
X12041389Y-10093827D01*
X12269961Y-10122398D02*
X12250913Y-10112874D01*
X12250913Y-10112874D02*
X12241389Y-10103351D01*
X12241389Y-10103351D02*
X12231866Y-10084303D01*
X12231866Y-10084303D02*
X12231866Y-10074779D01*
X12231866Y-10074779D02*
X12241389Y-10055732D01*
X12241389Y-10055732D02*
X12250913Y-10046208D01*
X12250913Y-10046208D02*
X12269961Y-10036684D01*
X12269961Y-10036684D02*
X12308056Y-10036684D01*
X12308056Y-10036684D02*
X12327104Y-10046208D01*
X12327104Y-10046208D02*
X12336628Y-10055732D01*
X12336628Y-10055732D02*
X12346151Y-10074779D01*
X12346151Y-10074779D02*
X12346151Y-10084303D01*
X12346151Y-10084303D02*
X12336628Y-10103351D01*
X12336628Y-10103351D02*
X12327104Y-10112874D01*
X12327104Y-10112874D02*
X12308056Y-10122398D01*
X12308056Y-10122398D02*
X12269961Y-10122398D01*
X12269961Y-10122398D02*
X12250913Y-10131922D01*
X12250913Y-10131922D02*
X12241389Y-10141446D01*
X12241389Y-10141446D02*
X12231866Y-10160493D01*
X12231866Y-10160493D02*
X12231866Y-10198589D01*
X12231866Y-10198589D02*
X12241389Y-10217636D01*
X12241389Y-10217636D02*
X12250913Y-10227160D01*
X12250913Y-10227160D02*
X12269961Y-10236684D01*
X12269961Y-10236684D02*
X12308056Y-10236684D01*
X12308056Y-10236684D02*
X12327104Y-10227160D01*
X12327104Y-10227160D02*
X12336628Y-10217636D01*
X12336628Y-10217636D02*
X12346151Y-10198589D01*
X12346151Y-10198589D02*
X12346151Y-10160493D01*
X12346151Y-10160493D02*
X12336628Y-10141446D01*
X12336628Y-10141446D02*
X12327104Y-10131922D01*
X12327104Y-10131922D02*
X12308056Y-10122398D01*
X12422342Y-10036684D02*
X12422342Y-10074779D01*
X12498532Y-10036684D02*
X12498532Y-10074779D01*
X12793771Y-10312874D02*
X12784247Y-10303351D01*
X12784247Y-10303351D02*
X12765199Y-10274779D01*
X12765199Y-10274779D02*
X12755675Y-10255732D01*
X12755675Y-10255732D02*
X12746151Y-10227160D01*
X12746151Y-10227160D02*
X12736628Y-10179541D01*
X12736628Y-10179541D02*
X12736628Y-10141446D01*
X12736628Y-10141446D02*
X12746151Y-10093827D01*
X12746151Y-10093827D02*
X12755675Y-10065255D01*
X12755675Y-10065255D02*
X12765199Y-10046208D01*
X12765199Y-10046208D02*
X12784247Y-10017636D01*
X12784247Y-10017636D02*
X12793771Y-10008112D01*
X12974723Y-10236684D02*
X12860437Y-10236684D01*
X12917580Y-10236684D02*
X12917580Y-10036684D01*
X12917580Y-10036684D02*
X12898532Y-10065255D01*
X12898532Y-10065255D02*
X12879485Y-10084303D01*
X12879485Y-10084303D02*
X12860437Y-10093827D01*
X13212818Y-10236684D02*
X13212818Y-10036684D01*
X13298532Y-10236684D02*
X13298532Y-10131922D01*
X13298532Y-10131922D02*
X13289009Y-10112874D01*
X13289009Y-10112874D02*
X13269961Y-10103351D01*
X13269961Y-10103351D02*
X13241390Y-10103351D01*
X13241390Y-10103351D02*
X13222342Y-10112874D01*
X13222342Y-10112874D02*
X13212818Y-10122398D01*
X13422342Y-10236684D02*
X13403294Y-10227160D01*
X13403294Y-10227160D02*
X13393771Y-10217636D01*
X13393771Y-10217636D02*
X13384247Y-10198589D01*
X13384247Y-10198589D02*
X13384247Y-10141446D01*
X13384247Y-10141446D02*
X13393771Y-10122398D01*
X13393771Y-10122398D02*
X13403294Y-10112874D01*
X13403294Y-10112874D02*
X13422342Y-10103351D01*
X13422342Y-10103351D02*
X13450913Y-10103351D01*
X13450913Y-10103351D02*
X13469961Y-10112874D01*
X13469961Y-10112874D02*
X13479485Y-10122398D01*
X13479485Y-10122398D02*
X13489009Y-10141446D01*
X13489009Y-10141446D02*
X13489009Y-10198589D01*
X13489009Y-10198589D02*
X13479485Y-10217636D01*
X13479485Y-10217636D02*
X13469961Y-10227160D01*
X13469961Y-10227160D02*
X13450913Y-10236684D01*
X13450913Y-10236684D02*
X13422342Y-10236684D01*
X13603294Y-10236684D02*
X13584247Y-10227160D01*
X13584247Y-10227160D02*
X13574723Y-10208112D01*
X13574723Y-10208112D02*
X13574723Y-10036684D01*
X13755675Y-10227160D02*
X13736628Y-10236684D01*
X13736628Y-10236684D02*
X13698532Y-10236684D01*
X13698532Y-10236684D02*
X13679485Y-10227160D01*
X13679485Y-10227160D02*
X13669961Y-10208112D01*
X13669961Y-10208112D02*
X13669961Y-10131922D01*
X13669961Y-10131922D02*
X13679485Y-10112874D01*
X13679485Y-10112874D02*
X13698532Y-10103351D01*
X13698532Y-10103351D02*
X13736628Y-10103351D01*
X13736628Y-10103351D02*
X13755675Y-10112874D01*
X13755675Y-10112874D02*
X13765199Y-10131922D01*
X13765199Y-10131922D02*
X13765199Y-10150970D01*
X13765199Y-10150970D02*
X13669961Y-10170017D01*
X13831866Y-10312874D02*
X13841390Y-10303351D01*
X13841390Y-10303351D02*
X13860437Y-10274779D01*
X13860437Y-10274779D02*
X13869961Y-10255732D01*
X13869961Y-10255732D02*
X13879485Y-10227160D01*
X13879485Y-10227160D02*
X13889009Y-10179541D01*
X13889009Y-10179541D02*
X13889009Y-10141446D01*
X13889009Y-10141446D02*
X13879485Y-10093827D01*
X13879485Y-10093827D02*
X13869961Y-10065255D01*
X13869961Y-10065255D02*
X13860437Y-10046208D01*
X13860437Y-10046208D02*
X13841390Y-10017636D01*
X13841390Y-10017636D02*
X13831866Y-10008112D01*
D12*
X9213582Y-10421575D02*
X9213582Y-10396826D01*
X9188833Y-10396826D01*
X9188833Y-10421575D01*
X9213582Y-10421575D01*
D11*
X9517580Y-10300684D02*
X9536627Y-10300684D01*
X9536627Y-10300684D02*
X9555675Y-10310208D01*
X9555675Y-10310208D02*
X9565199Y-10319732D01*
X9565199Y-10319732D02*
X9574723Y-10338779D01*
X9574723Y-10338779D02*
X9584246Y-10376874D01*
X9584246Y-10376874D02*
X9584246Y-10424493D01*
X9584246Y-10424493D02*
X9574723Y-10462589D01*
X9574723Y-10462589D02*
X9565199Y-10481636D01*
X9565199Y-10481636D02*
X9555675Y-10491160D01*
X9555675Y-10491160D02*
X9536627Y-10500684D01*
X9536627Y-10500684D02*
X9517580Y-10500684D01*
X9517580Y-10500684D02*
X9498532Y-10491160D01*
X9498532Y-10491160D02*
X9489008Y-10481636D01*
X9489008Y-10481636D02*
X9479485Y-10462589D01*
X9479485Y-10462589D02*
X9469961Y-10424493D01*
X9469961Y-10424493D02*
X9469961Y-10376874D01*
X9469961Y-10376874D02*
X9479485Y-10338779D01*
X9479485Y-10338779D02*
X9489008Y-10319732D01*
X9489008Y-10319732D02*
X9498532Y-10310208D01*
X9498532Y-10310208D02*
X9517580Y-10300684D01*
X9669961Y-10481636D02*
X9679485Y-10491160D01*
X9679485Y-10491160D02*
X9669961Y-10500684D01*
X9669961Y-10500684D02*
X9660437Y-10491160D01*
X9660437Y-10491160D02*
X9669961Y-10481636D01*
X9669961Y-10481636D02*
X9669961Y-10500684D01*
X9746151Y-10300684D02*
X9869961Y-10300684D01*
X9869961Y-10300684D02*
X9803294Y-10376874D01*
X9803294Y-10376874D02*
X9831866Y-10376874D01*
X9831866Y-10376874D02*
X9850913Y-10386398D01*
X9850913Y-10386398D02*
X9860437Y-10395922D01*
X9860437Y-10395922D02*
X9869961Y-10414970D01*
X9869961Y-10414970D02*
X9869961Y-10462589D01*
X9869961Y-10462589D02*
X9860437Y-10481636D01*
X9860437Y-10481636D02*
X9850913Y-10491160D01*
X9850913Y-10491160D02*
X9831866Y-10500684D01*
X9831866Y-10500684D02*
X9774723Y-10500684D01*
X9774723Y-10500684D02*
X9755675Y-10491160D01*
X9755675Y-10491160D02*
X9746151Y-10481636D01*
X10050913Y-10300684D02*
X9955675Y-10300684D01*
X9955675Y-10300684D02*
X9946151Y-10395922D01*
X9946151Y-10395922D02*
X9955675Y-10386398D01*
X9955675Y-10386398D02*
X9974723Y-10376874D01*
X9974723Y-10376874D02*
X10022342Y-10376874D01*
X10022342Y-10376874D02*
X10041389Y-10386398D01*
X10041389Y-10386398D02*
X10050913Y-10395922D01*
X10050913Y-10395922D02*
X10060437Y-10414970D01*
X10060437Y-10414970D02*
X10060437Y-10462589D01*
X10060437Y-10462589D02*
X10050913Y-10481636D01*
X10050913Y-10481636D02*
X10041389Y-10491160D01*
X10041389Y-10491160D02*
X10022342Y-10500684D01*
X10022342Y-10500684D02*
X9974723Y-10500684D01*
X9974723Y-10500684D02*
X9955675Y-10491160D01*
X9955675Y-10491160D02*
X9946151Y-10481636D01*
X10184246Y-10300684D02*
X10203294Y-10300684D01*
X10203294Y-10300684D02*
X10222342Y-10310208D01*
X10222342Y-10310208D02*
X10231866Y-10319732D01*
X10231866Y-10319732D02*
X10241389Y-10338779D01*
X10241389Y-10338779D02*
X10250913Y-10376874D01*
X10250913Y-10376874D02*
X10250913Y-10424493D01*
X10250913Y-10424493D02*
X10241389Y-10462589D01*
X10241389Y-10462589D02*
X10231866Y-10481636D01*
X10231866Y-10481636D02*
X10222342Y-10491160D01*
X10222342Y-10491160D02*
X10203294Y-10500684D01*
X10203294Y-10500684D02*
X10184246Y-10500684D01*
X10184246Y-10500684D02*
X10165199Y-10491160D01*
X10165199Y-10491160D02*
X10155675Y-10481636D01*
X10155675Y-10481636D02*
X10146151Y-10462589D01*
X10146151Y-10462589D02*
X10136627Y-10424493D01*
X10136627Y-10424493D02*
X10136627Y-10376874D01*
X10136627Y-10376874D02*
X10146151Y-10338779D01*
X10146151Y-10338779D02*
X10155675Y-10319732D01*
X10155675Y-10319732D02*
X10165199Y-10310208D01*
X10165199Y-10310208D02*
X10184246Y-10300684D01*
X10336627Y-10500684D02*
X10336627Y-10367351D01*
X10336627Y-10386398D02*
X10346151Y-10376874D01*
X10346151Y-10376874D02*
X10365199Y-10367351D01*
X10365199Y-10367351D02*
X10393770Y-10367351D01*
X10393770Y-10367351D02*
X10412818Y-10376874D01*
X10412818Y-10376874D02*
X10422342Y-10395922D01*
X10422342Y-10395922D02*
X10422342Y-10500684D01*
X10422342Y-10395922D02*
X10431866Y-10376874D01*
X10431866Y-10376874D02*
X10450913Y-10367351D01*
X10450913Y-10367351D02*
X10479485Y-10367351D01*
X10479485Y-10367351D02*
X10498532Y-10376874D01*
X10498532Y-10376874D02*
X10508056Y-10395922D01*
X10508056Y-10395922D02*
X10508056Y-10500684D01*
X10603294Y-10500684D02*
X10603294Y-10367351D01*
X10603294Y-10386398D02*
X10612818Y-10376874D01*
X10612818Y-10376874D02*
X10631866Y-10367351D01*
X10631866Y-10367351D02*
X10660437Y-10367351D01*
X10660437Y-10367351D02*
X10679485Y-10376874D01*
X10679485Y-10376874D02*
X10689008Y-10395922D01*
X10689008Y-10395922D02*
X10689008Y-10500684D01*
X10689008Y-10395922D02*
X10698532Y-10376874D01*
X10698532Y-10376874D02*
X10717580Y-10367351D01*
X10717580Y-10367351D02*
X10746151Y-10367351D01*
X10746151Y-10367351D02*
X10765199Y-10376874D01*
X10765199Y-10376874D02*
X10774723Y-10395922D01*
X10774723Y-10395922D02*
X10774723Y-10500684D01*
X11165199Y-10291160D02*
X10993770Y-10548303D01*
X11422342Y-10300684D02*
X11441389Y-10300684D01*
X11441389Y-10300684D02*
X11460437Y-10310208D01*
X11460437Y-10310208D02*
X11469961Y-10319732D01*
X11469961Y-10319732D02*
X11479485Y-10338779D01*
X11479485Y-10338779D02*
X11489008Y-10376874D01*
X11489008Y-10376874D02*
X11489008Y-10424493D01*
X11489008Y-10424493D02*
X11479485Y-10462589D01*
X11479485Y-10462589D02*
X11469961Y-10481636D01*
X11469961Y-10481636D02*
X11460437Y-10491160D01*
X11460437Y-10491160D02*
X11441389Y-10500684D01*
X11441389Y-10500684D02*
X11422342Y-10500684D01*
X11422342Y-10500684D02*
X11403294Y-10491160D01*
X11403294Y-10491160D02*
X11393770Y-10481636D01*
X11393770Y-10481636D02*
X11384247Y-10462589D01*
X11384247Y-10462589D02*
X11374723Y-10424493D01*
X11374723Y-10424493D02*
X11374723Y-10376874D01*
X11374723Y-10376874D02*
X11384247Y-10338779D01*
X11384247Y-10338779D02*
X11393770Y-10319732D01*
X11393770Y-10319732D02*
X11403294Y-10310208D01*
X11403294Y-10310208D02*
X11422342Y-10300684D01*
X11574723Y-10481636D02*
X11584247Y-10491160D01*
X11584247Y-10491160D02*
X11574723Y-10500684D01*
X11574723Y-10500684D02*
X11565199Y-10491160D01*
X11565199Y-10491160D02*
X11574723Y-10481636D01*
X11574723Y-10481636D02*
X11574723Y-10500684D01*
X11708056Y-10300684D02*
X11727104Y-10300684D01*
X11727104Y-10300684D02*
X11746151Y-10310208D01*
X11746151Y-10310208D02*
X11755675Y-10319732D01*
X11755675Y-10319732D02*
X11765199Y-10338779D01*
X11765199Y-10338779D02*
X11774723Y-10376874D01*
X11774723Y-10376874D02*
X11774723Y-10424493D01*
X11774723Y-10424493D02*
X11765199Y-10462589D01*
X11765199Y-10462589D02*
X11755675Y-10481636D01*
X11755675Y-10481636D02*
X11746151Y-10491160D01*
X11746151Y-10491160D02*
X11727104Y-10500684D01*
X11727104Y-10500684D02*
X11708056Y-10500684D01*
X11708056Y-10500684D02*
X11689008Y-10491160D01*
X11689008Y-10491160D02*
X11679485Y-10481636D01*
X11679485Y-10481636D02*
X11669961Y-10462589D01*
X11669961Y-10462589D02*
X11660437Y-10424493D01*
X11660437Y-10424493D02*
X11660437Y-10376874D01*
X11660437Y-10376874D02*
X11669961Y-10338779D01*
X11669961Y-10338779D02*
X11679485Y-10319732D01*
X11679485Y-10319732D02*
X11689008Y-10310208D01*
X11689008Y-10310208D02*
X11708056Y-10300684D01*
X11965199Y-10500684D02*
X11850913Y-10500684D01*
X11908056Y-10500684D02*
X11908056Y-10300684D01*
X11908056Y-10300684D02*
X11889008Y-10329255D01*
X11889008Y-10329255D02*
X11869961Y-10348303D01*
X11869961Y-10348303D02*
X11850913Y-10357827D01*
X12031866Y-10300684D02*
X12155675Y-10300684D01*
X12155675Y-10300684D02*
X12089008Y-10376874D01*
X12089008Y-10376874D02*
X12117580Y-10376874D01*
X12117580Y-10376874D02*
X12136628Y-10386398D01*
X12136628Y-10386398D02*
X12146151Y-10395922D01*
X12146151Y-10395922D02*
X12155675Y-10414970D01*
X12155675Y-10414970D02*
X12155675Y-10462589D01*
X12155675Y-10462589D02*
X12146151Y-10481636D01*
X12146151Y-10481636D02*
X12136628Y-10491160D01*
X12136628Y-10491160D02*
X12117580Y-10500684D01*
X12117580Y-10500684D02*
X12060437Y-10500684D01*
X12060437Y-10500684D02*
X12041389Y-10491160D01*
X12041389Y-10491160D02*
X12031866Y-10481636D01*
X12269961Y-10386398D02*
X12250913Y-10376874D01*
X12250913Y-10376874D02*
X12241389Y-10367351D01*
X12241389Y-10367351D02*
X12231866Y-10348303D01*
X12231866Y-10348303D02*
X12231866Y-10338779D01*
X12231866Y-10338779D02*
X12241389Y-10319732D01*
X12241389Y-10319732D02*
X12250913Y-10310208D01*
X12250913Y-10310208D02*
X12269961Y-10300684D01*
X12269961Y-10300684D02*
X12308056Y-10300684D01*
X12308056Y-10300684D02*
X12327104Y-10310208D01*
X12327104Y-10310208D02*
X12336628Y-10319732D01*
X12336628Y-10319732D02*
X12346151Y-10338779D01*
X12346151Y-10338779D02*
X12346151Y-10348303D01*
X12346151Y-10348303D02*
X12336628Y-10367351D01*
X12336628Y-10367351D02*
X12327104Y-10376874D01*
X12327104Y-10376874D02*
X12308056Y-10386398D01*
X12308056Y-10386398D02*
X12269961Y-10386398D01*
X12269961Y-10386398D02*
X12250913Y-10395922D01*
X12250913Y-10395922D02*
X12241389Y-10405446D01*
X12241389Y-10405446D02*
X12231866Y-10424493D01*
X12231866Y-10424493D02*
X12231866Y-10462589D01*
X12231866Y-10462589D02*
X12241389Y-10481636D01*
X12241389Y-10481636D02*
X12250913Y-10491160D01*
X12250913Y-10491160D02*
X12269961Y-10500684D01*
X12269961Y-10500684D02*
X12308056Y-10500684D01*
X12308056Y-10500684D02*
X12327104Y-10491160D01*
X12327104Y-10491160D02*
X12336628Y-10481636D01*
X12336628Y-10481636D02*
X12346151Y-10462589D01*
X12346151Y-10462589D02*
X12346151Y-10424493D01*
X12346151Y-10424493D02*
X12336628Y-10405446D01*
X12336628Y-10405446D02*
X12327104Y-10395922D01*
X12327104Y-10395922D02*
X12308056Y-10386398D01*
X12422342Y-10300684D02*
X12422342Y-10338779D01*
X12498532Y-10300684D02*
X12498532Y-10338779D01*
X12793771Y-10576874D02*
X12784247Y-10567351D01*
X12784247Y-10567351D02*
X12765199Y-10538779D01*
X12765199Y-10538779D02*
X12755675Y-10519732D01*
X12755675Y-10519732D02*
X12746151Y-10491160D01*
X12746151Y-10491160D02*
X12736628Y-10443541D01*
X12736628Y-10443541D02*
X12736628Y-10405446D01*
X12736628Y-10405446D02*
X12746151Y-10357827D01*
X12746151Y-10357827D02*
X12755675Y-10329255D01*
X12755675Y-10329255D02*
X12765199Y-10310208D01*
X12765199Y-10310208D02*
X12784247Y-10281636D01*
X12784247Y-10281636D02*
X12793771Y-10272112D01*
X12974723Y-10500684D02*
X12860437Y-10500684D01*
X12917580Y-10500684D02*
X12917580Y-10300684D01*
X12917580Y-10300684D02*
X12898532Y-10329255D01*
X12898532Y-10329255D02*
X12879485Y-10348303D01*
X12879485Y-10348303D02*
X12860437Y-10357827D01*
X13212818Y-10500684D02*
X13212818Y-10300684D01*
X13298532Y-10500684D02*
X13298532Y-10395922D01*
X13298532Y-10395922D02*
X13289009Y-10376874D01*
X13289009Y-10376874D02*
X13269961Y-10367351D01*
X13269961Y-10367351D02*
X13241390Y-10367351D01*
X13241390Y-10367351D02*
X13222342Y-10376874D01*
X13222342Y-10376874D02*
X13212818Y-10386398D01*
X13422342Y-10500684D02*
X13403294Y-10491160D01*
X13403294Y-10491160D02*
X13393771Y-10481636D01*
X13393771Y-10481636D02*
X13384247Y-10462589D01*
X13384247Y-10462589D02*
X13384247Y-10405446D01*
X13384247Y-10405446D02*
X13393771Y-10386398D01*
X13393771Y-10386398D02*
X13403294Y-10376874D01*
X13403294Y-10376874D02*
X13422342Y-10367351D01*
X13422342Y-10367351D02*
X13450913Y-10367351D01*
X13450913Y-10367351D02*
X13469961Y-10376874D01*
X13469961Y-10376874D02*
X13479485Y-10386398D01*
X13479485Y-10386398D02*
X13489009Y-10405446D01*
X13489009Y-10405446D02*
X13489009Y-10462589D01*
X13489009Y-10462589D02*
X13479485Y-10481636D01*
X13479485Y-10481636D02*
X13469961Y-10491160D01*
X13469961Y-10491160D02*
X13450913Y-10500684D01*
X13450913Y-10500684D02*
X13422342Y-10500684D01*
X13603294Y-10500684D02*
X13584247Y-10491160D01*
X13584247Y-10491160D02*
X13574723Y-10472112D01*
X13574723Y-10472112D02*
X13574723Y-10300684D01*
X13755675Y-10491160D02*
X13736628Y-10500684D01*
X13736628Y-10500684D02*
X13698532Y-10500684D01*
X13698532Y-10500684D02*
X13679485Y-10491160D01*
X13679485Y-10491160D02*
X13669961Y-10472112D01*
X13669961Y-10472112D02*
X13669961Y-10395922D01*
X13669961Y-10395922D02*
X13679485Y-10376874D01*
X13679485Y-10376874D02*
X13698532Y-10367351D01*
X13698532Y-10367351D02*
X13736628Y-10367351D01*
X13736628Y-10367351D02*
X13755675Y-10376874D01*
X13755675Y-10376874D02*
X13765199Y-10395922D01*
X13765199Y-10395922D02*
X13765199Y-10414970D01*
X13765199Y-10414970D02*
X13669961Y-10434017D01*
X13831866Y-10576874D02*
X13841390Y-10567351D01*
X13841390Y-10567351D02*
X13860437Y-10538779D01*
X13860437Y-10538779D02*
X13869961Y-10519732D01*
X13869961Y-10519732D02*
X13879485Y-10491160D01*
X13879485Y-10491160D02*
X13889009Y-10443541D01*
X13889009Y-10443541D02*
X13889009Y-10405446D01*
X13889009Y-10405446D02*
X13879485Y-10357827D01*
X13879485Y-10357827D02*
X13869961Y-10329255D01*
X13869961Y-10329255D02*
X13860437Y-10310208D01*
X13860437Y-10310208D02*
X13841390Y-10281636D01*
X13841390Y-10281636D02*
X13831866Y-10272112D01*
D12*
X9198708Y-10693200D02*
X9218708Y-10673200D01*
X9198708Y-10653200D01*
X9178708Y-10673200D01*
X9198708Y-10693200D01*
D11*
X9517580Y-10564684D02*
X9536627Y-10564684D01*
X9536627Y-10564684D02*
X9555675Y-10574208D01*
X9555675Y-10574208D02*
X9565199Y-10583732D01*
X9565199Y-10583732D02*
X9574723Y-10602779D01*
X9574723Y-10602779D02*
X9584246Y-10640874D01*
X9584246Y-10640874D02*
X9584246Y-10688493D01*
X9584246Y-10688493D02*
X9574723Y-10726589D01*
X9574723Y-10726589D02*
X9565199Y-10745636D01*
X9565199Y-10745636D02*
X9555675Y-10755160D01*
X9555675Y-10755160D02*
X9536627Y-10764684D01*
X9536627Y-10764684D02*
X9517580Y-10764684D01*
X9517580Y-10764684D02*
X9498532Y-10755160D01*
X9498532Y-10755160D02*
X9489008Y-10745636D01*
X9489008Y-10745636D02*
X9479485Y-10726589D01*
X9479485Y-10726589D02*
X9469961Y-10688493D01*
X9469961Y-10688493D02*
X9469961Y-10640874D01*
X9469961Y-10640874D02*
X9479485Y-10602779D01*
X9479485Y-10602779D02*
X9489008Y-10583732D01*
X9489008Y-10583732D02*
X9498532Y-10574208D01*
X9498532Y-10574208D02*
X9517580Y-10564684D01*
X9669961Y-10745636D02*
X9679485Y-10755160D01*
X9679485Y-10755160D02*
X9669961Y-10764684D01*
X9669961Y-10764684D02*
X9660437Y-10755160D01*
X9660437Y-10755160D02*
X9669961Y-10745636D01*
X9669961Y-10745636D02*
X9669961Y-10764684D01*
X9850913Y-10631351D02*
X9850913Y-10764684D01*
X9803294Y-10555160D02*
X9755675Y-10698017D01*
X9755675Y-10698017D02*
X9879485Y-10698017D01*
X9993770Y-10564684D02*
X10012818Y-10564684D01*
X10012818Y-10564684D02*
X10031866Y-10574208D01*
X10031866Y-10574208D02*
X10041389Y-10583732D01*
X10041389Y-10583732D02*
X10050913Y-10602779D01*
X10050913Y-10602779D02*
X10060437Y-10640874D01*
X10060437Y-10640874D02*
X10060437Y-10688493D01*
X10060437Y-10688493D02*
X10050913Y-10726589D01*
X10050913Y-10726589D02*
X10041389Y-10745636D01*
X10041389Y-10745636D02*
X10031866Y-10755160D01*
X10031866Y-10755160D02*
X10012818Y-10764684D01*
X10012818Y-10764684D02*
X9993770Y-10764684D01*
X9993770Y-10764684D02*
X9974723Y-10755160D01*
X9974723Y-10755160D02*
X9965199Y-10745636D01*
X9965199Y-10745636D02*
X9955675Y-10726589D01*
X9955675Y-10726589D02*
X9946151Y-10688493D01*
X9946151Y-10688493D02*
X9946151Y-10640874D01*
X9946151Y-10640874D02*
X9955675Y-10602779D01*
X9955675Y-10602779D02*
X9965199Y-10583732D01*
X9965199Y-10583732D02*
X9974723Y-10574208D01*
X9974723Y-10574208D02*
X9993770Y-10564684D01*
X10184246Y-10564684D02*
X10203294Y-10564684D01*
X10203294Y-10564684D02*
X10222342Y-10574208D01*
X10222342Y-10574208D02*
X10231866Y-10583732D01*
X10231866Y-10583732D02*
X10241389Y-10602779D01*
X10241389Y-10602779D02*
X10250913Y-10640874D01*
X10250913Y-10640874D02*
X10250913Y-10688493D01*
X10250913Y-10688493D02*
X10241389Y-10726589D01*
X10241389Y-10726589D02*
X10231866Y-10745636D01*
X10231866Y-10745636D02*
X10222342Y-10755160D01*
X10222342Y-10755160D02*
X10203294Y-10764684D01*
X10203294Y-10764684D02*
X10184246Y-10764684D01*
X10184246Y-10764684D02*
X10165199Y-10755160D01*
X10165199Y-10755160D02*
X10155675Y-10745636D01*
X10155675Y-10745636D02*
X10146151Y-10726589D01*
X10146151Y-10726589D02*
X10136627Y-10688493D01*
X10136627Y-10688493D02*
X10136627Y-10640874D01*
X10136627Y-10640874D02*
X10146151Y-10602779D01*
X10146151Y-10602779D02*
X10155675Y-10583732D01*
X10155675Y-10583732D02*
X10165199Y-10574208D01*
X10165199Y-10574208D02*
X10184246Y-10564684D01*
X10336627Y-10764684D02*
X10336627Y-10631351D01*
X10336627Y-10650398D02*
X10346151Y-10640874D01*
X10346151Y-10640874D02*
X10365199Y-10631351D01*
X10365199Y-10631351D02*
X10393770Y-10631351D01*
X10393770Y-10631351D02*
X10412818Y-10640874D01*
X10412818Y-10640874D02*
X10422342Y-10659922D01*
X10422342Y-10659922D02*
X10422342Y-10764684D01*
X10422342Y-10659922D02*
X10431866Y-10640874D01*
X10431866Y-10640874D02*
X10450913Y-10631351D01*
X10450913Y-10631351D02*
X10479485Y-10631351D01*
X10479485Y-10631351D02*
X10498532Y-10640874D01*
X10498532Y-10640874D02*
X10508056Y-10659922D01*
X10508056Y-10659922D02*
X10508056Y-10764684D01*
X10603294Y-10764684D02*
X10603294Y-10631351D01*
X10603294Y-10650398D02*
X10612818Y-10640874D01*
X10612818Y-10640874D02*
X10631866Y-10631351D01*
X10631866Y-10631351D02*
X10660437Y-10631351D01*
X10660437Y-10631351D02*
X10679485Y-10640874D01*
X10679485Y-10640874D02*
X10689008Y-10659922D01*
X10689008Y-10659922D02*
X10689008Y-10764684D01*
X10689008Y-10659922D02*
X10698532Y-10640874D01*
X10698532Y-10640874D02*
X10717580Y-10631351D01*
X10717580Y-10631351D02*
X10746151Y-10631351D01*
X10746151Y-10631351D02*
X10765199Y-10640874D01*
X10765199Y-10640874D02*
X10774723Y-10659922D01*
X10774723Y-10659922D02*
X10774723Y-10764684D01*
X11165199Y-10555160D02*
X10993770Y-10812303D01*
X11422342Y-10564684D02*
X11441389Y-10564684D01*
X11441389Y-10564684D02*
X11460437Y-10574208D01*
X11460437Y-10574208D02*
X11469961Y-10583732D01*
X11469961Y-10583732D02*
X11479485Y-10602779D01*
X11479485Y-10602779D02*
X11489008Y-10640874D01*
X11489008Y-10640874D02*
X11489008Y-10688493D01*
X11489008Y-10688493D02*
X11479485Y-10726589D01*
X11479485Y-10726589D02*
X11469961Y-10745636D01*
X11469961Y-10745636D02*
X11460437Y-10755160D01*
X11460437Y-10755160D02*
X11441389Y-10764684D01*
X11441389Y-10764684D02*
X11422342Y-10764684D01*
X11422342Y-10764684D02*
X11403294Y-10755160D01*
X11403294Y-10755160D02*
X11393770Y-10745636D01*
X11393770Y-10745636D02*
X11384247Y-10726589D01*
X11384247Y-10726589D02*
X11374723Y-10688493D01*
X11374723Y-10688493D02*
X11374723Y-10640874D01*
X11374723Y-10640874D02*
X11384247Y-10602779D01*
X11384247Y-10602779D02*
X11393770Y-10583732D01*
X11393770Y-10583732D02*
X11403294Y-10574208D01*
X11403294Y-10574208D02*
X11422342Y-10564684D01*
X11574723Y-10745636D02*
X11584247Y-10755160D01*
X11584247Y-10755160D02*
X11574723Y-10764684D01*
X11574723Y-10764684D02*
X11565199Y-10755160D01*
X11565199Y-10755160D02*
X11574723Y-10745636D01*
X11574723Y-10745636D02*
X11574723Y-10764684D01*
X11708056Y-10564684D02*
X11727104Y-10564684D01*
X11727104Y-10564684D02*
X11746151Y-10574208D01*
X11746151Y-10574208D02*
X11755675Y-10583732D01*
X11755675Y-10583732D02*
X11765199Y-10602779D01*
X11765199Y-10602779D02*
X11774723Y-10640874D01*
X11774723Y-10640874D02*
X11774723Y-10688493D01*
X11774723Y-10688493D02*
X11765199Y-10726589D01*
X11765199Y-10726589D02*
X11755675Y-10745636D01*
X11755675Y-10745636D02*
X11746151Y-10755160D01*
X11746151Y-10755160D02*
X11727104Y-10764684D01*
X11727104Y-10764684D02*
X11708056Y-10764684D01*
X11708056Y-10764684D02*
X11689008Y-10755160D01*
X11689008Y-10755160D02*
X11679485Y-10745636D01*
X11679485Y-10745636D02*
X11669961Y-10726589D01*
X11669961Y-10726589D02*
X11660437Y-10688493D01*
X11660437Y-10688493D02*
X11660437Y-10640874D01*
X11660437Y-10640874D02*
X11669961Y-10602779D01*
X11669961Y-10602779D02*
X11679485Y-10583732D01*
X11679485Y-10583732D02*
X11689008Y-10574208D01*
X11689008Y-10574208D02*
X11708056Y-10564684D01*
X11965199Y-10764684D02*
X11850913Y-10764684D01*
X11908056Y-10764684D02*
X11908056Y-10564684D01*
X11908056Y-10564684D02*
X11889008Y-10593255D01*
X11889008Y-10593255D02*
X11869961Y-10612303D01*
X11869961Y-10612303D02*
X11850913Y-10621827D01*
X12146151Y-10564684D02*
X12050913Y-10564684D01*
X12050913Y-10564684D02*
X12041389Y-10659922D01*
X12041389Y-10659922D02*
X12050913Y-10650398D01*
X12050913Y-10650398D02*
X12069961Y-10640874D01*
X12069961Y-10640874D02*
X12117580Y-10640874D01*
X12117580Y-10640874D02*
X12136628Y-10650398D01*
X12136628Y-10650398D02*
X12146151Y-10659922D01*
X12146151Y-10659922D02*
X12155675Y-10678970D01*
X12155675Y-10678970D02*
X12155675Y-10726589D01*
X12155675Y-10726589D02*
X12146151Y-10745636D01*
X12146151Y-10745636D02*
X12136628Y-10755160D01*
X12136628Y-10755160D02*
X12117580Y-10764684D01*
X12117580Y-10764684D02*
X12069961Y-10764684D01*
X12069961Y-10764684D02*
X12050913Y-10755160D01*
X12050913Y-10755160D02*
X12041389Y-10745636D01*
X12222342Y-10564684D02*
X12355675Y-10564684D01*
X12355675Y-10564684D02*
X12269961Y-10764684D01*
X12422342Y-10564684D02*
X12422342Y-10602779D01*
X12498532Y-10564684D02*
X12498532Y-10602779D01*
X12793771Y-10840874D02*
X12784247Y-10831351D01*
X12784247Y-10831351D02*
X12765199Y-10802779D01*
X12765199Y-10802779D02*
X12755675Y-10783732D01*
X12755675Y-10783732D02*
X12746151Y-10755160D01*
X12746151Y-10755160D02*
X12736628Y-10707541D01*
X12736628Y-10707541D02*
X12736628Y-10669446D01*
X12736628Y-10669446D02*
X12746151Y-10621827D01*
X12746151Y-10621827D02*
X12755675Y-10593255D01*
X12755675Y-10593255D02*
X12765199Y-10574208D01*
X12765199Y-10574208D02*
X12784247Y-10545636D01*
X12784247Y-10545636D02*
X12793771Y-10536112D01*
X12860437Y-10583732D02*
X12869961Y-10574208D01*
X12869961Y-10574208D02*
X12889009Y-10564684D01*
X12889009Y-10564684D02*
X12936628Y-10564684D01*
X12936628Y-10564684D02*
X12955675Y-10574208D01*
X12955675Y-10574208D02*
X12965199Y-10583732D01*
X12965199Y-10583732D02*
X12974723Y-10602779D01*
X12974723Y-10602779D02*
X12974723Y-10621827D01*
X12974723Y-10621827D02*
X12965199Y-10650398D01*
X12965199Y-10650398D02*
X12850913Y-10764684D01*
X12850913Y-10764684D02*
X12974723Y-10764684D01*
X13212818Y-10764684D02*
X13212818Y-10564684D01*
X13298532Y-10764684D02*
X13298532Y-10659922D01*
X13298532Y-10659922D02*
X13289009Y-10640874D01*
X13289009Y-10640874D02*
X13269961Y-10631351D01*
X13269961Y-10631351D02*
X13241390Y-10631351D01*
X13241390Y-10631351D02*
X13222342Y-10640874D01*
X13222342Y-10640874D02*
X13212818Y-10650398D01*
X13422342Y-10764684D02*
X13403294Y-10755160D01*
X13403294Y-10755160D02*
X13393771Y-10745636D01*
X13393771Y-10745636D02*
X13384247Y-10726589D01*
X13384247Y-10726589D02*
X13384247Y-10669446D01*
X13384247Y-10669446D02*
X13393771Y-10650398D01*
X13393771Y-10650398D02*
X13403294Y-10640874D01*
X13403294Y-10640874D02*
X13422342Y-10631351D01*
X13422342Y-10631351D02*
X13450913Y-10631351D01*
X13450913Y-10631351D02*
X13469961Y-10640874D01*
X13469961Y-10640874D02*
X13479485Y-10650398D01*
X13479485Y-10650398D02*
X13489009Y-10669446D01*
X13489009Y-10669446D02*
X13489009Y-10726589D01*
X13489009Y-10726589D02*
X13479485Y-10745636D01*
X13479485Y-10745636D02*
X13469961Y-10755160D01*
X13469961Y-10755160D02*
X13450913Y-10764684D01*
X13450913Y-10764684D02*
X13422342Y-10764684D01*
X13603294Y-10764684D02*
X13584247Y-10755160D01*
X13584247Y-10755160D02*
X13574723Y-10736112D01*
X13574723Y-10736112D02*
X13574723Y-10564684D01*
X13755675Y-10755160D02*
X13736628Y-10764684D01*
X13736628Y-10764684D02*
X13698532Y-10764684D01*
X13698532Y-10764684D02*
X13679485Y-10755160D01*
X13679485Y-10755160D02*
X13669961Y-10736112D01*
X13669961Y-10736112D02*
X13669961Y-10659922D01*
X13669961Y-10659922D02*
X13679485Y-10640874D01*
X13679485Y-10640874D02*
X13698532Y-10631351D01*
X13698532Y-10631351D02*
X13736628Y-10631351D01*
X13736628Y-10631351D02*
X13755675Y-10640874D01*
X13755675Y-10640874D02*
X13765199Y-10659922D01*
X13765199Y-10659922D02*
X13765199Y-10678970D01*
X13765199Y-10678970D02*
X13669961Y-10698017D01*
X13841390Y-10755160D02*
X13860437Y-10764684D01*
X13860437Y-10764684D02*
X13898532Y-10764684D01*
X13898532Y-10764684D02*
X13917580Y-10755160D01*
X13917580Y-10755160D02*
X13927104Y-10736112D01*
X13927104Y-10736112D02*
X13927104Y-10726589D01*
X13927104Y-10726589D02*
X13917580Y-10707541D01*
X13917580Y-10707541D02*
X13898532Y-10698017D01*
X13898532Y-10698017D02*
X13869961Y-10698017D01*
X13869961Y-10698017D02*
X13850913Y-10688493D01*
X13850913Y-10688493D02*
X13841390Y-10669446D01*
X13841390Y-10669446D02*
X13841390Y-10659922D01*
X13841390Y-10659922D02*
X13850913Y-10640874D01*
X13850913Y-10640874D02*
X13869961Y-10631351D01*
X13869961Y-10631351D02*
X13898532Y-10631351D01*
X13898532Y-10631351D02*
X13917580Y-10640874D01*
X13993771Y-10840874D02*
X14003294Y-10831351D01*
X14003294Y-10831351D02*
X14022342Y-10802779D01*
X14022342Y-10802779D02*
X14031866Y-10783732D01*
X14031866Y-10783732D02*
X14041390Y-10755160D01*
X14041390Y-10755160D02*
X14050913Y-10707541D01*
X14050913Y-10707541D02*
X14050913Y-10669446D01*
X14050913Y-10669446D02*
X14041390Y-10621827D01*
X14041390Y-10621827D02*
X14031866Y-10593255D01*
X14031866Y-10593255D02*
X14022342Y-10574208D01*
X14022342Y-10574208D02*
X14003294Y-10545636D01*
X14003294Y-10545636D02*
X13993771Y-10536112D01*
M02*
