%TF.GenerationSoftware,KiCad,Pcbnew,8.0.5*%
%TF.CreationDate,2025-04-03T18:32:10+07:00*%
%TF.ProjectId,ZenFly F71,5a656e46-6c79-4204-9637-312e6b696361,rev?*%
%TF.SameCoordinates,Original*%
%TF.FileFunction,Paste,Bot*%
%TF.FilePolarity,Positive*%
%FSLAX46Y46*%
G04 Gerber Fmt 4.6, Leading zero omitted, Abs format (unit mm)*
G04 Created by KiCad (PCBNEW 8.0.5) date 2025-04-03 18:32:10*
%MOMM*%
%LPD*%
G01*
G04 APERTURE LIST*
G04 Aperture macros list*
%AMRoundRect*
0 Rectangle with rounded corners*
0 $1 Rounding radius*
0 $2 $3 $4 $5 $6 $7 $8 $9 X,Y pos of 4 corners*
0 Add a 4 corners polygon primitive as box body*
4,1,4,$2,$3,$4,$5,$6,$7,$8,$9,$2,$3,0*
0 Add four circle primitives for the rounded corners*
1,1,$1+$1,$2,$3*
1,1,$1+$1,$4,$5*
1,1,$1+$1,$6,$7*
1,1,$1+$1,$8,$9*
0 Add four rect primitives between the rounded corners*
20,1,$1+$1,$2,$3,$4,$5,0*
20,1,$1+$1,$4,$5,$6,$7,0*
20,1,$1+$1,$6,$7,$8,$9,0*
20,1,$1+$1,$8,$9,$2,$3,0*%
G04 Aperture macros list end*
%ADD10R,0.600000X0.487500*%
%ADD11R,0.310000X0.400000*%
%ADD12R,0.800000X0.775000*%
%ADD13R,0.487500X0.600000*%
%ADD14R,0.400000X0.310000*%
%ADD15R,0.525000X0.750000*%
%ADD16R,0.300000X0.500000*%
%ADD17R,1.050000X0.350000*%
%ADD18R,4.700000X1.600000*%
%ADD19RoundRect,0.234783X-0.895217X0.845217X-0.895217X-0.845217X0.895217X-0.845217X0.895217X0.845217X0*%
%ADD20RoundRect,0.072500X-0.732500X-0.217500X0.732500X-0.217500X0.732500X0.217500X-0.732500X0.217500X0*%
%ADD21R,0.600000X1.550000*%
%ADD22R,1.200000X1.800000*%
%ADD23R,0.800000X0.900000*%
%ADD24R,0.550000X0.550000*%
%ADD25R,0.500000X0.300000*%
%ADD26R,1.100000X0.700000*%
%ADD27R,0.930000X0.900000*%
%ADD28R,0.780000X1.050000*%
%ADD29R,1.830000X1.140000*%
%ADD30R,2.800000X0.860000*%
%ADD31R,3.330000X0.700000*%
%ADD32R,1.300000X0.875000*%
%ADD33R,1.100000X0.725000*%
%ADD34R,0.800000X0.300000*%
%ADD35R,0.300000X0.800000*%
%ADD36R,2.700000X2.700000*%
%ADD37R,1.300000X0.700000*%
%ADD38R,1.100000X0.800000*%
%ADD39RoundRect,0.218750X-0.381250X0.218750X-0.381250X-0.218750X0.381250X-0.218750X0.381250X0.218750X0*%
G04 APERTURE END LIST*
D10*
%TO.C,C32*%
X96763899Y-67245500D03*
X96763899Y-66318000D03*
%TD*%
D11*
%TO.C,C33_BEC1*%
X127302649Y-64097999D03*
X127792649Y-64097999D03*
%TD*%
D12*
%TO.C,LED8*%
X93277649Y-75435500D03*
X93277649Y-73960500D03*
%TD*%
D13*
%TO.C,C31_BEC1*%
X123738899Y-59513000D03*
X124666399Y-59513000D03*
%TD*%
D14*
%TO.C,C24*%
X98243899Y-66818000D03*
X98243899Y-67308000D03*
%TD*%
D13*
%TO.C,R29_BEC1*%
X128587649Y-59097999D03*
X127660149Y-59097999D03*
%TD*%
D15*
%TO.C,FL2*%
X114300000Y-67100000D03*
D16*
X115037500Y-66750000D03*
D15*
X115775000Y-67100000D03*
D16*
X115037500Y-67450000D03*
%TD*%
D17*
%TO.C,U8*%
X128287649Y-60443000D03*
X128287649Y-61097999D03*
X128287649Y-61748001D03*
X128287649Y-62397999D03*
X125987649Y-62397999D03*
X125987649Y-61748001D03*
X125987649Y-61097999D03*
X125987649Y-60448001D03*
%TD*%
D11*
%TO.C,C30*%
X101842649Y-62408000D03*
X102332649Y-62408000D03*
%TD*%
D18*
%TO.C,L1*%
X119087649Y-59298000D03*
X119087649Y-56198000D03*
%TD*%
D19*
%TO.C,D2*%
X113637649Y-56073000D03*
X113637649Y-60623000D03*
%TD*%
D20*
%TO.C,U3*%
X104482649Y-74043000D03*
X104482649Y-72773000D03*
X104482649Y-71503000D03*
X104482649Y-70233000D03*
X111692649Y-70233000D03*
X111692649Y-71503000D03*
X111692649Y-72773000D03*
X111692649Y-74043000D03*
%TD*%
D13*
%TO.C,R27_BEC1*%
X125720149Y-59097999D03*
X126647649Y-59097999D03*
%TD*%
D21*
%TO.C,J4*%
X115382649Y-84327999D03*
X114382649Y-84327999D03*
X113382649Y-84327999D03*
X112382649Y-84327999D03*
X111382649Y-84327999D03*
X110382649Y-84327999D03*
D22*
X116682649Y-88202999D03*
X109082649Y-88202999D03*
%TD*%
D23*
%TO.C,Y2*%
X96913899Y-64368000D03*
X96913899Y-62968000D03*
X98013899Y-62968000D03*
X98013899Y-64368000D03*
%TD*%
D11*
%TO.C,C45*%
X102857649Y-62408000D03*
X103347649Y-62408000D03*
%TD*%
%TO.C,C39*%
X98288899Y-65318000D03*
X97798899Y-65318000D03*
%TD*%
D24*
%TO.C,FL1*%
X107117649Y-64383000D03*
D25*
X106767649Y-63783000D03*
D24*
X107117649Y-63183000D03*
D25*
X107467649Y-63783000D03*
%TD*%
D13*
%TO.C,R26_BEC1*%
X125703899Y-64197999D03*
X126631399Y-64197999D03*
%TD*%
D10*
%TO.C,R28_BEC1*%
X128527649Y-65066749D03*
X128527649Y-64139249D03*
%TD*%
D14*
%TO.C,R2*%
X104387649Y-68403000D03*
X104387649Y-68893000D03*
%TD*%
D26*
%TO.C,J21*%
X130007649Y-75928000D03*
X130007649Y-74828000D03*
X130007649Y-73728000D03*
X130007649Y-72628000D03*
X130007649Y-71528000D03*
X130007649Y-70428000D03*
X130007649Y-69328000D03*
X130007649Y-68228000D03*
D27*
X117542649Y-77718000D03*
D28*
X117467649Y-73453000D03*
D29*
X129992649Y-79808000D03*
D30*
X129507649Y-67148000D03*
D31*
X118742649Y-80028000D03*
X118742649Y-67068000D03*
%TD*%
D11*
%TO.C,C40*%
X98288899Y-62018000D03*
X97798899Y-62018000D03*
%TD*%
D32*
%TO.C,C30_BEC1*%
X122487649Y-62973000D03*
X122487649Y-61323000D03*
%TD*%
D10*
%TO.C,C32_BEC1*%
X129557649Y-62025499D03*
X129557649Y-61097999D03*
%TD*%
D33*
%TO.C,C34_BEC1*%
X124362648Y-56697999D03*
X124362648Y-58077999D03*
%TD*%
D11*
%TO.C,R32*%
X93057649Y-76360500D03*
X93547649Y-76360500D03*
%TD*%
D32*
%TO.C,C29_BEC1*%
X124237649Y-62973000D03*
X124237649Y-61323000D03*
%TD*%
D13*
%TO.C,R30_BEC1*%
X127660149Y-58077999D03*
X128587649Y-58077999D03*
%TD*%
D34*
%TO.C,U11*%
X99390149Y-66818000D03*
X99390149Y-66318000D03*
X99390149Y-65818000D03*
X99390149Y-65318000D03*
X99390149Y-64818000D03*
X99390149Y-64318000D03*
D35*
X100140149Y-63568000D03*
X100640149Y-63568000D03*
X101140149Y-63568000D03*
X101640149Y-63568000D03*
X102140149Y-63568000D03*
X102640149Y-63568000D03*
D34*
X103390149Y-64318000D03*
X103390149Y-64818000D03*
X103390149Y-65318000D03*
X103390149Y-65818000D03*
X103390149Y-66318000D03*
X103390149Y-66818000D03*
D35*
X102640149Y-67568000D03*
X102140149Y-67568000D03*
X101640149Y-67568000D03*
X101140149Y-67568000D03*
X100640149Y-67568000D03*
X100140149Y-67568000D03*
D36*
X101390149Y-65568000D03*
%TD*%
D37*
%TO.C,SW2*%
X96482649Y-69458000D03*
X96482649Y-68458000D03*
X96482649Y-70458000D03*
D38*
X95482649Y-66458000D03*
X93282649Y-66458000D03*
X93282649Y-72458000D03*
X95482649Y-72458000D03*
%TD*%
D33*
%TO.C,C35_BEC1*%
X122987649Y-56697999D03*
X122987649Y-58077999D03*
%TD*%
D14*
%TO.C,C14*%
X113157649Y-73553000D03*
X113157649Y-74043000D03*
%TD*%
D39*
%TO.C,L3*%
X104868899Y-62295500D03*
X104868899Y-64420500D03*
%TD*%
D21*
%TO.C,J8*%
X109459077Y-53603000D03*
X110459077Y-53603000D03*
X111459077Y-53603000D03*
X112459077Y-53603000D03*
X113459077Y-53603000D03*
X114459077Y-53603000D03*
X115459077Y-53603000D03*
X116459077Y-53603000D03*
D22*
X117759077Y-49728000D03*
X108159077Y-49728000D03*
%TD*%
D11*
%TO.C,C31*%
X104398899Y-65318000D03*
X104888899Y-65318000D03*
%TD*%
D13*
%TO.C,R31_BEC1*%
X126647649Y-58077999D03*
X125720149Y-58077999D03*
%TD*%
D14*
%TO.C,R3*%
X105267649Y-68403000D03*
X105267649Y-68893000D03*
%TD*%
%TO.C,C29*%
X97543899Y-66818000D03*
X97543899Y-67308000D03*
%TD*%
M02*
