%TF.GenerationSoftware,KiCad,Pcbnew,8.0.5*%
%TF.CreationDate,2025-04-03T18:32:10+07:00*%
%TF.ProjectId,ZenFly F71,5a656e46-6c79-4204-9637-312e6b696361,rev?*%
%TF.SameCoordinates,Original*%
%TF.FileFunction,Legend,Bot*%
%TF.FilePolarity,Positive*%
%FSLAX46Y46*%
G04 Gerber Fmt 4.6, Leading zero omitted, Abs format (unit mm)*
G04 Created by KiCad (PCBNEW 8.0.5) date 2025-04-03 18:32:10*
%MOMM*%
%LPD*%
G01*
G04 APERTURE LIST*
%ADD10C,0.090000*%
%ADD11C,0.080000*%
%ADD12C,0.070000*%
%ADD13C,0.200000*%
%ADD14C,0.250000*%
%ADD15C,0.212500*%
%ADD16C,0.240000*%
%ADD17C,0.050000*%
%ADD18C,0.000000*%
%ADD19C,0.127000*%
%ADD20C,0.100000*%
%ADD21C,0.282841*%
G04 APERTURE END LIST*
D10*
X100909077Y-84250000D02*
G75*
G02*
X94509077Y-84250000I-3200000J0D01*
G01*
X94509077Y-84250000D02*
G75*
G02*
X100909077Y-84250000I3200000J0D01*
G01*
X131409077Y-53750000D02*
G75*
G02*
X125009077Y-53750000I-3200000J0D01*
G01*
X125009077Y-53750000D02*
G75*
G02*
X131409077Y-53750000I3200000J0D01*
G01*
X131409077Y-84250000D02*
G75*
G02*
X125009077Y-84250000I-3200000J0D01*
G01*
X125009077Y-84250000D02*
G75*
G02*
X131409077Y-84250000I3200000J0D01*
G01*
X100909077Y-53750000D02*
G75*
G02*
X94509077Y-53750000I-3200000J0D01*
G01*
X94509077Y-53750000D02*
G75*
G02*
X100909077Y-53750000I3200000J0D01*
G01*
D11*
X106491179Y-49281583D02*
X105941179Y-49281583D01*
X105941179Y-49281583D02*
X106334036Y-49464916D01*
X106334036Y-49464916D02*
X105941179Y-49648250D01*
X105941179Y-49648250D02*
X106491179Y-49648250D01*
X105941179Y-49857773D02*
X105941179Y-50198249D01*
X105941179Y-50198249D02*
X106150703Y-50014916D01*
X106150703Y-50014916D02*
X106150703Y-50093487D01*
X106150703Y-50093487D02*
X106176893Y-50145868D01*
X106176893Y-50145868D02*
X106203084Y-50172059D01*
X106203084Y-50172059D02*
X106255465Y-50198249D01*
X106255465Y-50198249D02*
X106386417Y-50198249D01*
X106386417Y-50198249D02*
X106438798Y-50172059D01*
X106438798Y-50172059D02*
X106464989Y-50145868D01*
X106464989Y-50145868D02*
X106491179Y-50093487D01*
X106491179Y-50093487D02*
X106491179Y-49936344D01*
X106491179Y-49936344D02*
X106464989Y-49883963D01*
X106464989Y-49883963D02*
X106438798Y-49857773D01*
X115639029Y-82409773D02*
X115639029Y-82514535D01*
X115639029Y-82514535D02*
X115612839Y-82566916D01*
X115612839Y-82566916D02*
X115586648Y-82593107D01*
X115586648Y-82593107D02*
X115508077Y-82645488D01*
X115508077Y-82645488D02*
X115403315Y-82671678D01*
X115403315Y-82671678D02*
X115193791Y-82671678D01*
X115193791Y-82671678D02*
X115141410Y-82645488D01*
X115141410Y-82645488D02*
X115115219Y-82619297D01*
X115115219Y-82619297D02*
X115089029Y-82566916D01*
X115089029Y-82566916D02*
X115089029Y-82462154D01*
X115089029Y-82462154D02*
X115115219Y-82409773D01*
X115115219Y-82409773D02*
X115141410Y-82383583D01*
X115141410Y-82383583D02*
X115193791Y-82357392D01*
X115193791Y-82357392D02*
X115324743Y-82357392D01*
X115324743Y-82357392D02*
X115377124Y-82383583D01*
X115377124Y-82383583D02*
X115403315Y-82409773D01*
X115403315Y-82409773D02*
X115429505Y-82462154D01*
X115429505Y-82462154D02*
X115429505Y-82566916D01*
X115429505Y-82566916D02*
X115403315Y-82619297D01*
X115403315Y-82619297D02*
X115377124Y-82645488D01*
X115377124Y-82645488D02*
X115324743Y-82671678D01*
X115089029Y-82828821D02*
X115639029Y-83012155D01*
X115639029Y-83012155D02*
X115089029Y-83195488D01*
X114115219Y-81990727D02*
X114089029Y-81938346D01*
X114089029Y-81938346D02*
X114089029Y-81859775D01*
X114089029Y-81859775D02*
X114115219Y-81781203D01*
X114115219Y-81781203D02*
X114167600Y-81728822D01*
X114167600Y-81728822D02*
X114219981Y-81702632D01*
X114219981Y-81702632D02*
X114324743Y-81676441D01*
X114324743Y-81676441D02*
X114403315Y-81676441D01*
X114403315Y-81676441D02*
X114508077Y-81702632D01*
X114508077Y-81702632D02*
X114560458Y-81728822D01*
X114560458Y-81728822D02*
X114612839Y-81781203D01*
X114612839Y-81781203D02*
X114639029Y-81859775D01*
X114639029Y-81859775D02*
X114639029Y-81912156D01*
X114639029Y-81912156D02*
X114612839Y-81990727D01*
X114612839Y-81990727D02*
X114586648Y-82016918D01*
X114586648Y-82016918D02*
X114403315Y-82016918D01*
X114403315Y-82016918D02*
X114403315Y-81912156D01*
X114639029Y-82252632D02*
X114089029Y-82252632D01*
X114089029Y-82252632D02*
X114639029Y-82566918D01*
X114639029Y-82566918D02*
X114089029Y-82566918D01*
X114639029Y-82828822D02*
X114089029Y-82828822D01*
X114089029Y-82828822D02*
X114089029Y-82959774D01*
X114089029Y-82959774D02*
X114115219Y-83038346D01*
X114115219Y-83038346D02*
X114167600Y-83090727D01*
X114167600Y-83090727D02*
X114219981Y-83116917D01*
X114219981Y-83116917D02*
X114324743Y-83143108D01*
X114324743Y-83143108D02*
X114403315Y-83143108D01*
X114403315Y-83143108D02*
X114508077Y-83116917D01*
X114508077Y-83116917D02*
X114560458Y-83090727D01*
X114560458Y-83090727D02*
X114612839Y-83038346D01*
X114612839Y-83038346D02*
X114639029Y-82959774D01*
X114639029Y-82959774D02*
X114639029Y-82828822D01*
D12*
X103560665Y-68211893D02*
X103429713Y-68761893D01*
X103429713Y-68761893D02*
X103324951Y-68369036D01*
X103324951Y-68369036D02*
X103220189Y-68761893D01*
X103220189Y-68761893D02*
X103089237Y-68211893D01*
X102879713Y-68761893D02*
X102879713Y-68211893D01*
X102643999Y-68761893D02*
X102643999Y-68473798D01*
X102643999Y-68473798D02*
X102670189Y-68421417D01*
X102670189Y-68421417D02*
X102722570Y-68395226D01*
X102722570Y-68395226D02*
X102801142Y-68395226D01*
X102801142Y-68395226D02*
X102853523Y-68421417D01*
X102853523Y-68421417D02*
X102879713Y-68447607D01*
X102172570Y-68735703D02*
X102224951Y-68761893D01*
X102224951Y-68761893D02*
X102329713Y-68761893D01*
X102329713Y-68761893D02*
X102382094Y-68735703D01*
X102382094Y-68735703D02*
X102408285Y-68683322D01*
X102408285Y-68683322D02*
X102408285Y-68473798D01*
X102408285Y-68473798D02*
X102382094Y-68421417D01*
X102382094Y-68421417D02*
X102329713Y-68395226D01*
X102329713Y-68395226D02*
X102224951Y-68395226D01*
X102224951Y-68395226D02*
X102172570Y-68421417D01*
X102172570Y-68421417D02*
X102146380Y-68473798D01*
X102146380Y-68473798D02*
X102146380Y-68526179D01*
X102146380Y-68526179D02*
X102408285Y-68578560D01*
X101910665Y-68395226D02*
X101910665Y-68761893D01*
X101910665Y-68447607D02*
X101884475Y-68421417D01*
X101884475Y-68421417D02*
X101832094Y-68395226D01*
X101832094Y-68395226D02*
X101753522Y-68395226D01*
X101753522Y-68395226D02*
X101701141Y-68421417D01*
X101701141Y-68421417D02*
X101674951Y-68473798D01*
X101674951Y-68473798D02*
X101674951Y-68761893D01*
X101072570Y-68395226D02*
X100863046Y-68395226D01*
X100993998Y-68761893D02*
X100993998Y-68290464D01*
X100993998Y-68290464D02*
X100967808Y-68238083D01*
X100967808Y-68238083D02*
X100915427Y-68211893D01*
X100915427Y-68211893D02*
X100863046Y-68211893D01*
X100601141Y-68761893D02*
X100653522Y-68735703D01*
X100653522Y-68735703D02*
X100679712Y-68683322D01*
X100679712Y-68683322D02*
X100679712Y-68211893D01*
X100155903Y-68761893D02*
X100155903Y-68473798D01*
X100155903Y-68473798D02*
X100182093Y-68421417D01*
X100182093Y-68421417D02*
X100234474Y-68395226D01*
X100234474Y-68395226D02*
X100339236Y-68395226D01*
X100339236Y-68395226D02*
X100391617Y-68421417D01*
X100155903Y-68735703D02*
X100208284Y-68761893D01*
X100208284Y-68761893D02*
X100339236Y-68761893D01*
X100339236Y-68761893D02*
X100391617Y-68735703D01*
X100391617Y-68735703D02*
X100417808Y-68683322D01*
X100417808Y-68683322D02*
X100417808Y-68630941D01*
X100417808Y-68630941D02*
X100391617Y-68578560D01*
X100391617Y-68578560D02*
X100339236Y-68552369D01*
X100339236Y-68552369D02*
X100208284Y-68552369D01*
X100208284Y-68552369D02*
X100155903Y-68526179D01*
X99920189Y-68735703D02*
X99867808Y-68761893D01*
X99867808Y-68761893D02*
X99763046Y-68761893D01*
X99763046Y-68761893D02*
X99710665Y-68735703D01*
X99710665Y-68735703D02*
X99684474Y-68683322D01*
X99684474Y-68683322D02*
X99684474Y-68657131D01*
X99684474Y-68657131D02*
X99710665Y-68604750D01*
X99710665Y-68604750D02*
X99763046Y-68578560D01*
X99763046Y-68578560D02*
X99841617Y-68578560D01*
X99841617Y-68578560D02*
X99893998Y-68552369D01*
X99893998Y-68552369D02*
X99920189Y-68499988D01*
X99920189Y-68499988D02*
X99920189Y-68473798D01*
X99920189Y-68473798D02*
X99893998Y-68421417D01*
X99893998Y-68421417D02*
X99841617Y-68395226D01*
X99841617Y-68395226D02*
X99763046Y-68395226D01*
X99763046Y-68395226D02*
X99710665Y-68421417D01*
X99448760Y-68761893D02*
X99448760Y-68211893D01*
X99213046Y-68761893D02*
X99213046Y-68473798D01*
X99213046Y-68473798D02*
X99239236Y-68421417D01*
X99239236Y-68421417D02*
X99291617Y-68395226D01*
X99291617Y-68395226D02*
X99370189Y-68395226D01*
X99370189Y-68395226D02*
X99422570Y-68421417D01*
X99422570Y-68421417D02*
X99448760Y-68447607D01*
X98951141Y-68761893D02*
X98951141Y-68395226D01*
X98951141Y-68211893D02*
X98977332Y-68238083D01*
X98977332Y-68238083D02*
X98951141Y-68264274D01*
X98951141Y-68264274D02*
X98924951Y-68238083D01*
X98924951Y-68238083D02*
X98951141Y-68211893D01*
X98951141Y-68211893D02*
X98951141Y-68264274D01*
X98689236Y-68395226D02*
X98689236Y-68761893D01*
X98689236Y-68447607D02*
X98663046Y-68421417D01*
X98663046Y-68421417D02*
X98610665Y-68395226D01*
X98610665Y-68395226D02*
X98532093Y-68395226D01*
X98532093Y-68395226D02*
X98479712Y-68421417D01*
X98479712Y-68421417D02*
X98453522Y-68473798D01*
X98453522Y-68473798D02*
X98453522Y-68761893D01*
X97955903Y-68395226D02*
X97955903Y-68840464D01*
X97955903Y-68840464D02*
X97982093Y-68892845D01*
X97982093Y-68892845D02*
X98008284Y-68919036D01*
X98008284Y-68919036D02*
X98060665Y-68945226D01*
X98060665Y-68945226D02*
X98139236Y-68945226D01*
X98139236Y-68945226D02*
X98191617Y-68919036D01*
X97955903Y-68735703D02*
X98008284Y-68761893D01*
X98008284Y-68761893D02*
X98113046Y-68761893D01*
X98113046Y-68761893D02*
X98165427Y-68735703D01*
X98165427Y-68735703D02*
X98191617Y-68709512D01*
X98191617Y-68709512D02*
X98217808Y-68657131D01*
X98217808Y-68657131D02*
X98217808Y-68499988D01*
X98217808Y-68499988D02*
X98191617Y-68447607D01*
X98191617Y-68447607D02*
X98165427Y-68421417D01*
X98165427Y-68421417D02*
X98113046Y-68395226D01*
X98113046Y-68395226D02*
X98008284Y-68395226D01*
X98008284Y-68395226D02*
X97955903Y-68421417D01*
X103063047Y-69359267D02*
X102879714Y-69359267D01*
X102801142Y-69647362D02*
X103063047Y-69647362D01*
X103063047Y-69647362D02*
X103063047Y-69097362D01*
X103063047Y-69097362D02*
X102801142Y-69097362D01*
X102303523Y-69647362D02*
X102565428Y-69647362D01*
X102565428Y-69647362D02*
X102565428Y-69097362D01*
X101805904Y-69647362D02*
X101989238Y-69385457D01*
X102120190Y-69647362D02*
X102120190Y-69097362D01*
X102120190Y-69097362D02*
X101910666Y-69097362D01*
X101910666Y-69097362D02*
X101858285Y-69123552D01*
X101858285Y-69123552D02*
X101832095Y-69149743D01*
X101832095Y-69149743D02*
X101805904Y-69202124D01*
X101805904Y-69202124D02*
X101805904Y-69280695D01*
X101805904Y-69280695D02*
X101832095Y-69333076D01*
X101832095Y-69333076D02*
X101858285Y-69359267D01*
X101858285Y-69359267D02*
X101910666Y-69385457D01*
X101910666Y-69385457D02*
X102120190Y-69385457D01*
X101596381Y-69621172D02*
X101517809Y-69647362D01*
X101517809Y-69647362D02*
X101386857Y-69647362D01*
X101386857Y-69647362D02*
X101334476Y-69621172D01*
X101334476Y-69621172D02*
X101308285Y-69594981D01*
X101308285Y-69594981D02*
X101282095Y-69542600D01*
X101282095Y-69542600D02*
X101282095Y-69490219D01*
X101282095Y-69490219D02*
X101308285Y-69437838D01*
X101308285Y-69437838D02*
X101334476Y-69411648D01*
X101334476Y-69411648D02*
X101386857Y-69385457D01*
X101386857Y-69385457D02*
X101491619Y-69359267D01*
X101491619Y-69359267D02*
X101544000Y-69333076D01*
X101544000Y-69333076D02*
X101570190Y-69306886D01*
X101570190Y-69306886D02*
X101596381Y-69254505D01*
X101596381Y-69254505D02*
X101596381Y-69202124D01*
X101596381Y-69202124D02*
X101570190Y-69149743D01*
X101570190Y-69149743D02*
X101544000Y-69123552D01*
X101544000Y-69123552D02*
X101491619Y-69097362D01*
X101491619Y-69097362D02*
X101360666Y-69097362D01*
X101360666Y-69097362D02*
X101282095Y-69123552D01*
X101020190Y-69621172D02*
X101020190Y-69647362D01*
X101020190Y-69647362D02*
X101046380Y-69699743D01*
X101046380Y-69699743D02*
X101072571Y-69725933D01*
X100365427Y-69280695D02*
X100365427Y-69830695D01*
X100365427Y-69306886D02*
X100313046Y-69280695D01*
X100313046Y-69280695D02*
X100208284Y-69280695D01*
X100208284Y-69280695D02*
X100155903Y-69306886D01*
X100155903Y-69306886D02*
X100129713Y-69333076D01*
X100129713Y-69333076D02*
X100103522Y-69385457D01*
X100103522Y-69385457D02*
X100103522Y-69542600D01*
X100103522Y-69542600D02*
X100129713Y-69594981D01*
X100129713Y-69594981D02*
X100155903Y-69621172D01*
X100155903Y-69621172D02*
X100208284Y-69647362D01*
X100208284Y-69647362D02*
X100313046Y-69647362D01*
X100313046Y-69647362D02*
X100365427Y-69621172D01*
X99789237Y-69647362D02*
X99841618Y-69621172D01*
X99841618Y-69621172D02*
X99867808Y-69568791D01*
X99867808Y-69568791D02*
X99867808Y-69097362D01*
X99370189Y-69621172D02*
X99422570Y-69647362D01*
X99422570Y-69647362D02*
X99527332Y-69647362D01*
X99527332Y-69647362D02*
X99579713Y-69621172D01*
X99579713Y-69621172D02*
X99605904Y-69568791D01*
X99605904Y-69568791D02*
X99605904Y-69359267D01*
X99605904Y-69359267D02*
X99579713Y-69306886D01*
X99579713Y-69306886D02*
X99527332Y-69280695D01*
X99527332Y-69280695D02*
X99422570Y-69280695D01*
X99422570Y-69280695D02*
X99370189Y-69306886D01*
X99370189Y-69306886D02*
X99343999Y-69359267D01*
X99343999Y-69359267D02*
X99343999Y-69411648D01*
X99343999Y-69411648D02*
X99605904Y-69464029D01*
X98872570Y-69647362D02*
X98872570Y-69359267D01*
X98872570Y-69359267D02*
X98898760Y-69306886D01*
X98898760Y-69306886D02*
X98951141Y-69280695D01*
X98951141Y-69280695D02*
X99055903Y-69280695D01*
X99055903Y-69280695D02*
X99108284Y-69306886D01*
X98872570Y-69621172D02*
X98924951Y-69647362D01*
X98924951Y-69647362D02*
X99055903Y-69647362D01*
X99055903Y-69647362D02*
X99108284Y-69621172D01*
X99108284Y-69621172D02*
X99134475Y-69568791D01*
X99134475Y-69568791D02*
X99134475Y-69516410D01*
X99134475Y-69516410D02*
X99108284Y-69464029D01*
X99108284Y-69464029D02*
X99055903Y-69437838D01*
X99055903Y-69437838D02*
X98924951Y-69437838D01*
X98924951Y-69437838D02*
X98872570Y-69411648D01*
X98636856Y-69621172D02*
X98584475Y-69647362D01*
X98584475Y-69647362D02*
X98479713Y-69647362D01*
X98479713Y-69647362D02*
X98427332Y-69621172D01*
X98427332Y-69621172D02*
X98401141Y-69568791D01*
X98401141Y-69568791D02*
X98401141Y-69542600D01*
X98401141Y-69542600D02*
X98427332Y-69490219D01*
X98427332Y-69490219D02*
X98479713Y-69464029D01*
X98479713Y-69464029D02*
X98558284Y-69464029D01*
X98558284Y-69464029D02*
X98610665Y-69437838D01*
X98610665Y-69437838D02*
X98636856Y-69385457D01*
X98636856Y-69385457D02*
X98636856Y-69359267D01*
X98636856Y-69359267D02*
X98610665Y-69306886D01*
X98610665Y-69306886D02*
X98558284Y-69280695D01*
X98558284Y-69280695D02*
X98479713Y-69280695D01*
X98479713Y-69280695D02*
X98427332Y-69306886D01*
X97955903Y-69621172D02*
X98008284Y-69647362D01*
X98008284Y-69647362D02*
X98113046Y-69647362D01*
X98113046Y-69647362D02*
X98165427Y-69621172D01*
X98165427Y-69621172D02*
X98191618Y-69568791D01*
X98191618Y-69568791D02*
X98191618Y-69359267D01*
X98191618Y-69359267D02*
X98165427Y-69306886D01*
X98165427Y-69306886D02*
X98113046Y-69280695D01*
X98113046Y-69280695D02*
X98008284Y-69280695D01*
X98008284Y-69280695D02*
X97955903Y-69306886D01*
X97955903Y-69306886D02*
X97929713Y-69359267D01*
X97929713Y-69359267D02*
X97929713Y-69411648D01*
X97929713Y-69411648D02*
X98191618Y-69464029D01*
X100967809Y-70166164D02*
X100758285Y-70166164D01*
X100889237Y-69982831D02*
X100889237Y-70454260D01*
X100889237Y-70454260D02*
X100863047Y-70506641D01*
X100863047Y-70506641D02*
X100810666Y-70532831D01*
X100810666Y-70532831D02*
X100758285Y-70532831D01*
X100339237Y-70166164D02*
X100339237Y-70532831D01*
X100574951Y-70166164D02*
X100574951Y-70454260D01*
X100574951Y-70454260D02*
X100548761Y-70506641D01*
X100548761Y-70506641D02*
X100496380Y-70532831D01*
X100496380Y-70532831D02*
X100417808Y-70532831D01*
X100417808Y-70532831D02*
X100365427Y-70506641D01*
X100365427Y-70506641D02*
X100339237Y-70480450D01*
X100077332Y-70532831D02*
X100077332Y-70166164D01*
X100077332Y-70270926D02*
X100051142Y-70218545D01*
X100051142Y-70218545D02*
X100024951Y-70192355D01*
X100024951Y-70192355D02*
X99972570Y-70166164D01*
X99972570Y-70166164D02*
X99920189Y-70166164D01*
X99736856Y-70166164D02*
X99736856Y-70532831D01*
X99736856Y-70218545D02*
X99710666Y-70192355D01*
X99710666Y-70192355D02*
X99658285Y-70166164D01*
X99658285Y-70166164D02*
X99579713Y-70166164D01*
X99579713Y-70166164D02*
X99527332Y-70192355D01*
X99527332Y-70192355D02*
X99501142Y-70244736D01*
X99501142Y-70244736D02*
X99501142Y-70532831D01*
X98741618Y-70532831D02*
X98793999Y-70506641D01*
X98793999Y-70506641D02*
X98820189Y-70480450D01*
X98820189Y-70480450D02*
X98846380Y-70428069D01*
X98846380Y-70428069D02*
X98846380Y-70270926D01*
X98846380Y-70270926D02*
X98820189Y-70218545D01*
X98820189Y-70218545D02*
X98793999Y-70192355D01*
X98793999Y-70192355D02*
X98741618Y-70166164D01*
X98741618Y-70166164D02*
X98663046Y-70166164D01*
X98663046Y-70166164D02*
X98610665Y-70192355D01*
X98610665Y-70192355D02*
X98584475Y-70218545D01*
X98584475Y-70218545D02*
X98558284Y-70270926D01*
X98558284Y-70270926D02*
X98558284Y-70428069D01*
X98558284Y-70428069D02*
X98584475Y-70480450D01*
X98584475Y-70480450D02*
X98610665Y-70506641D01*
X98610665Y-70506641D02*
X98663046Y-70532831D01*
X98663046Y-70532831D02*
X98741618Y-70532831D01*
X98401142Y-70166164D02*
X98191618Y-70166164D01*
X98322570Y-70532831D02*
X98322570Y-70061402D01*
X98322570Y-70061402D02*
X98296380Y-70009021D01*
X98296380Y-70009021D02*
X98243999Y-69982831D01*
X98243999Y-69982831D02*
X98191618Y-69982831D01*
X98086856Y-70166164D02*
X97877332Y-70166164D01*
X98008284Y-70532831D02*
X98008284Y-70061402D01*
X98008284Y-70061402D02*
X97982094Y-70009021D01*
X97982094Y-70009021D02*
X97929713Y-69982831D01*
X97929713Y-69982831D02*
X97877332Y-69982831D01*
X101517808Y-71418300D02*
X101701142Y-71156395D01*
X101832094Y-71418300D02*
X101832094Y-70868300D01*
X101832094Y-70868300D02*
X101622570Y-70868300D01*
X101622570Y-70868300D02*
X101570189Y-70894490D01*
X101570189Y-70894490D02*
X101543999Y-70920681D01*
X101543999Y-70920681D02*
X101517808Y-70973062D01*
X101517808Y-70973062D02*
X101517808Y-71051633D01*
X101517808Y-71051633D02*
X101543999Y-71104014D01*
X101543999Y-71104014D02*
X101570189Y-71130205D01*
X101570189Y-71130205D02*
X101622570Y-71156395D01*
X101622570Y-71156395D02*
X101832094Y-71156395D01*
X101334475Y-70868300D02*
X100967808Y-71418300D01*
X100967808Y-70868300D02*
X101334475Y-71418300D01*
X100339236Y-71051633D02*
X100339236Y-71601633D01*
X100339236Y-71077824D02*
X100286855Y-71051633D01*
X100286855Y-71051633D02*
X100182093Y-71051633D01*
X100182093Y-71051633D02*
X100129712Y-71077824D01*
X100129712Y-71077824D02*
X100103522Y-71104014D01*
X100103522Y-71104014D02*
X100077331Y-71156395D01*
X100077331Y-71156395D02*
X100077331Y-71313538D01*
X100077331Y-71313538D02*
X100103522Y-71365919D01*
X100103522Y-71365919D02*
X100129712Y-71392110D01*
X100129712Y-71392110D02*
X100182093Y-71418300D01*
X100182093Y-71418300D02*
X100286855Y-71418300D01*
X100286855Y-71418300D02*
X100339236Y-71392110D01*
X99763046Y-71418300D02*
X99815427Y-71392110D01*
X99815427Y-71392110D02*
X99841617Y-71365919D01*
X99841617Y-71365919D02*
X99867808Y-71313538D01*
X99867808Y-71313538D02*
X99867808Y-71156395D01*
X99867808Y-71156395D02*
X99841617Y-71104014D01*
X99841617Y-71104014D02*
X99815427Y-71077824D01*
X99815427Y-71077824D02*
X99763046Y-71051633D01*
X99763046Y-71051633D02*
X99684474Y-71051633D01*
X99684474Y-71051633D02*
X99632093Y-71077824D01*
X99632093Y-71077824D02*
X99605903Y-71104014D01*
X99605903Y-71104014D02*
X99579712Y-71156395D01*
X99579712Y-71156395D02*
X99579712Y-71313538D01*
X99579712Y-71313538D02*
X99605903Y-71365919D01*
X99605903Y-71365919D02*
X99632093Y-71392110D01*
X99632093Y-71392110D02*
X99684474Y-71418300D01*
X99684474Y-71418300D02*
X99763046Y-71418300D01*
X99396379Y-71051633D02*
X99291617Y-71418300D01*
X99291617Y-71418300D02*
X99186855Y-71156395D01*
X99186855Y-71156395D02*
X99082093Y-71418300D01*
X99082093Y-71418300D02*
X98977331Y-71051633D01*
X98558284Y-71392110D02*
X98610665Y-71418300D01*
X98610665Y-71418300D02*
X98715427Y-71418300D01*
X98715427Y-71418300D02*
X98767808Y-71392110D01*
X98767808Y-71392110D02*
X98793999Y-71339729D01*
X98793999Y-71339729D02*
X98793999Y-71130205D01*
X98793999Y-71130205D02*
X98767808Y-71077824D01*
X98767808Y-71077824D02*
X98715427Y-71051633D01*
X98715427Y-71051633D02*
X98610665Y-71051633D01*
X98610665Y-71051633D02*
X98558284Y-71077824D01*
X98558284Y-71077824D02*
X98532094Y-71130205D01*
X98532094Y-71130205D02*
X98532094Y-71182586D01*
X98532094Y-71182586D02*
X98793999Y-71234967D01*
X98296379Y-71418300D02*
X98296379Y-71051633D01*
X98296379Y-71156395D02*
X98270189Y-71104014D01*
X98270189Y-71104014D02*
X98243998Y-71077824D01*
X98243998Y-71077824D02*
X98191617Y-71051633D01*
X98191617Y-71051633D02*
X98139236Y-71051633D01*
X97955903Y-71365919D02*
X97929713Y-71392110D01*
X97929713Y-71392110D02*
X97955903Y-71418300D01*
X97955903Y-71418300D02*
X97982094Y-71392110D01*
X97982094Y-71392110D02*
X97955903Y-71365919D01*
X97955903Y-71365919D02*
X97955903Y-71418300D01*
X97955903Y-71208776D02*
X97982094Y-70894490D01*
X97982094Y-70894490D02*
X97955903Y-70868300D01*
X97955903Y-70868300D02*
X97929713Y-70894490D01*
X97929713Y-70894490D02*
X97955903Y-71208776D01*
X97955903Y-71208776D02*
X97955903Y-70868300D01*
D10*
X95377407Y-62380019D02*
X95377407Y-62027638D01*
X95377407Y-62027638D02*
X95729788Y-61992400D01*
X95729788Y-61992400D02*
X95694549Y-62027638D01*
X95694549Y-62027638D02*
X95659311Y-62098114D01*
X95659311Y-62098114D02*
X95659311Y-62274305D01*
X95659311Y-62274305D02*
X95694549Y-62344781D01*
X95694549Y-62344781D02*
X95729788Y-62380019D01*
X95729788Y-62380019D02*
X95800264Y-62415257D01*
X95800264Y-62415257D02*
X95976454Y-62415257D01*
X95976454Y-62415257D02*
X96046930Y-62380019D01*
X96046930Y-62380019D02*
X96082169Y-62344781D01*
X96082169Y-62344781D02*
X96117407Y-62274305D01*
X96117407Y-62274305D02*
X96117407Y-62098114D01*
X96117407Y-62098114D02*
X96082169Y-62027638D01*
X96082169Y-62027638D02*
X96046930Y-61992400D01*
X95447883Y-62697162D02*
X95412645Y-62732400D01*
X95412645Y-62732400D02*
X95377407Y-62802876D01*
X95377407Y-62802876D02*
X95377407Y-62979067D01*
X95377407Y-62979067D02*
X95412645Y-63049543D01*
X95412645Y-63049543D02*
X95447883Y-63084781D01*
X95447883Y-63084781D02*
X95518359Y-63120019D01*
X95518359Y-63120019D02*
X95588835Y-63120019D01*
X95588835Y-63120019D02*
X95694549Y-63084781D01*
X95694549Y-63084781D02*
X96117407Y-62661924D01*
X96117407Y-62661924D02*
X96117407Y-63120019D01*
X96117407Y-63437162D02*
X95377407Y-63437162D01*
X95377407Y-63437162D02*
X95905978Y-63683829D01*
X95905978Y-63683829D02*
X95377407Y-63930495D01*
X95377407Y-63930495D02*
X96117407Y-63930495D01*
X96117407Y-64282876D02*
X95377407Y-64282876D01*
X95729788Y-64282876D02*
X95729788Y-64705733D01*
X96117407Y-64705733D02*
X95377407Y-64705733D01*
X95624073Y-64987638D02*
X95624073Y-65375257D01*
X95624073Y-65375257D02*
X96117407Y-64987638D01*
X96117407Y-64987638D02*
X96117407Y-65375257D01*
D11*
X111115219Y-81990727D02*
X111089029Y-81938346D01*
X111089029Y-81938346D02*
X111089029Y-81859775D01*
X111089029Y-81859775D02*
X111115219Y-81781203D01*
X111115219Y-81781203D02*
X111167600Y-81728822D01*
X111167600Y-81728822D02*
X111219981Y-81702632D01*
X111219981Y-81702632D02*
X111324743Y-81676441D01*
X111324743Y-81676441D02*
X111403315Y-81676441D01*
X111403315Y-81676441D02*
X111508077Y-81702632D01*
X111508077Y-81702632D02*
X111560458Y-81728822D01*
X111560458Y-81728822D02*
X111612839Y-81781203D01*
X111612839Y-81781203D02*
X111639029Y-81859775D01*
X111639029Y-81859775D02*
X111639029Y-81912156D01*
X111639029Y-81912156D02*
X111612839Y-81990727D01*
X111612839Y-81990727D02*
X111586648Y-82016918D01*
X111586648Y-82016918D02*
X111403315Y-82016918D01*
X111403315Y-82016918D02*
X111403315Y-81912156D01*
X111639029Y-82252632D02*
X111089029Y-82252632D01*
X111089029Y-82252632D02*
X111639029Y-82566918D01*
X111639029Y-82566918D02*
X111089029Y-82566918D01*
X111639029Y-82828822D02*
X111089029Y-82828822D01*
X111089029Y-82828822D02*
X111089029Y-82959774D01*
X111089029Y-82959774D02*
X111115219Y-83038346D01*
X111115219Y-83038346D02*
X111167600Y-83090727D01*
X111167600Y-83090727D02*
X111219981Y-83116917D01*
X111219981Y-83116917D02*
X111324743Y-83143108D01*
X111324743Y-83143108D02*
X111403315Y-83143108D01*
X111403315Y-83143108D02*
X111508077Y-83116917D01*
X111508077Y-83116917D02*
X111560458Y-83090727D01*
X111560458Y-83090727D02*
X111612839Y-83038346D01*
X111612839Y-83038346D02*
X111639029Y-82959774D01*
X111639029Y-82959774D02*
X111639029Y-82828822D01*
X120291179Y-49281583D02*
X119741179Y-49281583D01*
X119741179Y-49281583D02*
X120134036Y-49464916D01*
X120134036Y-49464916D02*
X119741179Y-49648250D01*
X119741179Y-49648250D02*
X120291179Y-49648250D01*
X119793560Y-49883963D02*
X119767369Y-49910154D01*
X119767369Y-49910154D02*
X119741179Y-49962535D01*
X119741179Y-49962535D02*
X119741179Y-50093487D01*
X119741179Y-50093487D02*
X119767369Y-50145868D01*
X119767369Y-50145868D02*
X119793560Y-50172059D01*
X119793560Y-50172059D02*
X119845941Y-50198249D01*
X119845941Y-50198249D02*
X119898322Y-50198249D01*
X119898322Y-50198249D02*
X119976893Y-50172059D01*
X119976893Y-50172059D02*
X120291179Y-49857773D01*
X120291179Y-49857773D02*
X120291179Y-50198249D01*
X104438798Y-49595869D02*
X104464989Y-49569678D01*
X104464989Y-49569678D02*
X104491179Y-49491107D01*
X104491179Y-49491107D02*
X104491179Y-49438726D01*
X104491179Y-49438726D02*
X104464989Y-49360154D01*
X104464989Y-49360154D02*
X104412608Y-49307773D01*
X104412608Y-49307773D02*
X104360227Y-49281583D01*
X104360227Y-49281583D02*
X104255465Y-49255392D01*
X104255465Y-49255392D02*
X104176893Y-49255392D01*
X104176893Y-49255392D02*
X104072131Y-49281583D01*
X104072131Y-49281583D02*
X104019750Y-49307773D01*
X104019750Y-49307773D02*
X103967369Y-49360154D01*
X103967369Y-49360154D02*
X103941179Y-49438726D01*
X103941179Y-49438726D02*
X103941179Y-49491107D01*
X103941179Y-49491107D02*
X103967369Y-49569678D01*
X103967369Y-49569678D02*
X103993560Y-49595869D01*
X122003084Y-49464916D02*
X122029274Y-49543488D01*
X122029274Y-49543488D02*
X122055465Y-49569678D01*
X122055465Y-49569678D02*
X122107846Y-49595869D01*
X122107846Y-49595869D02*
X122186417Y-49595869D01*
X122186417Y-49595869D02*
X122238798Y-49569678D01*
X122238798Y-49569678D02*
X122264989Y-49543488D01*
X122264989Y-49543488D02*
X122291179Y-49491107D01*
X122291179Y-49491107D02*
X122291179Y-49281583D01*
X122291179Y-49281583D02*
X121741179Y-49281583D01*
X121741179Y-49281583D02*
X121741179Y-49464916D01*
X121741179Y-49464916D02*
X121767369Y-49517297D01*
X121767369Y-49517297D02*
X121793560Y-49543488D01*
X121793560Y-49543488D02*
X121845941Y-49569678D01*
X121845941Y-49569678D02*
X121898322Y-49569678D01*
X121898322Y-49569678D02*
X121950703Y-49543488D01*
X121950703Y-49543488D02*
X121976893Y-49517297D01*
X121976893Y-49517297D02*
X122003084Y-49464916D01*
X122003084Y-49464916D02*
X122003084Y-49281583D01*
X122134036Y-49805392D02*
X122134036Y-50067297D01*
X122291179Y-49753011D02*
X121741179Y-49936345D01*
X121741179Y-49936345D02*
X122291179Y-50119678D01*
X121741179Y-50224440D02*
X121741179Y-50538726D01*
X122291179Y-50381583D02*
X121741179Y-50381583D01*
X122767369Y-49569678D02*
X122741179Y-49517297D01*
X122741179Y-49517297D02*
X122741179Y-49438726D01*
X122741179Y-49438726D02*
X122767369Y-49360154D01*
X122767369Y-49360154D02*
X122819750Y-49307773D01*
X122819750Y-49307773D02*
X122872131Y-49281583D01*
X122872131Y-49281583D02*
X122976893Y-49255392D01*
X122976893Y-49255392D02*
X123055465Y-49255392D01*
X123055465Y-49255392D02*
X123160227Y-49281583D01*
X123160227Y-49281583D02*
X123212608Y-49307773D01*
X123212608Y-49307773D02*
X123264989Y-49360154D01*
X123264989Y-49360154D02*
X123291179Y-49438726D01*
X123291179Y-49438726D02*
X123291179Y-49491107D01*
X123291179Y-49491107D02*
X123264989Y-49569678D01*
X123264989Y-49569678D02*
X123238798Y-49595869D01*
X123238798Y-49595869D02*
X123055465Y-49595869D01*
X123055465Y-49595869D02*
X123055465Y-49491107D01*
X112639029Y-82619298D02*
X112377124Y-82435964D01*
X112639029Y-82305012D02*
X112089029Y-82305012D01*
X112089029Y-82305012D02*
X112089029Y-82514536D01*
X112089029Y-82514536D02*
X112115219Y-82566917D01*
X112115219Y-82566917D02*
X112141410Y-82593107D01*
X112141410Y-82593107D02*
X112193791Y-82619298D01*
X112193791Y-82619298D02*
X112272362Y-82619298D01*
X112272362Y-82619298D02*
X112324743Y-82593107D01*
X112324743Y-82593107D02*
X112350934Y-82566917D01*
X112350934Y-82566917D02*
X112377124Y-82514536D01*
X112377124Y-82514536D02*
X112377124Y-82305012D01*
X112089029Y-82802631D02*
X112639029Y-83169298D01*
X112089029Y-83169298D02*
X112639029Y-82802631D01*
X103491179Y-49595869D02*
X103229274Y-49412535D01*
X103491179Y-49281583D02*
X102941179Y-49281583D01*
X102941179Y-49281583D02*
X102941179Y-49491107D01*
X102941179Y-49491107D02*
X102967369Y-49543488D01*
X102967369Y-49543488D02*
X102993560Y-49569678D01*
X102993560Y-49569678D02*
X103045941Y-49595869D01*
X103045941Y-49595869D02*
X103124512Y-49595869D01*
X103124512Y-49595869D02*
X103176893Y-49569678D01*
X103176893Y-49569678D02*
X103203084Y-49543488D01*
X103203084Y-49543488D02*
X103229274Y-49491107D01*
X103229274Y-49491107D02*
X103229274Y-49281583D01*
X102941179Y-49779202D02*
X103491179Y-50145869D01*
X102941179Y-50145869D02*
X103491179Y-49779202D01*
D10*
X111132456Y-57397398D02*
X111032456Y-57430731D01*
X111032456Y-57430731D02*
X110865790Y-57430731D01*
X110865790Y-57430731D02*
X110799123Y-57397398D01*
X110799123Y-57397398D02*
X110765790Y-57364064D01*
X110765790Y-57364064D02*
X110732456Y-57297398D01*
X110732456Y-57297398D02*
X110732456Y-57230731D01*
X110732456Y-57230731D02*
X110765790Y-57164064D01*
X110765790Y-57164064D02*
X110799123Y-57130731D01*
X110799123Y-57130731D02*
X110865790Y-57097398D01*
X110865790Y-57097398D02*
X110999123Y-57064064D01*
X110999123Y-57064064D02*
X111065790Y-57030731D01*
X111065790Y-57030731D02*
X111099123Y-56997398D01*
X111099123Y-56997398D02*
X111132456Y-56930731D01*
X111132456Y-56930731D02*
X111132456Y-56864064D01*
X111132456Y-56864064D02*
X111099123Y-56797398D01*
X111099123Y-56797398D02*
X111065790Y-56764064D01*
X111065790Y-56764064D02*
X110999123Y-56730731D01*
X110999123Y-56730731D02*
X110832456Y-56730731D01*
X110832456Y-56730731D02*
X110732456Y-56764064D01*
X110432456Y-56964064D02*
X110432456Y-57664064D01*
X110432456Y-56997398D02*
X110365789Y-56964064D01*
X110365789Y-56964064D02*
X110232456Y-56964064D01*
X110232456Y-56964064D02*
X110165789Y-56997398D01*
X110165789Y-56997398D02*
X110132456Y-57030731D01*
X110132456Y-57030731D02*
X110099123Y-57097398D01*
X110099123Y-57097398D02*
X110099123Y-57297398D01*
X110099123Y-57297398D02*
X110132456Y-57364064D01*
X110132456Y-57364064D02*
X110165789Y-57397398D01*
X110165789Y-57397398D02*
X110232456Y-57430731D01*
X110232456Y-57430731D02*
X110365789Y-57430731D01*
X110365789Y-57430731D02*
X110432456Y-57397398D01*
X109532456Y-57397398D02*
X109599123Y-57430731D01*
X109599123Y-57430731D02*
X109732456Y-57430731D01*
X109732456Y-57430731D02*
X109799123Y-57397398D01*
X109799123Y-57397398D02*
X109832456Y-57330731D01*
X109832456Y-57330731D02*
X109832456Y-57064064D01*
X109832456Y-57064064D02*
X109799123Y-56997398D01*
X109799123Y-56997398D02*
X109732456Y-56964064D01*
X109732456Y-56964064D02*
X109599123Y-56964064D01*
X109599123Y-56964064D02*
X109532456Y-56997398D01*
X109532456Y-56997398D02*
X109499123Y-57064064D01*
X109499123Y-57064064D02*
X109499123Y-57130731D01*
X109499123Y-57130731D02*
X109832456Y-57197398D01*
X108932456Y-57397398D02*
X108999123Y-57430731D01*
X108999123Y-57430731D02*
X109132456Y-57430731D01*
X109132456Y-57430731D02*
X109199123Y-57397398D01*
X109199123Y-57397398D02*
X109232456Y-57330731D01*
X109232456Y-57330731D02*
X109232456Y-57064064D01*
X109232456Y-57064064D02*
X109199123Y-56997398D01*
X109199123Y-56997398D02*
X109132456Y-56964064D01*
X109132456Y-56964064D02*
X108999123Y-56964064D01*
X108999123Y-56964064D02*
X108932456Y-56997398D01*
X108932456Y-56997398D02*
X108899123Y-57064064D01*
X108899123Y-57064064D02*
X108899123Y-57130731D01*
X108899123Y-57130731D02*
X109232456Y-57197398D01*
X108299123Y-57430731D02*
X108299123Y-56730731D01*
X108299123Y-57397398D02*
X108365790Y-57430731D01*
X108365790Y-57430731D02*
X108499123Y-57430731D01*
X108499123Y-57430731D02*
X108565790Y-57397398D01*
X108565790Y-57397398D02*
X108599123Y-57364064D01*
X108599123Y-57364064D02*
X108632456Y-57297398D01*
X108632456Y-57297398D02*
X108632456Y-57097398D01*
X108632456Y-57097398D02*
X108599123Y-57030731D01*
X108599123Y-57030731D02*
X108565790Y-56997398D01*
X108565790Y-56997398D02*
X108499123Y-56964064D01*
X108499123Y-56964064D02*
X108365790Y-56964064D01*
X108365790Y-56964064D02*
X108299123Y-56997398D01*
X108032457Y-56964064D02*
X107865790Y-57430731D01*
X107699123Y-56964064D02*
X107865790Y-57430731D01*
X107865790Y-57430731D02*
X107932457Y-57597398D01*
X107932457Y-57597398D02*
X107965790Y-57630731D01*
X107965790Y-57630731D02*
X108032457Y-57664064D01*
X107199124Y-57064064D02*
X107099124Y-57097398D01*
X107099124Y-57097398D02*
X107065790Y-57130731D01*
X107065790Y-57130731D02*
X107032457Y-57197398D01*
X107032457Y-57197398D02*
X107032457Y-57297398D01*
X107032457Y-57297398D02*
X107065790Y-57364064D01*
X107065790Y-57364064D02*
X107099124Y-57397398D01*
X107099124Y-57397398D02*
X107165790Y-57430731D01*
X107165790Y-57430731D02*
X107432457Y-57430731D01*
X107432457Y-57430731D02*
X107432457Y-56730731D01*
X107432457Y-56730731D02*
X107199124Y-56730731D01*
X107199124Y-56730731D02*
X107132457Y-56764064D01*
X107132457Y-56764064D02*
X107099124Y-56797398D01*
X107099124Y-56797398D02*
X107065790Y-56864064D01*
X107065790Y-56864064D02*
X107065790Y-56930731D01*
X107065790Y-56930731D02*
X107099124Y-56997398D01*
X107099124Y-56997398D02*
X107132457Y-57030731D01*
X107132457Y-57030731D02*
X107199124Y-57064064D01*
X107199124Y-57064064D02*
X107432457Y-57064064D01*
X106465790Y-57397398D02*
X106532457Y-57430731D01*
X106532457Y-57430731D02*
X106665790Y-57430731D01*
X106665790Y-57430731D02*
X106732457Y-57397398D01*
X106732457Y-57397398D02*
X106765790Y-57330731D01*
X106765790Y-57330731D02*
X106765790Y-57064064D01*
X106765790Y-57064064D02*
X106732457Y-56997398D01*
X106732457Y-56997398D02*
X106665790Y-56964064D01*
X106665790Y-56964064D02*
X106532457Y-56964064D01*
X106532457Y-56964064D02*
X106465790Y-56997398D01*
X106465790Y-56997398D02*
X106432457Y-57064064D01*
X106432457Y-57064064D02*
X106432457Y-57130731D01*
X106432457Y-57130731D02*
X106765790Y-57197398D01*
X105865790Y-57397398D02*
X105932457Y-57430731D01*
X105932457Y-57430731D02*
X106065790Y-57430731D01*
X106065790Y-57430731D02*
X106132457Y-57397398D01*
X106132457Y-57397398D02*
X106165790Y-57330731D01*
X106165790Y-57330731D02*
X106165790Y-57064064D01*
X106165790Y-57064064D02*
X106132457Y-56997398D01*
X106132457Y-56997398D02*
X106065790Y-56964064D01*
X106065790Y-56964064D02*
X105932457Y-56964064D01*
X105932457Y-56964064D02*
X105865790Y-56997398D01*
X105865790Y-56997398D02*
X105832457Y-57064064D01*
X105832457Y-57064064D02*
X105832457Y-57130731D01*
X105832457Y-57130731D02*
X106165790Y-57197398D01*
X111099123Y-58191025D02*
X110865790Y-58191025D01*
X110765790Y-58557692D02*
X111099123Y-58557692D01*
X111099123Y-58557692D02*
X111099123Y-57857692D01*
X111099123Y-57857692D02*
X110765790Y-57857692D01*
X110499123Y-58524359D02*
X110399123Y-58557692D01*
X110399123Y-58557692D02*
X110232457Y-58557692D01*
X110232457Y-58557692D02*
X110165790Y-58524359D01*
X110165790Y-58524359D02*
X110132457Y-58491025D01*
X110132457Y-58491025D02*
X110099123Y-58424359D01*
X110099123Y-58424359D02*
X110099123Y-58357692D01*
X110099123Y-58357692D02*
X110132457Y-58291025D01*
X110132457Y-58291025D02*
X110165790Y-58257692D01*
X110165790Y-58257692D02*
X110232457Y-58224359D01*
X110232457Y-58224359D02*
X110365790Y-58191025D01*
X110365790Y-58191025D02*
X110432457Y-58157692D01*
X110432457Y-58157692D02*
X110465790Y-58124359D01*
X110465790Y-58124359D02*
X110499123Y-58057692D01*
X110499123Y-58057692D02*
X110499123Y-57991025D01*
X110499123Y-57991025D02*
X110465790Y-57924359D01*
X110465790Y-57924359D02*
X110432457Y-57891025D01*
X110432457Y-57891025D02*
X110365790Y-57857692D01*
X110365790Y-57857692D02*
X110199123Y-57857692D01*
X110199123Y-57857692D02*
X110099123Y-57891025D01*
X109399123Y-58491025D02*
X109432456Y-58524359D01*
X109432456Y-58524359D02*
X109532456Y-58557692D01*
X109532456Y-58557692D02*
X109599123Y-58557692D01*
X109599123Y-58557692D02*
X109699123Y-58524359D01*
X109699123Y-58524359D02*
X109765790Y-58457692D01*
X109765790Y-58457692D02*
X109799123Y-58391025D01*
X109799123Y-58391025D02*
X109832456Y-58257692D01*
X109832456Y-58257692D02*
X109832456Y-58157692D01*
X109832456Y-58157692D02*
X109799123Y-58024359D01*
X109799123Y-58024359D02*
X109765790Y-57957692D01*
X109765790Y-57957692D02*
X109699123Y-57891025D01*
X109699123Y-57891025D02*
X109599123Y-57857692D01*
X109599123Y-57857692D02*
X109532456Y-57857692D01*
X109532456Y-57857692D02*
X109432456Y-57891025D01*
X109432456Y-57891025D02*
X109399123Y-57924359D01*
X110699123Y-59617986D02*
X110732456Y-59651320D01*
X110732456Y-59651320D02*
X110832456Y-59684653D01*
X110832456Y-59684653D02*
X110899123Y-59684653D01*
X110899123Y-59684653D02*
X110999123Y-59651320D01*
X110999123Y-59651320D02*
X111065790Y-59584653D01*
X111065790Y-59584653D02*
X111099123Y-59517986D01*
X111099123Y-59517986D02*
X111132456Y-59384653D01*
X111132456Y-59384653D02*
X111132456Y-59284653D01*
X111132456Y-59284653D02*
X111099123Y-59151320D01*
X111099123Y-59151320D02*
X111065790Y-59084653D01*
X111065790Y-59084653D02*
X110999123Y-59017986D01*
X110999123Y-59017986D02*
X110899123Y-58984653D01*
X110899123Y-58984653D02*
X110832456Y-58984653D01*
X110832456Y-58984653D02*
X110732456Y-59017986D01*
X110732456Y-59017986D02*
X110699123Y-59051320D01*
X110299123Y-59684653D02*
X110365790Y-59651320D01*
X110365790Y-59651320D02*
X110399123Y-59617986D01*
X110399123Y-59617986D02*
X110432456Y-59551320D01*
X110432456Y-59551320D02*
X110432456Y-59351320D01*
X110432456Y-59351320D02*
X110399123Y-59284653D01*
X110399123Y-59284653D02*
X110365790Y-59251320D01*
X110365790Y-59251320D02*
X110299123Y-59217986D01*
X110299123Y-59217986D02*
X110199123Y-59217986D01*
X110199123Y-59217986D02*
X110132456Y-59251320D01*
X110132456Y-59251320D02*
X110099123Y-59284653D01*
X110099123Y-59284653D02*
X110065790Y-59351320D01*
X110065790Y-59351320D02*
X110065790Y-59551320D01*
X110065790Y-59551320D02*
X110099123Y-59617986D01*
X110099123Y-59617986D02*
X110132456Y-59651320D01*
X110132456Y-59651320D02*
X110199123Y-59684653D01*
X110199123Y-59684653D02*
X110299123Y-59684653D01*
X109765790Y-59684653D02*
X109765790Y-59217986D01*
X109765790Y-59284653D02*
X109732457Y-59251320D01*
X109732457Y-59251320D02*
X109665790Y-59217986D01*
X109665790Y-59217986D02*
X109565790Y-59217986D01*
X109565790Y-59217986D02*
X109499123Y-59251320D01*
X109499123Y-59251320D02*
X109465790Y-59317986D01*
X109465790Y-59317986D02*
X109465790Y-59684653D01*
X109465790Y-59317986D02*
X109432457Y-59251320D01*
X109432457Y-59251320D02*
X109365790Y-59217986D01*
X109365790Y-59217986D02*
X109265790Y-59217986D01*
X109265790Y-59217986D02*
X109199123Y-59251320D01*
X109199123Y-59251320D02*
X109165790Y-59317986D01*
X109165790Y-59317986D02*
X109165790Y-59684653D01*
X108832457Y-59217986D02*
X108832457Y-59917986D01*
X108832457Y-59251320D02*
X108765790Y-59217986D01*
X108765790Y-59217986D02*
X108632457Y-59217986D01*
X108632457Y-59217986D02*
X108565790Y-59251320D01*
X108565790Y-59251320D02*
X108532457Y-59284653D01*
X108532457Y-59284653D02*
X108499124Y-59351320D01*
X108499124Y-59351320D02*
X108499124Y-59551320D01*
X108499124Y-59551320D02*
X108532457Y-59617986D01*
X108532457Y-59617986D02*
X108565790Y-59651320D01*
X108565790Y-59651320D02*
X108632457Y-59684653D01*
X108632457Y-59684653D02*
X108765790Y-59684653D01*
X108765790Y-59684653D02*
X108832457Y-59651320D01*
X107899124Y-59684653D02*
X107899124Y-59317986D01*
X107899124Y-59317986D02*
X107932457Y-59251320D01*
X107932457Y-59251320D02*
X107999124Y-59217986D01*
X107999124Y-59217986D02*
X108132457Y-59217986D01*
X108132457Y-59217986D02*
X108199124Y-59251320D01*
X107899124Y-59651320D02*
X107965791Y-59684653D01*
X107965791Y-59684653D02*
X108132457Y-59684653D01*
X108132457Y-59684653D02*
X108199124Y-59651320D01*
X108199124Y-59651320D02*
X108232457Y-59584653D01*
X108232457Y-59584653D02*
X108232457Y-59517986D01*
X108232457Y-59517986D02*
X108199124Y-59451320D01*
X108199124Y-59451320D02*
X108132457Y-59417986D01*
X108132457Y-59417986D02*
X107965791Y-59417986D01*
X107965791Y-59417986D02*
X107899124Y-59384653D01*
X107665791Y-59217986D02*
X107399124Y-59217986D01*
X107565791Y-58984653D02*
X107565791Y-59584653D01*
X107565791Y-59584653D02*
X107532458Y-59651320D01*
X107532458Y-59651320D02*
X107465791Y-59684653D01*
X107465791Y-59684653D02*
X107399124Y-59684653D01*
X107165791Y-59684653D02*
X107165791Y-59217986D01*
X107165791Y-58984653D02*
X107199124Y-59017986D01*
X107199124Y-59017986D02*
X107165791Y-59051320D01*
X107165791Y-59051320D02*
X107132458Y-59017986D01*
X107132458Y-59017986D02*
X107165791Y-58984653D01*
X107165791Y-58984653D02*
X107165791Y-59051320D01*
X106832458Y-59684653D02*
X106832458Y-58984653D01*
X106832458Y-59251320D02*
X106765791Y-59217986D01*
X106765791Y-59217986D02*
X106632458Y-59217986D01*
X106632458Y-59217986D02*
X106565791Y-59251320D01*
X106565791Y-59251320D02*
X106532458Y-59284653D01*
X106532458Y-59284653D02*
X106499125Y-59351320D01*
X106499125Y-59351320D02*
X106499125Y-59551320D01*
X106499125Y-59551320D02*
X106532458Y-59617986D01*
X106532458Y-59617986D02*
X106565791Y-59651320D01*
X106565791Y-59651320D02*
X106632458Y-59684653D01*
X106632458Y-59684653D02*
X106765791Y-59684653D01*
X106765791Y-59684653D02*
X106832458Y-59651320D01*
X106099125Y-59684653D02*
X106165792Y-59651320D01*
X106165792Y-59651320D02*
X106199125Y-59584653D01*
X106199125Y-59584653D02*
X106199125Y-58984653D01*
X105565791Y-59651320D02*
X105632458Y-59684653D01*
X105632458Y-59684653D02*
X105765791Y-59684653D01*
X105765791Y-59684653D02*
X105832458Y-59651320D01*
X105832458Y-59651320D02*
X105865791Y-59584653D01*
X105865791Y-59584653D02*
X105865791Y-59317986D01*
X105865791Y-59317986D02*
X105832458Y-59251320D01*
X105832458Y-59251320D02*
X105765791Y-59217986D01*
X105765791Y-59217986D02*
X105632458Y-59217986D01*
X105632458Y-59217986D02*
X105565791Y-59251320D01*
X105565791Y-59251320D02*
X105532458Y-59317986D01*
X105532458Y-59317986D02*
X105532458Y-59384653D01*
X105532458Y-59384653D02*
X105865791Y-59451320D01*
D11*
X105491179Y-49281583D02*
X104941179Y-49281583D01*
X104941179Y-49281583D02*
X105334036Y-49464916D01*
X105334036Y-49464916D02*
X104941179Y-49648250D01*
X104941179Y-49648250D02*
X105491179Y-49648250D01*
X105124512Y-50145868D02*
X105491179Y-50145868D01*
X104914989Y-50014916D02*
X105307846Y-49883963D01*
X105307846Y-49883963D02*
X105307846Y-50224440D01*
X121291179Y-49281583D02*
X120741179Y-49281583D01*
X120741179Y-49281583D02*
X121134036Y-49464916D01*
X121134036Y-49464916D02*
X120741179Y-49648250D01*
X120741179Y-49648250D02*
X121291179Y-49648250D01*
X121291179Y-50198249D02*
X121291179Y-49883963D01*
X121291179Y-50041106D02*
X120741179Y-50041106D01*
X120741179Y-50041106D02*
X120819750Y-49988725D01*
X120819750Y-49988725D02*
X120872131Y-49936344D01*
X120872131Y-49936344D02*
X120898322Y-49883963D01*
D13*
X110284285Y-79963504D02*
X110121785Y-78663504D01*
X110121785Y-78663504D02*
X109812261Y-78663504D01*
X109812261Y-78663504D02*
X109634285Y-78725409D01*
X109634285Y-78725409D02*
X109525951Y-78849219D01*
X109525951Y-78849219D02*
X109479523Y-78973028D01*
X109479523Y-78973028D02*
X109448571Y-79220647D01*
X109448571Y-79220647D02*
X109471785Y-79406361D01*
X109471785Y-79406361D02*
X109564642Y-79653980D01*
X109564642Y-79653980D02*
X109642023Y-79777790D01*
X109642023Y-79777790D02*
X109781309Y-79901600D01*
X109781309Y-79901600D02*
X109974761Y-79963504D01*
X109974761Y-79963504D02*
X110284285Y-79963504D01*
X108798571Y-79963504D02*
X108914642Y-79901600D01*
X108914642Y-79901600D02*
X108968809Y-79839695D01*
X108968809Y-79839695D02*
X109015237Y-79715885D01*
X109015237Y-79715885D02*
X108968809Y-79344457D01*
X108968809Y-79344457D02*
X108891428Y-79220647D01*
X108891428Y-79220647D02*
X108821785Y-79158742D01*
X108821785Y-79158742D02*
X108690237Y-79096838D01*
X108690237Y-79096838D02*
X108504523Y-79096838D01*
X108504523Y-79096838D02*
X108388451Y-79158742D01*
X108388451Y-79158742D02*
X108334285Y-79220647D01*
X108334285Y-79220647D02*
X108287856Y-79344457D01*
X108287856Y-79344457D02*
X108334285Y-79715885D01*
X108334285Y-79715885D02*
X108411666Y-79839695D01*
X108411666Y-79839695D02*
X108481309Y-79901600D01*
X108481309Y-79901600D02*
X108612856Y-79963504D01*
X108612856Y-79963504D02*
X108798571Y-79963504D01*
X106299166Y-79282552D02*
X106121190Y-79344457D01*
X106121190Y-79344457D02*
X106067024Y-79406361D01*
X106067024Y-79406361D02*
X106020595Y-79530171D01*
X106020595Y-79530171D02*
X106043809Y-79715885D01*
X106043809Y-79715885D02*
X106121190Y-79839695D01*
X106121190Y-79839695D02*
X106190833Y-79901600D01*
X106190833Y-79901600D02*
X106322381Y-79963504D01*
X106322381Y-79963504D02*
X106817619Y-79963504D01*
X106817619Y-79963504D02*
X106655119Y-78663504D01*
X106655119Y-78663504D02*
X106221785Y-78663504D01*
X106221785Y-78663504D02*
X106105714Y-78725409D01*
X106105714Y-78725409D02*
X106051547Y-78787314D01*
X106051547Y-78787314D02*
X106005119Y-78911123D01*
X106005119Y-78911123D02*
X106020595Y-79034933D01*
X106020595Y-79034933D02*
X106097976Y-79158742D01*
X106097976Y-79158742D02*
X106167619Y-79220647D01*
X106167619Y-79220647D02*
X106299166Y-79282552D01*
X106299166Y-79282552D02*
X106732500Y-79282552D01*
X104960476Y-79963504D02*
X104875357Y-79282552D01*
X104875357Y-79282552D02*
X104921785Y-79158742D01*
X104921785Y-79158742D02*
X105037857Y-79096838D01*
X105037857Y-79096838D02*
X105285476Y-79096838D01*
X105285476Y-79096838D02*
X105417024Y-79158742D01*
X104952738Y-79901600D02*
X105084285Y-79963504D01*
X105084285Y-79963504D02*
X105393809Y-79963504D01*
X105393809Y-79963504D02*
X105509881Y-79901600D01*
X105509881Y-79901600D02*
X105556309Y-79777790D01*
X105556309Y-79777790D02*
X105540833Y-79653980D01*
X105540833Y-79653980D02*
X105463452Y-79530171D01*
X105463452Y-79530171D02*
X105331905Y-79468266D01*
X105331905Y-79468266D02*
X105022381Y-79468266D01*
X105022381Y-79468266D02*
X104890833Y-79406361D01*
X104155715Y-79963504D02*
X104271786Y-79901600D01*
X104271786Y-79901600D02*
X104325953Y-79839695D01*
X104325953Y-79839695D02*
X104372381Y-79715885D01*
X104372381Y-79715885D02*
X104325953Y-79344457D01*
X104325953Y-79344457D02*
X104248572Y-79220647D01*
X104248572Y-79220647D02*
X104178929Y-79158742D01*
X104178929Y-79158742D02*
X104047381Y-79096838D01*
X104047381Y-79096838D02*
X103861667Y-79096838D01*
X103861667Y-79096838D02*
X103745595Y-79158742D01*
X103745595Y-79158742D02*
X103691429Y-79220647D01*
X103691429Y-79220647D02*
X103645000Y-79344457D01*
X103645000Y-79344457D02*
X103691429Y-79715885D01*
X103691429Y-79715885D02*
X103768810Y-79839695D01*
X103768810Y-79839695D02*
X103838453Y-79901600D01*
X103838453Y-79901600D02*
X103970000Y-79963504D01*
X103970000Y-79963504D02*
X104155715Y-79963504D01*
X101555715Y-79963504D02*
X102174763Y-79963504D01*
X102174763Y-79963504D02*
X102012263Y-78663504D01*
X100936668Y-79963504D02*
X101052739Y-79901600D01*
X101052739Y-79901600D02*
X101106906Y-79839695D01*
X101106906Y-79839695D02*
X101153334Y-79715885D01*
X101153334Y-79715885D02*
X101106906Y-79344457D01*
X101106906Y-79344457D02*
X101029525Y-79220647D01*
X101029525Y-79220647D02*
X100959882Y-79158742D01*
X100959882Y-79158742D02*
X100828334Y-79096838D01*
X100828334Y-79096838D02*
X100642620Y-79096838D01*
X100642620Y-79096838D02*
X100526548Y-79158742D01*
X100526548Y-79158742D02*
X100472382Y-79220647D01*
X100472382Y-79220647D02*
X100425953Y-79344457D01*
X100425953Y-79344457D02*
X100472382Y-79715885D01*
X100472382Y-79715885D02*
X100549763Y-79839695D01*
X100549763Y-79839695D02*
X100619406Y-79901600D01*
X100619406Y-79901600D02*
X100750953Y-79963504D01*
X100750953Y-79963504D02*
X100936668Y-79963504D01*
X99837858Y-79096838D02*
X99946192Y-79963504D01*
X99853335Y-79220647D02*
X99783692Y-79158742D01*
X99783692Y-79158742D02*
X99652144Y-79096838D01*
X99652144Y-79096838D02*
X99466430Y-79096838D01*
X99466430Y-79096838D02*
X99350358Y-79158742D01*
X99350358Y-79158742D02*
X99303930Y-79282552D01*
X99303930Y-79282552D02*
X99389049Y-79963504D01*
X98104526Y-79096838D02*
X98236073Y-80149219D01*
X98236073Y-80149219D02*
X98313454Y-80273028D01*
X98313454Y-80273028D02*
X98383097Y-80334933D01*
X98383097Y-80334933D02*
X98514645Y-80396838D01*
X98514645Y-80396838D02*
X98700359Y-80396838D01*
X98700359Y-80396838D02*
X98816430Y-80334933D01*
X98205121Y-79901600D02*
X98336668Y-79963504D01*
X98336668Y-79963504D02*
X98584288Y-79963504D01*
X98584288Y-79963504D02*
X98700359Y-79901600D01*
X98700359Y-79901600D02*
X98754526Y-79839695D01*
X98754526Y-79839695D02*
X98800954Y-79715885D01*
X98800954Y-79715885D02*
X98754526Y-79344457D01*
X98754526Y-79344457D02*
X98677145Y-79220647D01*
X98677145Y-79220647D02*
X98607502Y-79158742D01*
X98607502Y-79158742D02*
X98475954Y-79096838D01*
X98475954Y-79096838D02*
X98228335Y-79096838D01*
X98228335Y-79096838D02*
X98112264Y-79158742D01*
D10*
X124693915Y-85904000D02*
X124693915Y-85234000D01*
X124693915Y-85234000D02*
X124534391Y-85234000D01*
X124534391Y-85234000D02*
X124438677Y-85265905D01*
X124438677Y-85265905D02*
X124374867Y-85329715D01*
X124374867Y-85329715D02*
X124342962Y-85393524D01*
X124342962Y-85393524D02*
X124311058Y-85521143D01*
X124311058Y-85521143D02*
X124311058Y-85616857D01*
X124311058Y-85616857D02*
X124342962Y-85744476D01*
X124342962Y-85744476D02*
X124374867Y-85808286D01*
X124374867Y-85808286D02*
X124438677Y-85872096D01*
X124438677Y-85872096D02*
X124534391Y-85904000D01*
X124534391Y-85904000D02*
X124693915Y-85904000D01*
X123832486Y-85234000D02*
X123832486Y-85712572D01*
X123832486Y-85712572D02*
X123864391Y-85808286D01*
X123864391Y-85808286D02*
X123928200Y-85872096D01*
X123928200Y-85872096D02*
X124023915Y-85904000D01*
X124023915Y-85904000D02*
X124087724Y-85904000D01*
X123513439Y-85904000D02*
X123513439Y-85234000D01*
X122683915Y-85457334D02*
X122683915Y-86127334D01*
X122683915Y-85489238D02*
X122620105Y-85457334D01*
X122620105Y-85457334D02*
X122492486Y-85457334D01*
X122492486Y-85457334D02*
X122428677Y-85489238D01*
X122428677Y-85489238D02*
X122396772Y-85521143D01*
X122396772Y-85521143D02*
X122364867Y-85584953D01*
X122364867Y-85584953D02*
X122364867Y-85776381D01*
X122364867Y-85776381D02*
X122396772Y-85840191D01*
X122396772Y-85840191D02*
X122428677Y-85872096D01*
X122428677Y-85872096D02*
X122492486Y-85904000D01*
X122492486Y-85904000D02*
X122620105Y-85904000D01*
X122620105Y-85904000D02*
X122683915Y-85872096D01*
X121982010Y-85904000D02*
X122045820Y-85872096D01*
X122045820Y-85872096D02*
X122077725Y-85808286D01*
X122077725Y-85808286D02*
X122077725Y-85234000D01*
X121439630Y-85457334D02*
X121439630Y-85904000D01*
X121726773Y-85457334D02*
X121726773Y-85808286D01*
X121726773Y-85808286D02*
X121694868Y-85872096D01*
X121694868Y-85872096D02*
X121631058Y-85904000D01*
X121631058Y-85904000D02*
X121535344Y-85904000D01*
X121535344Y-85904000D02*
X121471535Y-85872096D01*
X121471535Y-85872096D02*
X121439630Y-85840191D01*
X120833440Y-85457334D02*
X120833440Y-85999715D01*
X120833440Y-85999715D02*
X120865345Y-86063524D01*
X120865345Y-86063524D02*
X120897249Y-86095429D01*
X120897249Y-86095429D02*
X120961059Y-86127334D01*
X120961059Y-86127334D02*
X121056773Y-86127334D01*
X121056773Y-86127334D02*
X121120583Y-86095429D01*
X120833440Y-85872096D02*
X120897249Y-85904000D01*
X120897249Y-85904000D02*
X121024868Y-85904000D01*
X121024868Y-85904000D02*
X121088678Y-85872096D01*
X121088678Y-85872096D02*
X121120583Y-85840191D01*
X121120583Y-85840191D02*
X121152487Y-85776381D01*
X121152487Y-85776381D02*
X121152487Y-85584953D01*
X121152487Y-85584953D02*
X121120583Y-85521143D01*
X121120583Y-85521143D02*
X121088678Y-85489238D01*
X121088678Y-85489238D02*
X121024868Y-85457334D01*
X121024868Y-85457334D02*
X120897249Y-85457334D01*
X120897249Y-85457334D02*
X120833440Y-85489238D01*
X119972012Y-85904000D02*
X120003917Y-85904000D01*
X120003917Y-85904000D02*
X120067726Y-85872096D01*
X120067726Y-85872096D02*
X120163440Y-85776381D01*
X120163440Y-85776381D02*
X120322964Y-85584953D01*
X120322964Y-85584953D02*
X120386774Y-85489238D01*
X120386774Y-85489238D02*
X120418678Y-85393524D01*
X120418678Y-85393524D02*
X120418678Y-85329715D01*
X120418678Y-85329715D02*
X120386774Y-85265905D01*
X120386774Y-85265905D02*
X120322964Y-85234000D01*
X120322964Y-85234000D02*
X120291059Y-85234000D01*
X120291059Y-85234000D02*
X120227250Y-85265905D01*
X120227250Y-85265905D02*
X120195345Y-85329715D01*
X120195345Y-85329715D02*
X120195345Y-85361619D01*
X120195345Y-85361619D02*
X120227250Y-85425429D01*
X120227250Y-85425429D02*
X120259155Y-85457334D01*
X120259155Y-85457334D02*
X120450583Y-85584953D01*
X120450583Y-85584953D02*
X120482488Y-85616857D01*
X120482488Y-85616857D02*
X120514393Y-85680667D01*
X120514393Y-85680667D02*
X120514393Y-85776381D01*
X120514393Y-85776381D02*
X120482488Y-85840191D01*
X120482488Y-85840191D02*
X120450583Y-85872096D01*
X120450583Y-85872096D02*
X120386774Y-85904000D01*
X120386774Y-85904000D02*
X120291059Y-85904000D01*
X120291059Y-85904000D02*
X120227250Y-85872096D01*
X120227250Y-85872096D02*
X120195345Y-85840191D01*
X120195345Y-85840191D02*
X120099631Y-85712572D01*
X120099631Y-85712572D02*
X120067726Y-85616857D01*
X120067726Y-85616857D02*
X120067726Y-85553048D01*
X119684869Y-85904000D02*
X119684869Y-85234000D01*
X119684869Y-85234000D02*
X119429631Y-85234000D01*
X119429631Y-85234000D02*
X119365821Y-85265905D01*
X119365821Y-85265905D02*
X119333916Y-85297810D01*
X119333916Y-85297810D02*
X119302012Y-85361619D01*
X119302012Y-85361619D02*
X119302012Y-85457334D01*
X119302012Y-85457334D02*
X119333916Y-85521143D01*
X119333916Y-85521143D02*
X119365821Y-85553048D01*
X119365821Y-85553048D02*
X119429631Y-85584953D01*
X119429631Y-85584953D02*
X119684869Y-85584953D01*
X118919154Y-85904000D02*
X118982964Y-85872096D01*
X118982964Y-85872096D02*
X119014869Y-85808286D01*
X119014869Y-85808286D02*
X119014869Y-85234000D01*
X118376774Y-85904000D02*
X118376774Y-85553048D01*
X118376774Y-85553048D02*
X118408679Y-85489238D01*
X118408679Y-85489238D02*
X118472488Y-85457334D01*
X118472488Y-85457334D02*
X118600107Y-85457334D01*
X118600107Y-85457334D02*
X118663917Y-85489238D01*
X118376774Y-85872096D02*
X118440583Y-85904000D01*
X118440583Y-85904000D02*
X118600107Y-85904000D01*
X118600107Y-85904000D02*
X118663917Y-85872096D01*
X118663917Y-85872096D02*
X118695821Y-85808286D01*
X118695821Y-85808286D02*
X118695821Y-85744476D01*
X118695821Y-85744476D02*
X118663917Y-85680667D01*
X118663917Y-85680667D02*
X118600107Y-85648762D01*
X118600107Y-85648762D02*
X118440583Y-85648762D01*
X118440583Y-85648762D02*
X118376774Y-85616857D01*
X118121536Y-85457334D02*
X117962012Y-85904000D01*
X117802489Y-85457334D02*
X117962012Y-85904000D01*
X117962012Y-85904000D02*
X118025822Y-86063524D01*
X118025822Y-86063524D02*
X118057727Y-86095429D01*
X118057727Y-86095429D02*
X118121536Y-86127334D01*
X124566296Y-86312662D02*
X124438677Y-86312662D01*
X124438677Y-86312662D02*
X124374867Y-86344567D01*
X124374867Y-86344567D02*
X124311058Y-86408377D01*
X124311058Y-86408377D02*
X124279153Y-86535996D01*
X124279153Y-86535996D02*
X124279153Y-86759329D01*
X124279153Y-86759329D02*
X124311058Y-86886948D01*
X124311058Y-86886948D02*
X124374867Y-86950758D01*
X124374867Y-86950758D02*
X124438677Y-86982662D01*
X124438677Y-86982662D02*
X124566296Y-86982662D01*
X124566296Y-86982662D02*
X124630105Y-86950758D01*
X124630105Y-86950758D02*
X124693915Y-86886948D01*
X124693915Y-86886948D02*
X124725819Y-86759329D01*
X124725819Y-86759329D02*
X124725819Y-86535996D01*
X124725819Y-86535996D02*
X124693915Y-86408377D01*
X124693915Y-86408377D02*
X124630105Y-86344567D01*
X124630105Y-86344567D02*
X124566296Y-86312662D01*
X124055819Y-86312662D02*
X123641057Y-86312662D01*
X123641057Y-86312662D02*
X123864391Y-86567900D01*
X123864391Y-86567900D02*
X123768676Y-86567900D01*
X123768676Y-86567900D02*
X123704867Y-86599805D01*
X123704867Y-86599805D02*
X123672962Y-86631710D01*
X123672962Y-86631710D02*
X123641057Y-86695519D01*
X123641057Y-86695519D02*
X123641057Y-86855043D01*
X123641057Y-86855043D02*
X123672962Y-86918853D01*
X123672962Y-86918853D02*
X123704867Y-86950758D01*
X123704867Y-86950758D02*
X123768676Y-86982662D01*
X123768676Y-86982662D02*
X123960105Y-86982662D01*
X123960105Y-86982662D02*
X124023914Y-86950758D01*
X124023914Y-86950758D02*
X124055819Y-86918853D01*
X122875343Y-86280758D02*
X123449629Y-87142186D01*
X122332962Y-86982662D02*
X122652010Y-86982662D01*
X122652010Y-86982662D02*
X122652010Y-86312662D01*
X122109629Y-86982662D02*
X122109629Y-86535996D01*
X122109629Y-86312662D02*
X122141533Y-86344567D01*
X122141533Y-86344567D02*
X122109629Y-86376472D01*
X122109629Y-86376472D02*
X122077724Y-86344567D01*
X122077724Y-86344567D02*
X122109629Y-86312662D01*
X122109629Y-86312662D02*
X122109629Y-86376472D01*
X121790581Y-86535996D02*
X121790581Y-86982662D01*
X121790581Y-86599805D02*
X121758676Y-86567900D01*
X121758676Y-86567900D02*
X121694866Y-86535996D01*
X121694866Y-86535996D02*
X121599152Y-86535996D01*
X121599152Y-86535996D02*
X121535343Y-86567900D01*
X121535343Y-86567900D02*
X121503438Y-86631710D01*
X121503438Y-86631710D02*
X121503438Y-86982662D01*
X121184391Y-86982662D02*
X121184391Y-86312662D01*
X121120581Y-86727424D02*
X120929153Y-86982662D01*
X120929153Y-86535996D02*
X121184391Y-86791234D01*
X120163438Y-86280758D02*
X120737724Y-87142186D01*
X120035819Y-86312662D02*
X119812486Y-86982662D01*
X119812486Y-86982662D02*
X119589152Y-86312662D01*
X119365819Y-86982662D02*
X119365819Y-86535996D01*
X119365819Y-86312662D02*
X119397723Y-86344567D01*
X119397723Y-86344567D02*
X119365819Y-86376472D01*
X119365819Y-86376472D02*
X119333914Y-86344567D01*
X119333914Y-86344567D02*
X119365819Y-86312662D01*
X119365819Y-86312662D02*
X119365819Y-86376472D01*
X119078675Y-86950758D02*
X119014866Y-86982662D01*
X119014866Y-86982662D02*
X118887247Y-86982662D01*
X118887247Y-86982662D02*
X118823437Y-86950758D01*
X118823437Y-86950758D02*
X118791533Y-86886948D01*
X118791533Y-86886948D02*
X118791533Y-86855043D01*
X118791533Y-86855043D02*
X118823437Y-86791234D01*
X118823437Y-86791234D02*
X118887247Y-86759329D01*
X118887247Y-86759329D02*
X118982961Y-86759329D01*
X118982961Y-86759329D02*
X119046771Y-86727424D01*
X119046771Y-86727424D02*
X119078675Y-86663615D01*
X119078675Y-86663615D02*
X119078675Y-86631710D01*
X119078675Y-86631710D02*
X119046771Y-86567900D01*
X119046771Y-86567900D02*
X118982961Y-86535996D01*
X118982961Y-86535996D02*
X118887247Y-86535996D01*
X118887247Y-86535996D02*
X118823437Y-86567900D01*
X118600104Y-86535996D02*
X118344866Y-86535996D01*
X118504390Y-86312662D02*
X118504390Y-86886948D01*
X118504390Y-86886948D02*
X118472485Y-86950758D01*
X118472485Y-86950758D02*
X118408675Y-86982662D01*
X118408675Y-86982662D02*
X118344866Y-86982662D01*
X117834390Y-86982662D02*
X117834390Y-86631710D01*
X117834390Y-86631710D02*
X117866295Y-86567900D01*
X117866295Y-86567900D02*
X117930104Y-86535996D01*
X117930104Y-86535996D02*
X118057723Y-86535996D01*
X118057723Y-86535996D02*
X118121533Y-86567900D01*
X117834390Y-86950758D02*
X117898199Y-86982662D01*
X117898199Y-86982662D02*
X118057723Y-86982662D01*
X118057723Y-86982662D02*
X118121533Y-86950758D01*
X118121533Y-86950758D02*
X118153437Y-86886948D01*
X118153437Y-86886948D02*
X118153437Y-86823138D01*
X118153437Y-86823138D02*
X118121533Y-86759329D01*
X118121533Y-86759329D02*
X118057723Y-86727424D01*
X118057723Y-86727424D02*
X117898199Y-86727424D01*
X117898199Y-86727424D02*
X117834390Y-86695519D01*
X124215343Y-87359420D02*
X124789629Y-88220848D01*
X124023914Y-87869896D02*
X123704867Y-87869896D01*
X124087724Y-88061324D02*
X123864391Y-87391324D01*
X123864391Y-87391324D02*
X123641057Y-88061324D01*
X123417724Y-88061324D02*
X123417724Y-87614658D01*
X123417724Y-87391324D02*
X123449628Y-87423229D01*
X123449628Y-87423229D02*
X123417724Y-87455134D01*
X123417724Y-87455134D02*
X123385819Y-87423229D01*
X123385819Y-87423229D02*
X123417724Y-87391324D01*
X123417724Y-87391324D02*
X123417724Y-87455134D01*
X123098676Y-88061324D02*
X123098676Y-87614658D01*
X123098676Y-87742277D02*
X123066771Y-87678467D01*
X123066771Y-87678467D02*
X123034866Y-87646562D01*
X123034866Y-87646562D02*
X122971057Y-87614658D01*
X122971057Y-87614658D02*
X122907247Y-87614658D01*
X122173438Y-87391324D02*
X122173438Y-87933705D01*
X122173438Y-87933705D02*
X122141533Y-87997515D01*
X122141533Y-87997515D02*
X122109628Y-88029420D01*
X122109628Y-88029420D02*
X122045819Y-88061324D01*
X122045819Y-88061324D02*
X121918200Y-88061324D01*
X121918200Y-88061324D02*
X121854390Y-88029420D01*
X121854390Y-88029420D02*
X121822485Y-87997515D01*
X121822485Y-87997515D02*
X121790581Y-87933705D01*
X121790581Y-87933705D02*
X121790581Y-87391324D01*
X121471533Y-87614658D02*
X121471533Y-88061324D01*
X121471533Y-87678467D02*
X121439628Y-87646562D01*
X121439628Y-87646562D02*
X121375818Y-87614658D01*
X121375818Y-87614658D02*
X121280104Y-87614658D01*
X121280104Y-87614658D02*
X121216295Y-87646562D01*
X121216295Y-87646562D02*
X121184390Y-87710372D01*
X121184390Y-87710372D02*
X121184390Y-88061324D01*
X120865343Y-88061324D02*
X120865343Y-87614658D01*
X120865343Y-87391324D02*
X120897247Y-87423229D01*
X120897247Y-87423229D02*
X120865343Y-87455134D01*
X120865343Y-87455134D02*
X120833438Y-87423229D01*
X120833438Y-87423229D02*
X120865343Y-87391324D01*
X120865343Y-87391324D02*
X120865343Y-87455134D01*
X120642009Y-87614658D02*
X120386771Y-87614658D01*
X120546295Y-87391324D02*
X120546295Y-87965610D01*
X120546295Y-87965610D02*
X120514390Y-88029420D01*
X120514390Y-88029420D02*
X120450580Y-88061324D01*
X120450580Y-88061324D02*
X120386771Y-88061324D01*
X94761048Y-74573416D02*
X94408667Y-74326749D01*
X94761048Y-74150559D02*
X94021048Y-74150559D01*
X94021048Y-74150559D02*
X94021048Y-74432464D01*
X94021048Y-74432464D02*
X94056286Y-74502940D01*
X94056286Y-74502940D02*
X94091524Y-74538178D01*
X94091524Y-74538178D02*
X94162000Y-74573416D01*
X94162000Y-74573416D02*
X94267714Y-74573416D01*
X94267714Y-74573416D02*
X94338190Y-74538178D01*
X94338190Y-74538178D02*
X94373429Y-74502940D01*
X94373429Y-74502940D02*
X94408667Y-74432464D01*
X94408667Y-74432464D02*
X94408667Y-74150559D01*
X94021048Y-74820083D02*
X94761048Y-75313416D01*
X94021048Y-75313416D02*
X94761048Y-74820083D01*
X95952407Y-73710083D02*
X95212407Y-73710083D01*
X95212407Y-73710083D02*
X95212407Y-73991988D01*
X95212407Y-73991988D02*
X95247645Y-74062464D01*
X95247645Y-74062464D02*
X95282883Y-74097702D01*
X95282883Y-74097702D02*
X95353359Y-74132940D01*
X95353359Y-74132940D02*
X95459073Y-74132940D01*
X95459073Y-74132940D02*
X95529549Y-74097702D01*
X95529549Y-74097702D02*
X95564788Y-74062464D01*
X95564788Y-74062464D02*
X95600026Y-73991988D01*
X95600026Y-73991988D02*
X95600026Y-73710083D01*
X95212407Y-74379607D02*
X95952407Y-74555797D01*
X95952407Y-74555797D02*
X95423835Y-74696750D01*
X95423835Y-74696750D02*
X95952407Y-74837702D01*
X95952407Y-74837702D02*
X95212407Y-75013893D01*
X95952407Y-75718654D02*
X95600026Y-75471987D01*
X95952407Y-75295797D02*
X95212407Y-75295797D01*
X95212407Y-75295797D02*
X95212407Y-75577702D01*
X95212407Y-75577702D02*
X95247645Y-75648178D01*
X95247645Y-75648178D02*
X95282883Y-75683416D01*
X95282883Y-75683416D02*
X95353359Y-75718654D01*
X95353359Y-75718654D02*
X95459073Y-75718654D01*
X95459073Y-75718654D02*
X95529549Y-75683416D01*
X95529549Y-75683416D02*
X95564788Y-75648178D01*
X95564788Y-75648178D02*
X95600026Y-75577702D01*
X95600026Y-75577702D02*
X95600026Y-75295797D01*
D14*
X113887462Y-80913142D02*
X113737462Y-79713142D01*
X113737462Y-79713142D02*
X113451748Y-79713142D01*
X113451748Y-79713142D02*
X113287462Y-79770285D01*
X113287462Y-79770285D02*
X113187462Y-79884571D01*
X113187462Y-79884571D02*
X113144605Y-79998857D01*
X113144605Y-79998857D02*
X113116034Y-80227428D01*
X113116034Y-80227428D02*
X113137462Y-80398857D01*
X113137462Y-80398857D02*
X113223176Y-80627428D01*
X113223176Y-80627428D02*
X113294605Y-80741714D01*
X113294605Y-80741714D02*
X113423176Y-80856000D01*
X113423176Y-80856000D02*
X113601748Y-80913142D01*
X113601748Y-80913142D02*
X113887462Y-80913142D01*
X112194605Y-79713142D02*
X112301748Y-80570285D01*
X112301748Y-80570285D02*
X112380319Y-80741714D01*
X112380319Y-80741714D02*
X112508891Y-80856000D01*
X112508891Y-80856000D02*
X112687462Y-80913142D01*
X112687462Y-80913142D02*
X112801748Y-80913142D01*
X111773176Y-80913142D02*
X111623176Y-79713142D01*
D11*
X113089029Y-82357392D02*
X113089029Y-82671678D01*
X113639029Y-82514535D02*
X113089029Y-82514535D01*
X113089029Y-82802631D02*
X113639029Y-83169298D01*
X113089029Y-83169298D02*
X113639029Y-82802631D01*
D15*
G36*
X99709236Y-77936000D02*
G01*
X100291169Y-77936000D01*
X100279079Y-77877430D01*
X100224265Y-77873227D01*
X100219435Y-77872863D01*
X100165691Y-77864724D01*
X100163552Y-77863997D01*
X100120297Y-77834443D01*
X100100415Y-77787158D01*
X99943245Y-77031397D01*
X99943514Y-76986530D01*
X99974679Y-76954827D01*
X100024114Y-76939513D01*
X100076949Y-76929097D01*
X100081609Y-76928498D01*
X100069519Y-76869928D01*
X99487586Y-76869928D01*
X99499676Y-76928498D01*
X99554512Y-76934679D01*
X99556633Y-76934946D01*
X99610533Y-76945119D01*
X99615203Y-76946498D01*
X99660339Y-76976858D01*
X99679414Y-77023875D01*
X99836584Y-77779098D01*
X99836047Y-77825309D01*
X99804344Y-77856474D01*
X99755715Y-77869639D01*
X99701724Y-77877088D01*
X99697146Y-77877430D01*
X99709236Y-77936000D01*
G37*
G36*
X99023598Y-77936000D02*
G01*
X99605531Y-77936000D01*
X99593441Y-77877430D01*
X99538626Y-77873227D01*
X99533796Y-77872863D01*
X99480053Y-77864724D01*
X99477914Y-77863997D01*
X99434658Y-77834443D01*
X99414777Y-77787158D01*
X99257607Y-77031397D01*
X99257875Y-76986530D01*
X99289041Y-76954827D01*
X99338475Y-76939513D01*
X99391311Y-76929097D01*
X99395970Y-76928498D01*
X99383880Y-76869928D01*
X98801947Y-76869928D01*
X98814037Y-76928498D01*
X98868873Y-76934679D01*
X98870995Y-76934946D01*
X98924895Y-76945119D01*
X98929564Y-76946498D01*
X98974700Y-76976858D01*
X98993776Y-77023875D01*
X99150946Y-77779098D01*
X99150408Y-77825309D01*
X99118706Y-77856474D01*
X99070077Y-77869639D01*
X99016085Y-77877088D01*
X99011508Y-77877430D01*
X99023598Y-77936000D01*
G37*
D16*
G36*
X109951653Y-76305239D02*
G01*
X108745289Y-76305239D01*
X108814068Y-76637409D01*
X109860209Y-77594841D01*
X109013370Y-77594841D01*
X109084103Y-77936000D01*
X110464759Y-77936000D01*
X110390900Y-77581163D01*
X109338115Y-76645225D01*
X110234584Y-76645225D01*
X109951653Y-76305239D01*
G37*
G36*
X108204047Y-76692510D02*
G01*
X108246501Y-76694218D01*
X108323929Y-76705899D01*
X108402655Y-76728647D01*
X108482679Y-76762461D01*
X108518345Y-76781384D01*
X108590064Y-76827309D01*
X108649975Y-76877871D01*
X108702693Y-76939489D01*
X108723061Y-76968044D01*
X108764438Y-77034841D01*
X108771622Y-77048265D01*
X108805470Y-77120424D01*
X108809684Y-77131012D01*
X108834389Y-77207179D01*
X108839328Y-77226966D01*
X108856664Y-77305267D01*
X108870173Y-77380692D01*
X108879568Y-77462426D01*
X108883237Y-77542866D01*
X108881840Y-77592279D01*
X108871353Y-77670635D01*
X108848457Y-77746467D01*
X108838926Y-77767179D01*
X108793928Y-77831976D01*
X108730830Y-77884806D01*
X108702896Y-77899554D01*
X108621897Y-77923201D01*
X108535636Y-77933550D01*
X108456105Y-77936000D01*
X108381465Y-77936000D01*
X108013342Y-77936000D01*
X107767536Y-77605783D01*
X108199357Y-77605783D01*
X108243260Y-77605220D01*
X108324800Y-77600019D01*
X108406475Y-77582727D01*
X108453822Y-77536359D01*
X108478380Y-77461191D01*
X107735882Y-77461191D01*
X107721423Y-77434618D01*
X107708037Y-77367848D01*
X107693224Y-77284463D01*
X107680704Y-77198363D01*
X107672574Y-77120424D01*
X107672397Y-77098526D01*
X108064922Y-77098526D01*
X108065317Y-77178260D01*
X108431486Y-77178260D01*
X108400711Y-77110556D01*
X108347466Y-77052036D01*
X108283238Y-77015130D01*
X108201311Y-77006314D01*
X108152072Y-77010221D01*
X108117292Y-77021945D01*
X108068834Y-77077437D01*
X108064922Y-77098526D01*
X107672397Y-77098526D01*
X107671933Y-77041068D01*
X107684980Y-76960035D01*
X107712435Y-76885560D01*
X107730593Y-76854694D01*
X107783167Y-76796460D01*
X107815097Y-76772062D01*
X107884773Y-76734715D01*
X107928883Y-76718577D01*
X108008262Y-76700717D01*
X108061922Y-76694138D01*
X108140348Y-76690556D01*
X108172002Y-76690556D01*
X108204047Y-76692510D01*
G37*
G36*
X107443572Y-76699154D02*
G01*
X107043405Y-76699154D01*
X107089127Y-76920731D01*
X106906238Y-76699154D01*
X106758520Y-76699154D01*
X106710062Y-76699154D01*
X106628277Y-76702056D01*
X106550443Y-76711673D01*
X106525219Y-76716739D01*
X106451052Y-76747887D01*
X106401730Y-76796069D01*
X106365199Y-76867648D01*
X106356789Y-76930501D01*
X106362651Y-77011169D01*
X106375254Y-77090048D01*
X106382581Y-77126676D01*
X106399385Y-77207570D01*
X106550620Y-77936000D01*
X106949615Y-77936000D01*
X106819874Y-77311519D01*
X106811276Y-77271268D01*
X106800825Y-77190418D01*
X106798380Y-77139963D01*
X106827689Y-77077437D01*
X106906154Y-77056705D01*
X106927341Y-77055553D01*
X107010285Y-77053794D01*
X107095087Y-77053229D01*
X107116873Y-77053208D01*
X107300544Y-77936000D01*
X107700711Y-77936000D01*
X107443572Y-76699154D01*
G37*
G36*
X106062135Y-76305239D02*
G01*
X104977696Y-76305239D01*
X105223893Y-76645225D01*
X105732700Y-76645225D01*
X105802260Y-76978958D01*
X105168792Y-76978958D01*
X105239134Y-77318163D01*
X105872602Y-77318163D01*
X106001172Y-77936000D01*
X106400948Y-77936000D01*
X106062135Y-76305239D01*
G37*
G36*
X104503279Y-76275930D02*
G01*
X104848345Y-77936000D01*
X105247731Y-77936000D01*
X104902665Y-76275930D01*
X104503279Y-76275930D01*
G37*
G36*
X104504842Y-76699154D02*
G01*
X104066768Y-76699154D01*
X104010886Y-77392022D01*
X103665819Y-76699154D01*
X103226964Y-76699154D01*
X103974151Y-77996572D01*
X104020045Y-78068428D01*
X104066280Y-78133934D01*
X104118703Y-78200037D01*
X104159776Y-78245895D01*
X104216921Y-78299995D01*
X104286075Y-78346590D01*
X104330551Y-78363131D01*
X104407871Y-78382088D01*
X104461074Y-78388923D01*
X104528290Y-78392050D01*
X104608494Y-78393212D01*
X104617780Y-78393222D01*
X104706098Y-78393222D01*
X104827243Y-78054408D01*
X104677962Y-78054408D01*
X104615045Y-78054408D01*
X104535956Y-78051268D01*
X104505624Y-78047765D01*
X104429873Y-78024648D01*
X104427857Y-78023536D01*
X104374710Y-77973124D01*
X104344419Y-77898609D01*
X104342274Y-77889105D01*
X104504842Y-76699154D01*
G37*
G36*
X102649769Y-76305239D02*
G01*
X101565331Y-76305239D01*
X101811528Y-76645225D01*
X102320334Y-76645225D01*
X102389895Y-76978958D01*
X101756426Y-76978958D01*
X101826768Y-77318163D01*
X102460237Y-77318163D01*
X102588806Y-77936000D01*
X102988583Y-77936000D01*
X102649769Y-76305239D01*
G37*
G36*
X101198771Y-76316181D02*
G01*
X100052979Y-76316181D01*
X100122930Y-76654604D01*
X101204633Y-77936000D01*
X101697808Y-77936000D01*
X100597348Y-76677270D01*
X101477794Y-76677270D01*
X101198771Y-76316181D01*
G37*
D10*
X132066876Y-78836171D02*
X132716876Y-78836171D01*
X132716876Y-78836171D02*
X132252590Y-78619504D01*
X132252590Y-78619504D02*
X132716876Y-78402837D01*
X132716876Y-78402837D02*
X132066876Y-78402837D01*
X132066876Y-78093314D02*
X132500209Y-78093314D01*
X132716876Y-78093314D02*
X132685924Y-78124266D01*
X132685924Y-78124266D02*
X132654971Y-78093314D01*
X132654971Y-78093314D02*
X132685924Y-78062361D01*
X132685924Y-78062361D02*
X132716876Y-78093314D01*
X132716876Y-78093314D02*
X132654971Y-78093314D01*
X132097829Y-77505218D02*
X132066876Y-77567123D01*
X132066876Y-77567123D02*
X132066876Y-77690932D01*
X132066876Y-77690932D02*
X132097829Y-77752837D01*
X132097829Y-77752837D02*
X132128781Y-77783790D01*
X132128781Y-77783790D02*
X132190686Y-77814742D01*
X132190686Y-77814742D02*
X132376400Y-77814742D01*
X132376400Y-77814742D02*
X132438305Y-77783790D01*
X132438305Y-77783790D02*
X132469257Y-77752837D01*
X132469257Y-77752837D02*
X132500209Y-77690932D01*
X132500209Y-77690932D02*
X132500209Y-77567123D01*
X132500209Y-77567123D02*
X132469257Y-77505218D01*
X132066876Y-77226647D02*
X132500209Y-77226647D01*
X132376400Y-77226647D02*
X132438305Y-77195694D01*
X132438305Y-77195694D02*
X132469257Y-77164742D01*
X132469257Y-77164742D02*
X132500209Y-77102837D01*
X132500209Y-77102837D02*
X132500209Y-77040932D01*
X132066876Y-76731408D02*
X132097829Y-76793313D01*
X132097829Y-76793313D02*
X132128781Y-76824266D01*
X132128781Y-76824266D02*
X132190686Y-76855218D01*
X132190686Y-76855218D02*
X132376400Y-76855218D01*
X132376400Y-76855218D02*
X132438305Y-76824266D01*
X132438305Y-76824266D02*
X132469257Y-76793313D01*
X132469257Y-76793313D02*
X132500209Y-76731408D01*
X132500209Y-76731408D02*
X132500209Y-76638551D01*
X132500209Y-76638551D02*
X132469257Y-76576647D01*
X132469257Y-76576647D02*
X132438305Y-76545694D01*
X132438305Y-76545694D02*
X132376400Y-76514742D01*
X132376400Y-76514742D02*
X132190686Y-76514742D01*
X132190686Y-76514742D02*
X132128781Y-76545694D01*
X132128781Y-76545694D02*
X132097829Y-76576647D01*
X132097829Y-76576647D02*
X132066876Y-76638551D01*
X132066876Y-76638551D02*
X132066876Y-76731408D01*
X132097829Y-75771885D02*
X132066876Y-75679028D01*
X132066876Y-75679028D02*
X132066876Y-75524266D01*
X132066876Y-75524266D02*
X132097829Y-75462361D01*
X132097829Y-75462361D02*
X132128781Y-75431409D01*
X132128781Y-75431409D02*
X132190686Y-75400456D01*
X132190686Y-75400456D02*
X132252590Y-75400456D01*
X132252590Y-75400456D02*
X132314495Y-75431409D01*
X132314495Y-75431409D02*
X132345448Y-75462361D01*
X132345448Y-75462361D02*
X132376400Y-75524266D01*
X132376400Y-75524266D02*
X132407352Y-75648075D01*
X132407352Y-75648075D02*
X132438305Y-75709980D01*
X132438305Y-75709980D02*
X132469257Y-75740933D01*
X132469257Y-75740933D02*
X132531162Y-75771885D01*
X132531162Y-75771885D02*
X132593067Y-75771885D01*
X132593067Y-75771885D02*
X132654971Y-75740933D01*
X132654971Y-75740933D02*
X132685924Y-75709980D01*
X132685924Y-75709980D02*
X132716876Y-75648075D01*
X132716876Y-75648075D02*
X132716876Y-75493314D01*
X132716876Y-75493314D02*
X132685924Y-75400456D01*
X132066876Y-75121885D02*
X132716876Y-75121885D01*
X132716876Y-75121885D02*
X132716876Y-74967123D01*
X132716876Y-74967123D02*
X132685924Y-74874266D01*
X132685924Y-74874266D02*
X132624019Y-74812361D01*
X132624019Y-74812361D02*
X132562114Y-74781408D01*
X132562114Y-74781408D02*
X132438305Y-74750456D01*
X132438305Y-74750456D02*
X132345448Y-74750456D01*
X132345448Y-74750456D02*
X132221638Y-74781408D01*
X132221638Y-74781408D02*
X132159733Y-74812361D01*
X132159733Y-74812361D02*
X132097829Y-74874266D01*
X132097829Y-74874266D02*
X132066876Y-74967123D01*
X132066876Y-74967123D02*
X132066876Y-75121885D01*
X131819257Y-73790932D02*
X131850209Y-73821885D01*
X131850209Y-73821885D02*
X131943067Y-73883789D01*
X131943067Y-73883789D02*
X132004971Y-73914742D01*
X132004971Y-73914742D02*
X132097829Y-73945694D01*
X132097829Y-73945694D02*
X132252590Y-73976647D01*
X132252590Y-73976647D02*
X132376400Y-73976647D01*
X132376400Y-73976647D02*
X132531162Y-73945694D01*
X132531162Y-73945694D02*
X132624019Y-73914742D01*
X132624019Y-73914742D02*
X132685924Y-73883789D01*
X132685924Y-73883789D02*
X132778781Y-73821885D01*
X132778781Y-73821885D02*
X132809733Y-73790932D01*
X132407352Y-73326647D02*
X132407352Y-73543314D01*
X132066876Y-73543314D02*
X132716876Y-73543314D01*
X132716876Y-73543314D02*
X132716876Y-73233790D01*
X132252590Y-73017123D02*
X132252590Y-72707599D01*
X132066876Y-73079028D02*
X132716876Y-72862361D01*
X132716876Y-72862361D02*
X132066876Y-72645694D01*
X132716876Y-72521885D02*
X132716876Y-72150456D01*
X132066876Y-72336170D02*
X132716876Y-72336170D01*
X132716876Y-71995694D02*
X132716876Y-71593313D01*
X132716876Y-71593313D02*
X132469257Y-71809980D01*
X132469257Y-71809980D02*
X132469257Y-71717123D01*
X132469257Y-71717123D02*
X132438305Y-71655218D01*
X132438305Y-71655218D02*
X132407352Y-71624266D01*
X132407352Y-71624266D02*
X132345448Y-71593313D01*
X132345448Y-71593313D02*
X132190686Y-71593313D01*
X132190686Y-71593313D02*
X132128781Y-71624266D01*
X132128781Y-71624266D02*
X132097829Y-71655218D01*
X132097829Y-71655218D02*
X132066876Y-71717123D01*
X132066876Y-71717123D02*
X132066876Y-71902837D01*
X132066876Y-71902837D02*
X132097829Y-71964742D01*
X132097829Y-71964742D02*
X132128781Y-71995694D01*
X132654971Y-71345694D02*
X132685924Y-71314742D01*
X132685924Y-71314742D02*
X132716876Y-71252837D01*
X132716876Y-71252837D02*
X132716876Y-71098075D01*
X132716876Y-71098075D02*
X132685924Y-71036170D01*
X132685924Y-71036170D02*
X132654971Y-71005218D01*
X132654971Y-71005218D02*
X132593067Y-70974265D01*
X132593067Y-70974265D02*
X132531162Y-70974265D01*
X132531162Y-70974265D02*
X132438305Y-71005218D01*
X132438305Y-71005218D02*
X132066876Y-71376646D01*
X132066876Y-71376646D02*
X132066876Y-70974265D01*
X132747829Y-70231408D02*
X131912114Y-70788551D01*
X132407352Y-69798075D02*
X132407352Y-70014742D01*
X132066876Y-70014742D02*
X132716876Y-70014742D01*
X132716876Y-70014742D02*
X132716876Y-69705218D01*
X132252590Y-69488551D02*
X132252590Y-69179027D01*
X132066876Y-69550456D02*
X132716876Y-69333789D01*
X132716876Y-69333789D02*
X132066876Y-69117122D01*
X132716876Y-68993313D02*
X132716876Y-68621884D01*
X132066876Y-68807598D02*
X132716876Y-68807598D01*
X131819257Y-68467122D02*
X131850209Y-68436170D01*
X131850209Y-68436170D02*
X131943067Y-68374265D01*
X131943067Y-68374265D02*
X132004971Y-68343313D01*
X132004971Y-68343313D02*
X132097829Y-68312360D01*
X132097829Y-68312360D02*
X132252590Y-68281408D01*
X132252590Y-68281408D02*
X132376400Y-68281408D01*
X132376400Y-68281408D02*
X132531162Y-68312360D01*
X132531162Y-68312360D02*
X132624019Y-68343313D01*
X132624019Y-68343313D02*
X132685924Y-68374265D01*
X132685924Y-68374265D02*
X132778781Y-68436170D01*
X132778781Y-68436170D02*
X132809733Y-68467122D01*
D11*
X110612839Y-81178821D02*
X110639029Y-81257393D01*
X110639029Y-81257393D02*
X110639029Y-81388345D01*
X110639029Y-81388345D02*
X110612839Y-81440726D01*
X110612839Y-81440726D02*
X110586648Y-81466917D01*
X110586648Y-81466917D02*
X110534267Y-81493107D01*
X110534267Y-81493107D02*
X110481886Y-81493107D01*
X110481886Y-81493107D02*
X110429505Y-81466917D01*
X110429505Y-81466917D02*
X110403315Y-81440726D01*
X110403315Y-81440726D02*
X110377124Y-81388345D01*
X110377124Y-81388345D02*
X110350934Y-81283583D01*
X110350934Y-81283583D02*
X110324743Y-81231202D01*
X110324743Y-81231202D02*
X110298553Y-81205012D01*
X110298553Y-81205012D02*
X110246172Y-81178821D01*
X110246172Y-81178821D02*
X110193791Y-81178821D01*
X110193791Y-81178821D02*
X110141410Y-81205012D01*
X110141410Y-81205012D02*
X110115219Y-81231202D01*
X110115219Y-81231202D02*
X110089029Y-81283583D01*
X110089029Y-81283583D02*
X110089029Y-81414536D01*
X110089029Y-81414536D02*
X110115219Y-81493107D01*
X110350934Y-81912155D02*
X110377124Y-81990727D01*
X110377124Y-81990727D02*
X110403315Y-82016917D01*
X110403315Y-82016917D02*
X110455696Y-82043108D01*
X110455696Y-82043108D02*
X110534267Y-82043108D01*
X110534267Y-82043108D02*
X110586648Y-82016917D01*
X110586648Y-82016917D02*
X110612839Y-81990727D01*
X110612839Y-81990727D02*
X110639029Y-81938346D01*
X110639029Y-81938346D02*
X110639029Y-81728822D01*
X110639029Y-81728822D02*
X110089029Y-81728822D01*
X110089029Y-81728822D02*
X110089029Y-81912155D01*
X110089029Y-81912155D02*
X110115219Y-81964536D01*
X110115219Y-81964536D02*
X110141410Y-81990727D01*
X110141410Y-81990727D02*
X110193791Y-82016917D01*
X110193791Y-82016917D02*
X110246172Y-82016917D01*
X110246172Y-82016917D02*
X110298553Y-81990727D01*
X110298553Y-81990727D02*
X110324743Y-81964536D01*
X110324743Y-81964536D02*
X110350934Y-81912155D01*
X110350934Y-81912155D02*
X110350934Y-81728822D01*
X110089029Y-82278822D02*
X110534267Y-82278822D01*
X110534267Y-82278822D02*
X110586648Y-82305012D01*
X110586648Y-82305012D02*
X110612839Y-82331203D01*
X110612839Y-82331203D02*
X110639029Y-82383584D01*
X110639029Y-82383584D02*
X110639029Y-82488346D01*
X110639029Y-82488346D02*
X110612839Y-82540727D01*
X110612839Y-82540727D02*
X110586648Y-82566917D01*
X110586648Y-82566917D02*
X110534267Y-82593108D01*
X110534267Y-82593108D02*
X110089029Y-82593108D01*
X110612839Y-82828821D02*
X110639029Y-82907393D01*
X110639029Y-82907393D02*
X110639029Y-83038345D01*
X110639029Y-83038345D02*
X110612839Y-83090726D01*
X110612839Y-83090726D02*
X110586648Y-83116917D01*
X110586648Y-83116917D02*
X110534267Y-83143107D01*
X110534267Y-83143107D02*
X110481886Y-83143107D01*
X110481886Y-83143107D02*
X110429505Y-83116917D01*
X110429505Y-83116917D02*
X110403315Y-83090726D01*
X110403315Y-83090726D02*
X110377124Y-83038345D01*
X110377124Y-83038345D02*
X110350934Y-82933583D01*
X110350934Y-82933583D02*
X110324743Y-82881202D01*
X110324743Y-82881202D02*
X110298553Y-82855012D01*
X110298553Y-82855012D02*
X110246172Y-82828821D01*
X110246172Y-82828821D02*
X110193791Y-82828821D01*
X110193791Y-82828821D02*
X110141410Y-82855012D01*
X110141410Y-82855012D02*
X110115219Y-82881202D01*
X110115219Y-82881202D02*
X110089029Y-82933583D01*
X110089029Y-82933583D02*
X110089029Y-83064536D01*
X110089029Y-83064536D02*
X110115219Y-83143107D01*
%TO.C,C32*%
D17*
X97113899Y-67536750D02*
X96413899Y-67536750D01*
X96413899Y-66026750D01*
X97113899Y-66026750D01*
X97113899Y-67536750D01*
%TO.C,C33_BEC1*%
X127097649Y-64347999D02*
X127997649Y-64347999D01*
X127997649Y-63847999D01*
X127097649Y-63847999D01*
X127097649Y-64347999D01*
%TO.C,LED8*%
X93752649Y-75883000D02*
X92802649Y-75883000D01*
X92802649Y-73508000D01*
X93752649Y-73508000D01*
X93752649Y-75883000D01*
D13*
X93337649Y-74858000D02*
G75*
G02*
X93217649Y-74858000I-60000J0D01*
G01*
X93217649Y-74858000D02*
G75*
G02*
X93337649Y-74858000I60000J0D01*
G01*
%TO.C,C31_BEC1*%
D17*
X123447649Y-59863000D02*
X124957649Y-59863000D01*
X124957649Y-59163000D01*
X123447649Y-59163000D01*
X123447649Y-59863000D01*
%TO.C,C24*%
X97993899Y-66613000D02*
X98493899Y-66613000D01*
X98493899Y-67513000D01*
X97993899Y-67513000D01*
X97993899Y-66613000D01*
%TO.C,R29_BEC1*%
X128878899Y-58747999D02*
X127368899Y-58747999D01*
X127368899Y-59447999D01*
X128878899Y-59447999D01*
X128878899Y-58747999D01*
%TO.C,FL2*%
X114862500Y-66775000D02*
X114587500Y-66775000D01*
X114862500Y-67425000D02*
X114587500Y-67425000D01*
X115487500Y-66775000D02*
X115212500Y-66775000D01*
X115487500Y-67425000D02*
X115212500Y-67425000D01*
D13*
X114778490Y-67100000D02*
G75*
G02*
X114676510Y-67100000I-50990J0D01*
G01*
X114676510Y-67100000D02*
G75*
G02*
X114778490Y-67100000I50990J0D01*
G01*
D17*
%TO.C,U8*%
X125412649Y-62973000D02*
X125412649Y-59873000D01*
X125412649Y-62973000D02*
X128862649Y-62973000D01*
X125587649Y-60223000D02*
X125587649Y-59873000D01*
X125587649Y-62973000D02*
X125587649Y-62623000D01*
X128687649Y-60223000D02*
X128687649Y-59873000D01*
X128687649Y-62973000D02*
X128687649Y-62623000D01*
X128862649Y-59873000D02*
X125412649Y-59873000D01*
X128862649Y-62973000D02*
X128862649Y-59873000D01*
D13*
X127537649Y-60443000D02*
G75*
G02*
X127437649Y-60443000I-50000J0D01*
G01*
X127437649Y-60443000D02*
G75*
G02*
X127537649Y-60443000I50000J0D01*
G01*
%TO.C,C30*%
D17*
X101637649Y-62658000D02*
X102537649Y-62658000D01*
X102537649Y-62158000D01*
X101637649Y-62158000D01*
X101637649Y-62658000D01*
%TO.C,L1*%
X116237649Y-60498000D02*
X121937649Y-60498000D01*
X121937649Y-54998000D01*
X116237649Y-54998000D01*
X116237649Y-60498000D01*
D12*
%TO.C,D2*%
X111667649Y-61148000D02*
X111667649Y-55548000D01*
X112437649Y-55548000D02*
X111667649Y-55548000D01*
X112437649Y-61148000D02*
X111667649Y-61148000D01*
D17*
X113037649Y-57748000D02*
X114237649Y-57748000D01*
X113037649Y-58898000D02*
X113637649Y-57748000D01*
X113037649Y-58898000D02*
X114237649Y-58898000D01*
X114237649Y-58898000D02*
X113637649Y-57748000D01*
D12*
X114837649Y-55548000D02*
X115607649Y-55548000D01*
X114837649Y-61148000D02*
X115607649Y-61148000D01*
X115607649Y-61148000D02*
X115607649Y-55548000D01*
D18*
%TO.C,G\u002A\u002A\u002A*%
G36*
X116470986Y-62358677D02*
G01*
X116578934Y-62358698D01*
X116694831Y-62358734D01*
X116818972Y-62358785D01*
X116951649Y-62358850D01*
X117093155Y-62358927D01*
X117243783Y-62359015D01*
X117403824Y-62359113D01*
X117573573Y-62359220D01*
X118037649Y-62359516D01*
X119605149Y-62360514D01*
X119652649Y-62374366D01*
X119683481Y-62384641D01*
X119723569Y-62400996D01*
X119763529Y-62420132D01*
X119800131Y-62440481D01*
X119830149Y-62460478D01*
X119845056Y-62472288D01*
X119872786Y-62496596D01*
X119901068Y-62523811D01*
X119926976Y-62551067D01*
X119947585Y-62575500D01*
X119965414Y-62600702D01*
X119993277Y-62648801D01*
X120017496Y-62701569D01*
X120036638Y-62755728D01*
X120049270Y-62808000D01*
X120049701Y-62810689D01*
X120050448Y-62816848D01*
X120051140Y-62824892D01*
X120051780Y-62835174D01*
X120052368Y-62848048D01*
X120052906Y-62863866D01*
X120053396Y-62882981D01*
X120053840Y-62905746D01*
X120054240Y-62932513D01*
X120054597Y-62963635D01*
X120054912Y-62999465D01*
X120055189Y-63040356D01*
X120055427Y-63086661D01*
X120055630Y-63138732D01*
X120055798Y-63196923D01*
X120055934Y-63261585D01*
X120056039Y-63333072D01*
X120056115Y-63411737D01*
X120056164Y-63497933D01*
X120056186Y-63592011D01*
X120056185Y-63694326D01*
X120056161Y-63805229D01*
X120056117Y-63925074D01*
X120056054Y-64054213D01*
X120055974Y-64193000D01*
X120055149Y-65535500D01*
X120041652Y-65584386D01*
X120019954Y-65648603D01*
X119987961Y-65715502D01*
X119948297Y-65776900D01*
X119901545Y-65832199D01*
X119848288Y-65880802D01*
X119789110Y-65922110D01*
X119724593Y-65955525D01*
X119655321Y-65980451D01*
X119624555Y-65987741D01*
X119587017Y-65994037D01*
X119547821Y-65998378D01*
X119543426Y-65998647D01*
X119526470Y-65999209D01*
X119499618Y-65999725D01*
X119462944Y-66000194D01*
X119416519Y-66000616D01*
X119360415Y-66000992D01*
X119294706Y-66001320D01*
X119219462Y-66001601D01*
X119134756Y-66001835D01*
X119040661Y-66002022D01*
X118937248Y-66002160D01*
X118824590Y-66002251D01*
X118702759Y-66002293D01*
X118571827Y-66002287D01*
X118431867Y-66002233D01*
X118282950Y-66002130D01*
X118125149Y-66001978D01*
X117994167Y-66001831D01*
X117862892Y-66001671D01*
X117740971Y-66001506D01*
X117628067Y-66001336D01*
X117523847Y-66001157D01*
X117427974Y-66000968D01*
X117340115Y-66000766D01*
X117259934Y-66000550D01*
X117187096Y-66000318D01*
X117121267Y-66000067D01*
X117062111Y-65999795D01*
X117009293Y-65999500D01*
X116962478Y-65999180D01*
X116921332Y-65998834D01*
X116885520Y-65998458D01*
X116854705Y-65998051D01*
X116828555Y-65997611D01*
X116806733Y-65997136D01*
X116788904Y-65996623D01*
X116774734Y-65996071D01*
X116763888Y-65995477D01*
X116756030Y-65994840D01*
X116750826Y-65994157D01*
X116747940Y-65993426D01*
X116746790Y-65992850D01*
X116737715Y-65986869D01*
X116721884Y-65975386D01*
X116700110Y-65959027D01*
X116673201Y-65938415D01*
X116641969Y-65914174D01*
X116607224Y-65886930D01*
X116569778Y-65857306D01*
X116530440Y-65825926D01*
X116330149Y-65665500D01*
X115930149Y-65662634D01*
X115874477Y-65662240D01*
X115806046Y-65661744D01*
X115746322Y-65661251D01*
X115694556Y-65660703D01*
X115649999Y-65660043D01*
X115611903Y-65659214D01*
X115579518Y-65658159D01*
X115552098Y-65656822D01*
X115528892Y-65655145D01*
X115509152Y-65653071D01*
X115492130Y-65650543D01*
X115477077Y-65647504D01*
X115463245Y-65643898D01*
X115449884Y-65639666D01*
X115436247Y-65634753D01*
X115421585Y-65629100D01*
X115405149Y-65622652D01*
X115360249Y-65602725D01*
X115298105Y-65566307D01*
X115241829Y-65522302D01*
X115191953Y-65471359D01*
X115149012Y-65414127D01*
X115113540Y-65351257D01*
X115086070Y-65283399D01*
X115067137Y-65211201D01*
X115066344Y-65207037D01*
X115065354Y-65201290D01*
X115064441Y-65194986D01*
X115063605Y-65187731D01*
X115062840Y-65179132D01*
X115062146Y-65168794D01*
X115061520Y-65156326D01*
X115060958Y-65141332D01*
X115060459Y-65123421D01*
X115060019Y-65102197D01*
X115059635Y-65077269D01*
X115059629Y-65076782D01*
X115483435Y-65076782D01*
X115489368Y-65107682D01*
X115503310Y-65136727D01*
X115525549Y-65162308D01*
X115534334Y-65169314D01*
X115551470Y-65180278D01*
X115566683Y-65187119D01*
X115567081Y-65187232D01*
X115575273Y-65188525D01*
X115589834Y-65189636D01*
X115611219Y-65190572D01*
X115639881Y-65191341D01*
X115676274Y-65191950D01*
X115720852Y-65192408D01*
X115774068Y-65192723D01*
X115836375Y-65192901D01*
X115908229Y-65192951D01*
X116230149Y-65192902D01*
X116255353Y-65181165D01*
X116268488Y-65174053D01*
X116295262Y-65151566D01*
X116315988Y-65121376D01*
X116317857Y-65117291D01*
X116323417Y-65096521D01*
X116325913Y-65071604D01*
X116325122Y-65046892D01*
X116320821Y-65026739D01*
X116313098Y-65009907D01*
X116292006Y-64981496D01*
X116263729Y-64959361D01*
X116240149Y-64945500D01*
X115912649Y-64944080D01*
X115878690Y-64943937D01*
X115817441Y-64943714D01*
X115765063Y-64943587D01*
X115720803Y-64943573D01*
X115683906Y-64943686D01*
X115653620Y-64943941D01*
X115629189Y-64944353D01*
X115609861Y-64944936D01*
X115594882Y-64945706D01*
X115583497Y-64946677D01*
X115574953Y-64947864D01*
X115568496Y-64949281D01*
X115563373Y-64950945D01*
X115534032Y-64966812D01*
X115510809Y-64989042D01*
X115494443Y-65015852D01*
X115485223Y-65045636D01*
X115483435Y-65076782D01*
X115059629Y-65076782D01*
X115059306Y-65048242D01*
X115059029Y-65014723D01*
X115058800Y-64976319D01*
X115058618Y-64932636D01*
X115058479Y-64883281D01*
X115058381Y-64827860D01*
X115058321Y-64765980D01*
X115058297Y-64697248D01*
X115058304Y-64634597D01*
X115482982Y-64634597D01*
X115485078Y-64667293D01*
X115496150Y-64698995D01*
X115516232Y-64728148D01*
X115517353Y-64729399D01*
X115524457Y-64737391D01*
X115530958Y-64744275D01*
X115537612Y-64750134D01*
X115545178Y-64755050D01*
X115554412Y-64759106D01*
X115566072Y-64762384D01*
X115580915Y-64764967D01*
X115599699Y-64766937D01*
X115623181Y-64768377D01*
X115652119Y-64769369D01*
X115687269Y-64769996D01*
X115720803Y-64770270D01*
X115729390Y-64770340D01*
X115779239Y-64770484D01*
X115837572Y-64770509D01*
X115905149Y-64770500D01*
X115956721Y-64770479D01*
X116016785Y-64770381D01*
X116068059Y-64770191D01*
X116111233Y-64769893D01*
X116146996Y-64769475D01*
X116176037Y-64768921D01*
X116199047Y-64768219D01*
X116216713Y-64767355D01*
X116229727Y-64766314D01*
X116238777Y-64765082D01*
X116244552Y-64763646D01*
X116255118Y-64759035D01*
X116278922Y-64742749D01*
X116300155Y-64720637D01*
X116315884Y-64695500D01*
X116324057Y-64671346D01*
X116326726Y-64638804D01*
X116320979Y-64606791D01*
X116307474Y-64577215D01*
X116286870Y-64551982D01*
X116259824Y-64533000D01*
X116235149Y-64520500D01*
X115913117Y-64519107D01*
X115845197Y-64518813D01*
X115786367Y-64518603D01*
X115736031Y-64518549D01*
X115693435Y-64518720D01*
X115657825Y-64519184D01*
X115628448Y-64520012D01*
X115604549Y-64521273D01*
X115585375Y-64523035D01*
X115570173Y-64525369D01*
X115558187Y-64528344D01*
X115548664Y-64532028D01*
X115540851Y-64536492D01*
X115533994Y-64541805D01*
X115527338Y-64548036D01*
X115520131Y-64555254D01*
X115505576Y-64572451D01*
X115489826Y-64602465D01*
X115482982Y-64634597D01*
X115058304Y-64634597D01*
X115058306Y-64621269D01*
X115058345Y-64537651D01*
X115058412Y-64446001D01*
X115058503Y-64345924D01*
X115058617Y-64237027D01*
X115058644Y-64213588D01*
X115483358Y-64213588D01*
X115486080Y-64247532D01*
X115498238Y-64281371D01*
X115504930Y-64292294D01*
X115524907Y-64313914D01*
X115550278Y-64331646D01*
X115577925Y-64343074D01*
X115585789Y-64344123D01*
X115604141Y-64345150D01*
X115632290Y-64345969D01*
X115670128Y-64346577D01*
X115717547Y-64346975D01*
X115736031Y-64347035D01*
X115774440Y-64347161D01*
X115840697Y-64347134D01*
X115916212Y-64346892D01*
X116235149Y-64345500D01*
X116257030Y-64333826D01*
X116279967Y-64318921D01*
X116299686Y-64298239D01*
X116315779Y-64270500D01*
X116323530Y-64248868D01*
X116326971Y-64216219D01*
X116321239Y-64183983D01*
X116319564Y-64180500D01*
X116905255Y-64180500D01*
X116905323Y-64191046D01*
X116906067Y-64212803D01*
X116908029Y-64228764D01*
X116911705Y-64241953D01*
X116917595Y-64255397D01*
X116918120Y-64256464D01*
X116922012Y-64264222D01*
X116926023Y-64271469D01*
X116930628Y-64278512D01*
X116936302Y-64285656D01*
X116943519Y-64293208D01*
X116952753Y-64301474D01*
X116964480Y-64310759D01*
X116979174Y-64321369D01*
X116997309Y-64333611D01*
X117019360Y-64347790D01*
X117045801Y-64364213D01*
X117077108Y-64383185D01*
X117113754Y-64405013D01*
X117156215Y-64430002D01*
X117204965Y-64458459D01*
X117260478Y-64490689D01*
X117323229Y-64526998D01*
X117393693Y-64567693D01*
X117472343Y-64613079D01*
X117484417Y-64620044D01*
X117564746Y-64666304D01*
X117639076Y-64708967D01*
X117707145Y-64747887D01*
X117768690Y-64782916D01*
X117823450Y-64813907D01*
X117871163Y-64840712D01*
X117911566Y-64863184D01*
X117944398Y-64881176D01*
X117969396Y-64894540D01*
X117986299Y-64903129D01*
X117994843Y-64906796D01*
X118025806Y-64911232D01*
X118062370Y-64908479D01*
X118098885Y-64898399D01*
X118132768Y-64881731D01*
X118161435Y-64859213D01*
X118170611Y-64848764D01*
X118184384Y-64829543D01*
X118195678Y-64809970D01*
X118210149Y-64780500D01*
X118211312Y-64185500D01*
X118212475Y-63590500D01*
X118200580Y-63561650D01*
X118198260Y-63556202D01*
X118177077Y-63518364D01*
X118150450Y-63488915D01*
X118118354Y-63467835D01*
X118080762Y-63455107D01*
X118037649Y-63450714D01*
X118017272Y-63450990D01*
X117999071Y-63452747D01*
X117983640Y-63456732D01*
X117967079Y-63463661D01*
X117966150Y-63464116D01*
X117956468Y-63469305D01*
X117938843Y-63479100D01*
X117913864Y-63493161D01*
X117882123Y-63511153D01*
X117844213Y-63532735D01*
X117800723Y-63557570D01*
X117752246Y-63585321D01*
X117699374Y-63615649D01*
X117642696Y-63648215D01*
X117582805Y-63682682D01*
X117520293Y-63718712D01*
X117455750Y-63755967D01*
X117418895Y-63777268D01*
X117334335Y-63826252D01*
X117258080Y-63870593D01*
X117190174Y-63910263D01*
X117130665Y-63945235D01*
X117079599Y-63975481D01*
X117037022Y-64000974D01*
X117002982Y-64021686D01*
X116977525Y-64037590D01*
X116960696Y-64048657D01*
X116952543Y-64054860D01*
X116944265Y-64064063D01*
X116930210Y-64083181D01*
X116918873Y-64102554D01*
X116914356Y-64112163D01*
X116909510Y-64125200D01*
X116906741Y-64138851D01*
X116905505Y-64156243D01*
X116905255Y-64180500D01*
X116319564Y-64180500D01*
X116306679Y-64153710D01*
X116283640Y-64126949D01*
X116278609Y-64122431D01*
X116271541Y-64116436D01*
X116264353Y-64111307D01*
X116256286Y-64106981D01*
X116246579Y-64103392D01*
X116234472Y-64100479D01*
X116219206Y-64098177D01*
X116200020Y-64096422D01*
X116176154Y-64095150D01*
X116146848Y-64094299D01*
X116111343Y-64093803D01*
X116068878Y-64093600D01*
X116018693Y-64093625D01*
X115960028Y-64093815D01*
X115892123Y-64094105D01*
X115575149Y-64095500D01*
X115554180Y-64106708D01*
X115527321Y-64125148D01*
X115504428Y-64150993D01*
X115489624Y-64180940D01*
X115483358Y-64213588D01*
X115058644Y-64213588D01*
X115058751Y-64118918D01*
X115058902Y-63991201D01*
X115059136Y-63795230D01*
X115483447Y-63795230D01*
X115487211Y-63827703D01*
X115499429Y-63858463D01*
X115520131Y-63885745D01*
X115520590Y-63886205D01*
X115527716Y-63893338D01*
X115534334Y-63899495D01*
X115541193Y-63904744D01*
X115549046Y-63909154D01*
X115558641Y-63912793D01*
X115570731Y-63915730D01*
X115586065Y-63918034D01*
X115605394Y-63919772D01*
X115629469Y-63921015D01*
X115659040Y-63921830D01*
X115694859Y-63922286D01*
X115737675Y-63922451D01*
X115788239Y-63922395D01*
X115847302Y-63922185D01*
X115915614Y-63921891D01*
X116068878Y-63921234D01*
X116240149Y-63920500D01*
X116263739Y-63906632D01*
X116264357Y-63906265D01*
X116287945Y-63887280D01*
X116308029Y-63861871D01*
X116321855Y-63833503D01*
X116325231Y-63820972D01*
X116327029Y-63789379D01*
X116320472Y-63757656D01*
X116306250Y-63728246D01*
X116285054Y-63703588D01*
X116278374Y-63697656D01*
X116272310Y-63692538D01*
X116266114Y-63688181D01*
X116259026Y-63684524D01*
X116250288Y-63681505D01*
X116239141Y-63679064D01*
X116224825Y-63677139D01*
X116206582Y-63675670D01*
X116183652Y-63674595D01*
X116155277Y-63673853D01*
X116120697Y-63673383D01*
X116079153Y-63673123D01*
X116029886Y-63673014D01*
X115972138Y-63672993D01*
X115905148Y-63673000D01*
X115904665Y-63672999D01*
X115837359Y-63672995D01*
X115779295Y-63673021D01*
X115729722Y-63673142D01*
X115687888Y-63673419D01*
X115653039Y-63673913D01*
X115624424Y-63674688D01*
X115601290Y-63675805D01*
X115582886Y-63677326D01*
X115568458Y-63679313D01*
X115557256Y-63681829D01*
X115548526Y-63684935D01*
X115541516Y-63688693D01*
X115535474Y-63693166D01*
X115529648Y-63698415D01*
X115523286Y-63704503D01*
X115522570Y-63705188D01*
X115501157Y-63732207D01*
X115488106Y-63762810D01*
X115483447Y-63795230D01*
X115059136Y-63795230D01*
X115059640Y-63373000D01*
X115485380Y-63373000D01*
X115485658Y-63383522D01*
X115491522Y-63418020D01*
X115505252Y-63446511D01*
X115527183Y-63469526D01*
X115557649Y-63487595D01*
X115560353Y-63488788D01*
X115565228Y-63490658D01*
X115570899Y-63492250D01*
X115578132Y-63493585D01*
X115587694Y-63494687D01*
X115600353Y-63495579D01*
X115616876Y-63496282D01*
X115638030Y-63496820D01*
X115664581Y-63497215D01*
X115697296Y-63497490D01*
X115736944Y-63497668D01*
X115784291Y-63497770D01*
X115840103Y-63497820D01*
X115905149Y-63497841D01*
X115972138Y-63497854D01*
X116230149Y-63497902D01*
X116255353Y-63486165D01*
X116268488Y-63479053D01*
X116295262Y-63456566D01*
X116315988Y-63426376D01*
X116317674Y-63422744D01*
X116323383Y-63401898D01*
X116325916Y-63376790D01*
X116325064Y-63351758D01*
X116320614Y-63331137D01*
X116309596Y-63308762D01*
X116287236Y-63282060D01*
X116257751Y-63261750D01*
X116230855Y-63248000D01*
X115905502Y-63248109D01*
X115867042Y-63248124D01*
X115807341Y-63248168D01*
X115756435Y-63248253D01*
X115713557Y-63248402D01*
X115677940Y-63248638D01*
X115648817Y-63248983D01*
X115625422Y-63249460D01*
X115606989Y-63250092D01*
X115592750Y-63250901D01*
X115581939Y-63251911D01*
X115573791Y-63253143D01*
X115567537Y-63254621D01*
X115562412Y-63256367D01*
X115557649Y-63258404D01*
X115548472Y-63262873D01*
X115520368Y-63282238D01*
X115500708Y-63306695D01*
X115489156Y-63336772D01*
X115485380Y-63373000D01*
X115059640Y-63373000D01*
X115060143Y-62951619D01*
X115483498Y-62951619D01*
X115488401Y-62984481D01*
X115501931Y-63014826D01*
X115523798Y-63040944D01*
X115524923Y-63041964D01*
X115532076Y-63048552D01*
X115538510Y-63054218D01*
X115544992Y-63059031D01*
X115552287Y-63063061D01*
X115561161Y-63066376D01*
X115572379Y-63069046D01*
X115586706Y-63071140D01*
X115604910Y-63072728D01*
X115627754Y-63073880D01*
X115656004Y-63074664D01*
X115690427Y-63075150D01*
X115731787Y-63075407D01*
X115780850Y-63075505D01*
X115838382Y-63075512D01*
X115905149Y-63075500D01*
X115911678Y-63075500D01*
X115977475Y-63075512D01*
X116034108Y-63075496D01*
X116082344Y-63075386D01*
X116122949Y-63075115D01*
X116156689Y-63074616D01*
X116184330Y-63073823D01*
X116206638Y-63072668D01*
X116224379Y-63071084D01*
X116230855Y-63070119D01*
X116238320Y-63069007D01*
X116249226Y-63066367D01*
X116257864Y-63063099D01*
X116265000Y-63059137D01*
X116271399Y-63054412D01*
X116277829Y-63048859D01*
X116285054Y-63042411D01*
X116291330Y-63036220D01*
X116305134Y-63018805D01*
X116315892Y-63000536D01*
X116324478Y-62974151D01*
X116326509Y-62941763D01*
X116320359Y-62909962D01*
X116306698Y-62880691D01*
X116286199Y-62855890D01*
X116259532Y-62837502D01*
X116235149Y-62825500D01*
X115913581Y-62824142D01*
X115848596Y-62823930D01*
X115779945Y-62823874D01*
X115720932Y-62824034D01*
X115671618Y-62824407D01*
X115632062Y-62824994D01*
X115602324Y-62825794D01*
X115582464Y-62826805D01*
X115572542Y-62828028D01*
X115562875Y-62831293D01*
X115537571Y-62845574D01*
X115514938Y-62865995D01*
X115498199Y-62889873D01*
X115487511Y-62917949D01*
X115483498Y-62951619D01*
X115060143Y-62951619D01*
X115060299Y-62820500D01*
X115071206Y-62780054D01*
X115071591Y-62778630D01*
X115091159Y-62716555D01*
X115114667Y-62661773D01*
X115143454Y-62611963D01*
X115178857Y-62564804D01*
X115222212Y-62517976D01*
X115266793Y-62477150D01*
X115319290Y-62438108D01*
X115373929Y-62407386D01*
X115432321Y-62384099D01*
X115496073Y-62367361D01*
X115499694Y-62366650D01*
X115504046Y-62365902D01*
X115509028Y-62365200D01*
X115514933Y-62364541D01*
X115522053Y-62363923D01*
X115530682Y-62363347D01*
X115541113Y-62362811D01*
X115553637Y-62362314D01*
X115568549Y-62361854D01*
X115586140Y-62361431D01*
X115606704Y-62361042D01*
X115630534Y-62360689D01*
X115657921Y-62360368D01*
X115689160Y-62360079D01*
X115724542Y-62359820D01*
X115764362Y-62359591D01*
X115779945Y-62359521D01*
X115808910Y-62359391D01*
X115858481Y-62359218D01*
X115913367Y-62359071D01*
X115973861Y-62358949D01*
X116040255Y-62358851D01*
X116112843Y-62358775D01*
X116191917Y-62358721D01*
X116277771Y-62358688D01*
X116370696Y-62358673D01*
X116470986Y-62358677D01*
G37*
D12*
%TO.C,U3*%
X105447649Y-74778000D02*
X105447649Y-69498000D01*
X110727649Y-69498000D02*
X105447649Y-69498000D01*
X110727649Y-69498000D02*
X110727649Y-74778000D01*
X110727649Y-74778000D02*
X105447649Y-74778000D01*
X103537649Y-74913000D02*
X112662649Y-74913000D01*
X112662649Y-69363000D01*
X103537649Y-69363000D01*
X103537649Y-74913000D01*
D13*
X103987649Y-74738000D02*
G75*
G02*
X103787649Y-74738000I-100000J0D01*
G01*
X103787649Y-74738000D02*
G75*
G02*
X103987649Y-74738000I100000J0D01*
G01*
%TO.C,R27_BEC1*%
D17*
X125428899Y-59447999D02*
X126938899Y-59447999D01*
X126938899Y-58747999D01*
X125428899Y-58747999D01*
X125428899Y-59447999D01*
D19*
%TO.C,J4*%
X108882649Y-84652999D02*
X109982649Y-84652999D01*
X108882649Y-87127999D02*
X108882649Y-84652999D01*
X109882649Y-88902999D02*
X115882649Y-88902999D01*
X116882649Y-84652999D02*
X115782649Y-84652999D01*
X116882649Y-87127999D02*
X116882649Y-84652999D01*
D13*
X116322649Y-83987999D02*
G75*
G02*
X116122649Y-83987999I-100000J0D01*
G01*
X116122649Y-83987999D02*
G75*
G02*
X116322649Y-83987999I100000J0D01*
G01*
D20*
%TO.C,Y2*%
X96663899Y-63468000D02*
X96663899Y-63868000D01*
X97363899Y-62668000D02*
X97563899Y-62668000D01*
X97363899Y-64668000D02*
X97563899Y-64668000D01*
X98263899Y-63468000D02*
X98263899Y-63868000D01*
D17*
X98493899Y-64898000D02*
X96433899Y-64898000D01*
X96433899Y-62438000D01*
X98493899Y-62438000D01*
X98493899Y-64898000D01*
%TO.C,C45*%
X102652649Y-62658000D02*
X103552649Y-62658000D01*
X103552649Y-62158000D01*
X102652649Y-62158000D01*
X102652649Y-62658000D01*
%TO.C,C39*%
X98493899Y-65068000D02*
X97593899Y-65068000D01*
X97593899Y-65568000D01*
X98493899Y-65568000D01*
X98493899Y-65068000D01*
%TO.C,FL1*%
X106792649Y-63258000D02*
X106792649Y-63608000D01*
X106792649Y-63958000D02*
X106792649Y-64308000D01*
X107442649Y-63258000D02*
X107442649Y-63608000D01*
X107442649Y-63958000D02*
X107442649Y-64308000D01*
D13*
X107182649Y-64908000D02*
G75*
G02*
X107042649Y-64908000I-70000J0D01*
G01*
X107042649Y-64908000D02*
G75*
G02*
X107182649Y-64908000I70000J0D01*
G01*
%TO.C,R26_BEC1*%
D17*
X125412649Y-64547999D02*
X126922649Y-64547999D01*
X126922649Y-63847999D01*
X125412649Y-63847999D01*
X125412649Y-64547999D01*
%TO.C,R28_BEC1*%
X128877649Y-65357999D02*
X128177649Y-65357999D01*
X128177649Y-63847999D01*
X128877649Y-63847999D01*
X128877649Y-65357999D01*
%TO.C,R2*%
X104137649Y-68198000D02*
X104637649Y-68198000D01*
X104637649Y-69098000D01*
X104137649Y-69098000D01*
X104137649Y-68198000D01*
D19*
%TO.C,J21*%
X117357649Y-67672000D02*
X117357649Y-72674000D01*
X117357649Y-78422000D02*
X117357649Y-79424000D01*
X120707649Y-80098000D02*
X122807649Y-80098000D01*
X125807649Y-80098000D02*
X128707649Y-80098000D01*
X131407649Y-66998000D02*
X131407649Y-80098000D01*
D13*
X131957649Y-75928000D02*
G75*
G02*
X131757649Y-75928000I-100000J0D01*
G01*
X131757649Y-75928000D02*
G75*
G02*
X131957649Y-75928000I100000J0D01*
G01*
%TO.C,C40*%
D17*
X98493899Y-61768000D02*
X97593899Y-61768000D01*
X97593899Y-62268000D01*
X98493899Y-62268000D01*
X98493899Y-61768000D01*
D18*
%TO.C,G\u002A\u002A\u002A*%
G36*
X98317903Y-71666267D02*
G01*
X98326197Y-71667084D01*
X98333655Y-71668819D01*
X98340659Y-71671688D01*
X98347940Y-71675927D01*
X98348223Y-71676113D01*
X98356425Y-71682600D01*
X98363491Y-71690346D01*
X98369006Y-71698897D01*
X98369370Y-71699593D01*
X98370912Y-71702577D01*
X98372196Y-71705241D01*
X98373248Y-71707799D01*
X98374092Y-71710459D01*
X98374754Y-71713433D01*
X98375260Y-71716931D01*
X98375634Y-71721165D01*
X98375901Y-71726345D01*
X98376087Y-71732682D01*
X98376218Y-71740386D01*
X98376317Y-71749669D01*
X98376412Y-71760741D01*
X98376779Y-71804982D01*
X98592464Y-71805241D01*
X98808149Y-71805500D01*
X98814909Y-71808702D01*
X98821487Y-71812644D01*
X98827983Y-71818594D01*
X98833139Y-71825808D01*
X98836712Y-71834000D01*
X98836809Y-71834998D01*
X98836917Y-71837909D01*
X98837016Y-71842546D01*
X98837103Y-71848763D01*
X98837178Y-71856409D01*
X98837240Y-71865338D01*
X98837289Y-71875399D01*
X98837323Y-71886444D01*
X98837340Y-71898325D01*
X98837341Y-71910893D01*
X98837323Y-71924000D01*
X98837149Y-72011500D01*
X98834549Y-72017000D01*
X98834048Y-72018024D01*
X98829143Y-72025528D01*
X98822703Y-72031813D01*
X98814872Y-72036734D01*
X98807253Y-72040500D01*
X98591951Y-72040763D01*
X98376648Y-72041026D01*
X98376641Y-72081763D01*
X98376622Y-72092929D01*
X98376558Y-72102559D01*
X98376437Y-72110610D01*
X98376244Y-72117294D01*
X98375964Y-72122823D01*
X98375585Y-72127408D01*
X98375092Y-72131263D01*
X98374472Y-72134600D01*
X98373710Y-72137631D01*
X98372793Y-72140568D01*
X98370698Y-72145778D01*
X98365690Y-72154454D01*
X98359196Y-72162420D01*
X98351537Y-72169304D01*
X98343034Y-72174739D01*
X98340645Y-72175936D01*
X98331939Y-72179414D01*
X98323196Y-72181363D01*
X98313649Y-72181970D01*
X98313177Y-72181969D01*
X98303118Y-72181215D01*
X98293981Y-72178985D01*
X98285231Y-72175150D01*
X98284674Y-72174847D01*
X98282074Y-72173389D01*
X98277924Y-72171032D01*
X98272326Y-72167834D01*
X98265382Y-72163853D01*
X98257194Y-72159151D01*
X98247867Y-72153786D01*
X98237501Y-72147817D01*
X98226200Y-72141304D01*
X98214067Y-72134306D01*
X98201204Y-72126883D01*
X98187713Y-72119093D01*
X98173697Y-72110997D01*
X98159259Y-72102654D01*
X98144501Y-72094123D01*
X98129526Y-72085463D01*
X98114437Y-72076734D01*
X98099336Y-72067995D01*
X98084326Y-72059305D01*
X98069509Y-72050725D01*
X98054988Y-72042313D01*
X98040865Y-72034128D01*
X98027244Y-72026230D01*
X98014226Y-72018679D01*
X98001915Y-72011534D01*
X97990413Y-72004854D01*
X97979822Y-71998698D01*
X97970245Y-71993126D01*
X97961785Y-71988197D01*
X97954545Y-71983971D01*
X97948626Y-71980507D01*
X97944133Y-71977864D01*
X97941166Y-71976102D01*
X97939829Y-71975280D01*
X97933078Y-71969800D01*
X97926297Y-71962167D01*
X97920662Y-71953409D01*
X97916376Y-71943909D01*
X97913643Y-71934047D01*
X97912666Y-71924207D01*
X97912976Y-71918332D01*
X97914905Y-71908335D01*
X97918432Y-71898560D01*
X97923364Y-71889409D01*
X97929508Y-71881279D01*
X97936671Y-71874572D01*
X97937652Y-71873929D01*
X97940344Y-71872286D01*
X97944584Y-71869753D01*
X97950271Y-71866391D01*
X97957303Y-71862256D01*
X97965577Y-71857410D01*
X97974992Y-71851909D01*
X97985446Y-71845814D01*
X97996838Y-71839183D01*
X98009064Y-71832075D01*
X98022024Y-71824549D01*
X98035616Y-71816663D01*
X98049737Y-71808477D01*
X98064285Y-71800050D01*
X98079160Y-71791439D01*
X98094258Y-71782706D01*
X98109478Y-71773907D01*
X98124718Y-71765102D01*
X98139876Y-71756351D01*
X98154851Y-71747711D01*
X98169540Y-71739241D01*
X98183842Y-71731001D01*
X98197654Y-71723050D01*
X98210875Y-71715446D01*
X98223403Y-71708248D01*
X98235136Y-71701515D01*
X98245971Y-71695306D01*
X98255808Y-71689680D01*
X98264545Y-71684696D01*
X98272078Y-71680412D01*
X98278307Y-71676888D01*
X98283130Y-71674182D01*
X98286444Y-71672354D01*
X98288149Y-71671461D01*
X98294445Y-71668888D01*
X98301520Y-71667026D01*
X98309122Y-71666190D01*
X98317903Y-71666267D01*
G37*
%TO.C,C30_BEC1*%
D17*
X123212649Y-63473000D02*
X121762649Y-63473000D01*
X121762649Y-60823000D01*
X123212649Y-60823000D01*
X123212649Y-63473000D01*
%TO.C,C32_BEC1*%
X129907649Y-62316749D02*
X129207649Y-62316749D01*
X129207649Y-60806749D01*
X129907649Y-60806749D01*
X129907649Y-62316749D01*
%TO.C,C34_BEC1*%
X123762648Y-56287999D02*
X124962648Y-56287999D01*
X124962648Y-58487999D01*
X123762648Y-58487999D01*
X123762648Y-56287999D01*
%TO.C,R32*%
X92852649Y-76610500D02*
X93752649Y-76610500D01*
X93752649Y-76110500D01*
X92852649Y-76110500D01*
X92852649Y-76610500D01*
D18*
%TO.C,G\u002A\u002A\u002A*%
G36*
X110268397Y-55510973D02*
G01*
X110278394Y-55512902D01*
X110288169Y-55516429D01*
X110297320Y-55521361D01*
X110305450Y-55527505D01*
X110312157Y-55534668D01*
X110312800Y-55535649D01*
X110314443Y-55538341D01*
X110316976Y-55542581D01*
X110320338Y-55548268D01*
X110324473Y-55555300D01*
X110329319Y-55563574D01*
X110334820Y-55572989D01*
X110340915Y-55583443D01*
X110347546Y-55594835D01*
X110354654Y-55607061D01*
X110362180Y-55620021D01*
X110370066Y-55633613D01*
X110378252Y-55647734D01*
X110386679Y-55662282D01*
X110395290Y-55677157D01*
X110404023Y-55692255D01*
X110412822Y-55707475D01*
X110421627Y-55722715D01*
X110430378Y-55737873D01*
X110439018Y-55752848D01*
X110447488Y-55767537D01*
X110455728Y-55781839D01*
X110463679Y-55795651D01*
X110471283Y-55808872D01*
X110478481Y-55821400D01*
X110485214Y-55833133D01*
X110491423Y-55843968D01*
X110497049Y-55853805D01*
X110502033Y-55862542D01*
X110506317Y-55870075D01*
X110509841Y-55876304D01*
X110512547Y-55881127D01*
X110514375Y-55884441D01*
X110515268Y-55886146D01*
X110517841Y-55892442D01*
X110519703Y-55899517D01*
X110520539Y-55907119D01*
X110520462Y-55915900D01*
X110519645Y-55924194D01*
X110517910Y-55931652D01*
X110515041Y-55938656D01*
X110510802Y-55945937D01*
X110510616Y-55946220D01*
X110504129Y-55954422D01*
X110496383Y-55961488D01*
X110487832Y-55967003D01*
X110487136Y-55967367D01*
X110484152Y-55968909D01*
X110481488Y-55970193D01*
X110478930Y-55971245D01*
X110476270Y-55972089D01*
X110473296Y-55972751D01*
X110469798Y-55973257D01*
X110465564Y-55973631D01*
X110460384Y-55973898D01*
X110454047Y-55974084D01*
X110446343Y-55974215D01*
X110437060Y-55974314D01*
X110425988Y-55974409D01*
X110381747Y-55974776D01*
X110381488Y-56190461D01*
X110381229Y-56406146D01*
X110378027Y-56412906D01*
X110374085Y-56419484D01*
X110368135Y-56425980D01*
X110360921Y-56431136D01*
X110352729Y-56434709D01*
X110351731Y-56434806D01*
X110348820Y-56434914D01*
X110344183Y-56435013D01*
X110337966Y-56435100D01*
X110330320Y-56435175D01*
X110321391Y-56435237D01*
X110311330Y-56435286D01*
X110300285Y-56435320D01*
X110288404Y-56435337D01*
X110275836Y-56435338D01*
X110262729Y-56435320D01*
X110175229Y-56435146D01*
X110169729Y-56432546D01*
X110168705Y-56432045D01*
X110161201Y-56427140D01*
X110154916Y-56420700D01*
X110149995Y-56412869D01*
X110146229Y-56405250D01*
X110145966Y-56189948D01*
X110145703Y-55974645D01*
X110104966Y-55974638D01*
X110093800Y-55974619D01*
X110084170Y-55974555D01*
X110076119Y-55974434D01*
X110069435Y-55974241D01*
X110063906Y-55973961D01*
X110059321Y-55973582D01*
X110055466Y-55973089D01*
X110052129Y-55972469D01*
X110049098Y-55971707D01*
X110046161Y-55970790D01*
X110040951Y-55968695D01*
X110032275Y-55963687D01*
X110024309Y-55957193D01*
X110017425Y-55949534D01*
X110011990Y-55941031D01*
X110010793Y-55938642D01*
X110007315Y-55929936D01*
X110005366Y-55921193D01*
X110004759Y-55911646D01*
X110004760Y-55911174D01*
X110005514Y-55901115D01*
X110007744Y-55891978D01*
X110011579Y-55883228D01*
X110011882Y-55882671D01*
X110013340Y-55880071D01*
X110015697Y-55875921D01*
X110018895Y-55870323D01*
X110022876Y-55863379D01*
X110027578Y-55855191D01*
X110032943Y-55845864D01*
X110038912Y-55835498D01*
X110045425Y-55824197D01*
X110052423Y-55812064D01*
X110059846Y-55799201D01*
X110067636Y-55785710D01*
X110075732Y-55771694D01*
X110084075Y-55757256D01*
X110092606Y-55742498D01*
X110101266Y-55727523D01*
X110109995Y-55712434D01*
X110118734Y-55697333D01*
X110127424Y-55682323D01*
X110136004Y-55667506D01*
X110144416Y-55652985D01*
X110152601Y-55638862D01*
X110160499Y-55625241D01*
X110168050Y-55612223D01*
X110175195Y-55599912D01*
X110181875Y-55588410D01*
X110188031Y-55577819D01*
X110193603Y-55568242D01*
X110198532Y-55559782D01*
X110202758Y-55552542D01*
X110206222Y-55546623D01*
X110208865Y-55542130D01*
X110210627Y-55539163D01*
X110211449Y-55537826D01*
X110216929Y-55531075D01*
X110224562Y-55524294D01*
X110233320Y-55518659D01*
X110242820Y-55514373D01*
X110252682Y-55511640D01*
X110262522Y-55510663D01*
X110268397Y-55510973D01*
G37*
%TO.C,C29_BEC1*%
D17*
X124962649Y-63473000D02*
X123512649Y-63473000D01*
X123512649Y-60823000D01*
X124962649Y-60823000D01*
X124962649Y-63473000D01*
%TO.C,R30_BEC1*%
X127368899Y-58427999D02*
X128878899Y-58427999D01*
X128878899Y-57727999D01*
X127368899Y-57727999D01*
X127368899Y-58427999D01*
D19*
%TO.C,U11*%
X99390149Y-63568000D02*
X99915149Y-63568000D01*
X99390149Y-64093000D02*
X99390149Y-63568000D01*
X99390149Y-67568000D02*
X99390149Y-67043000D01*
X99915149Y-67568000D02*
X99390149Y-67568000D01*
X102865149Y-63568000D02*
X103390149Y-63568000D01*
X103390149Y-64093000D02*
X103390149Y-63568000D01*
X103390149Y-67043000D02*
X103390149Y-67568000D01*
X103390149Y-67568000D02*
X102865149Y-67568000D01*
D13*
X98910149Y-67558000D02*
G75*
G02*
X98710149Y-67558000I-100000J0D01*
G01*
X98710149Y-67558000D02*
G75*
G02*
X98910149Y-67558000I100000J0D01*
G01*
%TO.C,SW2*%
D20*
X95757649Y-71958000D02*
X93057649Y-71958000D01*
X93057649Y-66958000D01*
X95757649Y-66958000D01*
X95757649Y-71958000D01*
%TO.C,C35_BEC1*%
D17*
X122387649Y-56287999D02*
X123587649Y-56287999D01*
X123587649Y-58487999D01*
X122387649Y-58487999D01*
X122387649Y-56287999D01*
%TO.C,C14*%
X112907649Y-73348000D02*
X113407649Y-73348000D01*
X113407649Y-74248000D01*
X112907649Y-74248000D01*
X112907649Y-73348000D01*
D18*
%TO.C,G\u002A\u002A\u002A*%
G36*
X119055549Y-87540187D02*
G01*
X119063843Y-87541004D01*
X119071301Y-87542739D01*
X119078305Y-87545608D01*
X119085586Y-87549847D01*
X119085869Y-87550033D01*
X119094071Y-87556520D01*
X119101137Y-87564266D01*
X119106652Y-87572817D01*
X119107016Y-87573513D01*
X119108558Y-87576497D01*
X119109842Y-87579161D01*
X119110894Y-87581719D01*
X119111738Y-87584379D01*
X119112400Y-87587353D01*
X119112906Y-87590851D01*
X119113280Y-87595085D01*
X119113547Y-87600265D01*
X119113733Y-87606602D01*
X119113864Y-87614306D01*
X119113963Y-87623589D01*
X119114058Y-87634661D01*
X119114425Y-87678902D01*
X119330110Y-87679161D01*
X119545795Y-87679420D01*
X119552555Y-87682622D01*
X119559133Y-87686564D01*
X119565629Y-87692514D01*
X119570785Y-87699728D01*
X119574358Y-87707920D01*
X119574455Y-87708918D01*
X119574563Y-87711829D01*
X119574662Y-87716466D01*
X119574749Y-87722683D01*
X119574824Y-87730329D01*
X119574886Y-87739258D01*
X119574935Y-87749319D01*
X119574969Y-87760364D01*
X119574986Y-87772245D01*
X119574987Y-87784813D01*
X119574969Y-87797920D01*
X119574795Y-87885420D01*
X119572195Y-87890920D01*
X119571694Y-87891944D01*
X119566789Y-87899448D01*
X119560349Y-87905733D01*
X119552518Y-87910654D01*
X119544899Y-87914420D01*
X119329597Y-87914683D01*
X119114294Y-87914946D01*
X119114287Y-87955683D01*
X119114268Y-87966849D01*
X119114204Y-87976479D01*
X119114083Y-87984530D01*
X119113890Y-87991214D01*
X119113610Y-87996743D01*
X119113231Y-88001328D01*
X119112738Y-88005183D01*
X119112118Y-88008520D01*
X119111356Y-88011551D01*
X119110439Y-88014488D01*
X119108344Y-88019698D01*
X119103336Y-88028374D01*
X119096842Y-88036340D01*
X119089183Y-88043224D01*
X119080680Y-88048659D01*
X119078291Y-88049856D01*
X119069585Y-88053334D01*
X119060842Y-88055283D01*
X119051295Y-88055890D01*
X119050823Y-88055889D01*
X119040764Y-88055135D01*
X119031627Y-88052905D01*
X119022877Y-88049070D01*
X119022320Y-88048767D01*
X119019720Y-88047309D01*
X119015570Y-88044952D01*
X119009972Y-88041754D01*
X119003028Y-88037773D01*
X118994840Y-88033071D01*
X118985513Y-88027706D01*
X118975147Y-88021737D01*
X118963846Y-88015224D01*
X118951713Y-88008226D01*
X118938850Y-88000803D01*
X118925359Y-87993013D01*
X118911343Y-87984917D01*
X118896905Y-87976574D01*
X118882147Y-87968043D01*
X118867172Y-87959383D01*
X118852083Y-87950654D01*
X118836982Y-87941915D01*
X118821972Y-87933225D01*
X118807155Y-87924645D01*
X118792634Y-87916233D01*
X118778511Y-87908048D01*
X118764890Y-87900150D01*
X118751872Y-87892599D01*
X118739561Y-87885454D01*
X118728059Y-87878774D01*
X118717468Y-87872618D01*
X118707891Y-87867046D01*
X118699431Y-87862117D01*
X118692191Y-87857891D01*
X118686272Y-87854427D01*
X118681779Y-87851784D01*
X118678812Y-87850022D01*
X118677475Y-87849200D01*
X118670724Y-87843720D01*
X118663943Y-87836087D01*
X118658308Y-87827329D01*
X118654022Y-87817829D01*
X118651289Y-87807967D01*
X118650312Y-87798127D01*
X118650622Y-87792252D01*
X118652551Y-87782255D01*
X118656078Y-87772480D01*
X118661010Y-87763329D01*
X118667154Y-87755199D01*
X118674317Y-87748492D01*
X118675298Y-87747849D01*
X118677990Y-87746206D01*
X118682230Y-87743673D01*
X118687917Y-87740311D01*
X118694949Y-87736176D01*
X118703223Y-87731330D01*
X118712638Y-87725829D01*
X118723092Y-87719734D01*
X118734484Y-87713103D01*
X118746710Y-87705995D01*
X118759670Y-87698469D01*
X118773262Y-87690583D01*
X118787383Y-87682397D01*
X118801931Y-87673970D01*
X118816806Y-87665359D01*
X118831904Y-87656626D01*
X118847124Y-87647827D01*
X118862364Y-87639022D01*
X118877522Y-87630271D01*
X118892497Y-87621631D01*
X118907186Y-87613161D01*
X118921488Y-87604921D01*
X118935300Y-87596970D01*
X118948521Y-87589366D01*
X118961049Y-87582168D01*
X118972782Y-87575435D01*
X118983617Y-87569226D01*
X118993454Y-87563600D01*
X119002191Y-87558616D01*
X119009724Y-87554332D01*
X119015953Y-87550808D01*
X119020776Y-87548102D01*
X119024090Y-87546274D01*
X119025795Y-87545381D01*
X119032091Y-87542808D01*
X119039166Y-87540946D01*
X119046768Y-87540110D01*
X119055549Y-87540187D01*
G37*
D20*
%TO.C,L3*%
X104418899Y-63908000D02*
X104418899Y-62808000D01*
X105318899Y-63908000D02*
X105318899Y-62808000D01*
D17*
X104193899Y-61783000D02*
X105543899Y-61783000D01*
X105543899Y-64933000D01*
X104193899Y-64933000D01*
X104193899Y-61783000D01*
D20*
%TO.C,J8*%
X107959077Y-50828000D02*
X107959077Y-53278000D01*
X107959077Y-53278000D02*
X109059077Y-53278000D01*
D13*
X116859077Y-49028000D02*
X109059077Y-49028000D01*
D20*
X117959077Y-50828000D02*
X117959077Y-53278000D01*
X117959077Y-53278000D02*
X116859077Y-53278000D01*
D21*
X108550497Y-52828000D02*
G75*
G02*
X108267657Y-52828000I-141420J0D01*
G01*
X108267657Y-52828000D02*
G75*
G02*
X108550497Y-52828000I141420J0D01*
G01*
%TO.C,C31*%
D17*
X104193899Y-65568000D02*
X105093899Y-65568000D01*
X105093899Y-65068000D01*
X104193899Y-65068000D01*
X104193899Y-65568000D01*
%TO.C,R31_BEC1*%
X126938899Y-57727999D02*
X125428899Y-57727999D01*
X125428899Y-58427999D01*
X126938899Y-58427999D01*
X126938899Y-57727999D01*
%TO.C,R3*%
X105017649Y-68198000D02*
X105517649Y-68198000D01*
X105517649Y-69098000D01*
X105017649Y-69098000D01*
X105017649Y-68198000D01*
%TO.C,C29*%
X97293899Y-66613000D02*
X97793899Y-66613000D01*
X97793899Y-67513000D01*
X97293899Y-67513000D01*
X97293899Y-66613000D01*
%TD*%
M02*
